<svg width="167" height="120" viewBox="0 0 167 120" fill="none" xmlns="http://www.w3.org/2000/svg">
<path d="M64.4475 37.2062H64.3475C64.25 37.1951 64.1558 37.1647 64.0701 37.1168C63.9845 37.0689 63.9093 37.0044 63.8488 36.9272C63.7883 36.85 63.7438 36.7615 63.7178 36.6669C63.6918 36.5723 63.6849 36.4735 63.6975 36.3762C64.2175 32.1462 67.0975 11.0162 72.2775 9.58616C72.4698 9.53311 72.6753 9.55865 72.8487 9.65711C73.0222 9.75557 73.1495 9.9189 73.2025 10.1112C73.2555 10.3035 73.23 10.5089 73.1316 10.6824C73.0331 10.8559 72.8698 10.9831 72.6775 11.0362C69.4175 11.9362 66.3475 27.1662 65.1875 36.5562C65.1634 36.7356 65.0752 36.9002 64.9392 37.0197C64.8032 37.1391 64.6285 37.2054 64.4475 37.2062Z" fill="#364436"/>
<path d="M94.3274 38.1862C94.1888 38.1865 94.0528 38.1483 93.9345 38.076C93.8162 38.0036 93.7203 37.8998 93.6574 37.7762C90.1574 30.8862 80.1074 12.6562 75.6574 11.0062C75.4704 10.9373 75.3185 10.7968 75.2351 10.6159C75.1516 10.4349 75.1435 10.2282 75.2124 10.0412C75.2814 9.85425 75.4218 9.70232 75.6028 9.61886C75.7837 9.53541 75.9904 9.52726 76.1774 9.59622C81.9674 11.7562 93.6574 34.5162 94.9774 37.0962C95.0648 37.2728 95.0792 37.4767 95.0174 37.6639C94.9557 37.851 94.8228 38.0063 94.6474 38.0962C94.5499 38.1522 94.4399 38.1832 94.3274 38.1862Z" fill="#364436"/>
<path d="M130.087 98.3062L126.827 101.536C126.011 102.251 124.962 102.642 123.877 102.636H43.1973C41.7915 102.624 40.4405 102.09 39.4073 101.136C38.3528 100.214 37.6644 98.9434 37.4673 97.5562L30.3773 44.1762C30.3326 43.8176 30.3326 43.4548 30.3773 43.0962C30.3672 43.0568 30.3672 43.0156 30.3773 42.9762C30.4861 41.9469 30.9576 40.9898 31.7073 40.2762L34.9073 37.1062L35.4673 39.1062H115.467C116.866 39.1504 118.206 39.6824 119.254 40.6101C120.303 41.5378 120.993 42.8028 121.207 44.1862L128.307 97.5762C129.237 97.9162 130.087 98.3062 130.087 98.3062Z" fill="#567A56"/>
<path d="M128.257 97.5362L42.2574 97.6662L39.3774 101.086C38.3229 100.164 37.6345 98.8933 37.4374 97.5061L30.3474 44.1262C30.3113 43.7671 30.3113 43.4053 30.3474 43.0462C30.3372 43.0068 30.3372 42.9655 30.3474 42.9262C30.4562 41.8968 30.9276 40.9398 31.6774 40.2262L34.8774 37.0562L35.4374 39.0562H115.437C116.836 39.1004 118.176 39.6324 119.224 40.5601C120.273 41.4878 120.963 42.7528 121.177 44.1362L128.277 97.5262C128.27 97.5286 128.264 97.532 128.257 97.5362Z" fill="#95AF95"/>
<path d="M127.036 99.4561H46.3763C44.9754 99.4141 43.6335 98.8832 42.5832 97.9553C41.5329 97.0274 40.8405 95.7611 40.6263 94.3761L33.5363 40.9861C33.4249 40.3525 33.4557 39.7021 33.6266 39.0819C33.7975 38.4617 34.104 37.8872 34.5242 37.4C34.9444 36.9129 35.4676 36.5252 36.0559 36.2651C36.6443 36.005 37.2832 35.8789 37.9263 35.8961H118.586C119.987 35.9407 121.328 36.4741 122.376 37.4039C123.425 38.3336 124.114 39.6009 124.326 40.9861L131.426 94.3761C131.534 95.0087 131.501 95.6573 131.328 96.2755C131.156 96.8936 130.849 97.466 130.429 97.9515C130.01 98.4371 129.488 98.8238 128.901 99.0839C128.315 99.344 127.678 99.4711 127.036 99.4561Z" fill="#6F936F"/>
<path d="M131.427 94.3662L124.327 40.9762C124.115 39.591 123.425 38.3237 122.377 37.394C121.328 36.4643 119.988 35.9308 118.587 35.8862H37.927C36.789 35.8748 35.69 36.3007 34.857 37.0762L31.637 40.2362C30.8872 40.9498 30.4158 41.9069 30.307 42.9362C30.2968 42.9756 30.2968 43.0168 30.307 43.0562C30.2622 43.4148 30.2622 43.7776 30.307 44.1362L37.447 97.5362C37.6441 98.9234 38.3325 100.194 39.387 101.116C40.4202 102.07 41.7712 102.604 43.177 102.616H123.837C124.922 102.622 125.971 102.231 126.787 101.516L130.047 98.3062C130.582 97.813 130.988 97.1956 131.229 96.5085C131.47 95.8214 131.538 95.0858 131.427 94.3662Z" fill="url(#paint0_linear_165_2414)"/>
<path d="M123.187 94.8562H48.6874C47.9549 94.8624 47.2455 94.6004 46.6928 94.1196C46.1402 93.6388 45.7826 92.9725 45.6874 92.2462L44.6874 85.4461L39.8074 50.7761L39.0174 45.1962L38.8574 44.0462C38.7889 43.6147 38.8155 43.1735 38.9353 42.7533C39.0551 42.3332 39.2652 41.9444 39.5509 41.6139C39.8366 41.2834 40.191 41.0193 40.5894 40.8401C40.9878 40.6608 41.4206 40.5708 41.8574 40.5762H116.707C117.443 40.5705 118.155 40.8353 118.708 41.3202C119.261 41.8051 119.617 42.4762 119.707 43.2062L119.937 44.9361L126.137 91.3461C126.212 91.7764 126.191 92.2176 126.077 92.6391C125.963 93.0606 125.759 93.4521 125.478 93.7863C125.197 94.1206 124.846 94.3895 124.451 94.5742C124.055 94.759 123.624 94.8552 123.187 94.8562Z" fill="#F2F2F2"/>
<mask id="mask0_165_2414" style="mask-type:alpha" maskUnits="userSpaceOnUse" x="38" y="40" width="89" height="55">
<path d="M123.187 94.8562H48.6874C47.9549 94.8624 47.2455 94.6004 46.6928 94.1196C46.1402 93.6388 45.7826 92.9725 45.6874 92.2462L44.6874 85.4461L39.8074 50.7761L39.0174 45.1962L38.8574 44.0462C38.7889 43.6147 38.8155 43.1735 38.9353 42.7533C39.0551 42.3332 39.2652 41.9444 39.5509 41.6139C39.8366 41.2834 40.191 41.0193 40.5894 40.8401C40.9878 40.6608 41.4206 40.5708 41.8574 40.5762H116.707C117.443 40.5705 118.155 40.8353 118.708 41.3202C119.261 41.8051 119.617 42.4762 119.707 43.2062L119.937 44.9361L126.137 91.3461C126.212 91.7764 126.191 92.2176 126.077 92.6391C125.963 93.0606 125.759 93.4521 125.478 93.7863C125.197 94.1206 124.846 94.3895 124.451 94.5742C124.055 94.759 123.624 94.8552 123.187 94.8562Z" fill="#F2F2F2"/>
</mask>
<g mask="url(#mask0_165_2414)">
<path d="M123.636 94.8161C123.861 94.3148 123.938 93.7595 123.856 93.2161L117.756 47.3761L117.516 45.6661C117.421 44.9398 117.064 44.2734 116.511 43.7927C115.958 43.3119 115.249 43.0499 114.516 43.0561H38.1562C38.3013 42.369 38.8753 41.3471 39.4219 40.9063C39.9684 40.4654 41.0165 39.6839 41.7188 39.6875L116.746 40.6361C117.482 40.6305 118.194 40.8953 118.747 41.3801C119.3 41.865 119.656 42.5362 119.746 43.2661L119.977 44.9961L126.273 91.3984C126.331 91.7892 126.44 92.1715 126.344 92.5547C126.247 92.9378 126.299 93.4019 126.062 93.7188C125.826 94.0356 125.269 94.3683 124.93 94.5703C124.59 94.7724 124.028 94.7598 123.636 94.8161Z" fill="#567A56"/>
</g>
<path d="M123.638 94.8162C123.491 94.8314 123.344 94.8314 123.198 94.8162H48.6976C47.9636 94.8221 47.2529 94.5587 46.7 94.0758C46.1472 93.593 45.7905 92.9242 45.6976 92.1961L44.6976 85.4061L39.8175 50.7362L39.0276 45.1461L38.8676 44.0062C38.8124 43.6583 38.8124 43.304 38.8676 42.9562H114.488C115.22 42.95 115.929 43.2119 116.482 43.6927C117.035 44.1735 117.392 44.8399 117.488 45.5661L117.728 47.2761L123.828 93.1162C123.938 93.689 123.872 94.282 123.638 94.8162Z" fill="#F2F2F2"/>
<path d="M58.1762 59.286C53.4462 59.286 48.9462 57.356 48.1262 54.976C47.9951 54.6156 47.9567 54.2281 48.0143 53.8489C48.072 53.4698 48.2239 53.1111 48.4562 52.806C49.4562 51.346 52.1362 50.426 55.3762 50.416H55.4562C60.1962 50.416 64.6962 52.346 65.5162 54.726C65.6446 55.0869 65.6817 55.4739 65.6241 55.8525C65.5665 56.2312 65.4161 56.5896 65.1862 56.896C64.1862 58.356 61.4962 59.276 58.2662 59.286H58.1762ZM55.4662 50.916H55.3762C52.3062 50.916 49.8062 51.766 48.8562 53.096C48.6744 53.3371 48.5555 53.6196 48.5101 53.9182C48.4647 54.2167 48.4943 54.5218 48.5962 54.806C49.3562 57.006 53.6462 58.806 58.1762 58.806H58.2562C61.3362 58.806 63.8362 57.956 64.7762 56.626C64.9605 56.3862 65.081 56.1035 65.1265 55.8045C65.172 55.5055 65.1409 55.1998 65.0362 54.916C64.2862 52.686 59.9962 50.916 55.4662 50.916Z" fill="#4D4D4D"/>
<path d="M73.6378 65.3961C69.9278 65.3961 66.5278 63.9261 65.8778 62.0461C65.7777 61.7599 65.749 61.4536 65.7943 61.1538C65.8396 60.854 65.9576 60.5699 66.1378 60.3261C66.9378 59.1961 68.9978 58.4861 71.4978 58.4761H71.5578C75.2678 58.4761 78.6678 59.9361 79.3178 61.8261C79.422 62.1094 79.4537 62.4142 79.4101 62.7128C79.3664 63.0115 79.2487 63.2945 79.0678 63.5361C78.2578 64.6661 76.2078 65.3861 73.7078 65.3961H73.6378ZM71.5578 58.9761H71.4978C69.1878 58.9761 67.2478 59.6361 66.4978 60.6161C66.3606 60.7941 66.2712 61.0042 66.238 61.2264C66.2047 61.4487 66.2288 61.6757 66.3078 61.8861C66.8778 63.5461 70.1378 64.8861 73.5878 64.8861H73.6578C75.9578 64.8861 77.9078 64.2261 78.6078 63.2361C78.7424 63.0587 78.8303 62.8505 78.8635 62.6303C78.8967 62.4102 78.8741 62.1852 78.7978 61.9761C78.2678 60.3161 75.0078 58.9761 71.5478 58.9761H71.5578Z" fill="#4D4D4D"/>
<path d="M53.2675 72.2461C49.7875 72.2461 46.5875 70.8661 45.9775 69.0961C45.881 68.8266 45.8534 68.5373 45.8971 68.2544C45.9407 67.9715 46.0543 67.704 46.2275 67.4761C46.9775 66.4061 48.9075 65.7461 51.2275 65.7261H51.2875C54.7675 65.7261 57.9575 67.1061 58.5675 68.8761C58.6653 69.1448 58.6945 69.4336 58.6526 69.7165C58.6107 69.9993 58.499 70.2673 58.3275 70.4961C57.5675 71.5661 55.6475 72.2261 53.3275 72.2461H53.2675ZM51.3175 66.2461H51.2575C49.0975 66.2461 47.2575 66.8661 46.6375 67.7861C46.5115 67.9502 46.4289 68.1435 46.3974 68.348C46.366 68.5525 46.3866 68.7616 46.4575 68.9561C46.9775 70.4861 50.0975 71.7661 53.2675 71.7661H53.3275C55.4775 71.7661 57.3275 71.1461 57.9475 70.2261C58.0735 70.0619 58.156 69.8686 58.1875 69.6641C58.2189 69.4596 58.1983 69.2505 58.1275 69.0561C57.6375 67.5361 54.4875 66.2261 51.3175 66.2261V66.2461Z" fill="#4D4D4D"/>
<path d="M57.5561 86.1862C53.7061 86.1862 50.1861 84.6661 49.5561 82.7261C49.4504 82.4319 49.4197 82.116 49.4668 81.8069C49.514 81.4979 49.6374 81.2054 49.8261 80.9561C50.6561 79.7761 52.8261 79.0461 55.3661 79.0361H55.436C59.276 79.0361 62.796 80.5462 63.436 82.4962C63.5418 82.7904 63.5725 83.1063 63.5253 83.4153C63.4782 83.7244 63.3547 84.0168 63.1661 84.2661C62.3361 85.4361 60.1661 86.1762 57.6161 86.1862H57.5561ZM55.3961 79.5361H55.3261C52.9361 79.5361 50.916 80.2161 50.186 81.2361C50.0454 81.4221 49.9535 81.6402 49.9186 81.8707C49.8837 82.1012 49.9069 82.3369 49.9861 82.5562C50.5861 84.2862 53.9861 85.6862 57.5561 85.6862H57.6361C60.0361 85.6862 62.0461 85.0061 62.7761 83.9761C62.9167 83.7902 63.0086 83.572 63.0435 83.3415C63.0785 83.111 63.0553 82.8754 62.9761 82.6561C62.3661 80.9261 58.9761 79.5361 55.3961 79.5361Z" fill="#4D4D4D"/>
<path d="M76.9772 87.5363C73.2872 87.5363 69.8972 86.0862 69.2572 84.2062C69.1553 83.922 69.1257 83.6169 69.1711 83.3184C69.2165 83.0199 69.3354 82.7374 69.5172 82.4963C70.3072 81.3763 72.3572 80.6662 74.8472 80.6562H74.9072C78.5972 80.6562 81.9872 82.1163 82.6272 83.9863C82.7291 84.2705 82.7587 84.5756 82.7133 84.8741C82.6679 85.1726 82.549 85.4551 82.3672 85.6962C81.5772 86.8162 79.5272 87.5263 77.0372 87.5363H76.9772ZM74.9072 81.1562H74.8472C72.5472 81.1562 70.6172 81.8063 69.9172 82.7863C69.7834 82.964 69.696 83.1722 69.6628 83.3922C69.6297 83.6122 69.6518 83.837 69.7272 84.0463C70.2972 85.7063 73.5472 87.0463 76.9772 87.0463H77.0372C79.3372 87.0463 81.2672 86.3963 81.9672 85.4163C82.1018 85.2389 82.1897 85.0306 82.2229 84.8105C82.2561 84.5903 82.2335 84.3654 82.1572 84.1562C81.6372 82.4562 78.3372 81.1163 74.9072 81.1163V81.1562Z" fill="#4D4D4D"/>
<path d="M72.4174 77.6061C68.0974 77.6061 64.2274 76.1461 63.5774 74.2661C63.4874 74.0095 63.4622 73.7346 63.5041 73.4659C63.5459 73.1973 63.6535 72.9431 63.8173 72.7261C64.6973 71.4861 67.1774 70.7261 70.2974 70.7261H70.3874C74.6974 70.7261 78.5673 72.1861 79.2173 74.0661C79.3073 74.3227 79.3325 74.5975 79.2906 74.8662C79.2488 75.1349 79.1412 75.389 78.9773 75.6061C78.0973 76.8561 75.6173 77.6061 72.5073 77.6061H72.4174ZM70.4174 71.1861H70.3374C67.4274 71.1861 65.0474 71.9161 64.2674 73.0161C64.1508 73.1693 64.0742 73.3493 64.0445 73.5396C64.0148 73.7298 64.033 73.9246 64.0973 74.1061C64.6573 75.7361 68.4774 77.1061 72.4574 77.1061H72.5373C75.4473 77.1061 77.8274 76.3761 78.6074 75.2761C78.7248 75.1252 78.8027 74.9474 78.8341 74.7589C78.8656 74.5703 78.8495 74.3768 78.7873 74.196C78.1773 72.536 74.3573 71.1861 70.3773 71.1861H70.4174Z" fill="#4D4D4D"/>
<path d="M68.2666 59.4661C68.2127 59.4648 68.1605 59.4474 68.1166 59.4161L64.8266 56.9561C64.7735 56.9163 64.7385 56.8571 64.7291 56.7915C64.7197 56.7258 64.7368 56.6592 64.7766 56.6061C64.8164 56.5531 64.8756 56.518 64.9412 56.5086C65.0069 56.4992 65.0735 56.5163 65.1266 56.5561L68.4166 59.0161C68.4428 59.0358 68.465 59.0605 68.4817 59.0887C68.4984 59.117 68.5094 59.1483 68.5141 59.1808C68.5187 59.2133 68.5169 59.2463 68.5088 59.2781C68.5006 59.31 68.4863 59.3398 68.4666 59.3661C68.4428 59.3966 68.4125 59.4214 68.3779 59.4387C68.3433 59.456 68.3053 59.4654 68.2666 59.4661Z" fill="#4D4D4D"/>
<path d="M68.8971 71.2562C68.8584 71.2555 68.8204 71.2462 68.7858 71.2289C68.7512 71.2116 68.7209 71.1867 68.6971 71.1562L59.3371 59.1562C59.2973 59.1032 59.2802 59.0365 59.2896 58.9709C59.299 58.9052 59.3341 58.846 59.3871 58.8062C59.4095 58.7823 59.4366 58.7632 59.4667 58.7502C59.4968 58.7372 59.5293 58.7305 59.5621 58.7305C59.5949 58.7305 59.6274 58.7372 59.6575 58.7502C59.6876 58.7632 59.7147 58.7823 59.7371 58.8062L69.0971 70.8062C69.1429 70.853 69.1686 70.9158 69.1686 70.9812C69.1686 71.0467 69.1429 71.1095 69.0971 71.1562C69.0757 71.1892 69.0459 71.216 69.0108 71.2336C68.9756 71.2511 68.9363 71.2589 68.8971 71.2562Z" fill="#4D4D4D"/>
<path d="M53.8075 66.476H53.7275C53.6657 66.4554 53.6144 66.4114 53.5845 66.3535C53.5546 66.2956 53.5485 66.2284 53.5675 66.166L55.9075 58.856C55.9154 58.8237 55.93 58.7935 55.9502 58.7671C55.9705 58.7407 55.996 58.7189 56.0252 58.7029C56.0543 58.6869 56.0864 58.6772 56.1196 58.6743C56.1527 58.6714 56.186 58.6754 56.2175 58.686C56.28 58.7087 56.3315 58.7546 56.3613 58.8141C56.3911 58.8737 56.3968 58.9423 56.3775 59.006L54.0475 66.316C54.0267 66.3626 53.9931 66.4024 53.9507 66.4308C53.9082 66.4591 53.8586 66.4748 53.8075 66.476Z" fill="#4D4D4D"/>
<path d="M55.3269 79.5361C55.2652 79.5322 55.2067 79.5072 55.1611 79.4654C55.1156 79.4235 55.0859 79.3673 55.0769 79.3061L54.2168 72.0161C54.2127 71.9832 54.2151 71.9499 54.2239 71.918C54.2327 71.886 54.2478 71.8561 54.2683 71.8301C54.2887 71.804 54.3142 71.7823 54.3431 71.7662C54.3721 71.75 54.4039 71.7398 54.4368 71.7361C54.4697 71.732 54.5031 71.7343 54.535 71.7432C54.567 71.752 54.5968 71.7671 54.6229 71.7875C54.6489 71.808 54.6706 71.8335 54.6868 71.8624C54.7029 71.8914 54.7131 71.9232 54.7168 71.9561L55.5769 79.2561C55.581 79.2884 55.5786 79.3213 55.5696 79.3526C55.5607 79.3839 55.5455 79.4131 55.5249 79.4384C55.5043 79.4637 55.4788 79.4845 55.4499 79.4996C55.421 79.5146 55.3894 79.5237 55.3569 79.5261L55.3269 79.5361Z" fill="#4D4D4D"/>
<path d="M70.2066 85.386H70.1467L63.2066 83.656C63.1426 83.6373 63.0882 83.5947 63.0547 83.537C63.0212 83.4793 63.0111 83.4109 63.0267 83.346C63.0348 83.3136 63.0493 83.2831 63.0694 83.2564C63.0895 83.2297 63.1147 83.2073 63.1436 83.1905C63.1725 83.1738 63.2045 83.1629 63.2377 83.1587C63.2708 83.1545 63.3045 83.157 63.3367 83.166L70.2666 84.896C70.3329 84.9039 70.3934 84.9379 70.4346 84.9904C70.4759 85.0429 70.4946 85.1097 70.4866 85.176C70.4787 85.2423 70.4447 85.3027 70.3922 85.344C70.3397 85.3852 70.273 85.4039 70.2066 85.396V85.386Z" fill="#4D4D4D"/>
<path d="M68.8578 62.2861L68.7578 61.7961C69.042 61.7422 69.3292 61.7055 69.6178 61.6861C69.7778 61.6861 69.9378 61.6861 70.0878 61.6861C70.3295 61.7262 70.5761 61.7262 70.8178 61.6861H70.9278L71.1178 61.6361C71.4019 61.5816 71.6937 61.5816 71.9778 61.6361C72.1838 61.6861 72.3965 61.7029 72.6078 61.6861H72.7478H72.9178C73.1927 61.6413 73.4729 61.6413 73.7478 61.6861C73.9732 61.7194 74.2024 61.7194 74.4278 61.6861H74.5878H74.7878C75.0723 61.6364 75.3633 61.6364 75.6478 61.6861C75.8833 61.7198 76.1223 61.7198 76.3578 61.6861C76.3894 61.6772 76.4224 61.6748 76.4549 61.6791C76.4874 61.6834 76.5186 61.6944 76.5468 61.7112C76.5749 61.7281 76.5992 61.7505 76.6183 61.7772C76.6374 61.8038 76.6509 61.8341 76.6578 61.8661C76.6652 61.8983 76.6661 61.9316 76.6606 61.9642C76.655 61.9967 76.643 62.0278 76.6253 62.0557C76.6077 62.0836 76.5847 62.1077 76.5576 62.1267C76.5306 62.1456 76.5 62.159 76.4678 62.1661C76.1737 62.2209 75.872 62.2209 75.5778 62.1661C75.3461 62.1273 75.1095 62.1273 74.8778 62.1661H74.7278L74.5078 62.2161C74.233 62.2609 73.9527 62.2609 73.6778 62.2161C73.4557 62.1831 73.2299 62.1831 73.0078 62.2161H72.8778H72.6878C72.4202 62.2444 72.1498 62.2275 71.8878 62.1661C71.6694 62.1282 71.4462 62.1282 71.2278 62.1661H71.0878L70.9378 62.2161C70.6433 62.2663 70.3424 62.2663 70.0478 62.2161C69.9015 62.2015 69.7541 62.2015 69.6078 62.2161C69.3562 62.2158 69.1051 62.2393 68.8578 62.2861Z" fill="#4D4D4D"/>
<path d="M52.9266 83.6661C52.8686 83.6655 52.8124 83.6454 52.7671 83.6092C52.7218 83.5729 52.69 83.5226 52.6766 83.4661C52.6671 83.4002 52.6823 83.3332 52.7192 83.2778C52.7561 83.2224 52.8121 83.1827 52.8766 83.1661C53.1608 83.0932 53.4531 83.0563 53.7466 83.0561H54.2166C54.4549 83.0964 54.6983 83.0964 54.9366 83.0561H55.0566L55.2466 82.9961C55.5273 82.9414 55.8159 82.9414 56.0966 82.9961C56.3087 83.0287 56.5245 83.0287 56.7366 82.9961H56.8666H57.0466C57.3215 82.9515 57.6017 82.9515 57.8766 82.9961C58.0987 83.0293 58.3245 83.0293 58.5466 82.9961H58.7066H58.9166C59.1982 82.9514 59.485 82.9514 59.7666 82.9961C60.005 83.0348 60.2481 83.0348 60.4866 82.9961C60.5188 82.9888 60.5521 82.9878 60.5846 82.9934C60.6172 82.999 60.6483 83.0109 60.6762 83.0286C60.7041 83.0463 60.7282 83.0693 60.7471 83.0963C60.7661 83.1233 60.7795 83.1539 60.7866 83.1861C60.7988 83.2509 60.7861 83.3179 60.7508 83.3736C60.7155 83.4293 60.6604 83.4695 60.5966 83.4861C60.2991 83.5408 59.9941 83.5408 59.6966 83.4861C59.4678 83.4523 59.2353 83.4523 59.0066 83.4861H58.8466H58.6366C58.3588 83.5357 58.0744 83.5357 57.7966 83.4861C57.5741 83.4579 57.349 83.4579 57.1266 83.4861H56.9966H56.8066C56.5418 83.511 56.2746 83.4907 56.0166 83.4261C55.7948 83.3885 55.5683 83.3885 55.3466 83.4261H55.2166H55.0666C54.7687 83.4761 54.4645 83.4761 54.1666 83.4261H53.7466C53.4909 83.4384 53.2367 83.4719 52.9866 83.5261L52.9266 83.6661Z" fill="#4D4D4D"/>
<path d="M48.7478 69.3261C48.7055 69.3255 48.664 69.3142 48.6273 69.2932C48.5906 69.2722 48.5598 69.2423 48.5378 69.2061C48.5198 69.1788 48.5075 69.1482 48.5018 69.116C48.496 69.0838 48.4969 69.0507 48.5044 69.0189C48.5119 68.987 48.5258 68.9571 48.5453 68.9308C48.5648 68.9045 48.5895 68.8825 48.6178 68.8662C48.7707 68.7639 48.9453 68.6989 49.1278 68.6761C49.3036 68.6741 49.4788 68.6977 49.6478 68.7462L49.9978 68.8062C50.0543 68.8118 50.1113 68.8118 50.1678 68.8062H50.2878C50.5204 68.7812 50.7551 68.7812 50.9878 68.8062C51.0208 68.8071 51.0533 68.8151 51.0829 68.8297C51.1126 68.8443 51.1387 68.8651 51.1596 68.8907C51.1805 68.9164 51.1956 68.9462 51.2039 68.9782C51.2122 69.0102 51.2136 69.0436 51.2078 69.0761C51.2053 69.109 51.1963 69.141 51.1813 69.1704C51.1663 69.1998 51.1457 69.2259 51.1206 69.2473C51.0955 69.2687 51.0665 69.2849 51.0351 69.295C51.0037 69.3051 50.9706 69.3089 50.9378 69.3062C50.7449 69.2867 50.5506 69.2867 50.3578 69.3062H50.2578H50.0078C49.8491 69.2998 49.6915 69.2763 49.5378 69.2361C49.4133 69.204 49.2861 69.1839 49.1578 69.1761C49.0605 69.1916 48.9681 69.2292 48.8878 69.2861C48.8461 69.3131 48.7974 69.327 48.7478 69.3261Z" fill="#4D4D4D"/>
<path d="M73.4473 74.536C73.4045 74.5364 73.3623 74.5267 73.324 74.5075C73.2858 74.4884 73.2526 74.4605 73.2273 74.426C73.194 74.3674 73.1848 74.2981 73.2015 74.2328C73.2183 74.1675 73.2598 74.1113 73.3173 74.076C73.4647 73.972 73.6375 73.9098 73.8173 73.896C73.9927 73.8901 74.1679 73.9104 74.3373 73.956L74.6873 74.016H74.8573H74.9873C75.2133 73.991 75.4413 73.991 75.6673 74.016C75.7002 74.0185 75.7322 74.0275 75.7616 74.0425C75.791 74.0575 75.8171 74.0781 75.8385 74.1032C75.8599 74.1283 75.8761 74.1574 75.8862 74.1887C75.8962 74.2201 75.9001 74.2532 75.8973 74.286C75.8976 74.3189 75.8908 74.3515 75.8774 74.3815C75.864 74.4116 75.8444 74.4385 75.8197 74.4603C75.7951 74.4821 75.766 74.4983 75.7346 74.508C75.7031 74.5176 75.6699 74.5203 75.6373 74.516C75.4411 74.4966 75.2435 74.4966 75.0473 74.516H74.9473C74.8641 74.5215 74.7806 74.5215 74.6973 74.516C74.5383 74.5131 74.3803 74.4896 74.2273 74.446C74.1043 74.434 73.9804 74.434 73.8573 74.446C73.7546 74.4517 73.6564 74.4903 73.5773 74.556C73.533 74.5588 73.4887 74.5519 73.4473 74.536Z" fill="#4D4D4D"/>
<path d="M51.3465 55.4462C51.2928 55.4447 51.241 55.4266 51.198 55.3943C51.155 55.3621 51.1231 55.3174 51.1066 55.2662C51.0876 55.2039 51.0937 55.1366 51.1236 55.0787C51.1534 55.0208 51.2047 54.9769 51.2666 54.9562C51.5904 54.8588 51.9313 54.8315 52.2666 54.8762H52.4065H52.6865C52.7763 54.8859 52.8668 54.8859 52.9566 54.8762H53.1966C53.3531 54.8663 53.51 54.8663 53.6666 54.8762C53.7797 54.8862 53.8934 54.8862 54.0065 54.8762C54.1178 54.8694 54.2283 54.8527 54.3366 54.8262C54.555 54.7897 54.7781 54.7897 54.9965 54.8262H55.2265H55.3165C55.7046 54.881 56.0985 54.881 56.4866 54.8262C56.5194 54.8235 56.5525 54.8273 56.5838 54.8374C56.6152 54.8475 56.6443 54.8637 56.6694 54.885C56.6945 54.9064 56.7151 54.9326 56.7301 54.962C56.745 54.9913 56.754 55.0234 56.7565 55.0562C56.7593 55.1236 56.7359 55.1894 56.6911 55.2397C56.6463 55.2901 56.5838 55.3211 56.5166 55.3262C56.0849 55.3801 55.6482 55.3801 55.2165 55.3262H55.1265H54.9365C54.7708 55.3014 54.6023 55.3014 54.4365 55.3262C54.1714 55.389 53.8974 55.4059 53.6265 55.3762C53.5001 55.3664 53.373 55.3664 53.2465 55.3762H53.0466C52.9316 55.4187 52.8087 55.4357 52.6865 55.4262C52.5667 55.4361 52.4464 55.4361 52.3266 55.4262H52.1966C51.9255 55.3843 51.6485 55.4048 51.3866 55.4862L51.3465 55.4462Z" fill="#4D4D4D"/>
<path d="M66.6364 74.6162C66.5852 74.6147 66.5358 74.5977 66.4946 74.5673C66.4535 74.5369 66.4227 74.4946 66.4064 74.4461C66.3954 74.4146 66.3909 74.3813 66.3931 74.348C66.3953 74.3148 66.404 74.2823 66.419 74.2524C66.4339 74.2226 66.4546 74.1961 66.4799 74.1744C66.5052 74.1527 66.5346 74.1363 66.5664 74.1262C66.89 74.0278 67.2311 74.0005 67.5664 74.0462H67.7064C67.7994 74.0571 67.8934 74.0571 67.9864 74.0462C68.0763 74.0516 68.1664 74.0516 68.2564 74.0462H68.4963C68.6527 74.0311 68.81 74.0311 68.9663 74.0462C69.0795 74.0558 69.1932 74.0558 69.3064 74.0462C69.4195 74.0565 69.5333 74.0565 69.6464 74.0462C69.8589 73.9941 70.0779 73.9739 70.2964 73.9862L70.5364 74.0361H70.6364C71.0244 74.0909 71.4183 74.0909 71.8064 74.0361C71.8727 74.0361 71.9362 74.0625 71.9831 74.1094C72.03 74.1563 72.0564 74.2198 72.0564 74.2861C72.0564 74.3524 72.03 74.416 71.9831 74.4629C71.9362 74.5098 71.8727 74.5361 71.8064 74.5361C71.3751 74.5955 70.9377 74.5955 70.5064 74.5361H70.4064H70.2163C70.048 74.523 69.8787 74.5399 69.7163 74.5861C69.5799 74.5965 69.4428 74.5965 69.3064 74.5861C69.1766 74.596 69.0462 74.596 68.9164 74.5861C68.7868 74.5712 68.6559 74.5712 68.5264 74.5861C68.4601 74.5764 68.3927 74.5764 68.3264 74.5861C68.2066 74.596 68.0861 74.596 67.9663 74.5861H67.6064H67.4864C67.212 74.544 66.9317 74.5645 66.6664 74.6461L66.6364 74.6162Z" fill="#4D4D4D"/>
<path d="M75.1268 84.3062C75.074 84.3069 75.0223 84.2907 74.9792 84.2602C74.9361 84.2297 74.9038 84.1862 74.8868 84.1362C74.8759 84.1047 74.8714 84.0714 74.8736 84.0381C74.8757 84.0048 74.8845 83.9723 74.8995 83.9425C74.9144 83.9127 74.9351 83.8861 74.9604 83.8644C74.9857 83.8428 75.0151 83.8264 75.0469 83.8162C75.3707 83.7188 75.7116 83.6915 76.0469 83.7362H76.1868H76.4569H76.7268H76.9668C77.1265 83.7212 77.2872 83.7212 77.4468 83.7362C77.5566 83.7462 77.6671 83.7462 77.7769 83.7362C77.8919 83.735 78.0063 83.7182 78.1169 83.6862C78.3357 83.6541 78.558 83.6541 78.7769 83.6862H79.0068H79.0869C79.4783 83.7408 79.8754 83.7408 80.2669 83.6862C80.3 83.6835 80.3334 83.6876 80.3648 83.6984C80.3963 83.7092 80.4252 83.7265 80.4496 83.749C80.4741 83.7716 80.4936 83.799 80.5069 83.8295C80.5202 83.86 80.527 83.8929 80.5269 83.9262C80.5297 83.9909 80.5072 84.0541 80.4643 84.1026C80.4214 84.1511 80.3614 84.1811 80.2969 84.1862C79.8659 84.25 79.4278 84.25 78.9968 84.1862H78.8969H78.7168C78.5511 84.1614 78.3826 84.1614 78.2168 84.1862C78.0827 84.2209 77.9453 84.241 77.8069 84.2462C77.6737 84.2562 77.54 84.2562 77.4068 84.2462C77.277 84.2362 77.1467 84.2362 77.0169 84.2462H76.8269C76.704 84.261 76.5797 84.261 76.4569 84.2462C76.3404 84.2555 76.2233 84.2555 76.1068 84.2462H75.9768C75.7025 84.2048 75.4223 84.2253 75.1568 84.3062H75.1268Z" fill="#4D4D4D"/>
<path d="M54.0864 69.3562H53.9563H53.7063H53.5864C53.3668 69.3361 53.1459 69.3361 52.9263 69.3562L52.0063 69.4162C51.9735 69.4175 51.9407 69.4124 51.9099 69.401C51.879 69.3897 51.8507 69.3723 51.8266 69.35C51.8024 69.3278 51.7829 69.3009 51.7692 69.2711C51.7554 69.2412 51.7476 69.209 51.7463 69.1762C51.7435 69.1115 51.766 69.0482 51.8089 68.9997C51.8518 68.9512 51.9118 68.9213 51.9763 68.9162L52.8964 68.8562C53.1555 68.8266 53.4172 68.8266 53.6763 68.8562H53.8064H54.0063C54.1159 68.8707 54.2268 68.8707 54.3364 68.8562C54.8551 68.8061 55.3776 68.8061 55.8964 68.8562C55.9609 68.8613 56.0209 68.8912 56.0638 68.9397C56.1067 68.9882 56.1291 69.0515 56.1263 69.1162C56.1266 69.1504 56.1196 69.1842 56.1057 69.2155C56.0918 69.2467 56.0714 69.2747 56.0458 69.2974C56.0202 69.3202 55.9901 69.3371 55.9574 69.3472C55.9247 69.3574 55.8903 69.3604 55.8563 69.3562C55.3808 69.3108 54.9019 69.3108 54.4263 69.3562H54.0864Z" fill="#4D4D4D"/>
<path d="M59.8875 55.3662H59.7675L59.5175 55.3162H59.3975C59.1782 55.2912 58.9568 55.2912 58.7375 55.3162L57.8175 55.3662C57.7849 55.3705 57.7517 55.3677 57.7202 55.3581C57.6888 55.3485 57.6597 55.3322 57.6351 55.3104C57.6104 55.2886 57.5908 55.2618 57.5774 55.2317C57.564 55.2016 57.5572 55.1691 57.5575 55.1362C57.5548 55.1033 57.5585 55.0702 57.5686 55.0389C57.5787 55.0075 57.5949 54.9784 57.6163 54.9533C57.6377 54.9282 57.6638 54.9076 57.6932 54.8927C57.7226 54.8777 57.7546 54.8687 57.7875 54.8662L58.6575 54.8162C58.93 54.7862 59.205 54.7862 59.4775 54.8162H59.6175H59.8175C59.9239 54.8258 60.031 54.8258 60.1375 54.8162C60.6563 54.7664 61.1787 54.7664 61.6975 54.8162C61.7308 54.8161 61.7637 54.8229 61.7942 54.8362C61.8247 54.8495 61.8521 54.8689 61.8747 54.8934C61.8972 54.9178 61.9145 54.9467 61.9253 54.9782C61.9361 55.0097 61.9403 55.043 61.9375 55.0762C61.9324 55.1434 61.9014 55.2059 61.851 55.2507C61.8006 55.2955 61.7348 55.319 61.6675 55.3162C61.1919 55.2709 60.7131 55.2709 60.2375 55.3162L59.8875 55.3662Z" fill="#4D4D4D"/>
<path d="M53.4371 82.2361L53.2871 81.7561C53.5196 81.6734 53.7614 81.6196 54.0071 81.5961C54.1868 81.5812 54.3674 81.5812 54.5471 81.5961H54.6371C55.0988 81.6514 55.5654 81.6514 56.0271 81.5961H56.0871C56.2598 81.5754 56.4344 81.5754 56.6071 81.5961L56.9171 81.6461H57.1271C57.2831 81.6662 57.4411 81.6662 57.5971 81.6461H58.5971C58.6303 81.6433 58.6636 81.6475 58.6951 81.6583C58.7266 81.6691 58.7555 81.6864 58.7799 81.7089C58.8044 81.7315 58.8238 81.7589 58.8371 81.7894C58.8504 81.8199 58.8572 81.8528 58.8571 81.8861C58.8599 81.9193 58.8557 81.9527 58.8449 81.9841C58.8341 82.0156 58.8169 82.0445 58.7943 82.0689C58.7717 82.0934 58.7443 82.1129 58.7138 82.1262C58.6833 82.1394 58.6504 82.1462 58.6171 82.1461H57.6171C57.431 82.166 57.2433 82.166 57.0571 82.1461H56.8171H56.5571C56.4242 82.1314 56.29 82.1314 56.1571 82.1461H56.0871C55.5887 82.2013 55.0856 82.2013 54.5871 82.1461H54.4571C54.3075 82.1315 54.1568 82.1315 54.0071 82.1461C53.8139 82.1497 53.6221 82.1801 53.4371 82.2361Z" fill="#4D4D4D"/>
<path d="M71.6366 84.3261C71.5752 84.3266 71.5158 84.3044 71.4697 84.2638C71.4236 84.2232 71.394 84.1671 71.3866 84.1061C71.3809 84.0746 71.3816 84.0422 71.3886 84.0109C71.3957 83.9796 71.4089 83.95 71.4275 83.9239C71.4462 83.8978 71.4698 83.8757 71.4972 83.8589C71.5245 83.8421 71.5549 83.8309 71.5867 83.8261H71.9066C72.0727 83.806 72.2406 83.806 72.4066 83.8261H72.7166H73.4766C73.5098 83.8219 73.5434 83.8247 73.5754 83.8342C73.6074 83.8438 73.637 83.8599 73.6624 83.8815C73.6878 83.9032 73.7084 83.9299 73.723 83.96C73.7375 83.99 73.7455 84.0228 73.7466 84.0562C73.7494 84.089 73.7456 84.1221 73.7355 84.1534C73.7254 84.1848 73.7092 84.2139 73.6878 84.239C73.6664 84.2641 73.6403 84.2847 73.611 84.2997C73.5816 84.3146 73.5495 84.3236 73.5167 84.3261H72.7566H72.3566C72.2271 84.3112 72.0962 84.3112 71.9666 84.3261H71.6566H71.6366Z" fill="#4D4D4D"/>
<path opacity="0.6" d="M116.407 87.0261C115.267 86.8693 114.143 86.615 113.047 86.2661C111.583 81.7965 110.578 77.1894 110.047 72.5161C110.981 77.7901 113.162 82.7647 116.407 87.0261Z" fill="#B3B3B3"/>
<path d="M109.787 67.1061L132.167 66.9861C132.167 66.9861 133.057 81.486 142.727 87.256C142.727 87.256 127.167 90.006 116.647 87.386C116.637 87.386 108.947 78.1961 109.787 67.1061Z" fill="#4AC3FB"/>
<path d="M117.367 72.1163C117.055 72.1083 116.744 72.0748 116.437 72.0162L115.897 71.9462H115.607H115.397C115.177 71.9381 114.957 71.9686 114.747 72.0363C114.468 72.1335 114.171 72.1676 113.877 72.1362C113.775 72.1224 113.675 72.099 113.577 72.0663L113.407 72.0162C113.088 71.981 112.764 72.0116 112.457 72.1063C112.394 72.1215 112.327 72.1111 112.27 72.0775C112.214 72.0438 112.174 71.9896 112.157 71.9263C112.142 71.8627 112.152 71.7956 112.186 71.7395C112.22 71.6834 112.274 71.6428 112.337 71.6263C112.718 71.5034 113.122 71.4726 113.517 71.5363H113.727C113.799 71.5622 113.872 71.5822 113.947 71.5963C114.179 71.6224 114.414 71.602 114.637 71.5363C114.904 71.4468 115.186 71.4095 115.467 71.4263H115.687H115.967C116.155 71.4397 116.342 71.4631 116.527 71.4963C116.928 71.5849 117.34 71.6051 117.747 71.5563C117.812 71.5446 117.879 71.559 117.933 71.5965C117.988 71.634 118.025 71.6914 118.037 71.7562C118.043 71.7891 118.042 71.8229 118.034 71.8554C118.027 71.8879 118.013 71.9185 117.993 71.9456C117.974 71.9726 117.949 71.9954 117.92 72.0127C117.892 72.03 117.86 72.0414 117.827 72.0463C117.677 72.0864 117.523 72.1099 117.367 72.1163Z" fill="#281911"/>
<path d="M119.557 72.1361C119.51 72.1344 119.464 72.1194 119.425 72.0928C119.386 72.0663 119.356 72.0293 119.337 71.9861C119.322 71.9568 119.313 71.9247 119.311 71.8918C119.309 71.8589 119.314 71.826 119.325 71.795C119.336 71.7641 119.354 71.7358 119.376 71.7119C119.399 71.688 119.426 71.669 119.457 71.6561C120.02 71.4543 120.624 71.3925 121.217 71.4761C121.599 71.5163 121.984 71.5163 122.367 71.4761L122.617 71.4161C122.751 71.3823 122.888 71.3589 123.027 71.3461C123.385 71.3226 123.746 71.3495 124.097 71.4262C124.425 71.4989 124.762 71.5191 125.097 71.4861C125.129 71.4788 125.162 71.4778 125.195 71.4834C125.227 71.489 125.258 71.501 125.286 71.5186C125.314 71.5363 125.338 71.5593 125.357 71.5863C125.376 71.6133 125.39 71.6439 125.397 71.6762C125.404 71.7077 125.405 71.7404 125.399 71.7723C125.394 71.8042 125.381 71.8346 125.364 71.8617C125.346 71.8888 125.323 71.912 125.296 71.93C125.269 71.9479 125.239 71.9602 125.207 71.9661C124.797 72.0462 124.376 72.0462 123.967 71.9661C123.658 71.9019 123.342 71.875 123.027 71.8861L122.677 71.9561L122.397 72.0161C121.978 72.0612 121.556 72.0612 121.137 72.0161C120.627 71.9379 120.106 71.9824 119.617 72.1461C119.596 72.1459 119.576 72.1425 119.557 72.1361Z" fill="#281911"/>
<path d="M117.047 75.6461C116.987 75.6461 116.929 75.6244 116.883 75.585C116.838 75.5455 116.808 75.491 116.799 75.4315C116.791 75.3719 116.804 75.3112 116.837 75.2606C116.869 75.21 116.919 75.1729 116.977 75.1561C117.547 74.9405 118.161 74.8651 118.767 74.9361L119.117 75.0161L119.437 75.0861C119.835 75.1337 120.239 75.1066 120.627 75.006L121.197 74.9161C121.616 74.8861 122.037 74.8861 122.457 74.9161H122.637C123.307 74.9161 123.977 74.9161 124.637 74.9161H125.267C126.139 74.9143 127.01 74.8676 127.877 74.7761H128.047C128.335 74.7316 128.626 74.7082 128.917 74.7061L129.417 74.7661H129.577C130.086 74.816 130.598 74.816 131.107 74.7661C131.139 74.7633 131.172 74.7672 131.203 74.7774C131.233 74.7876 131.262 74.8039 131.286 74.8254C131.31 74.8469 131.33 74.8731 131.344 74.9025C131.358 74.9318 131.366 74.9637 131.367 74.9961C131.37 75.0608 131.347 75.124 131.304 75.1725C131.261 75.221 131.201 75.2509 131.137 75.256C130.599 75.316 130.055 75.316 129.517 75.256H129.347H128.897C128.636 75.2565 128.375 75.2766 128.117 75.3161H127.947C127.057 75.4261 126.147 75.4361 125.277 75.4561H124.637C123.977 75.4561 123.297 75.4561 122.637 75.4561H122.407C122.014 75.426 121.62 75.426 121.227 75.4561L120.687 75.5361C120.239 75.6484 119.774 75.6756 119.317 75.6161L118.957 75.5361L118.647 75.4661C118.118 75.4181 117.585 75.4899 117.087 75.6761L117.047 75.6461Z" fill="#281911"/>
<path d="M116.856 79.726C116.595 79.7293 116.335 79.7126 116.076 79.676H115.926C115.767 79.6528 115.606 79.6528 115.446 79.676H115.286C115.12 79.7282 114.942 79.7282 114.776 79.676C114.744 79.6689 114.714 79.6555 114.687 79.6365C114.66 79.6176 114.637 79.5935 114.619 79.5656C114.601 79.5377 114.589 79.5066 114.584 79.4741C114.578 79.4415 114.579 79.4082 114.586 79.376C114.593 79.3438 114.607 79.3132 114.626 79.2862C114.645 79.2592 114.669 79.2362 114.697 79.2185C114.725 79.2008 114.756 79.1889 114.788 79.1833C114.821 79.1777 114.854 79.1787 114.886 79.186C114.971 79.2122 115.062 79.2122 115.146 79.186H115.356C115.571 79.1457 115.792 79.1457 116.006 79.186H116.146C116.516 79.2208 116.887 79.2208 117.256 79.186C117.29 79.1816 117.324 79.1845 117.356 79.1947C117.388 79.2049 117.418 79.2221 117.443 79.245C117.468 79.2679 117.487 79.296 117.5 79.3273C117.512 79.3585 117.518 79.3923 117.516 79.426C117.517 79.4916 117.492 79.5549 117.447 79.6031C117.403 79.6514 117.342 79.681 117.276 79.686L116.856 79.726Z" fill="#281911"/>
<path d="M119.107 79.7761C119.051 79.7743 118.996 79.7532 118.953 79.7161C118.909 79.679 118.88 79.6283 118.87 79.5723C118.859 79.5163 118.868 79.4583 118.895 79.4081C118.922 79.3579 118.965 79.3184 119.018 79.2961C119.654 79.0502 120.342 78.971 121.018 79.0661L121.348 79.1161C121.613 79.1793 121.886 79.1995 122.158 79.1761C122.27 79.1601 122.38 79.1333 122.488 79.0961C122.959 78.9266 123.476 78.9266 123.948 79.0961C124.178 79.15 124.412 79.1867 124.648 79.2061C124.873 79.198 125.097 79.1713 125.318 79.1261C125.676 79.0289 126.052 79.0118 126.418 79.0761L126.668 79.1461L126.888 79.2061C127.126 79.2496 127.369 79.2496 127.608 79.2061H127.818C128.18 79.167 128.543 79.1469 128.908 79.1461H133.138C133.204 79.1461 133.267 79.1724 133.314 79.2193C133.361 79.2662 133.388 79.3298 133.388 79.3961C133.388 79.4624 133.361 79.526 133.314 79.5729C133.267 79.6198 133.204 79.6461 133.138 79.6461H128.898C128.563 79.6472 128.229 79.6672 127.898 79.7061H127.698C127.401 79.7667 127.094 79.7667 126.798 79.7061L126.528 79.6361L126.318 79.5761C126.017 79.5286 125.711 79.5457 125.418 79.6261C125.165 79.6824 124.907 79.7126 124.648 79.7161C124.377 79.698 124.11 79.6544 123.848 79.5861C123.568 79.5064 123.278 79.4726 122.988 79.4861C122.869 79.5032 122.752 79.53 122.638 79.5661C122.507 79.61 122.373 79.6434 122.238 79.6661C121.903 79.6973 121.565 79.6737 121.238 79.5961L120.928 79.5461C120.34 79.4633 119.741 79.5322 119.188 79.7461C119.164 79.7624 119.136 79.7726 119.107 79.7761Z" fill="#281911"/>
<path d="M117.727 84.1161C117.605 84.1142 117.484 84.0975 117.367 84.0662C117.335 84.0592 117.305 84.0457 117.278 84.0266C117.251 84.0075 117.229 83.9832 117.212 83.9551C117.195 83.927 117.184 83.8957 117.18 83.8632C117.176 83.8307 117.178 83.7977 117.187 83.7661C117.203 83.7028 117.244 83.6486 117.3 83.6149C117.356 83.5813 117.423 83.5709 117.487 83.5861C117.731 83.6405 117.983 83.6405 118.227 83.5861C118.44 83.5374 118.658 83.5105 118.877 83.5061C119.055 83.5189 119.232 83.5423 119.407 83.5761H119.687C119.916 83.596 120.147 83.596 120.377 83.5761L122.377 83.5261C122.537 83.5261 122.637 83.6261 122.637 83.7661C122.637 83.8317 122.612 83.895 122.568 83.9432C122.523 83.9915 122.462 84.0211 122.397 84.0261L120.397 84.0761C120.141 84.1009 119.883 84.1009 119.627 84.0761H119.317C119.166 84.0389 119.012 84.0155 118.857 84.0061C118.675 84.0159 118.495 84.0393 118.317 84.0761C118.122 84.1096 117.924 84.123 117.727 84.1161Z" fill="#281911"/>
<path d="M123.817 84.0962C123.761 84.0956 123.708 84.0766 123.664 84.0422C123.621 84.0078 123.59 83.96 123.577 83.9062C123.569 83.874 123.568 83.8407 123.574 83.8082C123.579 83.7756 123.591 83.7445 123.609 83.7166C123.627 83.6887 123.65 83.6646 123.677 83.6456C123.704 83.6267 123.734 83.6133 123.767 83.6062C124.21 83.513 124.663 83.4727 125.117 83.4862H125.607H126.037H126.637H127.537C128.537 83.4862 129.677 83.4862 130.777 83.3762H130.887C131.25 83.351 131.614 83.351 131.977 83.3762H132.327H132.607C133.161 83.401 133.716 83.381 134.267 83.3162C134.878 83.2507 135.495 83.2507 136.107 83.3162C136.173 83.3228 136.234 83.3555 136.276 83.4071C136.318 83.4587 136.338 83.5249 136.332 83.5912C136.325 83.6575 136.292 83.7184 136.241 83.7606C136.189 83.8028 136.123 83.8228 136.057 83.8162C135.478 83.7513 134.895 83.7513 134.317 83.8162C133.735 83.8716 133.149 83.8716 132.567 83.8162H132.267H131.947C131.614 83.7881 131.279 83.7881 130.947 83.8162H130.837C129.727 83.8862 128.587 83.9062 127.577 83.9262H126.677H126.047H125.587H125.127C124.714 83.9094 124.3 83.9464 123.897 84.0362L123.817 84.0962Z" fill="#281911"/>
<path opacity="0.6" d="M111.637 56.5361C110.498 56.3734 109.374 56.1159 108.277 55.7661C106.812 51.2968 105.807 46.6896 105.277 42.0161C106.213 47.293 108.393 52.2706 111.637 56.5361Z" fill="#B3B3B3"/>
<path d="M105.007 36.5363L127.387 36.4263C127.387 36.4263 128.287 50.9263 137.947 56.6963C137.947 56.6963 122.387 59.4463 111.867 56.8263C111.867 56.8563 104.167 47.6663 105.007 36.5363Z" fill="#D0FF0F"/>
<path d="M118.227 41.8263L113.737 41.7063C113.423 41.7025 113.109 41.6791 112.797 41.6363H112.607C112.485 41.6105 112.362 41.5938 112.237 41.5863C112.046 41.5835 111.855 41.6003 111.667 41.6363C111.379 41.6818 111.086 41.6818 110.797 41.6363C110.648 41.6036 110.501 41.5601 110.357 41.5063C110.183 41.4135 109.99 41.365 109.792 41.365C109.595 41.365 109.401 41.4135 109.227 41.5063C108.916 41.6526 108.569 41.7081 108.227 41.6663C108.196 41.6604 108.165 41.6481 108.138 41.6301C108.111 41.6122 108.088 41.589 108.07 41.5619C108.053 41.5348 108.041 41.5043 108.035 41.4724C108.029 41.4405 108.03 41.4078 108.037 41.3763C108.05 41.3114 108.087 41.254 108.141 41.2165C108.196 41.1791 108.262 41.1646 108.327 41.1763C108.586 41.2117 108.849 41.1626 109.077 41.0363C109.359 40.9039 109.667 40.8388 109.977 40.8463C110.173 40.8702 110.365 40.9207 110.547 40.9963C110.668 41.0401 110.791 41.0736 110.917 41.0963C111.149 41.1411 111.386 41.1411 111.617 41.0963C111.838 41.0537 112.063 41.0369 112.287 41.0463C112.436 41.0515 112.583 41.0716 112.727 41.1063H112.897C113.189 41.1415 113.483 41.1616 113.777 41.1663L118.267 41.2863C118.334 41.2863 118.397 41.3126 118.444 41.3595C118.491 41.4064 118.517 41.47 118.517 41.5363C118.522 41.5755 118.518 41.6154 118.505 41.6528C118.492 41.6902 118.471 41.7241 118.443 41.7521C118.415 41.7801 118.381 41.8013 118.344 41.8141C118.306 41.827 118.267 41.8312 118.227 41.8263Z" fill="#281911"/>
<path d="M114.037 45.2063C113.798 45.1989 113.56 45.1654 113.327 45.1063C113.169 45.0665 113.009 45.0365 112.847 45.0163C112.588 44.987 112.326 44.987 112.067 45.0163C111.735 45.0601 111.399 45.0601 111.067 45.0163C111.002 45.0041 110.945 44.9668 110.908 44.9125C110.87 44.8581 110.856 44.7912 110.867 44.7262C110.877 44.6616 110.912 44.6033 110.964 44.5641C111.017 44.5248 111.082 44.5077 111.147 44.5163C111.439 44.561 111.736 44.561 112.027 44.5163C112.32 44.4806 112.615 44.4806 112.907 44.5163C113.092 44.539 113.276 44.5724 113.457 44.6162C113.653 44.6691 113.854 44.6993 114.057 44.7063C114.313 44.6986 114.566 44.6513 114.807 44.5662C115.128 44.4515 115.467 44.3972 115.807 44.4062C116.01 44.4331 116.211 44.4766 116.407 44.5362C116.588 44.6018 116.776 44.6421 116.967 44.6562C117.126 44.6549 117.284 44.6348 117.437 44.5962C117.678 44.5302 117.929 44.5099 118.177 44.5362L118.417 44.5962H118.607C118.8 44.607 118.993 44.5833 119.177 44.5262H119.377C120.083 44.4114 120.802 44.4114 121.507 44.5262C122.134 44.6447 122.775 44.665 123.407 44.5862C123.475 44.5771 123.543 44.5937 123.598 44.6326C123.654 44.6715 123.693 44.73 123.707 44.7963C123.716 44.8623 123.699 44.9292 123.66 44.9831C123.621 45.0371 123.563 45.074 123.497 45.0862C122.815 45.1711 122.124 45.1508 121.447 45.0262C120.785 44.913 120.109 44.913 119.447 45.0262H119.257C119.012 45.1052 118.753 45.1325 118.497 45.1063H118.247H118.057C117.869 45.0889 117.679 45.1058 117.497 45.1562C117.308 45.2059 117.113 45.2294 116.917 45.2262C116.682 45.2106 116.45 45.1635 116.227 45.0862C116.065 45.0316 115.897 44.9948 115.727 44.9762C115.444 44.9691 115.162 45.0166 114.897 45.1162C114.616 45.186 114.327 45.2163 114.037 45.2063Z" fill="#281911"/>
<path d="M110.496 48.0262C110.39 48.0403 110.282 48.0403 110.176 48.0262C110.145 48.017 110.115 48.0017 110.09 47.9812C110.064 47.9606 110.043 47.9352 110.027 47.9064C110.011 47.8776 110.001 47.846 109.998 47.8134C109.994 47.7807 109.997 47.7477 110.006 47.7162C110.025 47.6526 110.068 47.5989 110.126 47.567C110.184 47.5351 110.252 47.5277 110.316 47.5462C110.538 47.5797 110.764 47.5591 110.976 47.4862L111.186 47.4362C111.475 47.3758 111.771 47.3556 112.066 47.3762L112.566 47.4462C112.867 47.5001 113.175 47.5001 113.476 47.4462C113.54 47.4343 113.605 47.4474 113.659 47.4828C113.713 47.5182 113.752 47.5732 113.766 47.6362C113.773 47.6684 113.774 47.7017 113.769 47.7343C113.763 47.7668 113.751 47.7979 113.734 47.8258C113.716 47.8537 113.693 47.8778 113.666 47.8968C113.639 47.9157 113.608 47.9291 113.576 47.9362C113.216 48.001 112.846 48.001 112.486 47.9362L112.026 47.8762C111.778 47.8576 111.529 47.8744 111.286 47.9262H111.096C110.902 47.9871 110.7 48.0207 110.496 48.0262Z" fill="#281911"/>
<path d="M114.826 49.8961C114.766 49.8961 114.708 49.8744 114.662 49.835C114.617 49.7955 114.587 49.741 114.579 49.6815C114.57 49.6219 114.583 49.5612 114.616 49.5106C114.649 49.4601 114.698 49.4229 114.756 49.4061C115.403 49.1994 116.077 49.0949 116.756 49.0961C117.046 49.0961 117.326 49.1661 117.606 49.2061C117.906 49.2687 118.21 49.3088 118.516 49.3261C118.815 49.3164 119.113 49.283 119.406 49.2261C119.707 49.1714 120.011 49.138 120.316 49.1261C120.621 49.1325 120.925 49.1592 121.226 49.2061C121.789 49.3356 122.376 49.3114 122.926 49.1361L123.416 49.0261C124.274 48.9272 125.142 48.9677 125.986 49.1461C126.801 49.3219 127.64 49.3558 128.466 49.2461C128.498 49.2395 128.531 49.2394 128.564 49.2456C128.596 49.2518 128.627 49.2644 128.654 49.2825C128.681 49.3006 128.705 49.3239 128.723 49.3512C128.742 49.3784 128.755 49.4089 128.761 49.4411C128.768 49.4733 128.768 49.5064 128.762 49.5387C128.755 49.5709 128.743 49.6016 128.725 49.629C128.707 49.6564 128.683 49.6799 128.656 49.6983C128.629 49.7167 128.598 49.7295 128.566 49.7361C127.684 49.8575 126.787 49.8237 125.916 49.6361C125.124 49.4671 124.31 49.4299 123.506 49.5261C123.351 49.5488 123.197 49.5822 123.046 49.6261C122.791 49.699 122.53 49.7492 122.266 49.7761C121.895 49.7927 121.523 49.7692 121.156 49.7061C120.606 49.5862 120.036 49.5862 119.486 49.7061C119.155 49.7615 118.821 49.7949 118.486 49.8061C118.151 49.7864 117.817 49.7464 117.486 49.6861C117.226 49.6305 116.962 49.5938 116.696 49.5761C116.065 49.5764 115.438 49.6742 114.836 49.8661L114.826 49.8961Z" fill="#281911"/>
<path d="M123.237 52.7862C123.097 52.801 122.957 52.801 122.817 52.7862C122.757 52.7697 122.705 52.7312 122.671 52.6781C122.638 52.6251 122.626 52.5615 122.637 52.4999C122.648 52.4383 122.682 52.3832 122.732 52.3455C122.782 52.3077 122.845 52.2902 122.907 52.2962C123.281 52.3357 123.659 52.3155 124.027 52.2362C124.313 52.1772 124.605 52.1437 124.897 52.1362C125.161 52.1438 125.425 52.1672 125.687 52.2062H126.047C126.473 52.2361 126.901 52.2361 127.327 52.2062L130.467 52.1362C130.532 52.1387 130.595 52.1658 130.641 52.2122C130.687 52.2585 130.714 52.3207 130.717 52.3862C130.717 52.4525 130.691 52.5161 130.644 52.563C130.597 52.6099 130.533 52.6362 130.467 52.6362L127.347 52.7062C126.894 52.7361 126.44 52.7361 125.987 52.7062L125.607 52.6562C125.368 52.6218 125.128 52.6017 124.887 52.5962C124.621 52.602 124.357 52.6322 124.097 52.6862C123.814 52.7447 123.526 52.7782 123.237 52.7862Z" fill="#281911"/>
<path d="M124.927 43.5363C124.201 43.5361 123.476 43.486 122.757 43.3863C122.644 43.3766 122.53 43.3766 122.417 43.3863C122.285 43.3923 122.154 43.4124 122.027 43.4463H121.917C121.551 43.5201 121.179 43.5536 120.807 43.5463C120.74 43.5463 120.677 43.5199 120.63 43.473C120.583 43.4262 120.557 43.3626 120.557 43.2963C120.557 43.23 120.583 43.1664 120.63 43.1195C120.677 43.0726 120.74 43.0463 120.807 43.0463C121.142 43.0574 121.478 43.0271 121.807 42.9563H121.907C122.071 42.9169 122.238 42.8935 122.407 42.8863C122.533 42.8764 122.66 42.8764 122.787 42.8863C123.737 43.0234 124.698 43.067 125.657 43.0163C125.69 43.0135 125.723 43.0177 125.755 43.0285C125.786 43.0393 125.815 43.0565 125.839 43.0791C125.864 43.1017 125.883 43.1291 125.897 43.1596C125.91 43.1901 125.917 43.223 125.917 43.2563C125.918 43.2891 125.913 43.3219 125.901 43.3527C125.89 43.3836 125.873 43.4119 125.851 43.436C125.828 43.4602 125.801 43.4797 125.772 43.4935C125.742 43.5072 125.709 43.515 125.677 43.5163C125.447 43.5363 125.187 43.5363 124.927 43.5363Z" fill="#281911"/>
<path opacity="0.6" d="M85.7272 63.9463C84.5877 63.7836 83.4638 63.526 82.3672 63.1763C80.902 58.7069 79.8968 54.0997 79.3672 49.4263C80.3025 54.7031 82.4828 59.6808 85.7272 63.9463Z" fill="#B3B3B3"/>
<path d="M112.107 64.186C112.107 64.186 96.5469 66.946 86.0269 64.326L85.7269 63.946C82.4897 59.6786 80.3163 54.7011 79.3869 49.426C79.106 47.6438 79.0322 45.8352 79.1669 44.036L101.537 43.916C101.537 43.916 102.447 58.426 112.107 64.186Z" fill="#FF94BF"/>
<path d="M81.9977 49.8261C81.9383 49.8289 81.8802 49.8086 81.8354 49.7694C81.7907 49.7303 81.7628 49.6753 81.7577 49.6161C81.752 49.5845 81.7527 49.5522 81.7597 49.5208C81.7667 49.4895 81.78 49.46 81.7986 49.4339C81.8172 49.4078 81.8409 49.3857 81.8683 49.3689C81.8956 49.3521 81.926 49.3409 81.9578 49.3361C82.5853 49.2224 83.2203 49.1556 83.8577 49.1361C84.1877 49.1361 84.5177 49.1361 84.8577 49.1961C85.4286 49.2716 86.0069 49.2716 86.5777 49.1961L86.8777 49.1261C87.0077 49.1261 87.1477 49.0561 87.2877 49.0361C87.8645 48.9696 88.4482 48.9932 89.0178 49.1061C89.5046 49.2043 90.0026 49.2346 90.4977 49.1961L90.8577 49.1361L91.2277 49.0661C91.7951 49.0194 92.3661 49.0429 92.9278 49.1361C93.4492 49.2279 93.9803 49.2515 94.5077 49.2061L94.9277 49.1261C95.0677 49.1261 95.2077 49.0561 95.3577 49.0361C95.9479 48.9811 96.5427 49.0013 97.1277 49.0961C97.6879 49.1804 98.2576 49.1804 98.8177 49.0961C98.8506 49.0904 98.8843 49.0914 98.9168 49.0989C98.9493 49.1064 98.98 49.1204 99.007 49.14C99.034 49.1595 99.0569 49.1843 99.0742 49.2128C99.0915 49.2414 99.1029 49.2731 99.1077 49.3061C99.1169 49.3707 99.1014 49.4364 99.0643 49.4901C99.0273 49.5439 98.9714 49.5817 98.9078 49.5961C98.2953 49.6695 97.6753 49.6526 97.0677 49.5461C96.5266 49.4772 95.9789 49.4772 95.4377 49.5461L95.0278 49.6261L94.5777 49.7161C94.0071 49.7678 93.4322 49.7442 92.8678 49.6461C92.3498 49.554 91.8219 49.5305 91.2977 49.5761C91.1835 49.5904 91.07 49.6104 90.9578 49.6361L90.5578 49.7061C90.0195 49.746 89.4782 49.7157 88.9477 49.6161C88.4287 49.5057 87.8953 49.4788 87.3678 49.5361L86.9977 49.6161L86.6778 49.6961C86.0607 49.7812 85.4348 49.7812 84.8177 49.6961C84.4977 49.6961 84.1778 49.6961 83.8678 49.6961C83.2605 49.7138 82.6555 49.7773 82.0578 49.8861L81.9977 49.8261Z" fill="#281911"/>
<path d="M87.4771 53.1161C87.4309 53.1164 87.3855 53.1034 87.3464 53.0785C87.3074 53.0537 87.2764 53.0181 87.2571 52.9761C87.2297 52.9163 87.227 52.8482 87.2494 52.7865C87.2719 52.7247 87.3178 52.6742 87.3771 52.6461C87.6901 52.4896 88.029 52.3914 88.3771 52.3561C88.7136 52.3536 89.0492 52.3905 89.3771 52.4661C89.6467 52.5266 89.9211 52.5634 90.1971 52.5761C90.3481 52.5693 90.4984 52.5526 90.6471 52.5261H90.9071C91.3896 52.4861 91.8746 52.4861 92.3571 52.5261C92.4234 52.5261 92.487 52.5524 92.5339 52.5993C92.5808 52.6462 92.6071 52.7098 92.6071 52.7761C92.6071 52.8424 92.5808 52.906 92.5339 52.9528C92.487 52.9997 92.4234 53.0261 92.3571 53.0261C91.9047 52.9862 91.4496 52.9862 90.9971 53.0261H90.7571C90.5849 53.0531 90.4113 53.0698 90.2371 53.0761C89.9273 53.0663 89.6191 53.0261 89.3171 52.9561C89.0259 52.885 88.7268 52.8514 88.4271 52.8561C88.1317 52.8846 87.8438 52.9659 87.5771 53.0961C87.5458 53.1105 87.5116 53.1173 87.4771 53.1161Z" fill="#281911"/>
<path d="M88.7373 56.386H88.5073C88.3394 56.3725 88.1725 56.3491 88.0073 56.316H87.7473C87.2385 56.2661 86.7261 56.2661 86.2173 56.316L84.1573 56.416C84.0917 56.4162 84.0284 56.3916 83.9802 56.347C83.932 56.3025 83.9024 56.2415 83.8973 56.176C83.8945 56.1429 83.8987 56.1095 83.9095 56.078C83.9203 56.0465 83.9376 56.0177 83.9601 55.9932C83.9827 55.9688 84.0101 55.9493 84.0406 55.936C84.0711 55.9227 84.104 55.9159 84.1373 55.916L86.1873 55.816C86.7293 55.7612 87.2754 55.7612 87.8173 55.816H88.0973C88.2458 55.8458 88.3962 55.8659 88.5473 55.876C88.8101 55.9006 89.0746 55.9006 89.3373 55.876H89.4173C90.5242 55.7724 91.6371 55.749 92.7473 55.806C92.8118 55.8111 92.8719 55.8411 92.9148 55.8896C92.9577 55.9381 92.9801 56.0013 92.9773 56.066C92.9774 56.0993 92.9706 56.1322 92.9573 56.1627C92.944 56.1932 92.9245 56.2206 92.9001 56.2432C92.8756 56.2658 92.8468 56.283 92.8153 56.2938C92.7839 56.3046 92.7505 56.3088 92.7173 56.306C91.6337 56.2492 90.5474 56.2726 89.4673 56.376H89.3873C89.1773 56.366 88.9573 56.386 88.7373 56.386Z" fill="#281911"/>
<path d="M95.0973 56.2761H94.8373C94.8043 56.2724 94.7724 56.2622 94.7435 56.2461C94.7146 56.23 94.6891 56.2082 94.6687 56.1822C94.6482 56.1561 94.6331 56.1263 94.6243 56.0943C94.6155 56.0624 94.613 56.029 94.6172 55.9961C94.6209 55.9632 94.6312 55.9314 94.6473 55.9024C94.6634 55.8735 94.6852 55.848 94.7112 55.8276C94.7373 55.8071 94.7671 55.792 94.799 55.7832C94.831 55.7744 94.8644 55.772 94.8973 55.7761C95.1991 55.7973 95.5023 55.7737 95.7972 55.7062C96.0014 55.6608 96.2087 55.6307 96.4173 55.6161C96.6869 55.5961 96.9576 55.5961 97.2273 55.6161C98.7548 55.7256 100.287 55.7457 101.817 55.6762C101.967 55.6762 102.067 55.7762 102.077 55.9162C102.077 55.9818 102.053 56.0451 102.008 56.0933C101.964 56.1415 101.903 56.1711 101.837 56.1762C100.311 56.2459 98.7814 56.2259 97.2572 56.1161C96.9876 56.097 96.7169 56.097 96.4472 56.1161C96.2588 56.1281 96.0715 56.1548 95.8872 56.1962C95.6272 56.249 95.3626 56.2757 95.0973 56.2761Z" fill="#281911"/>
<path d="M85.4971 59.776C85.4422 59.7738 85.3894 59.7542 85.3462 59.7201C85.3031 59.6859 85.2719 59.639 85.2572 59.586C85.2482 59.5545 85.2458 59.5215 85.2501 59.489C85.2545 59.4565 85.2654 59.4252 85.2823 59.3971C85.2991 59.369 85.3216 59.3446 85.3482 59.3255C85.3749 59.3064 85.4051 59.293 85.4371 59.286C85.9522 59.1378 86.4821 59.0473 87.0172 59.016C87.3901 58.9909 87.7642 58.9909 88.1372 59.016H88.3972C89.4486 59.1061 90.5058 59.1061 91.5572 59.016H91.7072C92.0598 58.9855 92.4145 58.9855 92.7672 59.016C92.979 59.0313 93.1895 59.0614 93.3972 59.106L93.8472 59.176C94.2134 59.201 94.5809 59.201 94.9472 59.176L97.1171 59.096C97.1844 59.096 97.2491 59.122 97.2976 59.1686C97.346 59.2152 97.3746 59.2788 97.3771 59.346C97.3772 59.4106 97.3523 59.4728 97.3075 59.5194C97.2628 59.566 97.2017 59.5934 97.1372 59.596L94.9672 59.676C94.5742 59.7009 94.1801 59.7009 93.7872 59.676L93.3072 59.596C93.1154 59.5589 92.9218 59.5322 92.7272 59.516C92.3946 59.4846 92.0597 59.4846 91.7272 59.516H91.5772C90.4957 59.6061 89.4086 59.6061 88.3272 59.516H88.0672C87.7142 59.4917 87.3601 59.4917 87.0072 59.516C86.5071 59.5528 86.0116 59.6365 85.5272 59.766L85.4971 59.776Z" fill="#281911"/>
<path d="M99.636 59.6362C99.5763 59.6342 99.5193 59.611 99.4753 59.5706C99.4313 59.5303 99.4032 59.4755 99.396 59.4162C99.3904 59.3831 99.3917 59.3492 99.3999 59.3167C99.4082 59.2842 99.4231 59.2537 99.4438 59.2274C99.4645 59.201 99.4906 59.1792 99.5203 59.1635C99.55 59.1478 99.5825 59.1385 99.616 59.1362L100.376 59.0562C100.579 59.0363 100.783 59.0363 100.986 59.0562H101.416H101.786H102.156L103.856 58.9662C103.889 58.9635 103.922 58.9673 103.953 58.9774C103.985 58.9875 104.014 59.0037 104.039 59.025C104.064 59.0464 104.085 59.0725 104.1 59.1019C104.114 59.1313 104.123 59.1633 104.126 59.1962C104.129 59.2635 104.105 59.3293 104.061 59.3797C104.016 59.43 103.953 59.4611 103.886 59.4662L102.186 59.5562H101.776H101.376H100.986C100.806 59.547 100.626 59.547 100.446 59.5562L99.666 59.6362H99.636Z" fill="#281911"/>
<path opacity="0.6" d="M90.6373 92.2661C89.4977 92.1093 88.3736 91.855 87.2773 91.5061C85.8113 87.037 84.8061 82.4297 84.2773 77.7561C85.2157 83.029 87.3958 88.0028 90.6373 92.2661Z" fill="#B3B3B3"/>
<path d="M84.0269 72.3461L106.407 72.2361C106.407 72.2361 107.297 86.7361 116.957 92.4961C116.957 92.4961 101.407 95.256 90.8869 92.636C90.8869 92.636 83.1869 83.4461 84.0269 72.3461Z" fill="#FEA422"/>
<path d="M104.877 77.166C103.404 77.0278 101.923 76.9977 100.447 77.076H100.147C99.6448 77.1311 99.1384 77.1311 98.6366 77.076L98.2266 77.006C98.0254 76.9652 97.8215 76.9386 97.6166 76.926C97.3335 76.9253 97.0515 76.9588 96.7766 77.026C96.41 77.1125 96.0323 77.1429 95.6566 77.116C95.5912 77.1061 95.532 77.0716 95.4911 77.0196C95.4503 76.9676 95.4307 76.9019 95.4366 76.836C95.4403 76.8031 95.4505 76.7712 95.4667 76.7423C95.4828 76.7134 95.5045 76.6879 95.5306 76.6674C95.5566 76.6469 95.5864 76.6319 95.6184 76.623C95.6503 76.6142 95.6837 76.6118 95.7166 76.616C96.0521 76.6414 96.3894 76.6144 96.7166 76.536C97.0443 76.4593 97.38 76.4224 97.7166 76.426C97.945 76.4406 98.1722 76.4706 98.3966 76.516C98.5266 76.516 98.6466 76.566 98.7766 76.576C99.245 76.6309 99.7182 76.6309 100.187 76.576H100.487C101.99 76.4961 103.498 76.5296 104.997 76.676C105.061 76.6811 105.121 76.7111 105.164 76.7596C105.207 76.8081 105.229 76.8713 105.227 76.936C105.227 76.9776 105.216 77.0185 105.197 77.0552C105.177 77.0918 105.149 77.123 105.114 77.1458C105.079 77.1686 105.039 77.1824 104.998 77.186C104.956 77.1895 104.915 77.1826 104.877 77.166Z" fill="#281911"/>
<path d="M87.3575 79.5361C87.3095 79.533 87.2631 79.5175 87.2228 79.4913C87.1826 79.465 87.1497 79.4288 87.1275 79.3861C87.1033 79.3249 87.1033 79.2567 87.1275 79.1955C87.1516 79.1342 87.1981 79.0845 87.2575 79.0562C87.6298 78.8924 88.0308 78.804 88.4375 78.7961C88.7723 78.7989 89.1065 78.8256 89.4375 78.8762C89.6475 78.8762 89.8475 78.9361 90.0475 78.9461C90.3406 78.9611 90.6343 78.9611 90.9275 78.9461H92.6175C92.6507 78.9447 92.6838 78.9502 92.7148 78.9623C92.7458 78.9743 92.7739 78.9927 92.7974 79.0162C92.8209 79.0397 92.8393 79.0678 92.8513 79.0988C92.8634 79.1298 92.8689 79.1629 92.8675 79.1961C92.8675 79.2607 92.8426 79.3228 92.7978 79.3694C92.7531 79.4161 92.692 79.4435 92.6275 79.4461H90.9375C90.6275 79.4461 90.3175 79.4461 90.0075 79.4461L89.3775 79.3762C89.0473 79.3186 88.7126 79.2918 88.3775 79.2961C88.0338 79.3019 87.6944 79.3731 87.3775 79.5061C87.3719 79.5168 87.3652 79.5269 87.3575 79.5361Z" fill="#281911"/>
<path d="M95.0078 82.0862C94.9476 82.0862 94.8895 82.0645 94.844 82.0251C94.7985 81.9856 94.7688 81.9311 94.7603 81.8715C94.7518 81.8119 94.7651 81.7513 94.7977 81.7007C94.8303 81.6501 94.88 81.613 94.9378 81.5962C95.5114 81.4414 96.1038 81.3674 96.6978 81.3762C97.0978 81.3762 97.5078 81.3762 97.9078 81.4562C98.428 81.5269 98.9532 81.5537 99.4779 81.5362L100.018 81.4762C100.299 81.4288 100.583 81.402 100.868 81.3962C101.149 81.4046 101.429 81.428 101.708 81.4662H101.988C102.78 81.521 103.575 81.521 104.368 81.4662V81.9662C103.545 82.021 102.72 82.021 101.898 81.9662H101.618C101.356 81.9243 101.092 81.9009 100.828 81.8962C100.567 81.905 100.306 81.9284 100.048 81.9662C99.8591 81.997 99.6688 82.0171 99.4779 82.0262C98.9269 82.053 98.3746 82.0296 97.8278 81.9562C97.4394 81.9096 97.049 81.8829 96.6578 81.8762C96.1114 81.8718 95.5668 81.9389 95.0379 82.0761L95.0078 82.0862Z" fill="#281911"/>
<path d="M89.5762 85.1762C89.5099 85.1762 89.4463 85.1499 89.3994 85.103C89.3525 85.0561 89.3262 84.9925 89.3262 84.9262C89.3262 84.8599 89.3525 84.7963 89.3994 84.7494C89.4463 84.7025 89.5099 84.6762 89.5762 84.6762C90.4045 84.5029 91.2501 84.4256 92.0962 84.4462L92.7362 84.5062H93.1162C93.8499 84.5752 94.5894 84.5484 95.3162 84.4262H95.4362C95.6802 84.3793 95.9277 84.3525 96.1761 84.3462C96.3443 84.3507 96.5117 84.3708 96.6761 84.4062H96.8561C97.3145 84.4618 97.7778 84.4618 98.2361 84.4062H98.4662C98.6962 84.4062 98.9462 84.4062 99.1862 84.4062C99.3859 84.3912 99.5865 84.3912 99.7862 84.4062H99.9562C100.514 84.4781 101.074 84.5215 101.636 84.5362H104.826C104.893 84.5388 104.957 84.5673 105.004 84.6158C105.05 84.6643 105.076 84.7289 105.076 84.7962C105.074 84.8608 105.046 84.9218 105 84.9666C104.953 85.0113 104.891 85.0362 104.826 85.0362H101.636C101.096 85.0362 100.476 85.0362 99.8661 84.9662H99.6962C99.503 84.9563 99.3094 84.9563 99.1161 84.9662C98.9097 84.9517 98.7026 84.9517 98.4962 84.9662H98.2562C97.7583 85.0317 97.254 85.0317 96.7562 84.9662H96.5662C96.423 84.9564 96.2793 84.9564 96.1362 84.9662C95.9209 84.9653 95.7062 84.9888 95.4962 85.0362H95.3661C94.5967 85.1683 93.8129 85.1952 93.0362 85.1162H92.6462C92.4362 85.1162 92.2362 85.0662 92.0262 85.0562C91.2204 85.0387 90.4153 85.1124 89.6262 85.2762L89.5762 85.1762Z" fill="#281911"/>
<path d="M91.0077 88.586C90.9549 88.5867 90.9032 88.5706 90.8601 88.5401C90.8169 88.5095 90.7846 88.4661 90.7677 88.4161C90.7568 88.3846 90.7523 88.3512 90.7544 88.3179C90.7566 88.2847 90.7654 88.2522 90.7803 88.2223C90.7952 88.1925 90.8159 88.166 90.8413 88.1443C90.8666 88.1226 90.896 88.1062 90.9277 88.0961C91.4535 87.9275 92.0085 87.8696 92.5577 87.9261H92.7877C92.9275 87.9359 93.0679 87.9359 93.2077 87.9261C93.4155 87.92 93.6226 87.9 93.8277 87.8661C94.078 87.8171 94.3327 87.7936 94.5877 87.7961C94.7722 87.8089 94.9559 87.8323 95.1377 87.8661C95.2894 87.8992 95.4431 87.9226 95.5977 87.9361C95.7808 87.9508 95.9647 87.9508 96.1477 87.9361H96.2277C97.3261 87.8511 98.4294 87.8511 99.5277 87.9361C99.561 87.936 99.5939 87.9428 99.6244 87.956C99.6549 87.9693 99.6823 87.9888 99.7049 88.0133C99.7275 88.0377 99.7447 88.0666 99.7555 88.0981C99.7663 88.1295 99.7705 88.1629 99.7677 88.196C99.7626 88.2632 99.7316 88.3258 99.6812 88.3706C99.6309 88.4154 99.565 88.4389 99.4977 88.4361C98.426 88.3512 97.3494 88.3512 96.2777 88.4361H96.1977C95.988 88.4515 95.7774 88.4515 95.5677 88.4361C95.3932 88.4226 95.2195 88.3992 95.0477 88.3661C94.8892 88.3331 94.729 88.3097 94.5677 88.2961C94.3462 88.2916 94.1248 88.3118 93.9077 88.3561C93.6769 88.3999 93.4426 88.4233 93.2077 88.4261C93.0479 88.436 92.8875 88.436 92.7277 88.4261H92.5077C92.0258 88.3739 91.5383 88.425 91.0777 88.576L91.0077 88.586Z" fill="#281911"/>
<path d="M100.996 88.4662C100.942 88.4662 100.889 88.4487 100.846 88.4162C100.803 88.3838 100.771 88.3381 100.756 88.2862C100.746 88.254 100.742 88.22 100.745 88.1864C100.749 88.1527 100.76 88.1201 100.777 88.0908C100.794 88.0616 100.817 88.0362 100.844 88.0164C100.872 87.9967 100.903 87.983 100.936 87.9762C101.412 87.8728 101.902 87.8491 102.386 87.9062C102.646 87.9062 102.916 87.9062 103.166 87.9062H103.736C104.047 87.8604 104.362 87.8403 104.676 87.8462C104.844 87.8563 105.011 87.8764 105.176 87.9062C105.382 87.9252 105.59 87.9252 105.796 87.9062C105.909 87.9166 106.023 87.9166 106.136 87.9062C106.309 87.8955 106.483 87.8955 106.656 87.9062C106.783 87.8959 106.91 87.8959 107.036 87.9062H107.346C107.486 87.921 107.627 87.921 107.766 87.9062H107.836C108.372 87.8611 108.91 87.8611 109.446 87.9062C109.511 87.9113 109.571 87.9413 109.614 87.9898C109.657 88.0383 109.679 88.1015 109.676 88.1662C109.675 88.1991 109.667 88.2313 109.653 88.2611C109.64 88.291 109.62 88.3178 109.596 88.3401C109.572 88.3624 109.543 88.3797 109.513 88.3911C109.482 88.4024 109.449 88.4076 109.416 88.4062C108.911 88.3561 108.402 88.3561 107.896 88.4062H107.836C107.666 88.4211 107.496 88.4211 107.326 88.4062C107.206 88.416 107.086 88.416 106.966 88.4062C106.856 88.4062 106.756 88.4062 106.646 88.4062C106.503 88.3959 106.359 88.3959 106.216 88.4062C106.083 88.4166 105.949 88.4166 105.816 88.4062C105.575 88.4115 105.333 88.3914 105.096 88.3462L104.656 88.2962C104.369 88.2881 104.081 88.3048 103.796 88.3462L103.196 88.4062C102.916 88.4212 102.636 88.4212 102.356 88.4062C101.926 88.3596 101.49 88.3798 101.066 88.4662H100.996Z" fill="#281911"/>
<path d="M78.5266 16.5361C78.891 15.7813 78.9998 14.9283 78.8366 14.1061C78.5936 12.9205 77.9601 11.8505 77.0374 11.0674C76.1146 10.2842 74.9559 9.83306 73.7465 9.78611C72.9463 9.77742 72.1645 10.0263 71.5165 10.4961C71.5165 10.4061 71.5165 10.3361 71.5165 10.3361L71.0065 10.9261C70.6283 11.3519 70.3552 11.8606 70.2093 12.4111C70.0634 12.9617 70.0488 13.5388 70.1665 14.0961C70.4046 15.2842 71.0366 16.3571 71.9604 17.1411C72.8842 17.9252 74.0456 18.3744 75.2565 18.4161C75.7574 18.4252 76.2545 18.3293 76.7161 18.1347C77.1777 17.9401 77.5934 17.651 77.9365 17.2861L78.0665 17.1361L78.6265 16.4861L78.5266 16.5361Z" fill="#999999"/>
<path d="M78.5638 16.6291C80.0359 15.0191 79.6698 12.288 77.746 10.5289C75.8222 8.76977 73.0693 8.64885 71.5972 10.2588C70.125 11.8687 70.4912 14.5999 72.4149 16.359C74.3387 18.1181 77.0916 18.239 78.5638 16.6291Z" fill="#CCCCCC"/>
<defs>
<linearGradient id="paint0_linear_165_2414" x1="46.3812" y1="27.52" x2="115.425" y2="110.952" gradientUnits="userSpaceOnUse">
<stop stop-color="#C6E5A0" stop-opacity="0.25"/>
<stop offset="0.31" stop-color="#B9D898" stop-opacity="0.31"/>
<stop offset="0.69" stop-color="#95B483" stop-opacity="0.49"/>
<stop offset="1" stop-color="#688768" stop-opacity="0.7"/>
</linearGradient>
</defs>
</svg>
