<svg width="167" height="121" viewBox="0 0 167 121" fill="none" xmlns="http://www.w3.org/2000/svg">
<path d="M64.4475 37.8419H64.3475C64.25 37.8308 64.1558 37.8004 64.0701 37.7525C63.9845 37.7046 63.9093 37.6402 63.8488 37.5629C63.7883 37.4857 63.7438 37.3972 63.7178 37.3026C63.6918 37.208 63.6849 37.1092 63.6975 37.0119C64.2175 32.7819 67.0975 11.6519 72.2775 10.2219C72.4698 10.1689 72.6753 10.1944 72.8487 10.2929C73.0222 10.3913 73.1495 10.5546 73.2025 10.7469C73.2555 10.9392 73.23 11.1447 73.1316 11.3182C73.0331 11.4916 72.8698 11.6189 72.6775 11.6719C69.4175 12.5719 66.3475 27.8019 65.1875 37.1919C65.1634 37.3713 65.0752 37.5359 64.9392 37.6554C64.8032 37.7749 64.6285 37.8411 64.4475 37.8419Z" fill="#364436"/>
<path d="M94.3274 38.822C94.1888 38.8222 94.0528 38.7841 93.9345 38.7117C93.8162 38.6393 93.7203 38.5356 93.6574 38.412C90.1574 31.522 80.1074 13.292 75.6574 11.642C75.4704 11.573 75.3185 11.4326 75.2351 11.2516C75.1516 11.0706 75.1435 10.8639 75.2124 10.677C75.2814 10.49 75.4218 10.3381 75.6028 10.2546C75.7837 10.1712 75.9904 10.163 76.1774 10.232C81.9674 12.392 93.6574 35.152 94.9774 37.732C95.0648 37.9086 95.0792 38.1125 95.0174 38.2996C94.9557 38.4867 94.8228 38.6421 94.6474 38.732C94.5499 38.788 94.4399 38.8189 94.3274 38.822Z" fill="#364436"/>
<path d="M130.087 98.942L126.827 102.172C126.011 102.887 124.962 103.278 123.877 103.272H43.1973C41.7915 103.26 40.4405 102.725 39.4073 101.772C38.3528 100.849 37.6644 99.5791 37.4673 98.192L30.3773 44.812C30.3326 44.4533 30.3326 44.0905 30.3773 43.7319C30.3672 43.6926 30.3672 43.6513 30.3773 43.6119C30.4861 42.5826 30.9576 41.6255 31.7073 40.9119L34.9073 37.7419L35.4673 39.7419H115.467C116.866 39.7862 118.206 40.3181 119.254 41.2458C120.303 42.1736 120.993 43.4386 121.207 44.8219L128.307 98.2119C129.237 98.5519 130.087 98.942 130.087 98.942Z" fill="#567A56"/>
<path d="M128.257 98.1719L42.2574 98.3019L39.3774 101.722C38.3229 100.799 37.6345 99.529 37.4374 98.1419L30.3474 44.7619C30.3113 44.4028 30.3113 44.041 30.3474 43.6819C30.3372 43.6426 30.3372 43.6013 30.3474 43.5619C30.4562 42.5326 30.9276 41.5755 31.6774 40.8619L34.8774 37.6919L35.4374 39.6919H115.437C116.836 39.7361 118.176 40.2681 119.224 41.1958C120.273 42.1235 120.963 43.3886 121.177 44.7719L128.277 98.1619C128.27 98.1644 128.264 98.1678 128.257 98.1719Z" fill="#95AF95"/>
<path d="M127.036 100.092H46.3763C44.9754 100.05 43.6335 99.5189 42.5832 98.591C41.5329 97.6631 40.8405 96.3968 40.6263 95.0119L33.5363 41.6218C33.4249 40.9882 33.4557 40.3378 33.6266 39.7176C33.7975 39.0974 34.104 38.5229 34.5242 38.0357C34.9444 37.5486 35.4676 37.161 36.0559 36.9009C36.6443 36.6408 37.2832 36.5147 37.9263 36.5318H118.586C119.987 36.5764 121.328 37.1099 122.376 38.0396C123.425 38.9693 124.114 40.2367 124.326 41.6218L131.426 95.0119C131.534 95.6445 131.501 96.293 131.328 96.9112C131.156 97.5294 130.849 98.1017 130.429 98.5873C130.01 99.0728 129.488 99.4595 128.901 99.7196C128.315 99.9797 127.678 100.107 127.036 100.092Z" fill="#6F936F"/>
<path d="M131.427 95.002L124.327 41.6119C124.115 40.2268 123.425 38.9594 122.377 38.0297C121.328 37.1 119.988 36.5666 118.587 36.522H37.927C36.789 36.5105 35.69 36.9365 34.857 37.712L31.637 40.872C30.8872 41.5856 30.4158 42.5426 30.307 43.5719C30.2968 43.6113 30.2968 43.6526 30.307 43.6919C30.2622 44.0505 30.2622 44.4133 30.307 44.772L37.447 98.1719C37.6441 99.5591 38.3325 100.829 39.387 101.752C40.4202 102.705 41.7712 103.24 43.177 103.252H123.837C124.922 103.258 125.971 102.867 126.787 102.152L130.047 98.942C130.582 98.4487 130.988 97.8313 131.229 97.1442C131.47 96.4572 131.538 95.7215 131.427 95.002Z" fill="url(#paint0_linear_164_3759)"/>
<path d="M123.187 95.4919H48.6874C47.9549 95.4981 47.2455 95.2361 46.6928 94.7553C46.1402 94.2745 45.7826 93.6082 45.6874 92.8819L44.6874 86.0819L39.8074 51.4119L39.0174 45.8319L38.8574 44.6819C38.7889 44.2504 38.8155 43.8092 38.9353 43.3891C39.0551 42.969 39.2652 42.5801 39.5509 42.2496C39.8366 41.9191 40.191 41.6551 40.5894 41.4758C40.9878 41.2966 41.4206 41.2065 41.8574 41.2119H116.707C117.443 41.2063 118.155 41.4711 118.708 41.9559C119.261 42.4408 119.617 43.112 119.707 43.8419L119.937 45.5719L126.137 91.9819C126.212 92.4121 126.191 92.8534 126.077 93.2749C125.963 93.6963 125.759 94.0878 125.478 94.4221C125.197 94.7563 124.846 95.0252 124.451 95.21C124.055 95.3948 123.624 95.491 123.187 95.4919Z" fill="#F2F2F2"/>
<path d="M123.636 95.4518C123.861 94.9506 123.938 94.3952 123.856 93.8518L117.756 48.0118L117.516 46.3018C117.421 45.5755 117.064 44.9092 116.511 44.4284C115.958 43.9476 115.249 43.6856 114.516 43.6918H38.8965C39.0415 43.0047 39.4192 42.3888 39.9658 41.9479C40.5123 41.507 41.1943 41.2682 41.8965 41.2718H116.746C117.482 41.2662 118.194 41.531 118.747 42.0159C119.3 42.5007 119.656 43.1719 119.746 43.9018L119.977 45.6318L126.176 92.0418C126.234 92.4326 126.215 92.831 126.118 93.2142C126.022 93.5973 125.851 93.9577 125.615 94.2745C125.379 94.5914 125.083 94.8584 124.743 95.0605C124.404 95.2625 124.028 95.3955 123.636 95.4518Z" fill="#567A56"/>
<path d="M123.638 95.4519C123.491 95.4672 123.344 95.4672 123.198 95.4519H48.6976C47.9636 95.4578 47.2529 95.1944 46.7 94.7116C46.1472 94.2287 45.7905 93.56 45.6976 92.8319L44.6976 86.0419L39.8175 51.3719L39.0276 45.7819L38.8676 44.6419C38.8124 44.2941 38.8124 43.9397 38.8676 43.5919H114.488C115.22 43.5857 115.929 43.8477 116.482 44.3284C117.035 44.8092 117.392 45.4756 117.488 46.2019L117.728 47.9119L123.828 93.7519C123.938 94.3247 123.872 94.9177 123.638 95.4519Z" fill="#F2F2F2"/>
<path d="M58.1762 59.9218C53.4462 59.9218 48.9462 57.9918 48.1262 55.6118C47.9951 55.2514 47.9567 54.8638 48.0143 54.4846C48.072 54.1055 48.2239 53.7469 48.4562 53.4417C49.4562 51.9817 52.1362 51.0618 55.3762 51.0518H55.4562C60.1962 51.0518 64.6962 52.9818 65.5162 55.3618C65.6446 55.7226 65.6817 56.1096 65.6241 56.4883C65.5665 56.8669 65.4161 57.2254 65.1862 57.5317C64.1862 58.9917 61.4962 59.9118 58.2662 59.9218H58.1762ZM55.4662 51.5518H55.3762C52.3062 51.5518 49.8062 52.4018 48.8562 53.7318C48.6744 53.9728 48.5555 54.2554 48.5101 54.5539C48.4647 54.8524 48.4943 55.1575 48.5962 55.4417C49.3562 57.6417 53.6462 59.4417 58.1762 59.4417H58.2562C61.3362 59.4417 63.8362 58.5917 64.7762 57.2617C64.9605 57.0219 65.081 56.7393 65.1265 56.4402C65.172 56.1412 65.1409 55.8355 65.0362 55.5518C64.2862 53.3218 59.9962 51.5518 55.4662 51.5518Z" fill="#4D4D4D"/>
<path d="M73.6378 66.0318C69.9278 66.0318 66.5278 64.5618 65.8778 62.6818C65.7777 62.3956 65.749 62.0893 65.7943 61.7896C65.8396 61.4898 65.9576 61.2056 66.1378 60.9618C66.9378 59.8318 68.9978 59.1218 71.4978 59.1118H71.5578C75.2678 59.1118 78.6678 60.5718 79.3178 62.4618C79.422 62.7451 79.4537 63.0499 79.4101 63.3486C79.3664 63.6472 79.2487 63.9302 79.0678 64.1718C78.2578 65.3018 76.2078 66.0218 73.7078 66.0318H73.6378ZM71.5578 59.6118H71.4978C69.1878 59.6118 67.2478 60.2718 66.4978 61.2518C66.3606 61.4298 66.2712 61.6399 66.238 61.8622C66.2047 62.0844 66.2288 62.3115 66.3078 62.5218C66.8778 64.1818 70.1378 65.5218 73.5878 65.5218H73.6578C75.9578 65.5218 77.9078 64.8618 78.6078 63.8718C78.7424 63.6945 78.8303 63.4862 78.8635 63.2661C78.8967 63.0459 78.8741 62.821 78.7978 62.6118C78.2678 60.9518 75.0078 59.6118 71.5478 59.6118H71.5578Z" fill="#4D4D4D"/>
<path d="M53.2675 72.8818C49.7875 72.8818 46.5875 71.5018 45.9775 69.7318C45.881 69.4623 45.8534 69.173 45.8971 68.8901C45.9407 68.6073 46.0543 68.3397 46.2275 68.1118C46.9775 67.0418 48.9075 66.3818 51.2275 66.3618H51.2875C54.7675 66.3618 57.9575 67.7418 58.5675 69.5118C58.6653 69.7805 58.6945 70.0694 58.6526 70.3522C58.6107 70.6351 58.499 70.903 58.3275 71.1318C57.5675 72.2018 55.6475 72.8618 53.3275 72.8818H53.2675ZM51.3175 66.8818H51.2575C49.0975 66.8818 47.2575 67.5018 46.6375 68.4218C46.5115 68.586 46.4289 68.7793 46.3974 68.9838C46.366 69.1883 46.3866 69.3974 46.4575 69.5918C46.9775 71.1218 50.0975 72.4018 53.2675 72.4018H53.3275C55.4775 72.4018 57.3275 71.7818 57.9475 70.8618C58.0735 70.6977 58.156 70.5044 58.1875 70.2999C58.2189 70.0954 58.1983 69.8863 58.1275 69.6918C57.6375 68.1718 54.4875 66.8618 51.3175 66.8618V66.8818Z" fill="#4D4D4D"/>
<path d="M57.5561 86.8219C53.7061 86.8219 50.1861 85.3019 49.5561 83.3619C49.4504 83.0677 49.4197 82.7517 49.4668 82.4427C49.514 82.1336 49.6374 81.8412 49.8261 81.5919C50.6561 80.4119 52.8261 79.6819 55.3661 79.6719H55.436C59.276 79.6719 62.796 81.1819 63.436 83.1319C63.5418 83.4261 63.5725 83.742 63.5253 84.0511C63.4782 84.3601 63.3547 84.6525 63.1661 84.9019C62.3361 86.0719 60.1661 86.8119 57.6161 86.8219H57.5561ZM55.3961 80.1719H55.3261C52.9361 80.1719 50.916 80.8519 50.186 81.8719C50.0454 82.0579 49.9535 82.276 49.9186 82.5065C49.8837 82.737 49.9069 82.9726 49.9861 83.1919C50.5861 84.9219 53.9861 86.3219 57.5561 86.3219H57.6361C60.0361 86.3219 62.0461 85.6419 62.7761 84.6119C62.9167 84.4259 63.0086 84.2077 63.0435 83.9772C63.0785 83.7467 63.0553 83.5111 62.9761 83.2919C62.3661 81.5619 58.9761 80.1719 55.3961 80.1719Z" fill="#4D4D4D"/>
<path d="M76.9772 88.172C73.2872 88.172 69.8972 86.722 69.2572 84.842C69.1553 84.5578 69.1257 84.2527 69.1711 83.9542C69.2165 83.6556 69.3354 83.3731 69.5172 83.132C70.3072 82.012 72.3572 81.302 74.8472 81.292H74.9072C78.5972 81.292 81.9872 82.752 82.6272 84.622C82.7291 84.9062 82.7587 85.2113 82.7133 85.5098C82.6679 85.8083 82.549 86.0909 82.3672 86.332C81.5772 87.452 79.5272 88.162 77.0372 88.172H76.9772ZM74.9072 81.792H74.8472C72.5472 81.792 70.6172 82.442 69.9172 83.422C69.7834 83.5997 69.696 83.808 69.6628 84.028C69.6297 84.2479 69.6518 84.4727 69.7272 84.682C70.2972 86.342 73.5472 87.682 76.9772 87.682H77.0372C79.3372 87.682 81.2672 87.032 81.9672 86.052C82.1018 85.8747 82.1897 85.6664 82.2229 85.4462C82.2561 85.2261 82.2335 85.0011 82.1572 84.792C81.6372 83.092 78.3372 81.752 74.9072 81.752V81.792Z" fill="#4D4D4D"/>
<path d="M72.4174 78.2418C68.0974 78.2418 64.2274 76.7818 63.5774 74.9018C63.4874 74.6452 63.4622 74.3704 63.5041 74.1017C63.5459 73.833 63.6535 73.5789 63.8173 73.3618C64.6973 72.1218 67.1774 71.3618 70.2974 71.3618H70.3874C74.6974 71.3618 78.5673 72.8218 79.2173 74.7018C79.3073 74.9584 79.3325 75.2333 79.2906 75.502C79.2488 75.7706 79.1412 76.0248 78.9773 76.2418C78.0973 77.4918 75.6173 78.2418 72.5073 78.2418H72.4174ZM70.4174 71.8218H70.3374C67.4274 71.8218 65.0474 72.5518 64.2674 73.6518C64.1508 73.8051 64.0742 73.985 64.0445 74.1753C64.0148 74.3656 64.033 74.5603 64.0973 74.7418C64.6573 76.3718 68.4774 77.7418 72.4574 77.7418H72.5373C75.4473 77.7418 77.8274 77.0118 78.6074 75.9118C78.7248 75.7609 78.8027 75.5832 78.8341 75.3946C78.8656 75.206 78.8495 75.0126 78.7873 74.8318C78.1773 73.1718 74.3573 71.8218 70.3773 71.8218H70.4174Z" fill="#4D4D4D"/>
<path d="M68.2666 60.1018C68.2127 60.1005 68.1605 60.0831 68.1166 60.0519L64.8266 57.5919C64.7735 57.5521 64.7385 57.4928 64.7291 57.4272C64.7197 57.3616 64.7368 57.2949 64.7766 57.2419C64.8164 57.1888 64.8756 57.1537 64.9412 57.1444C65.0069 57.135 65.0735 57.1521 65.1266 57.1918L68.4166 59.6519C68.4428 59.6716 68.465 59.6962 68.4817 59.7245C68.4984 59.7527 68.5094 59.784 68.5141 59.8165C68.5187 59.849 68.5169 59.8821 68.5088 59.9139C68.5006 59.9457 68.4863 59.9756 68.4666 60.0018C68.4428 60.0323 68.4125 60.0571 68.3779 60.0744C68.3433 60.0917 68.3053 60.1011 68.2666 60.1018Z" fill="#4D4D4D"/>
<path d="M68.8971 71.8919C68.8584 71.8912 68.8204 71.8819 68.7858 71.8646C68.7512 71.8473 68.7209 71.8225 68.6971 71.792L59.3371 59.792C59.2973 59.7389 59.2802 59.6722 59.2896 59.6066C59.299 59.541 59.3341 59.4817 59.3871 59.442C59.4095 59.418 59.4366 59.399 59.4667 59.386C59.4968 59.3729 59.5293 59.3662 59.5621 59.3662C59.5949 59.3662 59.6274 59.3729 59.6575 59.386C59.6876 59.399 59.7147 59.418 59.7371 59.442L69.0971 71.442C69.1429 71.4887 69.1686 71.5515 69.1686 71.617C69.1686 71.6824 69.1429 71.7452 69.0971 71.792C69.0757 71.825 69.0459 71.8517 69.0108 71.8693C68.9756 71.8869 68.9363 71.8947 68.8971 71.8919Z" fill="#4D4D4D"/>
<path d="M53.8075 67.1118H53.7275C53.6657 67.0911 53.6144 67.0472 53.5845 66.9893C53.5546 66.9314 53.5485 66.8641 53.5675 66.8018L55.9075 59.4918C55.9154 59.4595 55.93 59.4292 55.9502 59.4028C55.9705 59.3765 55.996 59.3546 56.0252 59.3387C56.0543 59.3227 56.0864 59.3129 56.1196 59.31C56.1527 59.3071 56.186 59.3111 56.2175 59.3218C56.28 59.3445 56.3315 59.3903 56.3613 59.4499C56.3911 59.5094 56.3968 59.5781 56.3775 59.6418L54.0475 66.9518C54.0267 66.9984 53.9931 67.0382 53.9507 67.0665C53.9082 67.0948 53.8586 67.1105 53.8075 67.1118Z" fill="#4D4D4D"/>
<path d="M55.3269 80.1719C55.2652 80.1679 55.2067 80.143 55.1611 80.1011C55.1156 80.0593 55.0859 80.0031 55.0769 79.9419L54.2168 72.6518C54.2127 72.619 54.2151 72.5856 54.2239 72.5537C54.2327 72.5218 54.2478 72.4919 54.2683 72.4658C54.2887 72.4398 54.3142 72.418 54.3431 72.4019C54.3721 72.3858 54.4039 72.3756 54.4368 72.3719C54.4697 72.3677 54.5031 72.3701 54.535 72.3789C54.567 72.3877 54.5968 72.4028 54.6229 72.4233C54.6489 72.4437 54.6706 72.4692 54.6868 72.4982C54.7029 72.5271 54.7131 72.5589 54.7168 72.5918L55.5769 79.8918C55.581 79.9242 55.5786 79.957 55.5696 79.9883C55.5607 80.0197 55.5455 80.0489 55.5249 80.0741C55.5043 80.0994 55.4788 80.1202 55.4499 80.1353C55.421 80.1504 55.3894 80.1594 55.3569 80.1619L55.3269 80.1719Z" fill="#4D4D4D"/>
<path d="M70.2066 86.0217H70.1467L63.2066 84.2917C63.1426 84.273 63.0882 84.2304 63.0547 84.1727C63.0212 84.115 63.0111 84.0466 63.0267 83.9817C63.0348 83.9493 63.0493 83.9188 63.0694 83.8921C63.0895 83.8654 63.1147 83.8431 63.1436 83.8263C63.1725 83.8095 63.2045 83.7987 63.2377 83.7945C63.2708 83.7903 63.3045 83.7927 63.3367 83.8017L70.2666 85.5317C70.3329 85.5397 70.3934 85.5736 70.4346 85.6261C70.4759 85.6787 70.4946 85.7454 70.4866 85.8118C70.4787 85.8781 70.4447 85.9385 70.3922 85.9797C70.3397 86.021 70.273 86.0397 70.2066 86.0317V86.0217Z" fill="#4D4D4D"/>
<path d="M68.8578 62.9219L68.7578 62.4319C69.042 62.3779 69.3292 62.3412 69.6178 62.3219C69.7778 62.3219 69.9378 62.3219 70.0878 62.3219C70.3295 62.362 70.5761 62.362 70.8178 62.3219H70.9278L71.1178 62.2719C71.4019 62.2173 71.6937 62.2173 71.9778 62.2719C72.1838 62.3218 72.3965 62.3387 72.6078 62.3219H72.7478H72.9178C73.1927 62.2771 73.4729 62.2771 73.7478 62.3219C73.9732 62.3551 74.2024 62.3551 74.4278 62.3219H74.5878H74.7878C75.0723 62.2722 75.3633 62.2722 75.6478 62.3219C75.8833 62.3555 76.1223 62.3555 76.3578 62.3219C76.3894 62.3129 76.4224 62.3106 76.4549 62.3149C76.4874 62.3192 76.5186 62.3301 76.5468 62.347C76.5749 62.3638 76.5992 62.3863 76.6183 62.4129C76.6374 62.4396 76.6509 62.4698 76.6578 62.5019C76.6652 62.534 76.6661 62.5674 76.6606 62.5999C76.655 62.6324 76.643 62.6636 76.6253 62.6915C76.6077 62.7194 76.5847 62.7435 76.5576 62.7624C76.5306 62.7814 76.5 62.7948 76.4678 62.8019C76.1737 62.8567 75.872 62.8567 75.5778 62.8019C75.3461 62.7631 75.1095 62.7631 74.8778 62.8019H74.7278L74.5078 62.8519C74.233 62.8967 73.9527 62.8967 73.6778 62.8519C73.4557 62.8189 73.2299 62.8189 73.0078 62.8519H72.8778H72.6878C72.4202 62.8802 72.1498 62.8633 71.8878 62.8019C71.6694 62.764 71.4462 62.764 71.2278 62.8019H71.0878L70.9378 62.8519C70.6433 62.902 70.3424 62.902 70.0478 62.8519C69.9015 62.8373 69.7541 62.8373 69.6078 62.8519C69.3562 62.8515 69.1051 62.875 68.8578 62.9219Z" fill="#4D4D4D"/>
<path d="M52.9266 84.3019C52.8686 84.3012 52.8124 84.2812 52.7671 84.2449C52.7218 84.2087 52.69 84.1583 52.6766 84.1019C52.6671 84.036 52.6823 83.9689 52.7192 83.9136C52.7561 83.8582 52.8121 83.8184 52.8766 83.8019C53.1608 83.729 53.4531 83.692 53.7466 83.6919H54.2166C54.4549 83.7322 54.6983 83.7322 54.9366 83.6919H55.0566L55.2466 83.6319C55.5273 83.5771 55.8159 83.5771 56.0966 83.6319C56.3087 83.6644 56.5245 83.6644 56.7366 83.6319H56.8666H57.0466C57.3215 83.5873 57.6017 83.5873 57.8766 83.6319C58.0987 83.665 58.3245 83.665 58.5466 83.6319H58.7066H58.9166C59.1982 83.5872 59.485 83.5872 59.7666 83.6319C60.005 83.6705 60.2481 83.6705 60.4866 83.6319C60.5188 83.6245 60.5521 83.6236 60.5846 83.6291C60.6172 83.6347 60.6483 83.6467 60.6762 83.6644C60.7041 83.682 60.7282 83.705 60.7471 83.732C60.7661 83.7591 60.7795 83.7896 60.7866 83.8219C60.7988 83.8867 60.7861 83.9536 60.7508 84.0093C60.7155 84.065 60.6604 84.1053 60.5966 84.1219C60.2991 84.1765 59.9941 84.1765 59.6966 84.1219C59.4678 84.0881 59.2353 84.0881 59.0066 84.1219H58.8466H58.6366C58.3588 84.1715 58.0744 84.1715 57.7966 84.1219C57.5741 84.0936 57.349 84.0936 57.1266 84.1219H56.9966H56.8066C56.5418 84.1467 56.2746 84.1264 56.0166 84.0619C55.7948 84.0242 55.5683 84.0242 55.3466 84.0619H55.2166H55.0666C54.7687 84.1119 54.4645 84.1119 54.1666 84.0619H53.7466C53.4909 84.0742 53.2367 84.1076 52.9866 84.1618L52.9266 84.3019Z" fill="#4D4D4D"/>
<path d="M48.7478 69.9619C48.7055 69.9613 48.664 69.9499 48.6273 69.929C48.5906 69.908 48.5598 69.878 48.5378 69.8419C48.5198 69.8146 48.5075 69.7839 48.5018 69.7517C48.496 69.7195 48.4969 69.6864 48.5044 69.6546C48.5119 69.6228 48.5258 69.5928 48.5453 69.5665C48.5648 69.5403 48.5895 69.5183 48.6178 69.5019C48.7707 69.3997 48.9453 69.3346 49.1278 69.3119C49.3036 69.3098 49.4788 69.3334 49.6478 69.3819L49.9978 69.4419C50.0543 69.4475 50.1113 69.4475 50.1678 69.4419H50.2878C50.5204 69.4169 50.7551 69.4169 50.9878 69.4419C51.0208 69.4428 51.0533 69.4509 51.0829 69.4655C51.1126 69.4801 51.1387 69.5009 51.1596 69.5265C51.1805 69.5521 51.1956 69.582 51.2039 69.614C51.2122 69.6459 51.2136 69.6793 51.2078 69.7119C51.2053 69.7447 51.1963 69.7768 51.1813 69.8062C51.1663 69.8355 51.1457 69.8617 51.1206 69.8831C51.0955 69.9044 51.0665 69.9206 51.0351 69.9307C51.0037 69.9408 50.9706 69.9446 50.9378 69.9419C50.7449 69.9224 50.5506 69.9224 50.3578 69.9419H50.2578H50.0078C49.8491 69.9355 49.6915 69.912 49.5378 69.8719C49.4133 69.8397 49.2861 69.8196 49.1578 69.8119C49.0605 69.8273 48.9681 69.8649 48.8878 69.9219C48.8461 69.9488 48.7974 69.9627 48.7478 69.9619Z" fill="#4D4D4D"/>
<path d="M73.4473 75.1718C73.4045 75.1722 73.3623 75.1624 73.324 75.1433C73.2858 75.1241 73.2526 75.0962 73.2273 75.0618C73.194 75.0032 73.1848 74.9338 73.2015 74.8685C73.2183 74.8032 73.2598 74.747 73.3173 74.7117C73.4647 74.6078 73.6375 74.5456 73.8173 74.5318C73.9927 74.5259 74.1679 74.5461 74.3373 74.5918L74.6873 74.6518H74.8573H74.9873C75.2133 74.6267 75.4413 74.6267 75.6673 74.6518C75.7002 74.6543 75.7322 74.6633 75.7616 74.6782C75.791 74.6932 75.8171 74.7138 75.8385 74.7389C75.8599 74.764 75.8761 74.7931 75.8862 74.8245C75.8962 74.8559 75.9001 74.8889 75.8973 74.9218C75.8976 74.9547 75.8908 74.9872 75.8774 75.0173C75.864 75.0473 75.8444 75.0742 75.8197 75.096C75.7951 75.1178 75.766 75.1341 75.7346 75.1437C75.7031 75.1533 75.6699 75.156 75.6373 75.1518C75.4411 75.1324 75.2435 75.1324 75.0473 75.1518H74.9473C74.8641 75.1572 74.7806 75.1572 74.6973 75.1518C74.5383 75.1488 74.3803 75.1253 74.2273 75.0817C74.1043 75.0697 73.9804 75.0697 73.8573 75.0817C73.7546 75.0875 73.6564 75.1261 73.5773 75.1918C73.533 75.1945 73.4887 75.1877 73.4473 75.1718Z" fill="#4D4D4D"/>
<path d="M51.3465 56.082C51.2928 56.0804 51.241 56.0623 51.198 56.0301C51.155 55.9978 51.1231 55.9531 51.1066 55.902C51.0876 55.8397 51.0937 55.7724 51.1236 55.7145C51.1534 55.6566 51.2047 55.6126 51.2666 55.592C51.5904 55.4946 51.9313 55.4673 52.2666 55.512H52.4065H52.6865C52.7763 55.5216 52.8668 55.5216 52.9566 55.512H53.1966C53.3531 55.5021 53.51 55.5021 53.6666 55.512C53.7797 55.522 53.8934 55.522 54.0065 55.512C54.1178 55.5051 54.2283 55.4884 54.3366 55.462C54.555 55.4254 54.7781 55.4254 54.9965 55.462H55.2265H55.3165C55.7046 55.5167 56.0985 55.5167 56.4866 55.462C56.5194 55.4592 56.5525 55.463 56.5838 55.4731C56.6152 55.4832 56.6443 55.4994 56.6694 55.5208C56.6945 55.5422 56.7151 55.5683 56.7301 55.5977C56.745 55.6271 56.754 55.6591 56.7565 55.692C56.7593 55.7593 56.7359 55.8251 56.6911 55.8755C56.6463 55.9258 56.5838 55.9569 56.5166 55.962C56.0849 56.0158 55.6482 56.0158 55.2165 55.962H55.1265H54.9365C54.7708 55.9372 54.6023 55.9372 54.4365 55.962C54.1714 56.0247 53.8974 56.0416 53.6265 56.012C53.5001 56.0021 53.373 56.0021 53.2465 56.012H53.0466C52.9316 56.0544 52.8087 56.0715 52.6865 56.062C52.5667 56.0718 52.4464 56.0718 52.3266 56.062H52.1966C51.9255 56.02 51.6485 56.0405 51.3866 56.122L51.3465 56.082Z" fill="#4D4D4D"/>
<path d="M66.6364 75.2519C66.5852 75.2505 66.5358 75.2334 66.4946 75.203C66.4535 75.1726 66.4227 75.1303 66.4064 75.0819C66.3954 75.0504 66.3909 75.017 66.3931 74.9838C66.3953 74.9505 66.404 74.918 66.419 74.8882C66.4339 74.8584 66.4546 74.8318 66.4799 74.8101C66.5052 74.7884 66.5346 74.7721 66.5664 74.7619C66.89 74.6636 67.2311 74.6363 67.5664 74.6819H67.7064C67.7994 74.6928 67.8934 74.6928 67.9864 74.6819C68.0763 74.6873 68.1664 74.6873 68.2564 74.6819H68.4963C68.6527 74.6669 68.81 74.6669 68.9663 74.6819C69.0795 74.6915 69.1932 74.6915 69.3064 74.6819C69.4195 74.6923 69.5333 74.6923 69.6464 74.6819C69.8589 74.6298 70.0779 74.6096 70.2964 74.6219L70.5364 74.6719H70.6364C71.0244 74.7266 71.4183 74.7266 71.8064 74.6719C71.8727 74.6719 71.9362 74.6982 71.9831 74.7451C72.03 74.792 72.0564 74.8556 72.0564 74.9219C72.0564 74.9882 72.03 75.0518 71.9831 75.0986C71.9362 75.1455 71.8727 75.1719 71.8064 75.1719C71.3751 75.2312 70.9377 75.2312 70.5064 75.1719H70.4064H70.2163C70.048 75.1587 69.8787 75.1756 69.7163 75.2219C69.5799 75.2323 69.4428 75.2323 69.3064 75.2219C69.1766 75.2317 69.0462 75.2317 68.9164 75.2219C68.7868 75.2069 68.6559 75.2069 68.5264 75.2219C68.4601 75.2122 68.3927 75.2122 68.3264 75.2219C68.2066 75.2317 68.0861 75.2317 67.9663 75.2219H67.6064H67.4864C67.212 75.1798 66.9317 75.2003 66.6664 75.2819L66.6364 75.2519Z" fill="#4D4D4D"/>
<path d="M75.1268 84.942C75.074 84.9426 75.0223 84.9265 74.9792 84.8959C74.9361 84.8654 74.9038 84.822 74.8868 84.7719C74.8759 84.7404 74.8714 84.7071 74.8736 84.6738C74.8757 84.6406 74.8845 84.6081 74.8995 84.5783C74.9144 84.5484 74.9351 84.5219 74.9604 84.5002C74.9857 84.4785 75.0151 84.4621 75.0469 84.452C75.3707 84.3546 75.7116 84.3273 76.0469 84.372H76.1868H76.4569H76.7268H76.9668C77.1265 84.357 77.2872 84.357 77.4468 84.372C77.5566 84.3819 77.6671 84.3819 77.7769 84.372C77.8919 84.3708 78.0063 84.354 78.1169 84.322C78.3357 84.2898 78.558 84.2898 78.7769 84.322H79.0068H79.0869C79.4783 84.3766 79.8754 84.3766 80.2669 84.322C80.3 84.3192 80.3334 84.3233 80.3648 84.3341C80.3963 84.3449 80.4252 84.3622 80.4496 84.3848C80.4741 84.4073 80.4936 84.4347 80.5069 84.4652C80.5202 84.4957 80.527 84.5287 80.5269 84.562C80.5297 84.6266 80.5072 84.6899 80.4643 84.7383C80.4214 84.7868 80.3614 84.8168 80.2969 84.822C79.8659 84.8857 79.4278 84.8857 78.9968 84.822H78.8969H78.7168C78.5511 84.7972 78.3826 84.7972 78.2168 84.822C78.0827 84.8566 77.9453 84.8767 77.8069 84.882C77.6737 84.892 77.54 84.892 77.4068 84.882C77.277 84.872 77.1467 84.872 77.0169 84.882H76.8269C76.704 84.8967 76.5797 84.8967 76.4569 84.882C76.3404 84.8912 76.2233 84.8912 76.1068 84.882H75.9768C75.7025 84.8405 75.4223 84.861 75.1568 84.942H75.1268Z" fill="#4D4D4D"/>
<path d="M54.0864 69.9919H53.9563H53.7063H53.5864C53.3668 69.9718 53.1459 69.9718 52.9263 69.9919L52.0063 70.0519C51.9735 70.0532 51.9407 70.0481 51.9099 70.0368C51.879 70.0254 51.8507 70.0081 51.8266 69.9858C51.8024 69.9635 51.7829 69.9367 51.7692 69.9068C51.7554 69.877 51.7476 69.8447 51.7463 69.8119C51.7435 69.7472 51.766 69.6839 51.8089 69.6355C51.8518 69.587 51.9118 69.557 51.9763 69.5519L52.8964 69.4919C53.1555 69.4623 53.4172 69.4623 53.6763 69.4919H53.8064H54.0063C54.1159 69.5065 54.2268 69.5065 54.3364 69.4919C54.8551 69.4418 55.3776 69.4418 55.8964 69.4919C55.9609 69.497 56.0209 69.527 56.0638 69.5755C56.1067 69.6239 56.1291 69.6872 56.1263 69.7519C56.1266 69.7861 56.1196 69.8199 56.1057 69.8512C56.0918 69.8825 56.0714 69.9105 56.0458 69.9332C56.0202 69.9559 55.9901 69.9729 55.9574 69.983C55.9247 69.9931 55.8903 69.9962 55.8563 69.9919C55.3808 69.9465 54.9019 69.9465 54.4263 69.9919H54.0864Z" fill="#4D4D4D"/>
<path d="M59.8875 56.0019H59.7675L59.5175 55.9519H59.3975C59.1782 55.927 58.9568 55.927 58.7375 55.9519L57.8175 56.0019C57.7849 56.0062 57.7517 56.0035 57.7202 55.9938C57.6888 55.9842 57.6597 55.9679 57.6351 55.9461C57.6104 55.9243 57.5908 55.8975 57.5774 55.8674C57.564 55.8374 57.5572 55.8048 57.5575 55.7719C57.5548 55.7391 57.5585 55.706 57.5686 55.6746C57.5787 55.6432 57.5949 55.6142 57.6163 55.5891C57.6377 55.564 57.6638 55.5433 57.6932 55.5284C57.7226 55.5134 57.7546 55.5044 57.7875 55.5019L58.6575 55.4519C58.93 55.4219 59.205 55.4219 59.4775 55.4519H59.6175H59.8175C59.9239 55.4616 60.031 55.4616 60.1375 55.4519C60.6563 55.4021 61.1787 55.4021 61.6975 55.4519C61.7308 55.4518 61.7637 55.4586 61.7942 55.4719C61.8247 55.4852 61.8521 55.5047 61.8747 55.5291C61.8972 55.5536 61.9145 55.5825 61.9253 55.6139C61.9361 55.6454 61.9403 55.6788 61.9375 55.7119C61.9324 55.7791 61.9014 55.8417 61.851 55.8865C61.8006 55.9312 61.7348 55.9547 61.6675 55.9519C61.1919 55.9066 60.7131 55.9066 60.2375 55.9519L59.8875 56.0019Z" fill="#4D4D4D"/>
<path d="M53.4371 82.8719L53.2871 82.3918C53.5196 82.3091 53.7614 82.2554 54.0071 82.2319C54.1868 82.2169 54.3674 82.2169 54.5471 82.2319H54.6371C55.0988 82.2871 55.5654 82.2871 56.0271 82.2319H56.0871C56.2598 82.2111 56.4344 82.2111 56.6071 82.2319L56.9171 82.2819H57.1271C57.2831 82.3019 57.4411 82.3019 57.5971 82.2819H58.5971C58.6303 82.2791 58.6636 82.2833 58.6951 82.2941C58.7266 82.3049 58.7555 82.3221 58.7799 82.3447C58.8044 82.3672 58.8238 82.3947 58.8371 82.4252C58.8504 82.4557 58.8572 82.4886 58.8571 82.5218C58.8599 82.555 58.8557 82.5884 58.8449 82.6199C58.8341 82.6513 58.8169 82.6802 58.7943 82.7046C58.7717 82.7291 58.7443 82.7486 58.7138 82.7619C58.6833 82.7752 58.6504 82.782 58.6171 82.7819H57.6171C57.431 82.8017 57.2433 82.8017 57.0571 82.7819H56.8171H56.5571C56.4242 82.7672 56.29 82.7672 56.1571 82.7819H56.0871C55.5887 82.8371 55.0856 82.8371 54.5871 82.7819H54.4571C54.3075 82.7673 54.1568 82.7673 54.0071 82.7819C53.8139 82.7855 53.6221 82.8158 53.4371 82.8719Z" fill="#4D4D4D"/>
<path d="M71.6366 84.9619C71.5752 84.9623 71.5158 84.9401 71.4697 84.8995C71.4236 84.859 71.394 84.8029 71.3866 84.7419C71.3809 84.7103 71.3816 84.6779 71.3886 84.6466C71.3957 84.6153 71.4089 84.5857 71.4275 84.5596C71.4462 84.5335 71.4698 84.5114 71.4972 84.4946C71.5245 84.4778 71.5549 84.4667 71.5867 84.4619H71.9066C72.0727 84.4418 72.2406 84.4418 72.4066 84.4619H72.7166H73.4766C73.5098 84.4577 73.5434 84.4604 73.5754 84.47C73.6074 84.4795 73.637 84.4956 73.6624 84.5173C73.6878 84.5389 73.7084 84.5656 73.723 84.5957C73.7375 84.6258 73.7455 84.6585 73.7466 84.6919C73.7494 84.7247 73.7456 84.7578 73.7355 84.7892C73.7254 84.8206 73.7092 84.8496 73.6878 84.8747C73.6664 84.8998 73.6403 84.9205 73.611 84.9354C73.5816 84.9504 73.5495 84.9593 73.5167 84.9619H72.7566H72.3566C72.2271 84.9469 72.0962 84.9469 71.9666 84.9619H71.6566H71.6366Z" fill="#4D4D4D"/>
<path opacity="0.6" d="M116.407 87.6619C115.267 87.505 114.143 87.2507 113.047 86.9019C111.583 82.4322 110.578 77.8251 110.047 73.1519C110.981 78.4259 113.162 83.4005 116.407 87.6619Z" fill="#B3B3B3"/>
<path d="M109.787 67.7418L132.167 67.6218C132.167 67.6218 133.057 82.1218 142.727 87.8918C142.727 87.8918 127.167 90.6418 116.647 88.0218C116.637 88.0218 108.947 78.8318 109.787 67.7418Z" fill="#4AC3FB"/>
<path d="M117.367 72.752C117.055 72.744 116.744 72.7105 116.437 72.652L115.897 72.582H115.607H115.397C115.177 72.5739 114.957 72.6043 114.747 72.672C114.468 72.7692 114.171 72.8033 113.877 72.772C113.775 72.7582 113.675 72.7348 113.577 72.702L113.407 72.652C113.088 72.6167 112.764 72.6474 112.457 72.742C112.394 72.7572 112.327 72.7469 112.27 72.7132C112.214 72.6796 112.174 72.6253 112.157 72.562C112.142 72.4984 112.152 72.4313 112.186 72.3753C112.22 72.3192 112.274 72.2786 112.337 72.262C112.718 72.1392 113.122 72.1083 113.517 72.172H113.727C113.799 72.1979 113.872 72.218 113.947 72.232C114.179 72.2582 114.414 72.2378 114.637 72.172C114.904 72.0826 115.186 72.0452 115.467 72.062H115.687H115.967C116.155 72.0755 116.342 72.0989 116.527 72.132C116.928 72.2206 117.34 72.2409 117.747 72.192C117.812 72.1803 117.879 72.1948 117.933 72.2323C117.988 72.2697 118.025 72.3271 118.037 72.392C118.043 72.4249 118.042 72.4586 118.034 72.4911C118.027 72.5236 118.013 72.5543 117.993 72.5813C117.974 72.6083 117.949 72.6312 117.92 72.6485C117.892 72.6657 117.86 72.6772 117.827 72.682C117.677 72.7222 117.523 72.7456 117.367 72.752Z" fill="#281911"/>
<path d="M119.557 72.7719C119.51 72.7701 119.464 72.7551 119.425 72.7286C119.386 72.702 119.356 72.6651 119.337 72.6219C119.322 72.5926 119.313 72.5604 119.311 72.5275C119.309 72.4947 119.314 72.4617 119.325 72.4308C119.336 72.3998 119.354 72.3715 119.376 72.3476C119.399 72.3237 119.426 72.3047 119.457 72.2919C120.02 72.09 120.624 72.0283 121.217 72.1119C121.599 72.152 121.984 72.152 122.367 72.1119L122.617 72.0519C122.751 72.018 122.888 71.9946 123.027 71.9819C123.385 71.9583 123.746 71.9853 124.097 72.0619C124.425 72.1346 124.762 72.1549 125.097 72.1219C125.129 72.1145 125.162 72.1136 125.195 72.1191C125.227 72.1247 125.258 72.1367 125.286 72.1544C125.314 72.172 125.338 72.195 125.357 72.222C125.376 72.2491 125.39 72.2796 125.397 72.3119C125.404 72.3435 125.405 72.3761 125.399 72.408C125.394 72.4399 125.381 72.4703 125.364 72.4974C125.346 72.5245 125.323 72.5478 125.296 72.5657C125.269 72.5837 125.239 72.596 125.207 72.6019C124.797 72.682 124.376 72.682 123.967 72.6019C123.658 72.5377 123.342 72.5108 123.027 72.5219L122.677 72.5919L122.397 72.6519C121.978 72.6969 121.556 72.6969 121.137 72.6519C120.627 72.5736 120.106 72.6182 119.617 72.7819C119.596 72.7816 119.576 72.7782 119.557 72.7719Z" fill="#281911"/>
<path d="M117.047 76.2818C116.987 76.2818 116.929 76.2601 116.883 76.2207C116.838 76.1813 116.808 76.1268 116.799 76.0672C116.791 76.0076 116.804 75.9469 116.837 75.8964C116.869 75.8458 116.919 75.8087 116.977 75.7918C117.547 75.5763 118.161 75.5009 118.767 75.5718L119.117 75.6518L119.437 75.7218C119.835 75.7695 120.239 75.7423 120.627 75.6418L121.197 75.5518C121.616 75.5218 122.037 75.5218 122.457 75.5518H122.637C123.307 75.5518 123.977 75.5518 124.637 75.5518H125.267C126.139 75.55 127.01 75.5033 127.877 75.4118H128.047C128.335 75.3674 128.626 75.344 128.917 75.3418L129.417 75.4018H129.577C130.086 75.4517 130.598 75.4517 131.107 75.4018C131.139 75.3991 131.172 75.4029 131.203 75.4131C131.233 75.4234 131.262 75.4397 131.286 75.4612C131.31 75.4827 131.33 75.5089 131.344 75.5382C131.358 75.5675 131.366 75.5994 131.367 75.6318C131.37 75.6965 131.347 75.7597 131.304 75.8082C131.261 75.8567 131.201 75.8867 131.137 75.8918C130.599 75.9517 130.055 75.9517 129.517 75.8918H129.347H128.897C128.636 75.8922 128.375 75.9124 128.117 75.9518H127.947C127.057 76.0618 126.147 76.0718 125.277 76.0918H124.637C123.977 76.0918 123.297 76.0918 122.637 76.0918H122.407C122.014 76.0617 121.62 76.0617 121.227 76.0918L120.687 76.1718C120.239 76.2841 119.774 76.3113 119.317 76.2518L118.957 76.1718L118.647 76.1018C118.118 76.0538 117.585 76.1256 117.087 76.3118L117.047 76.2818Z" fill="#281911"/>
<path d="M116.856 80.3617C116.595 80.365 116.335 80.3483 116.076 80.3118H115.926C115.767 80.2885 115.606 80.2885 115.446 80.3118H115.286C115.12 80.364 114.942 80.364 114.776 80.3118C114.744 80.3047 114.714 80.2912 114.687 80.2723C114.66 80.2533 114.637 80.2292 114.619 80.2013C114.601 80.1735 114.589 80.1423 114.584 80.1098C114.578 80.0773 114.579 80.044 114.586 80.0118C114.593 79.9795 114.607 79.949 114.626 79.9219C114.645 79.8949 114.669 79.8719 114.697 79.8542C114.725 79.8366 114.756 79.8246 114.788 79.819C114.821 79.8134 114.854 79.8144 114.886 79.8218C114.971 79.848 115.062 79.848 115.146 79.8218H115.356C115.571 79.7814 115.792 79.7814 116.006 79.8218H116.146C116.516 79.8565 116.887 79.8565 117.256 79.8218C117.29 79.8173 117.324 79.8202 117.356 79.8304C117.388 79.8406 117.418 79.8578 117.443 79.8807C117.468 79.9036 117.487 79.9317 117.5 79.963C117.512 79.9943 117.518 80.028 117.516 80.0618C117.517 80.1274 117.492 80.1907 117.447 80.2389C117.403 80.2871 117.342 80.3167 117.276 80.3218L116.856 80.3617Z" fill="#281911"/>
<path d="M119.107 80.4118C119.051 80.4101 118.996 80.3889 118.953 80.3518C118.909 80.3148 118.88 80.264 118.87 80.208C118.859 80.152 118.868 80.0941 118.895 80.0438C118.922 79.9936 118.965 79.9541 119.018 79.9318C119.654 79.6859 120.342 79.6068 121.018 79.7019L121.348 79.7519C121.613 79.815 121.886 79.8353 122.158 79.8118C122.27 79.7958 122.38 79.769 122.488 79.7318C122.959 79.5624 123.476 79.5624 123.948 79.7318C124.178 79.7857 124.412 79.8224 124.648 79.8418C124.873 79.8337 125.097 79.807 125.318 79.7619C125.676 79.6646 126.052 79.6475 126.418 79.7118L126.668 79.7818L126.888 79.8418C127.126 79.8854 127.369 79.8854 127.608 79.8418H127.818C128.18 79.8027 128.543 79.7827 128.908 79.7818H133.138C133.204 79.7818 133.267 79.8082 133.314 79.8551C133.361 79.9019 133.388 79.9655 133.388 80.0318C133.388 80.0981 133.361 80.1618 133.314 80.2086C133.267 80.2555 133.204 80.2818 133.138 80.2818H128.898C128.563 80.2829 128.229 80.303 127.898 80.3418H127.698C127.401 80.4024 127.094 80.4024 126.798 80.3418L126.528 80.2718L126.318 80.2118C126.017 80.1644 125.711 80.1815 125.418 80.2619C125.165 80.3182 124.907 80.3483 124.648 80.3518C124.377 80.3337 124.11 80.2902 123.848 80.2218C123.568 80.1421 123.278 80.1083 122.988 80.1218C122.869 80.139 122.752 80.1657 122.638 80.2019C122.507 80.2457 122.373 80.2791 122.238 80.3018C121.903 80.3331 121.565 80.3094 121.238 80.2318L120.928 80.1818C120.34 80.0991 119.741 80.1679 119.188 80.3819C119.164 80.3981 119.136 80.4084 119.107 80.4118Z" fill="#281911"/>
<path d="M117.727 84.7519C117.605 84.75 117.484 84.7332 117.367 84.7019C117.335 84.695 117.305 84.6815 117.278 84.6624C117.251 84.6433 117.229 84.6189 117.212 84.5908C117.195 84.5627 117.184 84.5315 117.18 84.499C117.176 84.4665 117.178 84.4334 117.187 84.4019C117.203 84.3386 117.244 84.2843 117.3 84.2507C117.356 84.217 117.423 84.2067 117.487 84.2219C117.731 84.2762 117.983 84.2762 118.227 84.2219C118.44 84.1731 118.658 84.1463 118.877 84.1418C119.055 84.1547 119.232 84.1781 119.407 84.2119H119.687C119.916 84.2317 120.147 84.2317 120.377 84.2119L122.377 84.1619C122.537 84.1619 122.637 84.2619 122.637 84.4019C122.637 84.4675 122.612 84.5308 122.568 84.579C122.523 84.6272 122.462 84.6568 122.397 84.6619L120.397 84.7119C120.141 84.7366 119.883 84.7366 119.627 84.7119H119.317C119.166 84.6747 119.012 84.6512 118.857 84.6418C118.675 84.6517 118.495 84.6751 118.317 84.7119C118.122 84.7453 117.924 84.7588 117.727 84.7519Z" fill="#281911"/>
<path d="M123.817 84.7319C123.761 84.7313 123.708 84.7124 123.664 84.678C123.621 84.6436 123.59 84.5957 123.577 84.5419C123.569 84.5097 123.568 84.4764 123.574 84.4439C123.579 84.4114 123.591 84.3802 123.609 84.3523C123.627 84.3245 123.65 84.3003 123.677 84.2814C123.704 84.2624 123.734 84.249 123.767 84.2419C124.21 84.1488 124.663 84.1085 125.117 84.1219H125.607H126.037H126.637H127.537C128.537 84.1219 129.677 84.122 130.777 84.012H130.887C131.25 83.9868 131.614 83.9868 131.977 84.012H132.327H132.607C133.161 84.0368 133.716 84.0167 134.267 83.952C134.878 83.8865 135.495 83.8865 136.107 83.952C136.173 83.9586 136.234 83.9913 136.276 84.0428C136.318 84.0944 136.338 84.1606 136.332 84.2269C136.325 84.2932 136.292 84.3542 136.241 84.3964C136.189 84.4385 136.123 84.4586 136.057 84.452C135.478 84.3871 134.895 84.3871 134.317 84.452C133.735 84.5073 133.149 84.5073 132.567 84.452H132.267H131.947C131.614 84.4238 131.279 84.4238 130.947 84.452H130.837C129.727 84.522 128.587 84.5419 127.577 84.5619H126.677H126.047H125.587H125.127C124.714 84.5452 124.3 84.5821 123.897 84.6719L123.817 84.7319Z" fill="#281911"/>
<path opacity="0.6" d="M111.637 57.1718C110.498 57.0092 109.374 56.7516 108.277 56.4019C106.812 51.9325 105.807 47.3253 105.277 42.6519C106.213 47.9287 108.393 52.9064 111.637 57.1718Z" fill="#B3B3B3"/>
<path d="M105.007 37.172L127.387 37.062C127.387 37.062 128.287 51.562 137.947 57.332C137.947 57.332 122.387 60.082 111.867 57.462C111.867 57.492 104.167 48.302 105.007 37.172Z" fill="#D0FF0F"/>
<path d="M118.227 42.462L113.737 42.342C113.423 42.3383 113.109 42.3149 112.797 42.272H112.607C112.485 42.2462 112.362 42.2295 112.237 42.222C112.046 42.2192 111.855 42.236 111.667 42.272C111.379 42.3175 111.086 42.3175 110.797 42.272C110.648 42.2393 110.501 42.1959 110.357 42.142C110.183 42.0492 109.99 42.0007 109.792 42.0007C109.595 42.0007 109.401 42.0492 109.227 42.142C108.916 42.2884 108.569 42.3438 108.227 42.302C108.196 42.2961 108.165 42.2838 108.138 42.2659C108.111 42.2479 108.088 42.2247 108.07 42.1976C108.053 42.1705 108.041 42.1401 108.035 42.1082C108.029 42.0763 108.03 42.0436 108.037 42.012C108.05 41.9472 108.087 41.8897 108.141 41.8523C108.196 41.8148 108.262 41.8003 108.327 41.812C108.586 41.8475 108.849 41.7983 109.077 41.672C109.359 41.5396 109.667 41.4746 109.977 41.482C110.173 41.506 110.365 41.5564 110.547 41.632C110.668 41.6759 110.791 41.7093 110.917 41.732C111.149 41.7768 111.386 41.7768 111.617 41.732C111.838 41.6895 112.063 41.6727 112.287 41.682C112.436 41.6873 112.583 41.7074 112.727 41.742H112.897C113.189 41.7773 113.483 41.7973 113.777 41.802L118.267 41.922C118.334 41.922 118.397 41.9484 118.444 41.9952C118.491 42.0421 118.517 42.1057 118.517 42.172C118.522 42.2113 118.518 42.2511 118.505 42.2885C118.492 42.3259 118.471 42.3599 118.443 42.3878C118.415 42.4158 118.381 42.437 118.344 42.4499C118.306 42.4627 118.267 42.4669 118.227 42.462Z" fill="#281911"/>
<path d="M114.037 45.842C113.798 45.8346 113.56 45.8011 113.327 45.742C113.169 45.7022 113.009 45.6722 112.847 45.652C112.588 45.6228 112.326 45.6228 112.067 45.652C111.735 45.6958 111.399 45.6958 111.067 45.652C111.002 45.6398 110.945 45.6025 110.908 45.5482C110.87 45.4939 110.856 45.4269 110.867 45.362C110.877 45.2973 110.912 45.2391 110.964 45.1998C111.017 45.1606 111.082 45.1434 111.147 45.152C111.439 45.1968 111.736 45.1968 112.027 45.152C112.32 45.1163 112.615 45.1163 112.907 45.152C113.092 45.1748 113.276 45.2081 113.457 45.252C113.653 45.3048 113.854 45.3351 114.057 45.342C114.313 45.3343 114.566 45.2871 114.807 45.202C115.128 45.0872 115.467 45.033 115.807 45.042C116.01 45.0688 116.211 45.1123 116.407 45.172C116.588 45.2375 116.776 45.2779 116.967 45.292C117.126 45.2907 117.284 45.2705 117.437 45.232C117.678 45.166 117.929 45.1456 118.177 45.172L118.417 45.232H118.607C118.8 45.2428 118.993 45.2191 119.177 45.162H119.377C120.083 45.0472 120.802 45.0472 121.507 45.162C122.134 45.2805 122.775 45.3007 123.407 45.222C123.475 45.2129 123.543 45.2294 123.598 45.2684C123.654 45.3073 123.693 45.3657 123.707 45.432C123.716 45.498 123.699 45.5649 123.66 45.6189C123.621 45.6729 123.563 45.7097 123.497 45.722C122.815 45.8068 122.124 45.7866 121.447 45.662C120.785 45.5487 120.109 45.5487 119.447 45.662H119.257C119.012 45.741 118.753 45.7682 118.497 45.742H118.247H118.057C117.869 45.7246 117.679 45.7415 117.497 45.792C117.308 45.8416 117.113 45.8652 116.917 45.862C116.682 45.8463 116.45 45.7992 116.227 45.722C116.065 45.6674 115.897 45.6305 115.727 45.612C115.444 45.6048 115.162 45.6523 114.897 45.752C114.616 45.8217 114.327 45.8521 114.037 45.842Z" fill="#281911"/>
<path d="M110.496 48.6619C110.39 48.676 110.282 48.676 110.176 48.6619C110.145 48.6528 110.115 48.6375 110.09 48.6169C110.064 48.5964 110.043 48.571 110.027 48.5422C110.011 48.5134 110.001 48.4818 109.998 48.4491C109.994 48.4165 109.997 48.3835 110.006 48.352C110.025 48.2883 110.068 48.2346 110.126 48.2028C110.184 48.1709 110.252 48.1634 110.316 48.182C110.538 48.2155 110.764 48.1949 110.976 48.122L111.186 48.072C111.475 48.0116 111.771 47.9914 112.066 48.012L112.566 48.082C112.867 48.1359 113.175 48.1359 113.476 48.082C113.54 48.07 113.605 48.0831 113.659 48.1185C113.713 48.1539 113.752 48.2089 113.766 48.272C113.773 48.3041 113.774 48.3375 113.769 48.37C113.763 48.4026 113.751 48.4336 113.734 48.4615C113.716 48.4894 113.693 48.5136 113.666 48.5325C113.639 48.5515 113.608 48.5649 113.576 48.572C113.216 48.6368 112.846 48.6368 112.486 48.572L112.026 48.512C111.778 48.4933 111.529 48.5102 111.286 48.562H111.096C110.902 48.6228 110.7 48.6564 110.496 48.6619Z" fill="#281911"/>
<path d="M114.826 50.5318C114.766 50.5318 114.708 50.5101 114.662 50.4707C114.617 50.4313 114.587 50.3768 114.579 50.3172C114.57 50.2576 114.583 50.197 114.616 50.1464C114.649 50.0958 114.698 50.0587 114.756 50.0418C115.403 49.8352 116.077 49.7306 116.756 49.7318C117.046 49.7318 117.326 49.8019 117.606 49.8419C117.906 49.9044 118.21 49.9445 118.516 49.9618C118.815 49.9522 119.113 49.9187 119.406 49.8618C119.707 49.8072 120.011 49.7737 120.316 49.7618C120.621 49.7682 120.925 49.7949 121.226 49.8419C121.789 49.9714 122.376 49.9472 122.926 49.7718L123.416 49.6618C124.274 49.5629 125.142 49.6034 125.986 49.7818C126.801 49.9577 127.64 49.9915 128.466 49.8818C128.498 49.8753 128.531 49.8751 128.564 49.8813C128.596 49.8876 128.627 49.9001 128.654 49.9182C128.681 49.9363 128.705 49.9597 128.723 49.9869C128.742 50.0141 128.755 50.0447 128.761 50.0768C128.768 50.109 128.768 50.1422 128.762 50.1744C128.755 50.2066 128.743 50.2373 128.725 50.2647C128.707 50.2921 128.683 50.3157 128.656 50.3341C128.629 50.3524 128.598 50.3653 128.566 50.3719C127.684 50.4933 126.787 50.4594 125.916 50.2718C125.124 50.1029 124.31 50.0657 123.506 50.1618C123.351 50.1845 123.197 50.2179 123.046 50.2618C122.791 50.3347 122.53 50.3849 122.266 50.4118C121.895 50.4284 121.523 50.405 121.156 50.3419C120.606 50.2219 120.036 50.2219 119.486 50.3419C119.155 50.3973 118.821 50.4307 118.486 50.4418C118.151 50.4222 117.817 50.3821 117.486 50.3218C117.226 50.2663 116.962 50.2295 116.696 50.2118C116.065 50.2122 115.438 50.31 114.836 50.5018L114.826 50.5318Z" fill="#281911"/>
<path d="M123.237 53.422C123.097 53.4367 122.957 53.4367 122.817 53.422C122.757 53.4055 122.705 53.3669 122.671 53.3139C122.638 53.2609 122.626 53.1973 122.637 53.1357C122.648 53.074 122.682 53.0189 122.732 52.9812C122.782 52.9435 122.845 52.9259 122.907 52.932C123.281 52.9715 123.659 52.9512 124.027 52.872C124.313 52.8129 124.605 52.7794 124.897 52.772C125.161 52.7795 125.425 52.8029 125.687 52.842H126.047C126.473 52.8718 126.901 52.8718 127.327 52.842L130.467 52.772C130.532 52.7744 130.595 52.8016 130.641 52.8479C130.687 52.8943 130.714 52.9565 130.717 53.022C130.717 53.0883 130.691 53.1518 130.644 53.1987C130.597 53.2456 130.533 53.272 130.467 53.272L127.347 53.342C126.894 53.3719 126.44 53.3719 125.987 53.342L125.607 53.292C125.368 53.2575 125.128 53.2375 124.887 53.232C124.621 53.2378 124.357 53.2679 124.097 53.322C123.814 53.3804 123.526 53.4139 123.237 53.422Z" fill="#281911"/>
<path d="M124.927 44.172C124.201 44.1718 123.476 44.1217 122.757 44.022C122.644 44.0124 122.53 44.0124 122.417 44.022C122.285 44.0281 122.154 44.0482 122.027 44.082H121.917C121.551 44.1558 121.179 44.1893 120.807 44.182C120.74 44.182 120.677 44.1557 120.63 44.1088C120.583 44.0619 120.557 43.9983 120.557 43.932C120.557 43.8657 120.583 43.8021 120.63 43.7552C120.677 43.7084 120.74 43.682 120.807 43.682C121.142 43.6931 121.478 43.6629 121.807 43.592H121.907C122.071 43.5527 122.238 43.5292 122.407 43.522C122.533 43.5122 122.66 43.5122 122.787 43.522C123.737 43.6592 124.698 43.7027 125.657 43.652C125.69 43.6493 125.723 43.6534 125.755 43.6642C125.786 43.675 125.815 43.6923 125.839 43.7148C125.864 43.7374 125.883 43.7648 125.897 43.7953C125.91 43.8258 125.917 43.8587 125.917 43.892C125.918 43.9249 125.913 43.9576 125.901 43.9885C125.89 44.0193 125.873 44.0476 125.851 44.0718C125.828 44.0959 125.801 44.1154 125.772 44.1292C125.742 44.143 125.709 44.1507 125.677 44.152C125.447 44.172 125.187 44.172 124.927 44.172Z" fill="#281911"/>
<path opacity="0.6" d="M85.7272 64.582C84.5877 64.4193 83.4638 64.1618 82.3672 63.812C80.902 59.3427 79.8968 54.7355 79.3672 50.062C80.3025 55.3389 82.4828 60.3165 85.7272 64.582Z" fill="#B3B3B3"/>
<path d="M112.107 64.8217C112.107 64.8217 96.5469 67.5818 86.0269 64.9618L85.7269 64.5818C82.4897 60.3144 80.3163 55.3368 79.3869 50.0618C79.106 48.2796 79.0322 46.4709 79.1669 44.6718L101.537 44.5518C101.537 44.5518 102.447 59.0617 112.107 64.8217Z" fill="#FF94BF"/>
<path d="M81.9977 50.4619C81.9383 50.4647 81.8802 50.4443 81.8354 50.4052C81.7907 50.366 81.7628 50.3111 81.7577 50.2518C81.752 50.2203 81.7527 50.1879 81.7597 50.1566C81.7667 50.1253 81.78 50.0957 81.7986 50.0696C81.8172 50.0435 81.8409 50.0214 81.8683 50.0046C81.8956 49.9878 81.926 49.9767 81.9578 49.9718C82.5853 49.8582 83.2203 49.7913 83.8577 49.7719C84.1877 49.7719 84.5177 49.7719 84.8577 49.8319C85.4286 49.9073 86.0069 49.9073 86.5777 49.8319L86.8777 49.7618C87.0077 49.7618 87.1477 49.6919 87.2877 49.6719C87.8645 49.6054 88.4482 49.629 89.0178 49.7419C89.5046 49.84 90.0026 49.8703 90.4977 49.8319L90.8577 49.7719L91.2277 49.7018C91.7951 49.6552 92.3661 49.6787 92.9278 49.7719C93.4492 49.8637 93.9803 49.8872 94.5077 49.8419L94.9277 49.7618C95.0677 49.7618 95.2077 49.6919 95.3577 49.6719C95.9479 49.6168 96.5427 49.637 97.1277 49.7318C97.6879 49.8161 98.2576 49.8161 98.8177 49.7318C98.8506 49.7262 98.8843 49.7271 98.9168 49.7346C98.9493 49.7422 98.98 49.7561 99.007 49.7757C99.034 49.7953 99.0569 49.82 99.0742 49.8486C99.0915 49.8771 99.1029 49.9088 99.1077 49.9418C99.1169 50.0065 99.1014 50.0722 99.0643 50.1259C99.0273 50.1796 98.9714 50.2174 98.9078 50.2318C98.2953 50.3052 97.6753 50.2884 97.0677 50.1819C96.5266 50.1129 95.9789 50.1129 95.4377 50.1819L95.0278 50.2618L94.5777 50.3518C94.0071 50.4035 93.4322 50.38 92.8678 50.2818C92.3498 50.1898 91.8219 50.1663 91.2977 50.2119C91.1835 50.2261 91.07 50.2462 90.9578 50.2719L90.5578 50.3419C90.0195 50.3817 89.4782 50.3515 88.9477 50.2518C88.4287 50.1415 87.8953 50.1145 87.3678 50.1719L86.9977 50.2518L86.6778 50.3319C86.0607 50.4169 85.4348 50.4169 84.8177 50.3319C84.4977 50.3319 84.1778 50.3319 83.8678 50.3319C83.2605 50.3495 82.6555 50.4131 82.0578 50.5219L81.9977 50.4619Z" fill="#281911"/>
<path d="M87.4771 53.7518C87.4309 53.7521 87.3855 53.7391 87.3464 53.7143C87.3074 53.6895 87.2764 53.6539 87.2571 53.6118C87.2297 53.5521 87.227 53.484 87.2494 53.4222C87.2719 53.3604 87.3178 53.31 87.3771 53.2818C87.6901 53.1254 88.029 53.0271 88.3771 52.9918C88.7136 52.9893 89.0492 53.0262 89.3771 53.1018C89.6467 53.1623 89.9211 53.1991 90.1971 53.2118C90.3481 53.2051 90.4984 53.1883 90.6471 53.1618H90.9071C91.3896 53.1218 91.8746 53.1218 92.3571 53.1618C92.4234 53.1618 92.487 53.1882 92.5339 53.235C92.5808 53.2819 92.6071 53.3455 92.6071 53.4118C92.6071 53.4781 92.5808 53.5417 92.5339 53.5886C92.487 53.6355 92.4234 53.6618 92.3571 53.6618C91.9047 53.6219 91.4496 53.6219 90.9971 53.6618H90.7571C90.5849 53.6888 90.4113 53.7056 90.2371 53.7118C89.9273 53.7021 89.6191 53.6619 89.3171 53.5918C89.0259 53.5207 88.7268 53.4871 88.4271 53.4918C88.1317 53.5203 87.8438 53.6016 87.5771 53.7318C87.5458 53.7462 87.5116 53.7531 87.4771 53.7518Z" fill="#281911"/>
<path d="M88.7373 57.0218H88.5073C88.3394 57.0083 88.1725 56.9849 88.0073 56.9518H87.7473C87.2385 56.9018 86.7261 56.9018 86.2173 56.9518L84.1573 57.0518C84.0917 57.052 84.0284 57.0273 83.9802 56.9828C83.932 56.9383 83.9024 56.8772 83.8973 56.8118C83.8945 56.7786 83.8987 56.7452 83.9095 56.7137C83.9203 56.6823 83.9376 56.6534 83.9601 56.629C83.9827 56.6045 84.0101 56.585 84.0406 56.5717C84.0711 56.5585 84.104 56.5516 84.1373 56.5518L86.1873 56.4518C86.7293 56.3969 87.2754 56.3969 87.8173 56.4518H88.0973C88.2458 56.4816 88.3962 56.5016 88.5473 56.5117C88.8101 56.5363 89.0746 56.5363 89.3373 56.5117H89.4173C90.5242 56.4082 91.6371 56.3848 92.7473 56.4417C92.8118 56.4469 92.8719 56.4768 92.9148 56.5253C92.9577 56.5738 92.9801 56.6371 92.9773 56.7018C92.9774 56.735 92.9706 56.768 92.9573 56.7985C92.944 56.829 92.9245 56.8564 92.9001 56.8789C92.8756 56.9015 92.8468 56.9188 92.8153 56.9296C92.7839 56.9404 92.7505 56.9445 92.7173 56.9417C91.6337 56.8849 90.5474 56.9083 89.4673 57.0117H89.3873C89.1773 57.0017 88.9573 57.0218 88.7373 57.0218Z" fill="#281911"/>
<path d="M95.0973 56.9119H94.8373C94.8043 56.9082 94.7724 56.898 94.7435 56.8818C94.7146 56.8657 94.6891 56.844 94.6687 56.8179C94.6482 56.7919 94.6331 56.762 94.6243 56.7301C94.6155 56.6981 94.613 56.6648 94.6172 56.6319C94.6209 56.599 94.6312 56.5671 94.6473 56.5382C94.6634 56.5092 94.6852 56.4838 94.7112 56.4633C94.7373 56.4428 94.7671 56.4278 94.799 56.4189C94.831 56.4101 94.8644 56.4077 94.8973 56.4119C95.1991 56.433 95.5023 56.4095 95.7972 56.3419C96.0014 56.2966 96.2087 56.2664 96.4173 56.2519C96.6869 56.2318 96.9576 56.2318 97.2273 56.2519C98.7548 56.3613 100.287 56.3814 101.817 56.3119C101.967 56.3119 102.067 56.4119 102.077 56.5519C102.077 56.6175 102.053 56.6808 102.008 56.729C101.964 56.7773 101.903 56.8069 101.837 56.8119C100.311 56.8817 98.7814 56.8616 97.2572 56.7519C96.9876 56.7328 96.7169 56.7328 96.4472 56.7519C96.2588 56.7638 96.0715 56.7906 95.8872 56.8319C95.6272 56.8847 95.3626 56.9115 95.0973 56.9119Z" fill="#281911"/>
<path d="M85.4971 60.4118C85.4422 60.4096 85.3894 60.39 85.3462 60.3558C85.3031 60.3217 85.2719 60.2747 85.2572 60.2218C85.2482 60.1902 85.2458 60.1572 85.2501 60.1247C85.2545 60.0922 85.2654 60.0609 85.2823 60.0328C85.2991 60.0047 85.3216 59.9804 85.3482 59.9613C85.3749 59.9422 85.4051 59.9287 85.4371 59.9218C85.9522 59.7736 86.4821 59.683 87.0172 59.6518C87.3901 59.6267 87.7642 59.6267 88.1372 59.6518H88.3972C89.4486 59.7419 90.5058 59.7419 91.5572 59.6518H91.7072C92.0598 59.6213 92.4145 59.6213 92.7672 59.6518C92.979 59.667 93.1895 59.6971 93.3972 59.7418L93.8472 59.8118C94.2134 59.8368 94.5809 59.8368 94.9472 59.8118L97.1171 59.7318C97.1844 59.7317 97.2491 59.7577 97.2976 59.8043C97.346 59.851 97.3746 59.9146 97.3771 59.9818C97.3772 60.0464 97.3523 60.1085 97.3075 60.1551C97.2628 60.2017 97.2017 60.2292 97.1372 60.2318L94.9672 60.3118C94.5742 60.3366 94.1801 60.3366 93.7872 60.3118L93.3072 60.2318C93.1154 60.1946 92.9218 60.1679 92.7272 60.1518C92.3946 60.1204 92.0597 60.1204 91.7272 60.1518H91.5772C90.4957 60.2419 89.4086 60.2419 88.3272 60.1518H88.0672C87.7142 60.1274 87.3601 60.1274 87.0072 60.1518C86.5071 60.1886 86.0116 60.2723 85.5272 60.4018L85.4971 60.4118Z" fill="#281911"/>
<path d="M99.636 60.2719C99.5763 60.27 99.5193 60.2467 99.4753 60.2064C99.4313 60.166 99.4032 60.1112 99.396 60.0519C99.3904 60.0189 99.3917 59.985 99.3999 59.9525C99.4082 59.9199 99.4231 59.8895 99.4438 59.8631C99.4645 59.8367 99.4906 59.815 99.5203 59.7993C99.55 59.7836 99.5825 59.7743 99.616 59.7719L100.376 59.6919C100.579 59.6721 100.783 59.6721 100.986 59.6919H101.416H101.786H102.156L103.856 59.6019C103.889 59.5992 103.922 59.603 103.953 59.6131C103.985 59.6232 104.014 59.6394 104.039 59.6608C104.064 59.6821 104.085 59.7083 104.1 59.7376C104.114 59.767 104.123 59.7991 104.126 59.8319C104.129 59.8993 104.105 59.965 104.061 60.0154C104.016 60.0658 103.953 60.0968 103.886 60.1019L102.186 60.1919H101.776H101.376H100.986C100.806 60.1827 100.626 60.1827 100.446 60.1919L99.666 60.2719H99.636Z" fill="#281911"/>
<path opacity="0.6" d="M90.6373 92.9019C89.4977 92.745 88.3736 92.4907 87.2773 92.1418C85.8113 87.6727 84.8061 83.0654 84.2773 78.3918C85.2157 83.6647 87.3958 88.6385 90.6373 92.9019Z" fill="#B3B3B3"/>
<path d="M84.0269 72.9818L106.407 72.8718C106.407 72.8718 107.297 87.3718 116.957 93.1318C116.957 93.1318 101.407 95.8918 90.8869 93.2718C90.8869 93.2718 83.1869 84.0818 84.0269 72.9818Z" fill="#FEA422"/>
<path d="M104.877 77.8018C103.404 77.6636 101.923 77.6335 100.447 77.7117H100.147C99.6448 77.7669 99.1384 77.7669 98.6366 77.7117L98.2266 77.6417C98.0254 77.601 97.8215 77.5743 97.6166 77.5618C97.3335 77.561 97.0515 77.5946 96.7766 77.6617C96.41 77.7483 96.0323 77.7786 95.6566 77.7518C95.5912 77.7418 95.532 77.7074 95.4911 77.6553C95.4503 77.6033 95.4307 77.5376 95.4366 77.4717C95.4403 77.4388 95.4505 77.407 95.4667 77.3781C95.4828 77.3491 95.5045 77.3236 95.5306 77.3032C95.5566 77.2827 95.5864 77.2676 95.6184 77.2588C95.6503 77.25 95.6837 77.2476 95.7166 77.2518C96.0521 77.2772 96.3894 77.2502 96.7166 77.1718C97.0443 77.0951 97.38 77.0581 97.7166 77.0618C97.945 77.0764 98.1722 77.1064 98.3966 77.1517C98.5266 77.1517 98.6466 77.2017 98.7766 77.2117C99.245 77.2667 99.7182 77.2667 100.187 77.2117H100.487C101.99 77.1318 103.498 77.1653 104.997 77.3118C105.061 77.3169 105.121 77.3468 105.164 77.3953C105.207 77.4438 105.229 77.5071 105.227 77.5718C105.227 77.6134 105.216 77.6543 105.197 77.6909C105.177 77.7276 105.149 77.7587 105.114 77.7816C105.079 77.8044 105.039 77.8182 104.998 77.8217C104.956 77.8252 104.915 77.8184 104.877 77.8018Z" fill="#281911"/>
<path d="M87.3575 80.1719C87.3095 80.1687 87.2631 80.1533 87.2228 80.127C87.1826 80.1007 87.1497 80.0645 87.1275 80.0219C87.1033 79.9606 87.1033 79.8925 87.1275 79.8312C87.1516 79.77 87.1981 79.7202 87.2575 79.6919C87.6298 79.5282 88.0308 79.4398 88.4375 79.4319C88.7723 79.4346 89.1065 79.4614 89.4375 79.5119C89.6475 79.5119 89.8475 79.5718 90.0475 79.5818C90.3406 79.5968 90.6343 79.5968 90.9275 79.5818H92.6175C92.6507 79.5804 92.6838 79.586 92.7148 79.598C92.7458 79.6101 92.7739 79.6285 92.7974 79.652C92.8209 79.6755 92.8393 79.7036 92.8513 79.7346C92.8634 79.7655 92.8689 79.7986 92.8675 79.8318C92.8675 79.8965 92.8426 79.9586 92.7978 80.0052C92.7531 80.0518 92.692 80.0793 92.6275 80.0818H90.9375C90.6275 80.0818 90.3175 80.0818 90.0075 80.0818L89.3775 80.0119C89.0473 79.9543 88.7126 79.9275 88.3775 79.9319C88.0338 79.9376 87.6944 80.0088 87.3775 80.1418C87.3719 80.1525 87.3652 80.1626 87.3575 80.1719Z" fill="#281911"/>
<path d="M95.0078 82.7219C94.9476 82.7219 94.8895 82.7002 94.844 82.6608C94.7985 82.6214 94.7688 82.5668 94.7603 82.5072C94.7518 82.4477 94.7651 82.387 94.7977 82.3365C94.8303 82.2859 94.88 82.2488 94.9378 82.2319C95.5114 82.0771 96.1038 82.0031 96.6978 82.0119C97.0978 82.0119 97.5078 82.0119 97.9078 82.0919C98.428 82.1626 98.9532 82.1894 99.4779 82.1719L100.018 82.1119C100.299 82.0645 100.583 82.0378 100.868 82.0319C101.149 82.0403 101.429 82.0637 101.708 82.1019H101.988C102.78 82.1568 103.575 82.1568 104.368 82.1019V82.6019C103.545 82.6568 102.72 82.6568 101.898 82.6019H101.618C101.356 82.5601 101.092 82.5367 100.828 82.5319C100.567 82.5408 100.306 82.5642 100.048 82.6019C99.8591 82.6328 99.6688 82.6528 99.4779 82.6619C98.9269 82.6887 98.3746 82.6653 97.8278 82.5919C97.4394 82.5453 97.049 82.5187 96.6578 82.5119C96.1114 82.5075 95.5668 82.5747 95.0379 82.7119L95.0078 82.7219Z" fill="#281911"/>
<path d="M89.5762 85.812C89.5099 85.812 89.4463 85.7856 89.3994 85.7387C89.3525 85.6918 89.3262 85.6283 89.3262 85.562C89.3262 85.4956 89.3525 85.432 89.3994 85.3851C89.4463 85.3382 89.5099 85.312 89.5762 85.312C90.4045 85.1386 91.2501 85.0614 92.0962 85.0819L92.7362 85.1419H93.1162C93.8499 85.2109 94.5894 85.1841 95.3162 85.062H95.4362C95.6802 85.015 95.9277 84.9883 96.1761 84.9819C96.3443 84.9865 96.5117 85.0066 96.6761 85.0419H96.8561C97.3145 85.0975 97.7778 85.0975 98.2361 85.0419H98.4662C98.6962 85.0419 98.9462 85.0419 99.1862 85.0419C99.3859 85.0269 99.5865 85.0269 99.7862 85.0419H99.9562C100.514 85.1138 101.074 85.1572 101.636 85.1719H104.826C104.893 85.1745 104.957 85.203 105.004 85.2515C105.05 85.3 105.076 85.3647 105.076 85.4319C105.074 85.4965 105.046 85.5576 105 85.6023C104.953 85.647 104.891 85.672 104.826 85.6719H101.636C101.096 85.6719 100.476 85.6719 99.8661 85.6019H99.6962C99.503 85.592 99.3094 85.592 99.1161 85.6019C98.9097 85.5875 98.7026 85.5875 98.4962 85.6019H98.2562C97.7583 85.6674 97.254 85.6674 96.7562 85.6019H96.5662C96.423 85.5921 96.2793 85.5921 96.1362 85.6019C95.9209 85.601 95.7062 85.6245 95.4962 85.6719H95.3661C94.5967 85.804 93.8129 85.8309 93.0362 85.752H92.6462C92.4362 85.752 92.2362 85.702 92.0262 85.692C91.2204 85.6744 90.4153 85.7482 89.6262 85.9119L89.5762 85.812Z" fill="#281911"/>
<path d="M91.0077 89.2218C90.9549 89.2225 90.9032 89.2064 90.8601 89.1758C90.8169 89.1453 90.7846 89.1019 90.7677 89.0518C90.7568 89.0203 90.7523 88.9869 90.7544 88.9537C90.7566 88.9204 90.7654 88.8879 90.7803 88.8581C90.7952 88.8283 90.8159 88.8018 90.8413 88.7801C90.8666 88.7584 90.896 88.742 90.9277 88.7318C91.4535 88.5632 92.0085 88.5054 92.5577 88.5618H92.7877C92.9275 88.5716 93.0679 88.5716 93.2077 88.5618C93.4155 88.5558 93.6226 88.5357 93.8277 88.5018C94.078 88.4528 94.3327 88.4294 94.5877 88.4318C94.7722 88.4447 94.9559 88.468 95.1377 88.5018C95.2894 88.5349 95.4431 88.5583 95.5977 88.5718C95.7808 88.5865 95.9647 88.5865 96.1477 88.5718H96.2277C97.3261 88.4868 98.4294 88.4868 99.5277 88.5718C99.561 88.5717 99.5939 88.5785 99.6244 88.5918C99.6549 88.6051 99.6823 88.6246 99.7049 88.649C99.7275 88.6735 99.7447 88.7023 99.7555 88.7338C99.7663 88.7653 99.7705 88.7986 99.7677 88.8318C99.7626 88.899 99.7316 88.9616 99.6812 89.0063C99.6309 89.0511 99.565 89.0746 99.4977 89.0718C98.426 88.9869 97.3494 88.9869 96.2777 89.0718H96.1977C95.988 89.0873 95.7774 89.0873 95.5677 89.0718C95.3932 89.0583 95.2195 89.035 95.0477 89.0018C94.8892 88.9688 94.729 88.9454 94.5677 88.9318C94.3462 88.9274 94.1248 88.9475 93.9077 88.9918C93.6769 89.0357 93.4426 89.0591 93.2077 89.0618C93.0479 89.0717 92.8875 89.0717 92.7277 89.0618H92.5077C92.0258 89.0096 91.5383 89.0607 91.0777 89.2118L91.0077 89.2218Z" fill="#281911"/>
<path d="M100.996 89.102C100.942 89.102 100.889 89.0844 100.846 89.052C100.803 89.0195 100.771 88.9739 100.756 88.922C100.746 88.8898 100.742 88.8558 100.745 88.8221C100.749 88.7884 100.76 88.7559 100.777 88.7266C100.794 88.6973 100.817 88.6719 100.844 88.6522C100.872 88.6324 100.903 88.6187 100.936 88.612C101.412 88.5085 101.902 88.4848 102.386 88.542C102.646 88.542 102.916 88.542 103.166 88.542H103.736C104.047 88.4961 104.362 88.4761 104.676 88.482C104.844 88.4921 105.011 88.5121 105.176 88.542C105.382 88.5609 105.59 88.5609 105.796 88.542C105.909 88.5523 106.023 88.5523 106.136 88.542C106.309 88.5313 106.483 88.5313 106.656 88.542C106.783 88.5316 106.91 88.5316 107.036 88.542H107.346C107.486 88.5567 107.627 88.5567 107.766 88.542H107.836C108.372 88.4969 108.91 88.4969 109.446 88.542C109.511 88.5471 109.571 88.577 109.614 88.6255C109.657 88.674 109.679 88.7373 109.676 88.802C109.675 88.8348 109.667 88.867 109.653 88.8969C109.64 88.9267 109.62 88.9536 109.596 88.9759C109.572 88.9981 109.543 89.0155 109.513 89.0268C109.482 89.0382 109.449 89.0433 109.416 89.042C108.911 88.9919 108.402 88.9919 107.896 89.042H107.836C107.666 89.0569 107.496 89.0569 107.326 89.042C107.206 89.0518 107.086 89.0518 106.966 89.042C106.856 89.042 106.756 89.042 106.646 89.042C106.503 89.0317 106.359 89.0317 106.216 89.042C106.083 89.0523 105.949 89.0523 105.816 89.042C105.575 89.0473 105.333 89.0272 105.096 88.982L104.656 88.932C104.369 88.9239 104.081 88.9406 103.796 88.982L103.196 89.042C102.916 89.0569 102.636 89.0569 102.356 89.042C101.926 88.9953 101.49 89.0156 101.066 89.102H100.996Z" fill="#281911"/>
<path d="M78.5266 17.1719C78.891 16.417 78.9998 15.564 78.8366 14.7419C78.5936 13.5562 77.9601 12.4863 77.0374 11.7031C76.1146 10.9199 74.9559 10.4688 73.7465 10.4219C72.9463 10.4132 72.1645 10.6621 71.5165 11.1318C71.5165 11.0418 71.5165 10.9718 71.5165 10.9718L71.0065 11.5619C70.6283 11.9877 70.3552 12.4963 70.2093 13.0469C70.0634 13.5975 70.0488 14.1746 70.1665 14.7318C70.4046 15.9199 71.0366 16.9928 71.9604 17.7769C72.8842 18.5609 74.0456 19.0101 75.2565 19.0519C75.7574 19.0609 76.2545 18.965 76.7161 18.7704C77.1777 18.5758 77.5934 18.2867 77.9365 17.9219L78.0665 17.7719L78.6265 17.1219L78.5266 17.1719Z" fill="#999999"/>
<path d="M78.5638 17.2648C80.0359 15.6549 79.6698 12.9237 77.746 11.1646C75.8222 9.40551 73.0693 9.28459 71.5972 10.8945C70.125 12.5045 70.4912 15.2356 72.4149 16.9947C74.3387 18.7538 77.0916 18.8747 78.5638 17.2648Z" fill="#CCCCCC"/>
<defs>
<linearGradient id="paint0_linear_164_3759" x1="46.3812" y1="28.1558" x2="115.425" y2="111.588" gradientUnits="userSpaceOnUse">
<stop stop-color="#C6E5A0" stop-opacity="0.25"/>
<stop offset="0.31" stop-color="#B9D898" stop-opacity="0.31"/>
<stop offset="0.69" stop-color="#95B483" stop-opacity="0.49"/>
<stop offset="1" stop-color="#688768" stop-opacity="0.7"/>
</linearGradient>
</defs>
</svg>
