<svg width="167" height="121" viewBox="0 0 167 121" fill="none" xmlns="http://www.w3.org/2000/svg">
<path d="M131.072 89.0787L127.812 92.3087C126.981 93.0324 125.913 93.4241 124.812 93.4086H44.1516C42.7454 93.3986 41.3937 92.8636 40.3616 91.9086C39.3071 90.9861 38.6187 89.7158 38.4216 88.3287L31.3315 34.9487C31.2918 34.5898 31.2918 34.2276 31.3315 33.8687C31.3214 33.8293 31.3214 33.788 31.3315 33.7487C31.4481 32.7195 31.9223 31.7638 32.6716 31.0486L35.8715 27.8787L36.4316 29.8787H116.432C117.831 29.9229 119.17 30.4549 120.219 31.3826C121.267 32.3103 121.958 33.5753 122.172 34.9586L129.272 88.3486C130.222 88.6886 131.072 89.0787 131.072 89.0787Z" fill="#567A56"/>
<path d="M129.241 88.3086L43.241 88.4386L40.371 91.8586C39.3165 90.9361 38.6281 89.6657 38.431 88.2786L31.341 34.8986C31.3095 34.5393 31.3095 34.1779 31.341 33.8186C31.3309 33.7793 31.3309 33.738 31.341 33.6986C31.4575 32.6694 31.9318 31.7138 32.681 30.9986L35.881 27.8286L36.441 29.8286H116.441C117.84 29.8728 119.18 30.4048 120.228 31.3326C121.276 32.2603 121.967 33.5253 122.181 34.9086L129.281 88.2986C129.267 88.2988 129.253 88.3022 129.241 88.3086Z" fill="#95AF95"/>
<path d="M128.022 90.2285H47.3516C45.9525 90.1843 44.6129 89.6523 43.5646 88.7246C42.5164 87.7969 41.8256 86.5319 41.6116 85.1486L34.5216 31.7586C34.4102 31.125 34.4411 30.4745 34.6119 29.8543C34.7828 29.2341 35.0894 28.6596 35.5095 28.1725C35.9297 27.6853 36.4529 27.2977 37.0413 27.0376C37.6297 26.7775 38.2685 26.6514 38.9116 26.6685H119.572C120.972 26.7132 122.313 27.2466 123.361 28.1763C124.41 29.106 125.1 30.3734 125.312 31.7586L132.412 85.1486C132.52 85.7812 132.486 86.4298 132.314 87.0479C132.141 87.6661 131.834 88.2385 131.415 88.724C130.995 89.2096 130.473 89.5962 129.887 89.8563C129.3 90.1165 128.663 90.2436 128.022 90.2285Z" fill="#6F936F"/>
<path d="M132.412 85.1385L125.312 31.7485C125.1 30.3633 124.41 29.096 123.362 28.1663C122.314 27.2366 120.973 26.7031 119.572 26.6585H38.9122C37.7738 26.645 36.6741 27.0713 35.8422 27.8485L32.6422 31.0185C31.893 31.7337 31.4188 32.6893 31.3022 33.7185C31.2921 33.7579 31.2921 33.7992 31.3022 33.8385C31.2625 34.1974 31.2625 34.5596 31.3022 34.9185L38.4323 88.3085C38.6293 89.6957 39.3177 90.966 40.3722 91.8885C41.4044 92.8435 42.7561 93.3785 44.1622 93.3885H124.812C125.914 93.404 126.982 93.0123 127.812 92.2885L131.072 89.0785C131.6 88.5813 131.999 87.9621 132.232 87.2752C132.466 86.5884 132.528 85.8548 132.412 85.1385Z" fill="url(#paint0_linear_164_2374)"/>
<path d="M121.541 85.6687H52.7409C52.0084 85.6749 51.2989 85.4129 50.7463 84.9321C50.1937 84.4513 49.8361 83.785 49.7409 83.0587L48.7409 76.2587L43.8609 41.5887L43.0808 36.0087L42.9209 34.8587C42.8524 34.4272 42.879 33.986 42.9988 33.5659C43.1185 33.1458 43.3286 32.7569 43.6144 32.4264C43.9001 32.0959 44.2545 31.8318 44.6529 31.6526C45.0513 31.4733 45.484 31.3833 45.9209 31.3887L115.061 31.4687C115.798 31.4634 116.511 31.7295 117.064 32.2164C117.618 32.7034 117.972 33.3769 118.061 34.1087L118.291 35.8387L124.481 82.2487C124.541 82.6714 124.51 83.102 124.39 83.5117C124.27 83.9214 124.064 84.3007 123.785 84.6245C123.507 84.9482 123.163 85.2088 122.776 85.3889C122.389 85.5689 121.968 85.6643 121.541 85.6687Z" fill="#F2F2F2"/>
<mask id="mask0_164_2374" style="mask-type:luminance" maskUnits="userSpaceOnUse" x="42" y="31" width="83" height="55">
<path d="M121.541 85.6687H52.7409C52.0084 85.6749 51.2989 85.4129 50.7463 84.9321C50.1937 84.4513 49.8361 83.785 49.7409 83.0587L48.7409 76.2587L43.8609 41.5887L43.0808 36.0087L42.9209 34.8587C42.8524 34.4272 42.879 33.986 42.9988 33.5659C43.1185 33.1458 43.3286 32.7569 43.6144 32.4264C43.9001 32.0959 44.2545 31.8318 44.6529 31.6526C45.0513 31.4733 45.484 31.3833 45.9209 31.3887L115.061 31.4687C115.798 31.4634 116.511 31.7295 117.064 32.2164C117.618 32.7034 117.972 33.3769 118.061 34.1087L118.291 35.8387L124.481 82.2487C124.541 82.6714 124.51 83.102 124.39 83.5117C124.27 83.9214 124.064 84.3007 123.785 84.6245C123.507 84.9482 123.163 85.2088 122.776 85.3889C122.389 85.5689 121.968 85.6643 121.541 85.6687Z" fill="white"/>
</mask>
<g mask="url(#mask0_164_2374)">
<path d="M147.421 85.4587L28.3208 86.6187L20.0808 29.0687L139.181 27.8987L147.421 85.4587Z" fill="url(#paint1_linear_164_2374)"/>
</g>
<mask id="mask1_164_2374" style="mask-type:luminance" maskUnits="userSpaceOnUse" x="42" y="31" width="83" height="55">
<path d="M121.541 85.6687H52.7409C52.0084 85.6749 51.2989 85.4129 50.7463 84.9321C50.1937 84.4513 49.8361 83.785 49.7409 83.0587L48.7409 76.2587L43.8609 41.5887L43.0808 36.0087L42.9209 34.8587C42.8524 34.4272 42.879 33.986 42.9988 33.5659C43.1185 33.1458 43.3286 32.7569 43.6144 32.4264C43.9001 32.0959 44.2545 31.8318 44.6529 31.6526C45.0513 31.4733 45.484 31.3833 45.9209 31.3887L115.061 31.4687C115.798 31.4634 116.511 31.7295 117.064 32.2164C117.618 32.7034 117.972 33.3769 118.061 34.1087L118.291 35.8387L124.481 82.2487C124.541 82.6714 124.51 83.102 124.39 83.5117C124.27 83.9214 124.064 84.3007 123.785 84.6245C123.507 84.9482 123.163 85.2088 122.776 85.3889C122.389 85.5689 121.968 85.6643 121.541 85.6687Z" fill="white"/>
</mask>
<g mask="url(#mask1_164_2374)">
<path d="M68.5209 62.1287L64.0409 64.9487C63.9877 64.9956 63.9451 65.0533 63.9159 65.1179C63.8867 65.1826 63.8716 65.2527 63.8716 65.3237C63.8716 65.3946 63.8867 65.4647 63.9159 65.5294C63.9451 65.594 63.9877 65.6517 64.0409 65.6987L68.2009 70.2286H68.2709L70.7609 68.1686C70.7661 68.1595 70.7689 68.1492 70.7689 68.1387C70.7689 68.1281 70.7661 68.1178 70.7609 68.1086L68.6309 62.1586C68.6348 62.144 68.6329 62.1285 68.6254 62.1154C68.6179 62.1022 68.6055 62.0927 68.5909 62.0887C68.5763 62.0847 68.5607 62.0867 68.5476 62.0942C68.5345 62.1017 68.5249 62.1141 68.5209 62.1287Z" fill="#3E241A"/>
<path d="M68.3808 69.7987L64.3808 73.1187C64.3284 73.1682 64.2867 73.2279 64.2582 73.2941C64.2297 73.3603 64.2151 73.4316 64.2151 73.5037C64.2151 73.5758 64.2297 73.6471 64.2582 73.7133C64.2867 73.7795 64.3284 73.8392 64.3808 73.8887L68.8708 78.1387H68.9308L71.1208 75.7887C71.1281 75.7785 71.1321 75.7663 71.1321 75.7537C71.1321 75.7411 71.1281 75.7289 71.1208 75.7187L68.4408 69.8187C68.4408 69.8187 68.4008 69.7787 68.3808 69.7987Z" fill="#3E241A"/>
<path d="M68.6609 77.7287L65.2608 81.6587C65.1847 81.7851 65.157 81.9348 65.1827 82.08C65.2084 82.2252 65.2859 82.3563 65.4008 82.4488L70.2608 86.2688C70.2608 86.2688 70.2608 86.2688 70.3208 86.2688L72.0908 83.5688C72.0962 83.5579 72.0989 83.5459 72.0989 83.5337C72.0989 83.5216 72.0962 83.5097 72.0908 83.4988L68.7309 77.7488C68.7309 77.7488 68.6809 77.7087 68.6609 77.7287Z" fill="#3E241A"/>
<path d="M111.341 108.499C111.421 109.039 111.481 109.579 111.531 110.129C111.69 111.743 111.751 113.366 111.711 114.989C111.716 115.062 111.716 115.135 111.711 115.209C109.568 115.925 107.361 116.434 105.121 116.729H104.861C104.131 116.839 103.341 116.939 102.501 117.019C101.291 117.139 99.9708 117.229 98.5008 117.269C97.8875 117.269 97.2575 117.269 96.6108 117.269H96.4108C95.4108 117.269 94.4108 117.269 93.2808 117.169C90.2171 117.021 87.1668 116.667 84.1508 116.109C82.5508 115.809 80.8842 115.435 79.1508 114.989C79.1508 114.989 77.6908 112.109 75.8308 107.269C75.3408 105.989 74.8308 104.569 74.2808 103.019L74.2208 102.849C74.0008 102.209 73.7808 101.559 73.5608 100.849C72.9508 98.9686 72.3408 96.9386 71.7608 94.7986C71.2408 92.8986 70.7542 90.9153 70.3008 88.8486C70.0408 87.6086 69.7808 86.3386 69.5408 85.0486C69.2008 83.1386 68.9008 81.1786 68.6608 79.1686C68.5208 78.0886 68.4108 76.9987 68.3208 75.8987C68.3208 75.4987 68.2508 75.1087 68.2208 74.6987C68.2208 74.0187 68.1308 73.3387 68.0908 72.6387L69.6908 72.9786L71.4708 73.3486L100.151 79.3087C100.151 79.3087 100.361 79.6386 100.721 80.2386C101.141 80.9386 101.721 82.0286 102.531 83.4186C102.661 83.6486 102.791 83.8887 102.921 84.1487C105.831 89.6387 110.061 98.9087 111.341 108.499Z" fill="#57BC57"/>
<path d="M68.1508 72.6787C70.1354 74.0165 72.2374 75.1712 74.4309 76.1287C81.8336 79.2339 89.8049 80.7533 97.8308 80.5888C98.8026 80.5343 99.7706 80.4275 100.731 80.2688C114.451 77.8688 113.571 64.7087 109.991 60.1187C106.641 55.8187 99.6809 55.6687 98.1009 55.6887C98.1009 55.6087 98.1009 55.5087 98.0509 55.4187C97.71 53.9609 97.0242 52.6063 96.0509 51.4687C94.5956 49.7354 92.622 48.5154 90.4209 47.9887C90.0908 47.9188 89.7569 47.8687 89.4209 47.8387C88.4666 47.6915 87.49 47.8182 86.6049 48.2041C85.7198 48.59 84.9624 49.2193 84.4209 50.0187C82.7922 48.2591 80.5912 47.1356 78.2108 46.8487C75.1508 46.5787 72.5109 48.0987 72.1009 50.6687C71.7965 52.2664 71.6757 53.8936 71.7409 55.5187C71.7409 55.5187 68.4509 57.3488 68.0509 66.5788C67.9698 68.6124 68.0032 70.6489 68.1508 72.6787Z" fill="#57BC57"/>
<path d="M100.741 80.3087C99.7814 80.4723 98.8131 80.5792 97.8409 80.6287C89.815 80.7932 81.8436 79.2739 74.4409 76.1687C73.2209 75.6287 71.991 75.0287 70.791 74.3486C69.901 73.8486 69.031 73.3486 68.161 72.7186V72.2186C68.0317 70.3549 67.9983 68.4858 68.0609 66.6187C68.4709 57.3887 71.7509 55.5587 71.7509 55.5587C71.6858 53.9336 71.8066 52.3063 72.111 50.7087C72.521 48.1387 75.1609 46.6187 78.2209 46.8887C80.6056 47.1688 82.8099 48.2975 84.431 50.0687C84.9713 49.2674 85.7281 48.6362 86.6133 48.2484C87.4985 47.8607 88.4757 47.7325 89.431 47.8787C89.767 47.9083 90.101 47.9584 90.431 48.0287C92.6321 48.5554 94.6057 49.7753 96.0609 51.5087C97.0342 52.6462 97.7201 54.0009 98.0609 55.4587C98.0609 55.5487 98.061 55.6487 98.111 55.7287C99.691 55.7287 106.651 55.8586 110.001 60.1586C113.581 64.7086 114.461 77.8687 100.741 80.3087Z" fill="url(#paint2_linear_164_2374)"/>
<path opacity="0.7" d="M90.5009 80.6188C91.7109 81.4988 95.1909 83.3888 102.501 83.4488C101.741 82.0588 101.111 80.9688 100.691 80.2688C97.3185 80.7582 93.8932 80.7582 90.5209 80.2688C90.3709 80.3088 90.3209 80.4988 90.5009 80.6188Z" fill="#3D7C3F"/>
<path d="M72.791 86.9787C72.791 86.9787 72.2409 87.5187 71.4009 86.8487C70.5609 86.1787 69.941 85.3787 69.601 85.0887C69.261 83.1787 68.9609 81.2187 68.7209 79.2087C68.9515 79.6335 69.2121 80.0412 69.5009 80.4287C69.7709 80.7787 70.5609 81.8587 71.5009 82.8987C72.7909 84.3087 73.681 86.1087 72.791 86.9787Z" fill="#08605F"/>
<path d="M102.561 83.4788C102.691 83.7088 102.821 83.9488 102.951 84.2088C105.821 89.6388 110.051 98.9088 111.331 108.499C111.411 109.039 111.471 109.579 111.521 110.129C111.598 110.377 111.739 110.6 111.931 110.776C112.122 110.952 112.357 111.073 112.611 111.129C113.611 111.309 113.511 110.349 113.551 109.599C113.567 109.426 113.611 109.257 113.681 109.099C113.971 108.429 114.681 107.839 115.351 108.979C116.021 110.119 115.411 111.259 115.261 111.979C115.237 112.098 115.237 112.22 115.261 112.339C115.371 113.099 117.111 114.159 118.101 112.179C119.091 110.199 117.101 106.839 117.101 106.839C113.911 98.1357 108.961 90.1835 102.561 83.4788Z" fill="#57BC57"/>
<path d="M102.561 83.4788C102.691 83.7088 102.821 83.9488 102.951 84.2088C105.821 89.6388 110.051 98.9088 111.331 108.499C111.411 109.039 111.471 109.579 111.521 110.129C111.598 110.377 111.739 110.6 111.931 110.776C112.122 110.952 112.357 111.073 112.611 111.129C113.611 111.309 113.511 110.349 113.551 109.599C113.567 109.426 113.611 109.257 113.681 109.099C113.971 108.429 114.681 107.839 115.351 108.979C116.021 110.119 115.411 111.259 115.261 111.979C115.237 112.098 115.237 112.22 115.261 112.339C115.371 113.099 117.111 114.159 118.101 112.179C119.091 110.199 117.101 106.839 117.101 106.839C113.911 98.1357 108.961 90.1835 102.561 83.4788Z" fill="url(#paint3_linear_164_2374)"/>
<path d="M95.3516 58.6548C96.9014 56.87 96.1836 53.7088 93.7483 51.5941C91.313 49.4794 88.0824 49.2119 86.5325 50.9967C84.9827 52.7814 85.7005 55.9426 88.1358 58.0573C90.5711 60.1721 93.8017 60.4396 95.3516 58.6548Z" fill="#FFF3E9"/>
<path d="M83.4931 57.3911C85.0532 55.5946 84.3308 52.4126 81.8795 50.2839C79.4282 48.1551 76.1764 47.8858 74.6163 49.6822C73.0562 51.4787 73.7786 54.6607 76.2299 56.7895C78.6812 58.9182 81.933 59.1875 83.4931 57.3911Z" fill="#FFF3E9"/>
<path d="M102.521 65.1387C102.911 65.2587 103.181 64.9787 103.021 64.6087C102.651 63.7387 101.861 62.3087 100.771 62.7087C99.6808 63.1087 101.231 64.7487 102.521 65.1387Z" fill="#281911"/>
<path d="M106.151 65.3587C105.965 65.3562 105.787 65.2819 105.655 65.1515C105.523 65.021 105.446 64.8444 105.441 64.6587C105.531 63.8587 105.861 62.5687 107.141 63.2987C108.421 64.0287 107.351 65.3087 106.151 65.3587Z" fill="#281911"/>
<path d="M74.4208 42.3087C76.1508 41.7794 78.0176 41.9296 79.6408 42.7287C79.8408 42.8287 80.0108 42.7287 79.9108 42.4987C79.4708 41.5687 78.3208 39.6587 76.4508 39.7587C76.1429 39.7381 75.8341 39.7811 75.5436 39.8849C75.253 39.9887 74.987 40.1512 74.7619 40.3622C74.5368 40.5732 74.3575 40.8283 74.2352 41.1115C74.1128 41.3948 74.0501 41.7001 74.0508 42.0087C74.053 42.0535 74.0647 42.0974 74.085 42.1375C74.1054 42.1776 74.1339 42.2129 74.1688 42.2412C74.2037 42.2695 74.2442 42.2901 74.2876 42.3018C74.331 42.3134 74.3764 42.3157 74.4208 42.3087Z" fill="#281911"/>
<path d="M91.7309 44.0587C90.7309 43.6487 88.4009 42.7987 86.5009 43.5587C86.4219 43.568 86.3423 43.5475 86.2776 43.5013C86.2129 43.4551 86.1677 43.3864 86.1509 43.3087C86.1509 42.4187 86.5309 40.6487 88.5109 41.0787C89.2708 41.2363 89.9836 41.5687 90.5928 42.0495C91.202 42.5303 91.6909 43.1463 92.0209 43.8487C92.0709 43.9987 91.9209 44.1387 91.7309 44.0587Z" fill="#281911"/>
<path d="M78.1509 67.1987C78.3988 67.775 78.6931 68.3301 79.0309 68.8587L79.3109 69.2587C79.4042 69.3854 79.5043 69.5154 79.6109 69.6487C79.6926 69.759 79.7829 69.8627 79.8809 69.9587C79.8809 70.0287 80.0009 70.0987 80.0609 70.1687L80.2909 70.3987C81.9954 72.019 84.1626 73.0677 86.4909 73.3987C88.1713 73.6568 89.875 73.7272 91.5709 73.6087C91.6083 73.6089 91.6452 73.5991 91.6776 73.5803C91.71 73.5614 91.7367 73.5343 91.755 73.5017C91.7734 73.469 91.7827 73.4321 91.782 73.3947C91.7813 73.3572 91.7705 73.3206 91.7509 73.2887C91.5409 72.7287 91.0709 71.4887 90.7509 70.2087L90.6909 70.0087C90.1506 68.1568 89.8745 66.2378 89.8709 64.3087C89.8629 64.2219 89.8261 64.1402 89.7663 64.0768C89.7065 64.0133 89.6271 63.9718 89.5409 63.9587H89.2409C87.8809 63.7687 86.6309 63.5387 85.5009 63.2887H85.3509C84.0706 63.0033 82.8055 62.6529 81.5609 62.2387L81.3109 62.1587C80.0271 61.7326 78.777 61.2111 77.5709 60.5987C77.4009 60.5087 77.2309 60.5987 77.2209 60.7187C77.0325 62.9214 77.3507 65.138 78.1509 67.1987Z" fill="#530007"/>
<path d="M91.7509 73.3087C91.7698 73.3414 91.78 73.3784 91.7805 73.4161C91.7809 73.4539 91.7717 73.4911 91.7537 73.5243C91.7356 73.5574 91.7093 73.5854 91.6772 73.6054C91.6452 73.6254 91.6086 73.6369 91.5709 73.6387C89.875 73.7572 88.1712 73.6867 86.4909 73.4287C84.1626 73.0976 81.9954 72.049 80.2909 70.4287L80.0609 70.1987L79.8708 69.9887C79.7789 69.89 79.6921 69.7865 79.6109 69.6787C79.5042 69.5454 79.4042 69.4154 79.3109 69.2887L79.0309 68.8887C78.693 68.3602 78.3987 67.805 78.1509 67.2287C80.3538 66.736 82.6591 67.0149 84.6809 68.0187C85.7701 67.9136 86.8692 68.043 87.9042 68.3984C88.9391 68.7537 89.886 69.3267 90.6809 70.0787L90.7409 70.2687C91.0709 71.5287 91.5409 72.7687 91.7509 73.3087Z" fill="#B23F74"/>
<path d="M87.5109 70.5388C86.7416 69.5081 85.7807 68.6355 84.6809 67.9688C85.3768 68.0078 86.0389 68.281 86.5599 68.744C87.0809 69.2069 87.4302 69.8324 87.5509 70.5188L87.5109 70.5388Z" fill="#7C1A4B"/>
<path d="M79.151 63.5387C80.571 64.1287 81.151 62.7287 81.261 62.1287C79.9772 61.7026 78.7271 61.1811 77.521 60.5687C77.541 60.9887 77.671 62.9187 79.151 63.5387Z" fill="#FFF3E9"/>
<path d="M83.311 65.0487C84.941 65.6587 85.311 63.5887 85.311 63.2587C84.0306 62.9734 82.7657 62.6229 81.521 62.2087C81.591 62.7787 81.901 64.5187 83.311 65.0487Z" fill="#FFF3E9"/>
<path d="M87.4509 65.9088C89.0009 66.3088 89.1809 64.4288 89.2009 63.9088C87.8409 63.7188 86.5909 63.4888 85.4609 63.2388C85.6109 63.9588 86.1509 65.5788 87.4509 65.9088Z" fill="#FFF3E9"/>
<path d="M85.9608 109.199C87.7808 112.109 91.5208 115.549 93.0608 116.899C94.5724 118.371 95.7877 120.119 96.6408 122.049L97.3208 121.799H97.3808L97.6508 121.689L98.4808 121.349C99.0908 121.079 99.7008 120.799 100.141 120.559C102.052 119.644 103.769 118.371 105.201 116.809C105.845 116.205 106.397 115.512 106.841 114.749C106.981 114.499 107.111 114.249 107.241 113.979C109.461 109.259 108.421 101.979 105.161 93.5287C104.036 90.4136 102.037 87.6889 99.4034 85.6812C96.7695 83.6734 93.6125 82.4678 90.3108 82.2087C88.504 82.1414 86.6954 82.2823 84.9208 82.6287C75.4208 84.7887 81.8508 102.569 85.9608 109.199Z" fill="#FBD08D"/>
<path opacity="0.6" d="M85.9608 109.199C87.7808 112.109 91.5208 115.549 93.0608 116.899C94.5724 118.371 95.7877 120.119 96.6408 122.049L97.3208 121.799H97.3808L97.6508 121.689L98.4808 121.349C99.0908 121.079 99.7008 120.799 100.141 120.559C102.052 119.644 103.769 118.371 105.201 116.809C105.845 116.205 106.397 115.512 106.841 114.749C106.981 114.499 107.111 114.249 107.241 113.979C109.461 109.259 108.421 101.979 105.161 93.5287C104.036 90.4136 102.037 87.6889 99.4034 85.6812C96.7695 83.6734 93.6125 82.4678 90.3108 82.2087C88.504 82.1414 86.6954 82.2823 84.9208 82.6287C75.4208 84.7887 81.8508 102.569 85.9608 109.199Z" fill="url(#paint4_linear_164_2374)"/>
<path d="M73.4909 75.4387C72.4909 74.4387 71.5909 73.4387 71.2909 73.1087C69.7891 71.1504 68.682 68.9191 68.0309 66.5387C67.9598 68.5729 68.0032 70.6094 68.1609 72.6387C68.1609 72.8987 68.1609 73.1587 68.1609 73.4187C68.1609 73.8387 68.2109 74.2687 68.2409 74.6887C69.1864 75.9239 70.2298 77.081 71.3609 78.1487C71.9657 78.7462 72.6141 79.2977 73.3009 79.7987C73.5497 79.9956 73.865 80.0888 74.1809 80.0587H74.3009H74.3709H74.4509C74.7009 79.9405 74.9225 79.77 75.1009 79.5587C75.9109 78.5287 74.8609 76.7587 73.4909 75.4387Z" fill="#08605F"/>
<path d="M82.0607 52.6087C83.1907 54.8887 82.6007 57.1487 80.8707 57.5087C80.2591 57.5759 79.6405 57.4873 79.0723 57.2513C78.5041 57.0153 78.0048 56.6394 77.6207 56.1587C77.5681 56.106 77.5331 56.0383 77.5206 55.9649C77.5081 55.8914 77.5186 55.8159 77.5508 55.7487L79.0008 53.7487L76.3008 52.5987C76.2297 52.5663 76.1693 52.5143 76.1268 52.4487C76.0843 52.3832 76.0613 52.3069 76.0607 52.2287C76.0405 51.9242 76.081 51.6186 76.18 51.3299C76.279 51.0411 76.4345 50.775 76.6374 50.5469C76.8403 50.3189 77.0866 50.1336 77.3619 50.0017C77.6372 49.8698 77.9359 49.794 78.2408 49.7787C79.6308 49.7287 81.2307 50.9287 82.0607 52.6087Z" fill="#281911"/>
<path d="M93.6508 53.7288C94.7808 56.0088 94.1908 58.2788 92.4608 58.6388C91.8486 58.7019 91.2302 58.6105 90.6624 58.3729C90.0947 58.1354 89.5956 57.7591 89.2108 57.2787C89.1562 57.2294 89.1197 57.1633 89.107 57.0908C89.0943 57.0183 89.1062 56.9437 89.1408 56.8787L90.5808 54.8787L87.8908 53.7387C87.8197 53.7063 87.7594 53.6543 87.7168 53.5888C87.6743 53.5232 87.6514 53.4469 87.6508 53.3687C87.6291 53.0634 87.6686 52.7568 87.767 52.4669C87.8654 52.1769 88.0206 51.9096 88.2237 51.6805C88.4267 51.4514 88.6735 51.2651 88.9494 51.1326C89.2254 51 89.525 50.9239 89.8308 50.9087C91.2108 50.8587 92.8208 52.0488 93.6508 53.7288Z" fill="#281911"/>
</g>
<path d="M52.6014 76.3087H48.7814L43.9014 41.6387H47.7314C48.121 41.6509 48.4946 41.7967 48.7895 42.0516C49.0844 42.3065 49.2828 42.655 49.3514 43.0387L53.8314 74.9187C53.8635 75.0945 53.8553 75.2754 53.8073 75.4476C53.7592 75.6198 53.6727 75.7788 53.5543 75.9127C53.4358 76.0466 53.2885 76.1518 53.1234 76.2204C52.9583 76.289 52.7798 76.3192 52.6014 76.3087Z" fill="#333333"/>
<path d="M48.9418 43.0485L50.5819 54.6885C50.6041 54.8243 50.596 54.9633 50.5581 55.0956C50.5201 55.2278 50.4533 55.35 50.3624 55.4533C50.2716 55.5566 50.1589 55.6385 50.0325 55.693C49.9062 55.7475 49.7693 55.7733 49.6318 55.7685H47.5718C47.2683 55.7585 46.9777 55.6433 46.7496 55.4427C46.5216 55.242 46.3704 54.9683 46.3218 54.6685L44.6819 43.0385C44.6563 42.898 44.6638 42.7535 44.7037 42.6164C44.7436 42.4793 44.8148 42.3533 44.9119 42.2486C45.0089 42.1438 45.129 42.063 45.2626 42.0127C45.3963 41.9623 45.5398 41.9438 45.6819 41.9585H47.7419C48.0358 41.9774 48.3146 42.0955 48.5326 42.2936C48.7506 42.4916 48.8949 42.7578 48.9418 43.0485Z" fill="#666666"/>
<path d="M48.4613 62.0787H50.5213C50.8249 62.0887 51.1155 62.2038 51.3436 62.4045C51.5716 62.6051 51.7228 62.8788 51.7713 63.1787L53.4113 74.8187C53.4373 74.9541 53.432 75.0937 53.3961 75.2268C53.3602 75.36 53.2945 75.4833 53.204 75.5873C53.1134 75.6913 53.0004 75.7734 52.8735 75.8273C52.7465 75.8813 52.609 75.9057 52.4713 75.8987H50.4013C50.0986 75.891 49.8081 75.7779 49.5799 75.5789C49.3517 75.3799 49.2001 75.1075 49.1513 74.8087L47.5113 63.1586C47.489 63.0229 47.4971 62.8839 47.5351 62.7516C47.573 62.6193 47.6399 62.4972 47.7308 62.3939C47.8216 62.2906 47.9343 62.2087 48.0606 62.1542C48.1869 62.0997 48.3238 62.0739 48.4613 62.0787Z" fill="#666666"/>
<path d="M49.6322 59.9087H48.7122C48.5698 59.9059 48.4328 59.8535 48.325 59.7603C48.2173 59.6672 48.1455 59.5393 48.1222 59.3987L47.9922 58.4887C47.9825 58.4212 47.9872 58.3524 48.0062 58.2869C48.0252 58.2213 48.0579 58.1606 48.1022 58.1087C48.1475 58.0581 48.203 58.0177 48.265 57.9901C48.3271 57.9625 48.3943 57.9484 48.4622 57.9487H49.3822C49.5261 57.9519 49.6642 58.0058 49.7722 58.101C49.8802 58.1961 49.951 58.3263 49.9722 58.4687L50.1022 59.3687C50.1126 59.4362 50.1081 59.5052 50.0891 59.5709C50.0701 59.6365 50.0371 59.6972 49.9922 59.7487C49.9469 59.7993 49.8914 59.8398 49.8294 59.8674C49.7673 59.895 49.7001 59.909 49.6322 59.9087ZM48.4622 58.1387C48.3833 58.1409 48.3082 58.1731 48.2522 58.2287C48.227 58.261 48.2088 58.298 48.1985 58.3375C48.1881 58.3771 48.186 58.4183 48.1922 58.4587L48.3222 59.3587C48.3382 59.4516 48.3858 59.5361 48.4568 59.598C48.5278 59.66 48.618 59.6955 48.7122 59.6987H49.6322C49.6716 59.7 49.7109 59.6926 49.7472 59.677C49.7834 59.6615 49.8159 59.6381 49.8422 59.6087C49.8665 59.578 49.8844 59.5427 49.8947 59.5049C49.9051 59.4671 49.9076 59.4276 49.9022 59.3887L49.7722 58.4887C49.7582 58.394 49.7116 58.3072 49.6404 58.2433C49.5692 58.1794 49.4778 58.1424 49.3822 58.1387H48.4622Z" fill="#CCCCCC"/>
<path d="M50.2222 52.1286L50.3922 53.3286C50.3997 53.3715 50.3976 53.4155 50.3858 53.4575C50.374 53.4994 50.3529 53.5381 50.3241 53.5708C50.2952 53.6035 50.2594 53.6292 50.2193 53.6462C50.1791 53.6631 50.1357 53.6707 50.0922 53.6686H46.5222C46.4292 53.6583 46.3424 53.6173 46.2753 53.5521C46.2083 53.4869 46.165 53.4012 46.1522 53.3086L45.9822 52.1086C45.9728 52.0663 45.9734 52.0224 45.9839 51.9804C45.9944 51.9384 46.0144 51.8993 46.0426 51.8664C46.0707 51.8334 46.106 51.8074 46.1458 51.7905C46.1857 51.7735 46.2289 51.766 46.2722 51.7686H49.8522C49.9451 51.7788 50.032 51.8198 50.099 51.885C50.166 51.9502 50.2094 52.0359 50.2222 52.1286Z" fill="#CCCCCC"/>
<path d="M52.2422 66.5287L52.4122 67.7287C52.4215 67.771 52.4209 67.8149 52.4105 67.8569C52.4 67.899 52.3799 67.9379 52.3518 67.9709C52.3237 68.0039 52.2883 68.0299 52.2485 68.0468C52.2086 68.0638 52.1654 68.0713 52.1221 68.0687H48.5422C48.4471 68.0632 48.3567 68.0256 48.2859 67.962C48.215 67.8984 48.1679 67.8126 48.1522 67.7187L47.9822 66.5187C47.9764 66.4761 47.9799 66.4328 47.9924 66.3916C48.0049 66.3505 48.026 66.3125 48.0545 66.2802C48.0829 66.248 48.118 66.2222 48.1573 66.2047C48.1966 66.1872 48.2392 66.1783 48.2822 66.1787H51.8522C51.9478 66.1824 52.0391 66.2194 52.1103 66.2833C52.1816 66.3472 52.2282 66.434 52.2422 66.5287Z" fill="#CCCCCC"/>
<path d="M118.352 35.8186L43.1219 35.9886L42.9619 34.8386C42.8934 34.4072 42.92 33.966 43.0398 33.5459C43.1596 33.1257 43.3697 32.7368 43.6554 32.4064C43.9411 32.0759 44.2955 31.8118 44.6939 31.6326C45.0923 31.4533 45.5251 31.3632 45.9619 31.3686L115.102 31.4487C115.839 31.4433 116.552 31.7095 117.105 32.1964C117.659 32.6833 118.013 33.3569 118.102 34.0886L118.352 35.8186Z" fill="#333333"/>
<path d="M46.6017 34.2487C46.4955 34.2492 46.3901 34.2288 46.2917 34.1887C46.1932 34.1468 46.102 34.0894 46.0217 34.0186C45.9386 33.9396 45.8678 33.8486 45.8117 33.7487C45.7523 33.6457 45.7085 33.5345 45.6817 33.4186C45.6621 33.3095 45.6621 33.1978 45.6817 33.0886C45.6903 32.9971 45.7211 32.9091 45.7717 32.8324C45.8223 32.7557 45.891 32.6926 45.9717 32.6486C46.0628 32.6076 46.1618 32.5871 46.2617 32.5886C46.3608 32.5849 46.4596 32.6019 46.5517 32.6386C46.641 32.6766 46.7224 32.7308 46.7917 32.7986C46.8588 32.8518 46.9163 32.9161 46.9617 32.9886L46.8017 33.0886C46.7477 33.0016 46.6762 32.9266 46.5917 32.8686C46.5062 32.8105 46.4052 32.7791 46.3017 32.7787C46.2056 32.7764 46.1111 32.8044 46.0317 32.8586C45.9627 32.9192 45.9138 32.9995 45.8917 33.0886C45.8614 33.1966 45.8614 33.3107 45.8917 33.4186C45.9135 33.5376 45.9613 33.6503 46.0317 33.7487C46.0962 33.84 46.1777 33.9181 46.2717 33.9787C46.3631 34.0308 46.4665 34.0583 46.5717 34.0586C46.6542 34.0632 46.7357 34.0384 46.8017 33.9886C46.8689 33.9526 46.9192 33.8915 46.9417 33.8187C46.9673 33.7339 46.9673 33.6434 46.9417 33.5586V33.4586L47.0517 33.5486H46.4717V33.3586H47.1517V33.4987C47.1763 33.6005 47.1763 33.7068 47.1517 33.8086C47.1414 33.8934 47.1067 33.9733 47.0517 34.0387C47.0054 34.1071 46.939 34.1595 46.8617 34.1887C46.7819 34.2314 46.6922 34.2521 46.6017 34.2487Z" fill="#CCCCCC"/>
<path d="M47.8613 34.2485C47.7956 34.2646 47.727 34.2646 47.6613 34.2485C47.6017 34.2176 47.5476 34.1771 47.5013 34.1285C47.463 34.0781 47.4357 34.0202 47.4213 33.9585C47.4112 33.9023 47.4112 33.8447 47.4213 33.7885C47.4394 33.7408 47.4706 33.6992 47.5113 33.6685C47.5679 33.6281 47.6328 33.6008 47.7013 33.5885L48.0913 33.5185V33.6885L47.7413 33.7485C47.6713 33.7485 47.6213 33.7485 47.6013 33.8285C47.5908 33.8467 47.5852 33.8674 47.5852 33.8885C47.5852 33.9096 47.5908 33.9303 47.6013 33.9485C47.6043 33.9734 47.6131 33.9972 47.627 34.018C47.6409 34.0389 47.6595 34.0562 47.6813 34.0685C47.727 34.0824 47.7757 34.0824 47.8213 34.0685C47.8759 34.0902 47.9367 34.0902 47.9913 34.0685C48.0141 34.0562 48.0338 34.039 48.0494 34.0183C48.0649 33.9976 48.0758 33.9738 48.0813 33.9485C48.0961 33.8894 48.0961 33.8276 48.0813 33.7685L48.0213 33.4685C48.0034 33.4061 47.9652 33.3515 47.9126 33.3134C47.86 33.2754 47.7962 33.256 47.7313 33.2585C47.6832 33.2391 47.6294 33.2391 47.5813 33.2585C47.54 33.2909 47.5116 33.337 47.5013 33.3885L47.3213 33.2985C47.3308 33.248 47.3513 33.2002 47.3813 33.1585C47.4211 33.1165 47.4686 33.0825 47.5213 33.0585C47.5802 33.0423 47.6424 33.0423 47.7013 33.0585C47.7772 33.0434 47.8554 33.0434 47.9313 33.0585C47.9995 33.0937 48.0605 33.1411 48.1113 33.1985C48.1604 33.2599 48.1946 33.3318 48.2113 33.4085L48.3713 34.2085H48.1913L48.1413 33.9785C48.1257 34.0226 48.102 34.0633 48.0713 34.0985C48.0371 34.133 47.9963 34.1602 47.9513 34.1785C47.9247 34.2059 47.8944 34.2295 47.8613 34.2485Z" fill="#CCCCCC"/>
<path d="M48.7025 34.2286L48.3525 32.5786H48.5425L48.8825 34.2186L48.7025 34.2286Z" fill="#CCCCCC"/>
<path d="M49.1516 34.2186L48.8115 32.5786H49.0015L49.3416 34.2186H49.1516Z" fill="#CCCCCC"/>
<path d="M50.1524 34.2487C50.0476 34.2458 49.9448 34.2184 49.8525 34.1686C49.7587 34.1119 49.6772 34.0371 49.6125 33.9487C49.5489 33.855 49.5047 33.7496 49.4825 33.6386C49.4525 33.5341 49.4525 33.4232 49.4825 33.3187C49.5086 33.2343 49.5611 33.1607 49.6324 33.1086C49.6667 33.0794 49.7065 33.0573 49.7494 33.0435C49.7924 33.0298 49.8375 33.0248 49.8824 33.0287C49.955 33.0136 50.0299 33.0136 50.1025 33.0287C50.1731 33.0601 50.2375 33.1042 50.2925 33.1587C50.3499 33.2095 50.3973 33.2705 50.4325 33.3387C50.4678 33.405 50.4946 33.4756 50.5124 33.5486C50.5134 33.5653 50.5134 33.582 50.5124 33.5987V33.6587H49.6224V33.4886H50.4125L50.3324 33.5687C50.3326 33.4975 50.3118 33.4279 50.2724 33.3687C50.2363 33.3417 50.1957 33.3214 50.1524 33.3087C50.099 33.2739 50.0362 33.2564 49.9725 33.2587C49.9116 33.254 49.8511 33.2718 49.8025 33.3087C49.7591 33.3493 49.7279 33.4013 49.7124 33.4586C49.6981 33.5346 49.6981 33.6127 49.7124 33.6887C49.7302 33.7664 49.7607 33.8407 49.8025 33.9087C49.8399 33.9733 49.8955 34.0255 49.9624 34.0587C50.0226 34.095 50.0923 34.1124 50.1625 34.1086C50.1927 34.112 50.2233 34.1093 50.2525 34.1007C50.2817 34.0921 50.3088 34.0778 50.3324 34.0587C50.3736 34.0202 50.4045 33.972 50.4225 33.9186L50.6025 34.0087C50.5894 34.0598 50.5655 34.1075 50.5325 34.1487C50.4952 34.1959 50.4472 34.2336 50.3924 34.2587C50.3132 34.2788 50.2298 34.2753 50.1524 34.2487Z" fill="#CCCCCC"/>
<path d="M50.9014 34.2186L50.6514 33.0486H50.8414V33.2686C50.8504 33.2087 50.8828 33.1548 50.9314 33.1186C50.9896 33.098 51.0532 33.098 51.1114 33.1186H51.1514V33.3086C51.1188 33.3078 51.0865 33.3146 51.0569 33.3285C51.0274 33.3424 51.0016 33.363 50.9814 33.3886C50.9535 33.4593 50.9535 33.5379 50.9814 33.6086L51.1313 34.2986L50.9014 34.2186Z" fill="#CCCCCC"/>
<path d="M51.7719 34.6987H51.6919H51.6219V34.5186H51.7519C51.7935 34.5359 51.8403 34.5359 51.8819 34.5186C51.9173 34.4763 51.9383 34.4238 51.9419 34.3687L51.2119 33.1086H51.4119L51.9819 34.1086H51.9219L52.0719 33.1086H52.2819L52.0719 34.4186C52.0626 34.4785 52.0422 34.5362 52.0119 34.5887C51.9902 34.637 51.9556 34.6785 51.9119 34.7086C51.8651 34.7161 51.8172 34.7127 51.7719 34.6987Z" fill="#CCCCCC"/>
<path d="M55.3116 34.3596C55.6068 34.0383 55.5263 33.4841 55.1319 33.1216C54.7374 32.7591 54.1784 32.7257 53.8831 33.047C53.5879 33.3682 53.6684 33.9225 54.0629 34.285C54.4573 34.6474 55.0164 34.6809 55.3116 34.3596Z" fill="#1A1A1A"/>
<path d="M58.3898 34.3752C58.685 34.0539 58.6045 33.4997 58.2101 33.1372C57.8156 32.7747 57.2565 32.7413 56.9613 33.0626C56.6661 33.3838 56.7465 33.9381 57.141 34.3006C57.5355 34.6631 58.0946 34.6965 58.3898 34.3752Z" fill="#1A1A1A"/>
<path d="M61.4621 34.3984C61.7573 34.0771 61.6768 33.5229 61.2823 33.1604C60.8879 32.7979 60.3288 32.7645 60.0336 33.0857C59.7384 33.407 59.8188 33.9613 60.2133 34.3238C60.6077 34.6863 61.1669 34.7197 61.4621 34.3984Z" fill="#1A1A1A"/>
<path d="M64.5402 34.4141C64.8354 34.0928 64.7549 33.5385 64.3605 33.176C63.966 32.8135 63.4069 32.7802 63.1117 33.1014C62.8165 33.4227 62.8969 33.977 63.2914 34.3394C63.6859 34.7019 64.2449 34.7353 64.5402 34.4141Z" fill="#1A1A1A"/>
<path d="M106.112 34.4009C106.408 34.0796 106.327 33.5253 105.933 33.1628C105.538 32.8003 104.979 32.767 104.684 33.0882C104.389 33.4095 104.469 33.9638 104.864 34.3262C105.258 34.6887 105.817 34.7221 106.112 34.4009Z" fill="#CCCCCC"/>
<path d="M109.175 34.4241C109.47 34.1028 109.39 33.5485 108.995 33.1861C108.601 32.8236 108.042 32.7902 107.746 33.1114C107.451 33.4327 107.532 33.987 107.926 34.3494C108.321 34.7119 108.88 34.7453 109.175 34.4241Z" fill="#CCCCCC"/>
<path d="M112.261 34.4462C112.556 34.125 112.476 33.5707 112.081 33.2082C111.687 32.8458 111.128 32.8123 110.832 33.1336C110.537 33.4549 110.618 34.0092 111.012 34.3717C111.407 34.7341 111.966 34.7675 112.261 34.4462Z" fill="#CCCCCC"/>
<path d="M115.333 34.4692C115.628 34.1479 115.548 33.5937 115.153 33.2312C114.759 32.8687 114.2 32.8353 113.905 33.1565C113.609 33.4778 113.69 34.0321 114.084 34.3946C114.479 34.7571 115.038 34.7905 115.333 34.4692Z" fill="#CCCCCC"/>
<path d="M105.612 57.6786C105.734 57.5886 105.844 57.4846 105.942 57.3686L135.152 23.0486C135.317 22.8716 135.446 22.6645 135.532 22.4386C135.699 22.1049 135.761 21.7282 135.709 21.3585C135.658 20.9888 135.495 20.6435 135.242 20.3686L135.082 20.2287L134.892 20.1086C134.788 20.0434 134.677 19.9898 134.562 19.9487C134.428 19.9114 134.291 19.8847 134.152 19.8686C133.774 19.8409 133.395 19.9046 133.047 20.0542C132.699 20.2039 132.392 20.4353 132.152 20.7287L102.952 55.0486C102.855 55.1693 102.771 55.3001 102.702 55.4386L101.152 58.8787C101.072 59.0188 101.03 59.1774 101.03 59.3387C101.03 59.5 101.072 59.6585 101.152 59.7986C101.2 59.86 101.254 59.9169 101.312 59.9686C101.485 60.0984 101.696 60.1686 101.912 60.1686C102.128 60.1686 102.339 60.0984 102.512 59.9686L105.612 57.6786Z" fill="#FFF3E9"/>
<path d="M102.502 59.9387C102.328 60.0685 102.118 60.1387 101.902 60.1387C101.685 60.1387 101.475 60.0685 101.302 59.9387C101.243 59.887 101.19 59.8301 101.142 59.7687C101.142 59.7687 101.492 60.0487 102.042 59.4387L134.602 21.0687C134.731 20.9018 134.797 20.6937 134.786 20.4825C134.775 20.2714 134.688 20.0712 134.542 19.9187C134.657 19.9598 134.768 20.0135 134.872 20.0787L135.062 20.1987L135.222 20.3387L135.302 20.4387L135.372 20.5187L135.492 20.7187L135.552 20.8587C135.581 20.9231 135.604 20.9901 135.622 21.0587C135.622 21.1087 135.622 21.1487 135.622 21.1987C135.622 21.2487 135.622 21.1987 135.622 21.2687C135.627 21.3119 135.627 21.3555 135.622 21.3987C135.627 21.4452 135.627 21.4922 135.622 21.5387C135.627 21.6086 135.627 21.6788 135.622 21.7487C135.622 21.7487 135.622 21.8187 135.622 21.8587C135.622 21.8987 135.622 21.8587 135.622 21.9187L135.562 22.1487C135.562 22.1987 135.562 22.2487 135.512 22.2887C135.462 22.3287 135.442 22.4587 135.402 22.5487L135.342 22.6587C135.271 22.7806 135.187 22.8945 135.092 22.9987L105.902 57.3187C105.804 57.4346 105.693 57.5387 105.572 57.6287L102.502 59.9387Z" fill="#CCCCCC"/>
<path d="M44.1978 60.9565C44.99 60.0943 44.7817 58.6139 43.7325 57.6497C42.6833 56.6856 41.1905 56.603 40.3983 57.4651C39.6061 58.3272 39.8144 59.8077 40.8636 60.7718C41.9128 61.7359 43.4056 61.8186 44.1978 60.9565Z" fill="#446344"/>
<path d="M42.7509 61.7688C42.0394 61.73 41.3603 61.4584 40.8182 60.9958C40.2762 60.5333 39.9012 59.9054 39.7509 59.2088C39.6693 58.8825 39.6629 58.5419 39.7322 58.2127C39.8015 57.8836 39.9447 57.5744 40.151 57.3087C40.3576 57.0667 40.6156 56.8737 40.9063 56.744C41.1969 56.6142 41.5128 56.551 41.8309 56.5587C42.543 56.5959 43.2229 56.8669 43.7653 57.3297C44.3077 57.7926 44.6823 58.4214 44.8309 59.1187C44.9044 59.4427 44.9039 59.7791 44.8295 60.1029C44.755 60.4266 44.6086 60.7294 44.4009 60.9887C44.2009 61.2329 43.9491 61.4295 43.6637 61.5644C43.3783 61.6993 43.0666 61.7691 42.7509 61.7688ZM41.8309 57.0887C41.5855 57.081 41.3414 57.1282 41.1165 57.2268C40.8916 57.3254 40.6916 57.473 40.531 57.6588C40.3688 57.8612 40.2549 58.0978 40.1977 58.3507C40.1405 58.6037 40.1416 58.8663 40.2009 59.1187C40.3266 59.7077 40.6441 60.2384 41.1038 60.6275C41.5634 61.0166 42.1393 61.2422 42.741 61.2688C42.9867 61.2787 43.2314 61.2325 43.4567 61.1337C43.6819 61.0349 43.8818 60.8862 44.041 60.6988C44.2031 60.4964 44.317 60.2597 44.3742 60.0067C44.4313 59.7538 44.4302 59.4912 44.3709 59.2387C44.2442 58.6521 43.9277 58.1236 43.4703 57.7349C43.013 57.3463 42.4404 57.1192 41.841 57.0887H41.8309Z" fill="#B3C6B3"/>
<defs>
<linearGradient id="paint0_linear_164_2374" x1="47.3593" y1="18.2927" x2="116.403" y2="101.725" gradientUnits="userSpaceOnUse">
<stop stop-color="#C6E5A0" stop-opacity="0.25"/>
<stop offset="0.31" stop-color="#B9D898" stop-opacity="0.31"/>
<stop offset="0.69" stop-color="#95B483" stop-opacity="0.49"/>
<stop offset="1" stop-color="#688768" stop-opacity="0.7"/>
</linearGradient>
<linearGradient id="paint1_linear_164_2374" x1="94.2442" y1="110.392" x2="93.4604" y2="-5.2923" gradientUnits="userSpaceOnUse">
<stop offset="0.28" stop-color="#F7F0CD"/>
<stop offset="0.34" stop-color="#DCEACE"/>
<stop offset="0.45" stop-color="#B6E1D0"/>
<stop offset="0.51" stop-color="#A8DED1"/>
<stop offset="0.54" stop-color="#9ED7CE"/>
<stop offset="0.65" stop-color="#7FC2C6"/>
<stop offset="0.71" stop-color="#74BAC3"/>
<stop offset="0.73" stop-color="#6DB4C0"/>
<stop offset="0.8" stop-color="#4F9BB5"/>
<stop offset="0.87" stop-color="#3989AD"/>
<stop offset="0.93" stop-color="#2C7FA8"/>
<stop offset="0.99" stop-color="#287BA6"/>
</linearGradient>
<linearGradient id="paint2_linear_164_2374" x1="98.3639" y1="138.236" x2="123.044" y2="-27.5681" gradientUnits="userSpaceOnUse">
<stop offset="0.38" stop-color="#57BC57"/>
<stop offset="0.48" stop-color="#72CC60"/>
<stop offset="0.58" stop-color="#89D968"/>
<stop offset="0.7" stop-color="#99E36D"/>
<stop offset="0.83" stop-color="#A3E870"/>
<stop offset="1" stop-color="#A6EA71"/>
</linearGradient>
<linearGradient id="paint3_linear_164_2374" x1="104.644" y1="97.3175" x2="111.714" y2="95.1963" gradientUnits="userSpaceOnUse">
<stop stop-color="#127C12" stop-opacity="0.8"/>
<stop offset="0.17" stop-color="#198219" stop-opacity="0.73"/>
<stop offset="0.43" stop-color="#2B922C" stop-opacity="0.55"/>
<stop offset="0.76" stop-color="#49AD4B" stop-opacity="0.26"/>
<stop offset="1" stop-color="#63C466" stop-opacity="0"/>
</linearGradient>
<linearGradient id="paint4_linear_164_2374" x1="87.3218" y1="81.0526" x2="85.5657" y2="120.488" gradientUnits="userSpaceOnUse">
<stop stop-color="#FBD08D" stop-opacity="0"/>
<stop offset="0.25" stop-color="#F2C686" stop-opacity="0.03"/>
<stop offset="0.51" stop-color="#D9A971" stop-opacity="0.13"/>
<stop offset="0.77" stop-color="#AE794E" stop-opacity="0.3"/>
<stop offset="1" stop-color="#7A3E23" stop-opacity="0.5"/>
</linearGradient>
</defs>
</svg>
