<svg width="495" height="346" viewBox="0 0 495 346" fill="none" xmlns="http://www.w3.org/2000/svg">
<path opacity="0.1" d="M152.512 258.872C152.512 258.872 142.212 262.372 140.782 269.692C139.442 276.542 147.512 283.742 160.202 284.692C172.892 285.642 180.412 286.832 182.732 291.842C185.052 296.852 187.022 306.682 204.282 307.572C221.542 308.462 236.842 293.982 253.052 292.022C269.262 290.062 284.192 299.702 293.622 301.142C303.052 302.582 319.682 304.142 332.022 292.552C344.362 280.962 350.612 276.052 360.862 272.662C371.112 269.272 386.332 264.482 383.922 255.582C378.632 236.212 253.052 223.922 152.512 258.872Z" fill="#7C7C7C"/>
<path d="M142.092 128.052H94.0918C93.106 128.052 92.13 128.246 91.2194 128.624C90.3088 129.001 89.4815 129.555 88.785 130.252C88.0884 130.95 87.5362 131.778 87.1599 132.689C86.7835 133.6 86.5905 134.576 86.5918 135.562V169.232C86.5918 171.221 87.382 173.129 88.7885 174.535C90.195 175.942 92.1027 176.732 94.0918 176.732H126.412L134.412 187.882C134.618 188.168 134.908 188.382 135.242 188.495C135.576 188.608 135.937 188.613 136.274 188.511C136.611 188.408 136.908 188.203 137.123 187.923C137.338 187.644 137.46 187.304 137.472 186.952L137.812 176.732H142.092C143.078 176.733 144.054 176.54 144.965 176.164C145.876 175.788 146.704 175.235 147.402 174.539C148.099 173.842 148.652 173.015 149.03 172.104C149.408 171.194 149.602 170.218 149.602 169.232V135.602C149.607 134.612 149.417 133.632 149.042 132.716C148.667 131.8 148.114 130.967 147.416 130.266C146.718 129.564 145.889 129.007 144.975 128.627C144.061 128.248 143.081 128.052 142.092 128.052Z" fill="#F34553"/>
<path d="M130.042 138.502C120.762 135.082 118.112 143.972 118.112 143.972C118.112 143.972 115.212 135.222 106.192 138.502C96.5621 142.002 102.052 161.502 116.462 166.862C117.531 167.252 118.703 167.252 119.772 166.862C134.172 161.542 139.632 142.052 130.042 138.502Z" fill="#F2F2F2"/>
<path d="M395.601 108.211H351.441C350.534 108.21 349.636 108.387 348.798 108.733C347.959 109.08 347.198 109.588 346.556 110.228C345.914 110.869 345.405 111.63 345.057 112.468C344.71 113.306 344.531 114.204 344.531 115.111V146.111C344.531 147.018 344.71 147.917 345.057 148.755C345.405 149.594 345.914 150.355 346.555 150.997C347.197 151.639 347.959 152.148 348.797 152.495C349.635 152.842 350.534 153.021 351.441 153.021H355.381L355.701 162.421C355.713 162.745 355.826 163.057 356.024 163.314C356.222 163.571 356.495 163.76 356.805 163.855C357.115 163.949 357.447 163.945 357.755 163.842C358.062 163.739 358.33 163.543 358.521 163.281L365.861 153.051H395.621C396.528 153.051 397.426 152.872 398.264 152.525C399.102 152.177 399.863 151.668 400.504 151.026C401.145 150.385 401.653 149.623 401.999 148.785C402.345 147.946 402.523 147.048 402.521 146.141V115.141C402.525 114.231 402.349 113.329 402.003 112.487C401.657 111.645 401.147 110.88 400.504 110.235C399.861 109.591 399.096 109.081 398.255 108.733C397.413 108.386 396.512 108.208 395.601 108.211Z" fill="#F34553"/>
<path d="M362.531 117.792C371.081 114.642 373.531 122.792 373.531 122.792C373.531 122.792 376.201 114.792 384.531 117.792C393.391 121.012 388.342 138.992 375.072 143.892C374.102 144.242 373.041 144.242 372.072 143.892C358.732 139.052 353.701 121.052 362.531 117.792Z" fill="#F2F2F2"/>
<path d="M72.7621 173.802H49.262C48.286 173.802 47.35 174.19 46.6599 174.88C45.9697 175.57 45.582 176.506 45.582 177.482V193.972C45.582 194.948 45.9697 195.884 46.6599 196.574C47.35 197.264 48.286 197.652 49.262 197.652H65.092L68.992 203.112C69.0932 203.251 69.2351 203.355 69.398 203.41C69.5609 203.465 69.7368 203.468 69.9014 203.418C70.0661 203.369 70.2113 203.27 70.3171 203.134C70.4229 202.999 70.484 202.834 70.492 202.662L70.662 197.662H72.7621C73.7381 197.662 74.674 197.274 75.3642 196.584C76.0543 195.894 76.442 194.958 76.442 193.982V177.482C76.442 176.506 76.0543 175.57 75.3642 174.88C74.674 174.19 73.7381 173.802 72.7621 173.802Z" fill="#F34553"/>
<path d="M66.8607 178.901C66.3067 178.644 65.7033 178.51 65.0923 178.508C64.4812 178.507 63.8772 178.638 63.3218 178.893C62.7665 179.147 62.2732 179.52 61.8759 179.984C61.4786 180.448 61.1868 180.993 61.0208 181.581C60.8392 181.004 60.5385 180.47 60.138 180.016C59.7376 179.562 59.2463 179.197 58.696 178.944C58.1456 178.692 57.5484 178.557 56.9429 178.55C56.3374 178.543 55.7371 178.662 55.1808 178.901C50.4608 180.611 53.1808 190.191 60.1808 192.791C60.704 192.982 61.2775 192.982 61.8007 192.791C68.8608 190.191 71.5507 180.631 66.8607 178.901Z" fill="#F2F2F2"/>
<path d="M407.261 63.2314H381.531C380.47 63.2314 379.453 63.6529 378.703 64.403C377.953 65.1532 377.531 66.1706 377.531 67.2314V85.2914C377.531 86.3523 377.953 87.3697 378.703 88.1199C379.453 88.87 380.47 89.2914 381.531 89.2914H383.861L384.041 94.7715C384.047 94.9617 384.113 95.1452 384.229 95.2962C384.345 95.4473 384.505 95.5582 384.687 95.6134C384.869 95.6686 385.064 95.6652 385.244 95.6039C385.424 95.5426 385.581 95.4263 385.691 95.2715L389.951 89.2715H407.261C408.322 89.2715 409.34 88.85 410.09 88.0999C410.84 87.3497 411.261 86.3323 411.261 85.2715V67.2515C411.264 66.7245 411.162 66.2022 410.963 65.7146C410.763 65.227 410.468 64.7837 410.097 64.4101C409.725 64.0365 409.283 63.7401 408.797 63.5378C408.31 63.3356 407.788 63.2314 407.261 63.2314Z" fill="#F34553"/>
<path d="M388.001 68.8114C388.607 68.53 389.267 68.3834 389.936 68.3818C390.604 68.3803 391.265 68.5237 391.872 68.8023C392.48 69.0808 393.019 69.4878 393.454 69.9953C393.889 70.5027 394.209 71.0984 394.391 71.7413C394.391 71.7413 395.951 67.0514 400.791 68.8114C405.951 70.6814 403.001 81.1613 395.281 84.0113C394.71 84.2209 394.083 84.2209 393.511 84.0113C385.781 81.1613 382.861 70.7114 388.001 68.8114Z" fill="#F2F2F2"/>
<path d="M442.782 115.052H423.082C422.265 115.052 421.482 115.377 420.904 115.954C420.326 116.532 420.002 117.315 420.002 118.132V131.962C420.002 132.779 420.326 133.562 420.904 134.14C421.482 134.718 422.265 135.042 423.082 135.042H424.862L425.002 139.242C425.01 139.386 425.062 139.523 425.151 139.636C425.24 139.749 425.361 139.832 425.499 139.874C425.636 139.915 425.783 139.913 425.92 139.868C426.057 139.823 426.176 139.737 426.262 139.622L429.532 135.042H442.802C443.619 135.042 444.402 134.718 444.98 134.14C445.557 133.562 445.882 132.779 445.882 131.962V118.162C445.886 117.753 445.809 117.348 445.654 116.97C445.5 116.591 445.272 116.247 444.983 115.958C444.695 115.668 444.352 115.439 443.974 115.284C443.596 115.128 443.191 115.049 442.782 115.052Z" fill="#F34553"/>
<path d="M428.032 119.362C428.496 119.145 429.002 119.032 429.514 119.031C430.027 119.029 430.533 119.138 430.999 119.351C431.465 119.564 431.879 119.875 432.213 120.264C432.547 120.653 432.792 121.109 432.932 121.602C433.085 121.118 433.338 120.671 433.674 120.29C434.01 119.91 434.423 119.604 434.885 119.393C435.346 119.182 435.847 119.07 436.355 119.065C436.863 119.059 437.366 119.161 437.832 119.362C441.782 120.792 439.532 128.812 433.612 131.002C433.173 131.161 432.692 131.161 432.252 131.002C426.342 128.822 424.092 120.812 428.032 119.362Z" fill="#F2F2F2"/>
<path d="M120.462 209.241H86.7019C86.0082 209.24 85.321 209.376 84.6798 209.641C84.0386 209.906 83.456 210.294 82.9654 210.785C82.4748 211.276 82.086 211.858 81.8211 212.499C81.5562 213.141 81.4206 213.828 81.4219 214.521V238.211C81.4206 238.905 81.5562 239.592 81.8211 240.234C82.086 240.875 82.4748 241.457 82.9654 241.948C83.456 242.438 84.0386 242.827 84.6798 243.092C85.321 243.357 86.0082 243.493 86.7019 243.491H109.442L115.042 251.341C115.187 251.545 115.392 251.698 115.628 251.779C115.865 251.86 116.121 251.864 116.36 251.791C116.599 251.718 116.809 251.571 116.96 251.372C117.111 251.173 117.196 250.931 117.202 250.681L117.442 243.491H120.442C121.842 243.491 123.185 242.935 124.175 241.945C125.166 240.955 125.722 239.612 125.722 238.211V214.521C125.722 213.125 125.168 211.785 124.183 210.795C123.197 209.805 121.859 209.247 120.462 209.241Z" fill="#F34553"/>
<path d="M111.971 216.562C105.441 214.152 103.581 220.412 103.581 220.412C103.581 220.412 101.581 214.252 95.1908 216.562C88.4208 219.022 92.2808 232.772 102.421 236.562C103.169 236.842 103.993 236.842 104.741 236.562C114.861 232.772 118.721 219.052 111.971 216.562Z" fill="#F2F2F2"/>
<path d="M176.921 190.672H147.491C146.886 190.671 146.287 190.789 145.727 191.019C145.168 191.25 144.66 191.589 144.232 192.016C143.803 192.443 143.464 192.951 143.232 193.509C143 194.068 142.881 194.667 142.881 195.272V215.932C142.881 216.537 143 217.136 143.232 217.695C143.464 218.254 143.803 218.761 144.232 219.188C144.66 219.616 145.168 219.954 145.727 220.185C146.287 220.415 146.886 220.533 147.491 220.532H167.321L172.201 227.372C172.309 227.578 172.485 227.74 172.7 227.83C172.915 227.92 173.154 227.932 173.377 227.865C173.599 227.797 173.791 227.654 173.92 227.46C174.048 227.266 174.105 227.034 174.081 226.802L174.291 220.532H176.921C178.141 220.532 179.311 220.047 180.174 219.185C181.036 218.322 181.521 217.152 181.521 215.932V195.272C181.521 194.052 181.036 192.882 180.174 192.019C179.311 191.157 178.141 190.672 176.921 190.672Z" fill="#F34553"/>
<path d="M169.522 197.051C168.828 196.729 168.072 196.561 167.307 196.559C166.542 196.557 165.785 196.722 165.09 197.041C164.395 197.361 163.777 197.828 163.28 198.41C162.783 198.992 162.418 199.675 162.212 200.411C162.212 200.411 160.432 195.051 154.862 197.051C148.962 199.201 152.322 211.191 161.162 214.451C161.809 214.68 162.515 214.68 163.162 214.451C172.062 211.191 175.412 199.221 169.522 197.051Z" fill="#F2F2F2"/>
<path d="M431.761 161.592H399.451C398.786 161.586 398.126 161.712 397.51 161.963C396.895 162.215 396.335 162.586 395.865 163.057C395.395 163.527 395.023 164.086 394.771 164.702C394.52 165.318 394.394 165.977 394.401 166.642V189.332C394.394 189.997 394.52 190.657 394.771 191.273C395.023 191.888 395.395 192.448 395.865 192.918C396.335 193.388 396.895 193.76 397.51 194.012C398.126 194.263 398.786 194.389 399.451 194.382H402.331L402.561 201.262C402.567 201.502 402.648 201.733 402.793 201.924C402.938 202.114 403.139 202.254 403.368 202.324C403.597 202.394 403.843 202.39 404.069 202.312C404.296 202.235 404.492 202.088 404.631 201.892L409.991 194.382H431.761C432.425 194.384 433.082 194.254 433.696 194.001C434.31 193.748 434.868 193.376 435.338 192.907C435.808 192.438 436.181 191.881 436.435 191.267C436.69 190.654 436.821 189.996 436.821 189.332V166.642C436.821 165.978 436.69 165.321 436.435 164.707C436.181 164.094 435.808 163.537 435.338 163.068C434.868 162.599 434.31 162.227 433.696 161.974C433.082 161.721 432.425 161.591 431.761 161.592Z" fill="#F34553"/>
<path d="M407.571 168.602C408.331 168.252 409.158 168.071 409.994 168.072C410.831 168.072 411.657 168.253 412.417 168.602C413.177 168.952 413.852 169.462 414.397 170.097C414.941 170.732 415.342 171.477 415.571 172.281C415.571 172.281 417.571 166.392 423.571 168.602C430.061 170.962 426.361 184.122 416.651 187.702C406.281 187.932 400.301 170.622 407.571 168.602Z" fill="#F2F2F2"/>
<path d="M91.671 64.7109H48.751C47.869 64.7109 46.9957 64.8848 46.1809 65.2227C45.3662 65.5605 44.626 66.0556 44.0028 66.6798C43.3796 67.3039 42.8855 68.0448 42.5489 68.86C42.2123 69.6753 42.0397 70.5489 42.041 71.4309V101.551C42.0397 102.432 42.2124 103.306 42.5491 104.12C42.8859 104.935 43.3801 105.675 44.0034 106.299C44.6267 106.922 45.367 107.416 46.1817 107.753C46.9964 108.09 47.8695 108.262 48.751 108.261H77.671L84.791 118.261C84.9743 118.519 85.234 118.713 85.5334 118.815C85.8328 118.917 86.1567 118.923 86.4595 118.831C86.7623 118.739 87.0286 118.555 87.2208 118.304C87.4131 118.052 87.5216 117.747 87.531 117.431L87.841 108.291H91.671C92.5522 108.291 93.4247 108.117 94.2388 107.78C95.0529 107.443 95.7926 106.949 96.4157 106.326C97.0388 105.703 97.533 104.963 97.8702 104.149C98.2075 103.335 98.3811 102.462 98.3811 101.581V71.4309C98.3811 69.6504 97.6744 67.9427 96.4163 66.6827C95.1582 65.4228 93.4515 64.7136 91.671 64.7109Z" fill="#F34553"/>
<path d="M80.8616 74.0515C72.5616 70.9915 70.1916 78.9415 70.1916 78.9415C70.1916 78.9415 67.6216 71.0515 59.5517 74.0515C50.9417 77.1815 55.8517 94.6515 68.7417 99.4115C69.7089 99.7735 70.7744 99.7735 71.7417 99.4115C84.5817 94.6415 89.4616 77.1915 80.8616 74.0515Z" fill="#F2F2F2"/>
<path d="M156.361 52.2109H122.861C121.473 52.2109 120.142 52.7616 119.159 53.7422C118.177 54.7227 117.624 56.0529 117.621 57.4409V80.9409C117.624 82.3289 118.177 83.6592 119.159 84.6397C120.142 85.6202 121.473 86.1709 122.861 86.1709H145.411L150.971 93.9509C151.112 94.154 151.315 94.3071 151.549 94.388C151.782 94.4689 152.036 94.4736 152.273 94.4014C152.509 94.3292 152.717 94.1837 152.866 93.986C153.015 93.7882 153.097 93.5484 153.101 93.3009L153.341 86.1709H156.341C157.729 86.1709 159.06 85.6202 160.043 84.6397C161.025 83.6592 161.578 82.3289 161.581 80.9409V57.4409C161.578 56.0564 161.028 54.7292 160.05 53.7492C159.072 52.7692 157.746 52.2162 156.361 52.2109Z" fill="#F34553"/>
<path d="M147.951 59.4719C141.481 57.0819 139.631 63.2819 139.631 63.2819C139.631 63.2819 137.631 57.1819 131.311 59.4719C124.591 61.9119 128.421 75.5419 138.481 79.2519C139.222 79.5323 140.04 79.5323 140.781 79.2519C150.861 75.5419 154.641 61.9419 147.951 59.4719Z" fill="#F2F2F2"/>
<path d="M351.262 38.7314H315.572C314.839 38.7314 314.112 38.8761 313.435 39.1572C312.757 39.4382 312.141 39.8501 311.623 40.3693C311.105 40.8885 310.694 41.5049 310.414 42.183C310.134 42.8612 309.991 43.5878 309.992 44.3214V69.3715C309.992 70.8514 310.58 72.2707 311.627 73.3171C312.673 74.3636 314.092 74.9514 315.572 74.9514H318.762L319.012 82.5515C319.022 82.8134 319.114 83.0657 319.274 83.2732C319.434 83.4807 319.655 83.633 319.906 83.709C320.157 83.7849 320.426 83.7807 320.674 83.6969C320.922 83.6131 321.139 83.4539 321.292 83.2415L327.212 74.9514H351.212C351.945 74.9514 352.671 74.8071 353.348 74.5267C354.025 74.2463 354.64 73.8353 355.158 73.3171C355.676 72.799 356.087 72.1838 356.367 71.5068C356.648 70.8298 356.792 70.1042 356.792 69.3715V44.3214C356.795 42.8484 356.215 41.4341 355.179 40.3869C354.143 39.3397 352.735 38.7446 351.262 38.7314Z" fill="#F34553"/>
<path d="M324.542 46.4816C331.442 43.9316 333.412 50.5416 333.412 50.5416C333.412 50.5416 335.572 44.0416 342.282 46.4816C349.442 49.0816 345.362 63.6116 334.642 67.5716C333.848 67.8614 332.977 67.8614 332.182 67.5716C321.462 63.6216 317.402 49.1116 324.542 46.4816Z" fill="#F2F2F2"/>
<path d="M147.762 96.511C146.562 104.331 142.202 106.931 139.952 107.761C139.885 107.798 139.83 107.853 139.791 107.919C139.753 107.985 139.732 108.06 139.732 108.136C139.732 108.212 139.753 108.287 139.791 108.353C139.83 108.419 139.885 108.474 139.952 108.511C142.202 109.341 146.562 111.941 147.762 119.761C147.822 120.191 148.312 120.191 148.372 119.761C149.572 111.941 153.932 109.341 156.182 108.511C156.249 108.474 156.304 108.419 156.343 108.353C156.381 108.287 156.402 108.212 156.402 108.136C156.402 108.06 156.381 107.985 156.343 107.919C156.304 107.853 156.249 107.798 156.182 107.761C153.932 106.931 149.572 104.331 148.372 96.511C148.312 96.051 147.862 96.051 147.762 96.511Z" fill="#FFC016"/>
<path d="M329.861 79.3016C328.861 85.6316 325.361 87.7315 323.541 88.4115C323.487 88.4405 323.441 88.4838 323.41 88.5366C323.378 88.5895 323.361 88.6499 323.361 88.7116C323.361 88.7732 323.378 88.8337 323.41 88.8865C323.441 88.9393 323.487 88.9826 323.541 89.0116C325.361 89.6816 328.891 91.7916 329.861 98.1116C329.911 98.4616 330.301 98.4616 330.361 98.1116C331.361 91.7916 334.861 89.6816 336.671 89.0116C336.729 88.9852 336.777 88.943 336.812 88.8898C336.846 88.8366 336.864 88.7748 336.864 88.7116C336.864 88.6484 336.846 88.5865 336.812 88.5333C336.777 88.4802 336.729 88.4379 336.671 88.4115C334.861 87.7315 331.331 85.6316 330.361 79.3016C330.321 78.9516 329.931 78.9516 329.861 79.3016Z" fill="#FFC016"/>
<path d="M368.081 164.322C366.621 173.862 361.301 177.042 358.561 178.052C358.477 178.094 358.406 178.16 358.357 178.24C358.307 178.32 358.281 178.413 358.281 178.507C358.281 178.601 358.307 178.694 358.357 178.774C358.406 178.854 358.477 178.919 358.561 178.962C361.301 179.962 366.621 183.142 368.081 192.682C368.161 193.212 368.751 193.212 368.831 192.682C370.291 183.142 375.611 179.972 378.351 178.962C378.435 178.919 378.506 178.854 378.555 178.774C378.604 178.694 378.63 178.601 378.63 178.507C378.63 178.413 378.604 178.32 378.555 178.24C378.506 178.16 378.435 178.094 378.351 178.052C375.611 177.052 370.291 173.862 368.831 164.322C368.751 163.802 368.161 163.802 368.081 164.322Z" fill="#FFC016"/>
<path d="M304.861 203.221C305.312 204.329 305.464 205.536 305.301 206.721C304.511 211.541 309.661 211.721 315.151 212.641C315.781 209.421 316.751 207.231 313.151 204.121C309.551 201.011 304.861 203.221 304.861 203.221Z" fill="#7A3E23"/>
<path d="M302.572 188.792C303.797 193.507 304.716 198.297 305.322 203.132C305.322 203.132 311.442 200.952 310.162 194.782C308.882 188.612 302.572 188.792 302.572 188.792Z" fill="#7A3E23"/>
<path d="M315.262 212.252C320.402 215.432 324.642 211.712 328.532 209.572C328.007 208.129 326.974 206.926 325.627 206.19C324.279 205.453 322.71 205.234 321.212 205.572C315.402 206.372 315.262 212.252 315.262 212.252Z" fill="#7A3E23"/>
<path d="M296.861 174.841C299.594 179.286 301.583 184.146 302.751 189.231C305.581 188.051 308.421 183.721 305.751 178.691C303.081 173.661 296.861 174.841 296.861 174.841Z" fill="#7A3E23"/>
<path d="M286.711 162.052C291.245 165.486 294.825 170.023 297.111 175.232C298.327 173.475 298.844 171.328 298.562 169.211C298.279 167.093 297.216 165.157 295.581 163.782C292.051 160.712 286.711 162.052 286.711 162.052Z" fill="#7A3E23"/>
<path d="M247.511 242.572C247.511 242.572 195.731 269.792 179.141 276.572C178.679 276.772 178.185 276.887 177.681 276.912C176.181 276.975 174.699 276.558 173.451 275.722C171.021 274.222 164.731 270.422 158.971 255.402C155.341 245.962 156.281 240.942 157.461 238.522C157.79 237.739 158.309 237.052 158.971 236.522C158.971 236.522 169.371 227.892 180.761 242.022L193.861 235.762L205.671 230.052L217.671 224.222L247.511 242.572Z" fill="#FA9936"/>
<path d="M165.922 249.272C167.922 244.782 174.772 240.932 178.542 245.602C178.752 245.872 178.952 246.142 179.132 246.412C174.312 242.872 169.882 246.142 165.922 249.272Z" fill="#995116"/>
<path d="M160.682 243.111C162.682 238.611 169.522 234.761 173.292 239.431C173.512 239.701 173.702 239.971 173.892 240.241C169.062 236.701 164.642 239.971 160.682 243.111Z" fill="#995116"/>
<path opacity="0.6" d="M217.731 224.201L205.731 230.031L193.861 235.761L180.761 242.051C169.371 227.921 158.971 236.551 158.971 236.551C158.309 237.081 157.79 237.769 157.461 238.551C156.281 240.971 155.341 245.991 158.971 255.431C164.731 270.431 170.971 274.251 173.451 275.751C174.699 276.588 176.181 277.005 177.681 276.941C178.185 276.917 178.679 276.802 179.141 276.601C195.731 269.801 247.511 242.601 247.511 242.601L217.731 224.201Z" fill="url(#paint0_linear_129_6329)"/>
<path d="M177.681 276.931C176.181 276.995 174.699 276.578 173.451 275.741C171.021 274.241 164.731 270.441 158.971 255.421C155.341 245.981 156.281 240.961 157.461 238.541C157.461 238.541 159.261 236.361 162.831 239.311C166.401 242.261 178.671 259.661 178.611 271.811C178.611 271.811 178.611 276.101 177.681 276.931Z" fill="#FBD08D"/>
<path opacity="0.6" d="M177.681 276.931C176.181 276.995 174.699 276.578 173.451 275.741C171.021 274.241 164.731 270.441 158.971 255.421C155.341 245.981 156.281 240.961 157.461 238.541C157.461 238.541 159.261 236.361 162.831 239.311C166.401 242.261 178.671 259.661 178.611 271.811C178.611 271.811 178.611 276.101 177.681 276.931Z" fill="url(#paint1_linear_129_6329)"/>
<path d="M180.861 242.051C185.121 243.161 188.001 248.211 186.391 252.381C186.391 252.441 186.321 252.511 186.241 252.481C185.182 248.686 183.297 245.172 180.721 242.191C180.651 242.091 180.721 242.001 180.861 242.051Z" fill="#995116"/>
<path d="M211.34 237.362C208.96 239.162 207.77 240.362 204.1 243.262C200.19 246.402 194.1 242.112 192.83 239.512C192.526 238.87 192.459 238.14 192.642 237.454C192.825 236.767 193.246 236.167 193.83 235.762L205.67 230.052C213.67 228.942 215.32 234.352 211.34 237.362Z" fill="#995116"/>
<path d="M214.762 189.871L210.912 212.521L209.222 222.421L191.012 219.771C184.142 203.861 198.462 193.121 205.632 188.911C206.851 188.176 208.11 187.508 209.402 186.911L214.762 189.871Z" fill="#FA9936"/>
<path d="M306.112 219.052C305.482 233.052 303.632 241.052 294.232 250.542C291.487 253.313 288.371 255.689 284.972 257.602C266.732 267.892 242.192 264.422 225.692 254.752L224.782 254.202C224.292 253.902 223.782 253.592 223.352 253.292C212.232 245.872 207.352 234.992 205.782 224.052C205.722 223.592 205.652 223.112 205.592 222.652C205.492 221.752 205.392 220.842 205.322 219.952C205.074 216.764 205.041 213.564 205.222 210.372C205.222 210.372 205.222 210.312 205.222 210.192C205.552 204.801 206.341 199.448 207.582 194.192C208.262 191.262 208.962 188.822 209.532 187.032C210.182 184.932 210.642 183.742 210.642 183.742C217.122 159.022 251.272 142.022 279.832 157.022C280.682 157.462 281.522 157.932 282.362 158.442C297.842 167.722 305.022 189.242 306.072 209.502C306.242 212.662 306.252 215.882 306.112 219.052Z" fill="#FA9936"/>
<path d="M284.972 257.552C266.732 267.842 242.192 264.372 225.692 254.702L224.782 254.152C224.292 253.852 223.782 253.542 223.352 253.242C212.262 245.762 207.412 234.922 205.782 224.002C205.722 223.542 205.652 223.062 205.592 222.602C205.492 221.702 205.392 220.792 205.322 219.902C205.074 216.714 205.041 213.514 205.222 210.322C205.222 210.322 205.222 210.262 205.222 210.142C205.402 208.382 207.222 194.142 220.842 192.422C236.432 190.422 246.492 196.132 247.562 207.552C248.622 218.812 244.712 262.592 284.972 257.552Z" fill="#FBD08D"/>
<path opacity="0.6" d="M284.972 257.552C266.732 267.842 242.192 264.372 225.692 254.702L224.782 254.152C224.292 253.852 223.782 253.542 223.352 253.242C212.262 245.762 207.412 234.922 205.782 224.002C205.722 223.542 205.652 223.062 205.592 222.602C205.492 221.702 205.392 220.792 205.322 219.902C205.074 216.714 205.041 213.514 205.222 210.322C205.222 210.322 205.222 210.262 205.222 210.142C205.402 208.382 207.222 194.142 220.842 192.422C236.432 190.422 246.492 196.132 247.562 207.552C248.622 218.812 244.712 262.592 284.972 257.552Z" fill="url(#paint2_linear_129_6329)"/>
<path d="M336.341 222.291C328.651 230.511 302.511 251.022 284.021 258.642C265.541 266.222 246.021 255.882 246.021 255.882L275.242 220.832L294.521 213.681L306.112 209.392C306.542 209.622 316.582 214.901 327.382 210.091C329.032 209.361 330.492 208.661 331.792 208.041H331.841C338.241 204.921 340.782 203.291 343.172 204.931C346.002 206.911 344.031 214.051 336.341 222.291Z" fill="#FA9936"/>
<path d="M333.031 210.051C326.461 218.191 315.581 220.851 306.111 219.051C301.852 218.287 297.853 216.465 294.481 213.751C293.62 213.044 292.82 212.265 292.091 211.421C283.271 201.231 284.041 192.851 285.751 189.521C287.801 185.521 287.751 180.201 285.591 178.321C283.959 177.024 282.699 175.316 281.94 173.374C281.182 171.431 280.951 169.322 281.271 167.261C281.672 163.758 281.187 160.209 279.861 156.941C280.711 157.381 281.551 157.851 282.391 158.361C297.871 167.641 305.051 189.161 306.101 209.421C306.531 209.651 316.571 214.931 327.371 210.121C329.021 209.391 330.481 208.691 331.781 208.071H331.831C334.521 206.871 333.401 209.581 333.031 210.051Z" fill="#CD6226"/>
<path d="M270.861 205.892C258.181 223.842 233.411 228.292 233.411 228.292L223.241 218.711L218.861 214.602L216.861 209.161C223.781 206.741 226.431 212.242 226.431 212.242H226.501C250.501 208.422 260.221 192.312 260.221 192.312L270.861 205.892Z" fill="#FA9936"/>
<path opacity="0.6" d="M226.451 212.231L223.241 218.711L218.861 214.601L216.861 209.161C223.781 206.741 226.431 212.241 226.431 212.241L226.451 212.231Z" fill="url(#paint3_linear_129_6329)"/>
<path d="M194.951 198.152L197.091 200.632L205.211 232.782C205.284 233.081 205.439 233.355 205.658 233.572C205.876 233.789 206.151 233.941 206.451 234.012L221.211 237.562L222.101 237.772L223.531 239.722L225.631 237.802C225.832 237.597 225.976 237.344 226.049 237.067C226.123 236.79 226.123 236.499 226.051 236.222L217.271 201.402C217.188 201.078 217.01 200.786 216.761 200.562C216.552 200.376 216.302 200.243 216.031 200.172L198.431 195.952C198.181 195.889 197.919 195.886 197.667 195.943C197.415 196.001 197.18 196.117 196.981 196.282C196.926 196.323 196.876 196.37 196.831 196.422L194.951 198.152Z" fill="#FA9936"/>
<path d="M214.762 202.401L221.212 237.562L222.102 237.771L223.532 239.721L225.632 237.802C225.832 237.597 225.976 237.344 226.05 237.067C226.123 236.79 226.124 236.499 226.052 236.221L217.272 201.401C217.188 201.077 217.011 200.785 216.762 200.562L214.762 202.401Z" fill="#7A3E23"/>
<path d="M204.432 235.882L222.022 240.112C222.303 240.173 222.595 240.162 222.87 240.079C223.145 239.996 223.394 239.844 223.595 239.638C223.795 239.432 223.939 239.178 224.014 238.9C224.089 238.623 224.091 238.331 224.022 238.052L215.242 203.242C215.167 202.943 215.012 202.671 214.793 202.454C214.575 202.237 214.301 202.085 214.002 202.012L196.412 197.782C196.132 197.723 195.841 197.737 195.567 197.821C195.293 197.905 195.045 198.056 194.846 198.262C194.646 198.467 194.502 198.72 194.426 198.996C194.35 199.272 194.345 199.563 194.412 199.842L203.192 234.652C203.269 234.949 203.425 235.221 203.643 235.437C203.861 235.654 204.134 235.807 204.432 235.882Z" fill="#CD6226"/>
<path d="M226.081 236.192L217.301 201.372C217.217 201.048 217.04 200.755 216.791 200.532C216.582 200.346 216.331 200.213 216.061 200.142L198.461 195.922C198.21 195.859 197.948 195.856 197.696 195.913C197.444 195.97 197.209 196.086 197.011 196.252C196.956 196.293 196.906 196.34 196.861 196.392L194.981 198.122C194.741 198.325 194.563 198.59 194.466 198.889C194.369 199.187 194.357 199.507 194.431 199.812L203.211 234.622C203.289 234.921 203.446 235.193 203.666 235.409C203.886 235.626 204.161 235.779 204.461 235.852L222.051 240.082C222.315 240.144 222.591 240.14 222.854 240.073C223.117 240.005 223.359 239.874 223.561 239.692L223.621 239.632L225.621 237.802C225.833 237.598 225.988 237.342 226.069 237.059C226.15 236.776 226.154 236.477 226.081 236.192Z" fill="url(#paint4_linear_129_6329)"/>
<path d="M195.66 199.791H195.56L195.92 199.301C196.118 199.064 196.38 198.89 196.675 198.8C196.969 198.709 197.284 198.706 197.58 198.791L198.67 199.061L198.94 199.121L201.83 199.831C202.32 199.988 202.761 200.268 203.112 200.645C203.462 201.021 203.709 201.482 203.83 201.981L204.56 204.981L204.74 205.721C204.878 206.11 204.879 206.534 204.742 206.923C204.606 207.312 204.341 207.643 203.99 207.861L203.48 208.101V208.021C203.256 208.065 203.025 208.065 202.8 208.021L199.02 207.101C198.521 206.952 198.07 206.675 197.711 206.298C197.351 205.921 197.096 205.457 196.97 204.951L196.49 202.951L200.43 203.951C200.23 203.421 200 202.811 199.76 202.201C199.89 202.641 200.01 203.051 200.1 203.391L195.91 202.391L195.6 201.151C195.478 200.703 195.499 200.227 195.66 199.791Z" fill="#808080"/>
<path d="M196.94 199.312L201.57 200.442C201.972 200.558 202.335 200.778 202.623 201.08C202.911 201.383 203.114 201.756 203.21 202.162L204.21 206.302C204.5 207.492 203.73 208.392 202.64 208.122L198.03 207.052C197.629 206.932 197.265 206.709 196.976 206.406C196.686 206.103 196.481 205.729 196.38 205.322L195.38 201.182C195.07 199.942 195.86 199.052 196.94 199.312Z" fill="#B3B3B3"/>
<path d="M199.048 202.892C199.473 202.522 199.334 201.669 198.738 200.986C198.143 200.304 197.316 200.051 196.892 200.421C196.467 200.792 196.606 201.645 197.201 202.327C197.797 203.01 198.624 203.263 199.048 202.892Z" fill="#808080"/>
<path d="M198.927 202.978C199.352 202.608 199.213 201.754 198.617 201.072C198.022 200.39 197.195 200.137 196.77 200.507C196.346 200.877 196.485 201.731 197.08 202.413C197.676 203.096 198.503 203.349 198.927 202.978Z" fill="#4D4D4D"/>
<path d="M199.835 206.292C200.26 205.921 200.121 205.068 199.525 204.386C198.93 203.703 198.103 203.45 197.679 203.821C197.254 204.191 197.393 205.044 197.988 205.727C198.584 206.409 199.411 206.662 199.835 206.292Z" fill="#808080"/>
<path d="M199.724 206.389C200.148 206.018 200.01 205.165 199.414 204.482C198.819 203.8 197.992 203.547 197.567 203.917C197.143 204.288 197.282 205.141 197.877 205.824C198.473 206.506 199.3 206.759 199.724 206.389Z" fill="#4D4D4D"/>
<path d="M201.682 201.615C202.104 201.243 201.962 200.391 201.364 199.712C200.767 199.032 199.939 198.783 199.517 199.155C199.094 199.527 199.237 200.379 199.834 201.058C200.432 201.737 201.259 201.987 201.682 201.615Z" fill="#808080"/>
<path d="M202.38 205.219C202.805 204.848 202.666 203.995 202.07 203.312C201.475 202.63 200.648 202.377 200.224 202.747C199.799 203.118 199.938 203.971 200.533 204.654C201.129 205.336 201.956 205.589 202.38 205.219Z" fill="#4D4D4D"/>
<path d="M220.751 214.842C220.751 214.842 217.861 217.032 212.611 215.292C212.611 215.292 208.721 214.482 208.531 217.122C208.341 219.762 210.241 221.452 212.611 222.422C212.611 222.422 211.041 222.022 210.401 222.932C209.761 223.842 209.881 227.582 213.821 228.752C213.821 228.752 212.761 228.752 212.611 230.102C212.461 231.452 214.961 234.932 222.611 234.712C230.261 234.492 234.021 227.862 234.021 227.862C234.021 227.862 233.121 217.452 233.121 217.062C233.121 216.672 220.751 214.842 220.751 214.842Z" fill="#FA9936"/>
<path opacity="0.6" d="M233.071 217.052C233.071 216.662 220.751 214.832 220.751 214.832C220.751 214.832 217.861 217.022 212.611 215.282C212.611 215.282 208.721 214.472 208.531 217.112C208.341 219.752 210.241 221.442 212.611 222.412C212.611 222.412 211.041 222.012 210.401 222.922C209.761 223.832 209.881 227.572 213.821 228.742C213.821 228.742 212.761 228.742 212.611 230.092C212.461 231.442 214.961 234.922 222.611 234.702C230.261 234.482 234.021 227.852 234.021 227.852C234.021 227.852 233.071 217.452 233.071 217.052Z" fill="url(#paint5_linear_129_6329)"/>
<path d="M212.642 222.351C215.808 223.363 219.18 223.556 222.442 222.911C220.012 225.681 214.901 225.261 212.581 222.491C212.521 222.441 212.582 222.321 212.642 222.351Z" fill="#995116"/>
<path d="M213.861 228.671C216.93 229.311 220.076 229.507 223.201 229.251C220.731 231.641 216.201 231.191 213.821 228.821C213.761 228.821 213.771 228.661 213.821 228.671H213.861Z" fill="#995116"/>
<path d="M197.972 214.051C197.972 214.051 199.602 215.431 203.492 215.331C206.492 215.251 208.662 217.001 207.742 219.061C207.562 219.544 207.279 219.981 206.912 220.341C206.912 220.341 209.812 221.531 207.592 224.831C207.592 224.831 210.222 226.121 207.752 229.101C205.012 232.381 198.052 231.371 194.952 228.641C189.702 224.011 190.822 216.991 191.422 214.691C192.241 211.95 194.043 209.607 196.482 208.111L197.972 214.051Z" fill="#FA9936"/>
<path opacity="0.6" d="M197.972 214.051C197.972 214.051 199.602 215.431 203.492 215.331C206.492 215.251 208.662 217.001 207.742 219.061C207.562 219.544 207.279 219.981 206.912 220.341C206.912 220.341 209.812 221.531 207.592 224.831C207.592 224.831 210.222 226.121 207.752 229.101C205.012 232.381 198.052 231.371 194.952 228.641C189.702 224.011 190.822 216.991 191.422 214.691C192.241 211.95 194.043 209.607 196.482 208.111L197.972 214.051Z" fill="url(#paint6_linear_129_6329)"/>
<path d="M206.942 220.372C205.282 223.262 200.052 223.172 198.492 220.372C201.217 221.286 204.172 221.247 206.872 220.262C206.952 220.262 207.002 220.332 206.942 220.392V220.372Z" fill="#995116"/>
<path d="M207.631 224.852C206.391 227.742 201.441 228.402 199.701 225.852C202.367 226.338 205.119 225.956 207.551 224.762C207.631 224.762 207.681 224.832 207.631 224.892V224.852Z" fill="#995116"/>
<path d="M286.862 257.282C286.862 257.282 235.072 284.502 218.492 291.282C218.029 291.48 217.535 291.595 217.032 291.622C215.528 291.685 214.043 291.268 212.792 290.432C210.372 288.932 204.082 285.132 198.312 270.112C194.692 260.672 195.622 255.652 196.812 253.232C197.135 252.449 197.651 251.76 198.312 251.232C198.312 251.232 208.712 242.602 220.112 256.732L233.182 250.412L245.012 244.682L257.062 238.852L286.862 257.282Z" fill="#FA9936"/>
<path opacity="0.6" d="M257.05 238.911L245 244.741L233.17 250.471L220.1 256.791C208.7 242.661 198.3 251.291 198.3 251.291C197.639 251.82 197.123 252.508 196.8 253.291C195.61 255.711 194.68 260.731 198.3 270.171C204.07 285.171 210.36 288.991 212.78 290.491C214.032 291.328 215.517 291.745 217.02 291.681C217.523 291.655 218.018 291.54 218.48 291.341C235.06 284.541 286.85 257.341 286.85 257.341L257.05 238.911Z" fill="url(#paint7_linear_129_6329)"/>
<path d="M205.252 263.982C207.252 259.482 214.092 255.642 217.862 260.312C218.072 260.582 218.272 260.852 218.452 261.122C213.632 257.582 209.202 260.852 205.252 263.982Z" fill="#995116"/>
<path d="M200.002 257.812C202.002 253.322 208.852 249.472 212.622 254.142C212.832 254.412 213.032 254.682 213.212 254.952C208.392 251.412 203.962 254.682 200.002 257.812Z" fill="#995116"/>
<path d="M217.011 291.641C215.507 291.705 214.022 291.288 212.771 290.451C210.351 288.951 204.061 285.151 198.291 270.131C194.671 260.691 195.601 255.671 196.791 253.251C196.791 253.251 198.581 251.071 202.161 254.021C205.741 256.971 217.991 274.371 217.941 286.521C217.941 286.521 217.941 290.811 217.011 291.641Z" fill="#FBD08D"/>
<path opacity="0.6" d="M217.011 291.641C215.507 291.705 214.022 291.288 212.771 290.451C210.351 288.951 204.061 285.151 198.291 270.131C194.671 260.691 195.601 255.671 196.791 253.251C196.791 253.251 198.581 251.071 202.161 254.021C205.741 256.971 217.991 274.371 217.941 286.521C217.941 286.521 217.941 290.811 217.011 291.641Z" fill="url(#paint8_linear_129_6329)"/>
<path d="M220.162 256.721C224.412 257.831 227.302 262.881 225.682 267.051C225.682 267.111 225.612 267.181 225.532 267.151C224.477 263.355 222.591 259.84 220.012 256.861C219.942 256.761 220.012 256.671 220.162 256.721Z" fill="#995116"/>
<path d="M250.661 252.051C248.291 253.851 247.091 255.051 243.431 257.951C239.521 261.091 233.431 256.801 232.151 254.201C231.846 253.559 231.779 252.83 231.963 252.143C232.146 251.456 232.567 250.857 233.151 250.451L244.981 244.721C252.991 243.651 254.641 249.051 250.661 252.051Z" fill="#995116"/>
<path d="M270.992 62.4918C273.217 62.8864 275.395 63.5097 277.492 64.3518C278.989 64.944 280.434 65.6598 281.812 66.4918L279.662 59.7818C279.6 59.5852 279.495 59.4048 279.355 59.2535C279.215 59.1021 279.044 58.9835 278.853 58.9061C278.662 58.8287 278.456 58.7945 278.25 58.8058C278.044 58.8172 277.844 58.8739 277.662 58.9718L270.992 62.4918Z" fill="#FFD8A4"/>
<path d="M176.561 76.2117C177.973 74.4481 179.569 72.8391 181.321 71.4117C182.553 70.3808 183.871 69.4574 185.261 68.6517L178.351 67.3117C178.151 67.2721 177.945 67.2769 177.748 67.3256C177.55 67.3743 177.366 67.4658 177.207 67.5936C177.049 67.7214 176.921 67.8824 176.831 68.0652C176.742 68.248 176.694 68.4482 176.691 68.6517L176.561 76.2117Z" fill="#FFD8A4"/>
<path d="M163.991 118.891C164.302 116.654 164.845 114.456 165.611 112.331C166.154 110.815 166.823 109.346 167.611 107.941L161.001 110.331C160.811 110.401 160.638 110.511 160.494 110.654C160.35 110.798 160.239 110.97 160.169 111.16C160.099 111.351 160.07 111.554 160.086 111.756C160.102 111.958 160.162 112.155 160.261 112.331L163.991 118.891Z" fill="#FFD8A4"/>
<path d="M307.422 96.9414C308.451 98.9549 309.269 101.069 309.862 103.251C310.293 104.8 310.594 106.382 310.762 107.981L314.822 102.231C314.939 102.065 315.019 101.875 315.055 101.674C315.092 101.474 315.084 101.268 315.033 101.071C314.981 100.874 314.887 100.69 314.758 100.533C314.628 100.376 314.466 100.249 314.282 100.161L307.422 96.9414Z" fill="#FFD8A4"/>
<path d="M311.921 140.861C311.683 143.109 311.218 145.328 310.531 147.481C310.055 149.013 309.449 150.502 308.721 151.931L315.251 149.311C315.434 149.234 315.599 149.117 315.734 148.971C315.869 148.824 315.972 148.65 316.034 148.461C316.097 148.272 316.118 148.071 316.097 147.873C316.075 147.675 316.012 147.483 315.911 147.311L311.921 140.861Z" fill="#FFD8A4"/>
<path d="M221.73 52.8817C223.894 52.2243 226.119 51.7921 228.37 51.5917C229.97 51.4463 231.578 51.4296 233.18 51.5417L228.18 46.5417C228.038 46.3958 227.865 46.2831 227.674 46.2115C227.483 46.1399 227.279 46.1112 227.076 46.1275C226.872 46.1437 226.675 46.2044 226.498 46.3054C226.321 46.4064 226.168 46.5451 226.05 46.7117L221.73 52.8817Z" fill="#FFD8A4"/>
<path d="M166.862 167.801C171.552 175.311 180.222 182.051 193.862 185.051C233.142 193.801 267.062 173.421 267.062 173.421C267.062 173.421 272.062 170.691 284.442 162.421C284.442 162.421 301.802 163.161 308.862 151.911C308.888 151.882 308.908 151.848 308.922 151.811C311.02 148.559 312.067 144.739 311.922 140.871C311.562 133.771 306.922 127.871 300.982 126.491C300.982 126.491 311.592 119.201 310.772 107.881C310.722 107.321 310.662 106.751 310.562 106.161C310.04 102.973 308.989 99.8936 307.452 97.0514C303.552 89.9914 296.712 86.2014 288.212 88.8214C288.212 88.8214 292.622 74.2514 281.752 66.4014C280.298 65.3532 278.715 64.4962 277.042 63.8514C275.126 63.1361 273.132 62.6494 271.102 62.4014C265.542 61.6514 257.312 62.2314 252.012 70.2614C252.012 70.2614 249.762 52.8414 233.142 51.5114C231.549 51.3725 229.946 51.3725 228.352 51.5114L227.712 51.5914C227.252 51.6414 226.792 51.7014 226.352 51.7714L225.142 51.9714C224.472 52.0914 223.822 52.2314 223.202 52.3814C222.902 52.4514 222.602 52.5314 222.322 52.6214L221.702 52.7914C207.402 57.2614 207.582 70.3314 207.582 70.3314C207.582 70.3314 199.022 61.5414 185.102 68.5514C183.524 69.3433 182.01 70.2561 180.572 71.2814C179.01 72.634 177.661 74.2153 176.572 75.9714C173.342 81.0514 170.782 89.8614 180.442 100.431C180.442 100.431 172.442 101.511 167.562 107.921C166.816 108.906 166.178 109.969 165.662 111.091C164.55 113.495 163.973 116.112 163.972 118.761C163.974 120.294 164.138 121.823 164.462 123.321C165.418 127.565 167.517 131.466 170.532 134.601L170.872 134.921L171.142 135.171L171.262 135.291C167.805 137.784 165.191 141.273 163.772 145.291C163.522 146.011 163.302 146.761 163.102 147.541C161.502 153.941 161.652 159.561 166.862 167.801Z" fill="#FA9936"/>
<path d="M166.862 167.801C171.552 175.311 180.222 182.051 193.862 185.051C233.142 193.801 267.062 173.421 267.062 173.421C267.062 173.421 272.062 170.691 284.442 162.421C284.442 162.421 301.802 163.161 308.862 151.911C308.888 151.882 308.908 151.848 308.922 151.811C311.02 148.559 312.067 144.739 311.922 140.871C311.562 133.771 306.922 127.871 300.982 126.491C300.982 126.491 311.592 119.201 310.772 107.881C310.722 107.321 310.662 106.751 310.562 106.161C310.04 102.973 308.989 99.8936 307.452 97.0514C303.552 89.9914 296.712 86.2014 288.212 88.8214C288.212 88.8214 292.622 74.2514 281.752 66.4014C280.298 65.3532 278.715 64.4962 277.042 63.8514C275.126 63.1361 273.132 62.6494 271.102 62.4014C265.542 61.6514 257.312 62.2314 252.012 70.2614C252.012 70.2614 249.762 52.8414 233.142 51.5114C231.549 51.3725 229.946 51.3725 228.352 51.5114L227.712 51.5914C227.252 51.6414 226.792 51.7014 226.352 51.7714L225.142 51.9714C224.472 52.0914 223.822 52.2314 223.202 52.3814C222.902 52.4514 222.602 52.5314 222.322 52.6214L221.702 52.7914C207.402 57.2614 207.582 70.3314 207.582 70.3314C207.582 70.3314 199.022 61.5414 185.102 68.5514C183.524 69.3433 182.01 70.2561 180.572 71.2814C179.01 72.634 177.661 74.2153 176.572 75.9714C173.342 81.0514 170.782 89.8614 180.442 100.431C180.442 100.431 172.442 101.511 167.562 107.921C166.816 108.906 166.178 109.969 165.662 111.091C164.55 113.495 163.973 116.112 163.972 118.761C163.974 120.294 164.138 121.823 164.462 123.321C165.418 127.565 167.517 131.466 170.532 134.601L170.872 134.921L171.142 135.171L171.262 135.291C167.805 137.784 165.191 141.273 163.772 145.291C163.522 146.011 163.302 146.761 163.102 147.541C161.502 153.941 161.652 159.561 166.862 167.801Z" fill="url(#paint9_linear_129_6329)"/>
<path d="M302.021 135.352C302.021 135.352 305.691 140.242 303.501 145.942C301.311 151.642 297.041 153.162 294.031 153.012C291.021 152.862 283.631 148.852 284.031 141.942C284.361 136.322 290.031 133.522 294.161 133.002C298.291 132.482 300.481 133.562 302.021 135.352Z" fill="#CD6226"/>
<path d="M293.612 97.632C293.612 97.632 299.702 99.632 301.232 105.882C302.762 112.132 299.982 115.972 297.292 117.642C294.602 119.312 285.862 120.282 282.052 114.052C278.972 109.052 282.192 103.192 285.442 100.272C288.692 97.3521 291.212 97.052 293.612 97.632Z" fill="#CD6226"/>
<path d="M262.631 72.9518C262.631 72.9518 268.871 70.1518 274.561 73.9518C280.251 77.7518 280.851 82.7918 279.931 86.0318C279.011 89.2718 272.821 96.3618 265.381 94.2118C259.381 92.4718 257.671 85.5718 258.121 80.9418C258.571 76.3118 260.291 74.1918 262.631 72.9518Z" fill="#CD6226"/>
<path d="M220.081 65.8615C220.081 65.8615 224.301 60.4815 231.081 61.1915C237.861 61.9015 240.761 66.0815 241.471 69.3815C242.181 72.6815 239.991 81.8315 232.401 83.3815C226.231 84.6515 221.551 79.3215 219.801 75.0115C218.051 70.7015 218.591 68.0515 220.081 65.8615Z" fill="#CD6226"/>
<path d="M183.201 88.5414C183.201 88.5414 182.791 81.9714 188.141 78.1414C193.491 74.3114 198.231 75.4714 200.841 77.3914C203.451 79.3114 207.741 87.2914 203.281 93.2614C199.661 98.1214 192.891 97.2614 188.881 95.3114C184.871 93.3614 183.531 91.0514 183.201 88.5414Z" fill="#CD6226"/>
<path d="M173.452 125.931C173.452 125.931 170.262 120.311 173.332 114.631C176.402 108.951 181.082 107.931 184.212 108.501C187.342 109.071 194.562 114.271 193.212 121.451C192.102 127.301 185.762 129.451 181.372 129.451C176.982 129.451 174.862 128.051 173.452 125.931Z" fill="#CD6226"/>
<path d="M170.492 135.542C174.692 133.662 178.742 132.102 183.122 130.612C178.502 130.232 173.892 130.312 170.492 135.542Z" fill="#995116"/>
<path d="M181.141 138.642C180.231 137.572 172.251 136.642 166.561 126.402C160.671 115.862 159.001 129.312 159.281 133.092C159.561 136.872 161.041 147.242 169.821 148.512C178.601 149.782 183.531 140.782 181.141 138.642Z" fill="#FBD08D"/>
<path d="M177.131 158.592C177.335 158.641 177.549 158.637 177.751 158.583C177.954 158.528 178.14 158.423 178.292 158.278C178.444 158.133 178.558 157.952 178.622 157.752C178.686 157.552 178.7 157.339 178.661 157.132C178.231 155.042 177.071 151.602 174.181 152.862C170.961 154.252 174.191 157.872 177.131 158.592Z" fill="#281911"/>
<path d="M185.932 158.352C185.724 158.38 185.512 158.355 185.316 158.279C185.12 158.204 184.946 158.08 184.811 157.919C184.675 157.759 184.582 157.567 184.541 157.361C184.499 157.155 184.51 156.942 184.572 156.742C185.222 154.742 186.742 151.412 189.482 152.972C192.532 154.702 188.932 157.952 185.932 158.352Z" fill="#281911"/>
<path d="M280.991 126.772C280.991 126.772 283.281 129.382 281.991 131.402C280.701 133.422 276.371 134.732 273.641 132.722C270.641 130.512 272.641 126.352 274.641 125.722C274.581 125.712 278.861 123.992 280.991 126.772Z" fill="#CD6226"/>
<path d="M223.952 90.4518C223.952 90.4518 226.182 90.5618 226.072 93.3718C225.962 96.1818 223.452 97.5218 221.882 96.6918C220.312 95.8618 219.732 90.3118 223.952 90.4518Z" fill="#CD6226"/>
<path d="M257.192 106.952C259.716 108.197 262.049 109.797 264.122 111.702C267.212 114.912 273.292 111.222 270.122 105.702C266.952 100.182 261.862 100.122 258.862 100.562C254.802 101.152 252.292 105.242 257.192 106.952Z" fill="#CD6226"/>
<path d="M230.861 100.162C241.231 105.392 243.581 95.5319 243.581 95.5319C243.581 95.5319 243.641 95.3519 243.721 95.0519C244.181 93.4319 245.391 88.1819 242.171 86.6719C241.171 85.6719 233.171 85.5119 226.471 75.9219C223.521 71.6819 221.761 71.732 220.781 73.472V73.5319C220.694 73.687 220.617 73.8473 220.551 74.0119C219.551 76.3519 219.551 80.6619 219.851 82.8419C219.851 83.0019 219.851 83.1519 219.911 83.2819C219.971 83.4119 221.221 95.3119 230.861 100.162Z" fill="#FBD08D"/>
<path opacity="0.6" d="M219.861 83.2917C219.861 83.1617 219.861 83.0117 219.801 82.8517C219.521 80.6717 219.531 76.3617 220.501 74.0217C220.568 73.8571 220.645 73.6968 220.731 73.5417V73.4817C221.731 71.7417 223.471 71.6917 226.421 75.9317C233.081 85.5217 241.131 85.7017 242.121 86.6817C245.341 88.1917 244.121 93.4417 243.671 95.0617C243.591 95.3617 243.531 95.5417 243.531 95.5417C243.531 95.5417 241.181 105.402 230.811 100.172C221.221 95.3117 219.861 83.2917 219.861 83.2917Z" fill="url(#paint10_linear_129_6329)"/>
<path d="M193.442 103.642C203.542 109.372 206.372 99.6417 206.372 99.6417C206.372 99.6417 206.432 99.4717 206.532 99.1617C207.072 97.5817 208.532 92.3917 205.402 90.7217C204.452 89.7217 196.402 89.1117 190.242 79.2117C187.502 74.8317 185.752 74.8017 184.682 76.4817V76.5417C184.587 76.6901 184.5 76.8437 184.422 77.0017C183.342 79.2917 183.122 83.5917 183.292 85.7917C183.292 85.9517 183.292 86.0917 183.292 86.2217C183.292 86.3517 184.102 98.3317 193.442 103.642Z" fill="#FBD08D"/>
<path d="M193.441 103.642C203.541 109.372 206.371 99.6415 206.371 99.6415C206.371 99.6415 206.431 99.4715 206.531 99.1615C190.091 99.7415 186.961 78.9915 186.531 77.0915C186.101 75.1915 184.891 76.3315 184.731 76.4815V76.5415C184.635 76.6899 184.549 76.8435 184.471 77.0015C183.391 79.2915 183.171 83.5915 183.341 85.7915C183.341 85.9515 183.341 86.0915 183.341 86.2215C183.341 86.3515 184.101 98.3315 193.441 103.642Z" fill="#FBD08D"/>
<path d="M249.071 107.142C246.321 105.972 239.341 103.632 232.581 106.442C232.453 106.495 232.314 106.511 232.178 106.489C232.042 106.467 231.915 106.407 231.811 106.317C231.707 106.226 231.63 106.109 231.59 105.977C231.549 105.845 231.546 105.705 231.581 105.572C232.461 102.672 235.021 96.7918 241.051 97.8418C243.252 98.1348 245.307 99.1074 246.929 100.624C248.551 102.14 249.66 104.125 250.101 106.302C250.136 106.437 250.132 106.58 250.089 106.714C250.045 106.847 249.965 106.965 249.856 107.053C249.747 107.142 249.616 107.197 249.476 107.213C249.337 107.229 249.196 107.204 249.071 107.142Z" fill="#281911"/>
<path opacity="0.6" d="M183.292 86.2412C183.292 86.1112 183.292 85.9712 183.292 85.8112C183.122 83.6112 183.342 79.3112 184.422 77.0212C184.5 76.8632 184.587 76.7096 184.682 76.5612V76.5013C185.752 74.8213 187.502 74.8512 190.242 79.2312C196.432 89.1312 204.452 89.7212 205.402 90.7412C208.532 92.4112 207.072 97.6012 206.532 99.1812C206.432 99.4912 206.372 99.6612 206.372 99.6612C206.372 99.6612 203.542 109.391 193.442 103.661C184.102 98.3312 183.292 86.2412 183.292 86.2412Z" fill="url(#paint11_linear_129_6329)"/>
<path opacity="0.6" d="M169.86 148.511C171.754 148.807 173.691 148.592 175.474 147.889C177.256 147.186 178.819 146.02 180 144.511C180.656 143.692 181.164 142.765 181.5 141.771C181.94 140.451 181.85 139.281 181.17 138.661C180.27 137.581 172.29 136.661 166.59 126.421C164.3 122.321 162.59 121.851 161.51 123.041C161.155 123.438 160.874 123.895 160.68 124.391V124.441C159.696 127.222 159.251 130.164 159.37 133.111C159.54 136.881 161.05 147.241 169.86 148.511Z" fill="url(#paint12_linear_129_6329)"/>
<path d="M196.962 107.872C199.712 106.702 206.682 104.352 213.452 107.152C213.579 107.205 213.718 107.221 213.854 107.199C213.99 107.177 214.117 107.117 214.221 107.027C214.325 106.936 214.402 106.819 214.442 106.687C214.483 106.556 214.486 106.415 214.452 106.282C213.572 103.382 211.002 97.5019 204.972 98.5719C202.777 98.8738 200.732 99.8516 199.119 101.37C197.506 102.887 196.406 104.87 195.972 107.042C195.943 107.172 195.951 107.307 195.994 107.433C196.038 107.559 196.114 107.67 196.216 107.756C196.318 107.841 196.441 107.897 196.573 107.918C196.704 107.938 196.839 107.922 196.962 107.872Z" fill="#281911"/>
<path d="M207.472 144.362C215.552 144.362 222.102 137.811 222.102 129.732C222.102 121.652 215.552 115.102 207.472 115.102C199.392 115.102 192.842 121.652 192.842 129.732C192.842 137.811 199.392 144.362 207.472 144.362Z" fill="#FFF3E9"/>
<path d="M206.911 143.112C212.097 143.112 216.302 138.908 216.302 133.722C216.302 128.536 212.097 124.332 206.911 124.332C201.726 124.332 197.521 128.536 197.521 133.722C197.521 138.908 201.726 143.112 206.911 143.112Z" fill="#281911"/>
<path d="M201.992 136.481C203.726 136.481 205.132 135.075 205.132 133.341C205.132 131.607 203.726 130.201 201.992 130.201C200.257 130.201 198.852 131.607 198.852 133.341C198.852 135.075 200.257 136.481 201.992 136.481Z" fill="#FFF3E9"/>
<path d="M209.352 134.362C210.694 134.362 211.782 133.274 211.782 131.932C211.782 130.59 210.694 129.502 209.352 129.502C208.01 129.502 206.922 130.59 206.922 131.932C206.922 133.274 208.01 134.362 209.352 134.362Z" fill="#FFF3E9"/>
<path d="M206.922 140.282C207.883 140.282 208.662 139.503 208.662 138.542C208.662 137.581 207.883 136.802 206.922 136.802C205.961 136.802 205.182 137.581 205.182 138.542C205.182 139.503 205.961 140.282 206.922 140.282Z" fill="#FFF3E9"/>
<path d="M240.802 142.461C248.882 142.461 255.432 135.911 255.432 127.831C255.432 119.751 248.882 113.201 240.802 113.201C232.722 113.201 226.172 119.751 226.172 127.831C226.172 135.911 232.722 142.461 240.802 142.461Z" fill="#FFF3E9"/>
<path d="M239.951 141.132C245.137 141.132 249.341 136.928 249.341 131.742C249.341 126.556 245.137 122.352 239.951 122.352C234.765 122.352 230.561 126.556 230.561 131.742C230.561 136.928 234.765 141.132 239.951 141.132Z" fill="#281911"/>
<path d="M235.031 134.502C236.765 134.502 238.171 133.096 238.171 131.362C238.171 129.627 236.765 128.222 235.031 128.222C233.296 128.222 231.891 129.627 231.891 131.362C231.891 133.096 233.296 134.502 235.031 134.502Z" fill="#FFF3E9"/>
<path d="M242.401 132.381C243.743 132.381 244.831 131.294 244.831 129.951C244.831 128.609 243.743 127.521 242.401 127.521C241.059 127.521 239.971 128.609 239.971 129.951C239.971 131.294 241.059 132.381 242.401 132.381Z" fill="#FFF3E9"/>
<path d="M239.961 138.301C240.922 138.301 241.701 137.522 241.701 136.561C241.701 135.6 240.922 134.821 239.961 134.821C239 134.821 238.221 135.6 238.221 136.561C238.221 137.522 239 138.301 239.961 138.301Z" fill="#FFF3E9"/>
<path d="M239.382 166.242C238.442 172.672 236.132 178.402 230.972 179.242C226.132 180.042 222.972 177.162 220.852 172.752C217.522 165.752 216.852 154.812 216.662 148.492V147.712H217.332L239.262 146.432C239.262 146.432 240.722 157.052 239.382 166.242Z" fill="#530007"/>
<path d="M239.382 166.242C238.442 172.672 236.132 178.402 230.972 179.242C226.132 180.042 222.972 177.162 220.852 172.752C223.072 169.532 228.502 164.232 239.372 166.232L239.382 166.242Z" fill="#B23F74"/>
<path d="M238.642 146.432C237.932 148.602 237.352 150.432 237.072 151.432C237.014 151.624 236.91 151.799 236.769 151.942C236.628 152.085 236.454 152.192 236.262 152.252C231.009 153.769 225.473 154.026 220.102 153.002C219.917 152.958 219.745 152.871 219.601 152.747C219.456 152.624 219.344 152.468 219.272 152.292L217.332 147.712L238.642 146.432Z" fill="#FFF3E9"/>
<path d="M196.511 208.141C192.791 210.621 191.511 215.371 191.061 219.601C191.054 219.613 191.044 219.624 191.031 219.631C191.019 219.638 191.005 219.642 190.991 219.642C190.976 219.642 190.962 219.638 190.95 219.631C190.938 219.624 190.928 219.613 190.921 219.601C189.351 215.271 191.531 208.891 196.451 207.991C196.468 207.983 196.488 207.982 196.505 207.989C196.523 207.995 196.538 208.009 196.546 208.026C196.554 208.043 196.554 208.063 196.548 208.081C196.541 208.099 196.528 208.113 196.511 208.121V208.141Z" fill="#FFC088"/>
<path d="M248.62 223.161C257.36 219.601 265.73 213.971 270.78 205.841C270.796 205.823 270.817 205.811 270.84 205.807C270.863 205.803 270.887 205.808 270.908 205.819C270.928 205.831 270.943 205.85 270.951 205.873C270.959 205.895 270.959 205.919 270.95 205.941C268.19 215.311 258.18 222.291 248.69 223.351C248.58 223.351 248.5 223.211 248.62 223.161Z" fill="#995116"/>
<path d="M230.412 186.901C227.672 189.001 220.902 192.461 207.742 193.461C208.422 190.531 208.932 188.861 209.502 187.081C210.502 187.201 217.382 187.771 230.002 185.941C230.12 185.924 230.24 185.946 230.344 186.005C230.448 186.063 230.53 186.154 230.576 186.263C230.623 186.373 230.632 186.495 230.603 186.61C230.573 186.726 230.506 186.828 230.412 186.901Z" fill="#B6652C"/>
<path d="M284.551 162.521C281.991 167.291 276.371 170.641 271.041 171.191C271.023 171.185 271.008 171.173 270.997 171.158C270.986 171.143 270.98 171.125 270.98 171.106C270.98 171.087 270.986 171.069 270.997 171.054C271.008 171.039 271.023 171.027 271.041 171.021C274.331 169.021 277.921 166.661 281.221 164.611C282.331 163.891 283.461 163.161 284.521 162.361C284.542 162.344 284.569 162.336 284.596 162.338C284.624 162.341 284.649 162.355 284.666 162.376C284.683 162.397 284.691 162.424 284.688 162.452C284.686 162.479 284.672 162.504 284.651 162.521H284.551Z" fill="#995116"/>
<path d="M344.391 184.681C343.781 179.081 339.721 178.481 333.571 182.811C327.421 187.141 310.071 188.931 310.071 188.931C280.221 191.081 273.791 199.641 273.791 199.641C270.611 203.481 271.541 209.311 271.541 209.311L336.541 217.691C343.981 207.781 344.991 190.281 344.391 184.681Z" fill="#F55E44"/>
<path d="M344.391 184.681C343.781 179.081 339.721 178.481 333.571 182.811C327.421 187.141 310.071 188.931 310.071 188.931C280.221 191.081 273.791 199.641 273.791 199.641C270.611 203.481 271.541 209.311 271.541 209.311L336.541 217.691C343.981 207.781 344.991 190.281 344.391 184.681Z" fill="url(#paint13_linear_129_6329)"/>
<path d="M274.982 205.892C274.982 205.892 274.552 200.222 280.382 199.262L286.282 198.832L288.162 202.362L281.572 205.892H274.982Z" fill="#FF9797"/>
<path d="M330.132 189.101C330.132 189.101 333.562 187.221 337.232 184.681C340.552 182.391 341.442 186.081 341.082 189.921C340.701 195.772 339.651 201.56 337.952 207.171C337.952 207.171 328.652 204.751 328.122 203.681C327.592 202.611 326.422 192.301 326.422 192.301L330.132 189.101Z" fill="#FF9797"/>
<path d="M330.132 189.101C330.132 189.101 333.562 187.221 337.232 184.681C340.552 182.391 341.442 186.081 341.082 189.921C340.701 195.772 339.651 201.56 337.952 207.171C337.952 207.171 328.652 204.751 328.122 203.681C327.592 202.611 326.422 192.301 326.422 192.301L330.132 189.101Z" fill="url(#paint14_linear_129_6329)"/>
<path d="M286.062 233.731C286.062 233.731 282.542 248.891 286.062 260.021C286.062 260.021 275.572 263.571 276.442 272.081C277.442 281.571 297.222 280.311 307.702 266.871C308.038 266.436 308.198 265.89 308.152 265.341C307.802 260.901 306.312 240.341 308.222 233.731H286.062Z" fill="#F55E44"/>
<path d="M308.072 264.251C308.072 264.681 308.132 265.051 308.152 265.341C308.192 265.889 308.032 266.433 307.702 266.871C297.222 280.311 277.412 281.571 276.442 272.081C275.572 263.571 286.062 260.021 286.062 260.021C284.943 256.153 284.417 252.137 284.502 248.111C284.54 243.278 285.062 238.461 286.062 233.731H308.212C307.948 234.715 307.765 235.718 307.662 236.731C306.742 244.501 307.682 259.051 308.072 264.251Z" fill="url(#paint15_linear_129_6329)"/>
<mask id="mask0_129_6329" style="mask-type:luminance" maskUnits="userSpaceOnUse" x="276" y="233" width="33" height="46">
<path d="M286.062 233.731C286.062 233.731 282.542 248.891 286.062 260.021C286.062 260.021 275.572 263.571 276.442 272.081C277.442 281.571 297.222 280.311 307.702 266.871C308.038 266.436 308.198 265.89 308.152 265.341C307.802 260.901 306.312 240.341 308.222 233.731H286.062Z" fill="white"/>
</mask>
<g mask="url(#mask0_129_6329)">
<path d="M282.472 280.351C282.146 279.257 282.058 278.105 282.214 276.974C282.37 275.843 282.766 274.758 283.376 273.793C283.986 272.827 284.796 272.004 285.751 271.377C286.705 270.751 287.783 270.336 288.912 270.161C287.216 271.348 285.773 272.86 284.668 274.609C283.562 276.358 282.816 278.31 282.472 280.351Z" fill="#993030"/>
<path d="M277.062 276.541C276.746 275.522 276.659 274.446 276.805 273.389C276.952 272.332 277.329 271.32 277.91 270.425C278.491 269.53 279.262 268.774 280.168 268.21C281.073 267.646 282.092 267.288 283.152 267.161C279.965 269.363 277.776 272.734 277.062 276.541Z" fill="#993030"/>
</g>
<path d="M285.192 201.601C284.112 202.7 283.184 203.937 282.432 205.281C282.395 205.323 282.365 205.37 282.342 205.421C280.602 208.541 279.252 213.031 278.772 220.111C278.772 220.811 278.702 221.511 278.682 222.191L272.122 228.761C266.122 221.561 267.662 213.821 271.532 209.321C274.624 205.978 278.332 203.262 282.452 201.321C283.372 201.461 284.292 201.541 285.192 201.601Z" fill="#F55E44"/>
<path opacity="0.4" d="M308.072 264.251H307.972C289.972 260.251 284.502 248.111 284.502 248.111C284.54 243.278 285.063 238.461 286.062 233.731H305.372C306.062 234.611 306.852 235.641 307.662 236.731C306.742 244.501 307.682 259.051 308.072 264.251Z" fill="#5B180D"/>
<path d="M350.862 241.441C349.409 245.361 347.072 248.892 344.032 251.761C341.979 253.828 339.65 255.602 337.112 257.031C336.442 257.411 335.772 257.771 335.112 258.091C331.173 259.976 326.955 261.212 322.622 261.751C312.092 263.111 301.012 260.681 292.932 254.901C287.872 251.281 280.932 243.671 279.102 230.501C279.102 230.501 279.102 230.451 279.102 230.421C278.75 227.69 278.626 224.933 278.732 222.181C278.732 221.501 278.732 220.801 278.822 220.101C278.979 215.804 279.837 211.562 281.362 207.541C282.246 205.304 283.565 203.265 285.242 201.541C285.973 200.805 286.748 200.114 287.562 199.471C288.272 198.901 288.992 198.361 289.692 197.811C295.322 193.361 302.112 190.411 308.892 188.391C313.81 186.956 318.822 185.866 323.892 185.131L324.692 185.011C326.422 184.761 328.072 184.541 329.612 184.371L330.112 184.311L330.652 184.241H330.882H331.252H331.652C331.652 184.241 336.552 219.551 350.862 241.441Z" fill="#F55E44"/>
<path d="M335.092 258.051C331.153 259.936 326.935 261.172 322.602 261.711C312.072 263.071 300.992 260.641 292.912 254.861C287.852 251.241 280.912 243.631 279.082 230.461C279.082 230.461 279.082 230.411 279.082 230.381C279.082 230.091 279.022 229.811 279.002 229.521C278.837 227.318 278.817 225.107 278.942 222.901C278.939 222.861 278.939 222.821 278.942 222.781C279.062 221.551 280.292 211.781 289.752 210.521C300.522 209.131 307.492 213.091 308.222 220.991C308.952 228.891 307.252 261.591 335.092 258.051Z" fill="#FBD08D"/>
<path d="M389.252 217.052C389.252 217.052 380.192 250.462 336.882 269.372H330.122L329.852 268.272L327.322 258.052L328.532 244.702L331.962 230.052L383.782 218.272L389.252 217.052Z" fill="#F55E44"/>
<path d="M383.782 218.312C383.782 218.312 374.962 248.212 329.862 268.312L327.322 258.052L328.532 244.702L331.962 230.052L383.782 218.312Z" fill="#FF9797"/>
<path d="M383.782 218.312L331.962 230.052L328.532 244.682L327.322 258.052L329.862 268.302L330.132 269.402H336.862C380.192 250.492 389.252 217.052 389.252 217.052L383.782 218.312Z" fill="url(#paint16_linear_129_6329)"/>
<path opacity="0.6" d="M335.092 258.051C331.153 259.936 326.935 261.172 322.602 261.711C312.072 263.071 300.992 260.641 292.912 254.861C287.852 251.241 280.912 243.631 279.082 230.461C279.082 230.461 279.082 230.411 279.082 230.381C279.082 230.091 279.022 229.811 279.002 229.521C278.837 227.318 278.817 225.107 278.942 222.901C278.939 222.861 278.939 222.821 278.942 222.781C279.062 221.551 280.292 211.781 289.752 210.521C300.522 209.131 307.492 213.091 308.222 220.991C308.952 228.891 307.252 261.591 335.092 258.051Z" fill="url(#paint17_linear_129_6329)"/>
<path d="M331.652 184.181C331.652 184.691 299.092 196.581 288.522 200.431L285.892 201.431L285.252 201.661H285.192C284.292 201.601 283.372 201.521 282.452 201.401C279.523 201.079 276.626 200.511 273.792 199.701C264.082 196.891 255.222 190.581 253.502 176.701C249.432 143.801 298.862 120.361 298.862 120.361C298.862 120.361 322.382 109.091 333.192 116.171C337.942 119.281 333.422 119.171 329.782 149.591C328.082 163.321 330.062 175.951 331.652 184.181Z" fill="#F55E44"/>
<path d="M331.652 184.181C331.652 184.691 299.092 196.581 288.522 200.431L285.892 201.431L285.252 201.661H285.192C284.292 201.601 283.372 201.521 282.452 201.401C279.523 201.079 276.626 200.511 273.792 199.701C264.082 196.891 255.222 190.581 253.502 176.701C249.432 143.801 298.862 120.361 298.862 120.361C298.862 120.361 322.382 109.091 333.192 116.171C337.942 119.281 333.422 119.171 329.782 149.591C328.082 163.321 330.062 175.951 331.652 184.181Z" fill="url(#paint18_linear_129_6329)"/>
<path d="M274.921 169.471C280.472 169.471 284.971 164.972 284.971 159.421C284.971 153.871 280.472 149.371 274.921 149.371C269.371 149.371 264.871 153.871 264.871 159.421C264.871 164.972 269.371 169.471 274.921 169.471Z" fill="#FFF3E9"/>
<path d="M273.772 168.561C277.334 168.561 280.222 165.673 280.222 162.111C280.222 158.549 277.334 155.661 273.772 155.661C270.21 155.661 267.322 158.549 267.322 162.111C267.322 165.673 270.21 168.561 273.772 168.561Z" fill="#281911"/>
<path d="M270.402 164.002C271.595 164.002 272.562 163.035 272.562 161.842C272.562 160.649 271.595 159.682 270.402 159.682C269.209 159.682 268.242 160.649 268.242 161.842C268.242 163.035 269.209 164.002 270.402 164.002Z" fill="#FFF3E9"/>
<path d="M275.451 162.541C276.374 162.541 277.121 161.794 277.121 160.871C277.121 159.949 276.374 159.201 275.451 159.201C274.529 159.201 273.781 159.949 273.781 160.871C273.781 161.794 274.529 162.541 275.451 162.541Z" fill="#FFF3E9"/>
<path d="M273.782 166.611C274.439 166.611 274.972 166.079 274.972 165.421C274.972 164.764 274.439 164.231 273.782 164.231C273.125 164.231 272.592 164.764 272.592 165.421C272.592 166.079 273.125 166.611 273.782 166.611Z" fill="#FFF3E9"/>
<path d="M300.111 168.822C305.661 168.822 310.161 164.322 310.161 158.772C310.161 153.221 305.661 148.722 300.111 148.722C294.56 148.722 290.061 153.221 290.061 158.772C290.061 164.322 294.56 168.822 300.111 168.822Z" fill="#FFF3E9"/>
<path d="M298.68 167.912C302.243 167.912 305.13 165.024 305.13 161.462C305.13 157.899 302.243 155.012 298.68 155.012C295.118 155.012 292.23 157.899 292.23 161.462C292.23 165.024 295.118 167.912 298.68 167.912Z" fill="#281911"/>
<path d="M295.31 163.351C296.503 163.351 297.47 162.384 297.47 161.191C297.47 159.998 296.503 159.031 295.31 159.031C294.117 159.031 293.15 159.998 293.15 161.191C293.15 162.384 294.117 163.351 295.31 163.351Z" fill="#FFF3E9"/>
<path d="M300.371 161.892C301.293 161.892 302.041 161.144 302.041 160.222C302.041 159.299 301.293 158.552 300.371 158.552C299.449 158.552 298.701 159.299 298.701 160.222C298.701 161.144 299.449 161.892 300.371 161.892Z" fill="#FFF3E9"/>
<path d="M298.692 165.951C299.349 165.951 299.882 165.419 299.882 164.761C299.882 164.104 299.349 163.571 298.692 163.571C298.035 163.571 297.502 164.104 297.502 164.761C297.502 165.419 298.035 165.951 298.692 165.951Z" fill="#FFF3E9"/>
<path d="M314.772 176.341C318.091 176.341 320.782 173.651 320.782 170.331C320.782 167.012 318.091 164.321 314.772 164.321C311.452 164.321 308.762 167.012 308.762 170.331C308.762 173.651 311.452 176.341 314.772 176.341Z" fill="#FFC016"/>
<path d="M318.65 126.241C318.65 126.611 318.71 127.001 318.72 127.361C318.769 128.612 318.508 129.856 317.96 130.981C316.38 134.191 312.36 141.191 306.49 142.821C298.79 144.951 294.84 142.721 291.12 140.661C290.23 140.135 289.284 139.709 288.3 139.391C286.3 138.861 284.71 139.581 281.69 142.391C277.82 145.801 270.75 145.821 267.44 144.901C267.008 144.79 266.592 144.625 266.2 144.411C263.9 143.091 264.62 138.621 264.62 138.621C265.96 133.621 270.76 128.991 273.54 126.681C274.785 125.624 276.226 124.822 277.78 124.321C290.149 120.304 303.406 119.891 316 123.131C316.611 123.282 317.164 123.609 317.59 124.071C318.189 124.646 318.565 125.415 318.65 126.241Z" fill="#FFF3E9"/>
<path d="M318.65 126.241C318.65 126.611 318.71 127.001 318.72 127.361C318.769 128.612 318.508 129.856 317.96 130.981C316.38 134.191 312.36 141.191 306.49 142.821C298.79 144.951 294.84 142.721 291.12 140.661C290.23 140.135 289.284 139.709 288.3 139.391C286.3 138.861 284.71 139.581 281.69 142.391C277.93 145.921 270.77 145.851 267.44 144.901C267.008 144.79 266.592 144.625 266.2 144.411C263.9 143.091 264.62 138.621 264.62 138.621C264.62 138.621 268.07 142.851 275 140.921C281.93 138.991 280.67 135.711 287 135.431C293.33 135.151 294.46 139.681 300.3 139.241C306.14 138.801 312.1 136.811 317.64 124.071C318.221 124.654 318.578 125.422 318.65 126.241Z" fill="#CCCCCC"/>
<path d="M277.231 126.942C277.231 126.942 273.121 128.702 268.891 135.242C268.891 135.242 267.341 139.102 273.441 137.592C279.541 136.082 281.601 131.962 288.311 132.592C295.021 133.222 294.751 135.712 299.081 135.862C303.141 135.992 308.801 134.402 312.291 127.502C312.51 127.084 312.557 126.598 312.422 126.146C312.288 125.694 311.982 125.312 311.571 125.082C310.744 124.652 309.872 124.317 308.971 124.082C306.601 123.502 290.151 121.592 277.231 126.942Z" fill="#B3B3B3"/>
<mask id="mask1_129_6329" style="mask-type:luminance" maskUnits="userSpaceOnUse" x="268" y="123" width="45" height="15">
<path d="M277.231 126.942C277.231 126.942 273.121 128.702 268.891 135.242C268.891 135.242 267.341 139.102 273.441 137.592C279.541 136.082 281.601 131.962 288.311 132.592C295.021 133.222 294.751 135.712 299.081 135.862C303.141 135.992 308.801 134.402 312.291 127.502C312.51 127.084 312.557 126.598 312.422 126.146C312.288 125.694 311.982 125.312 311.571 125.082C310.744 124.652 309.872 124.317 308.971 124.082C306.601 123.502 290.151 121.592 277.231 126.942Z" fill="white"/>
</mask>
<g mask="url(#mask1_129_6329)">
<path d="M267.641 140.312L290.751 120.182L300.721 119.782L290.911 130.412L304.311 121.492L310.341 121.532L291.201 142.372L267.641 140.312Z" fill="#F2F2F2"/>
</g>
<path d="M304.562 185.442C304.092 189.592 302.722 193.311 299.442 193.971C296.342 194.581 294.252 192.811 292.802 189.971C290.522 185.541 289.882 178.532 289.592 174.482V174.052H290.022H290.332L294.632 173.661L298.892 173.271L303.192 172.892L304.052 172.812C304.722 176.986 304.893 181.226 304.562 185.442Z" fill="#530007"/>
<path d="M304.571 185.442C304.091 189.592 302.731 193.312 299.431 193.972C296.341 194.582 294.241 192.802 292.801 189.972C294.161 187.862 297.541 184.342 304.561 185.402L304.571 185.442Z" fill="#B23F74"/>
<path d="M294.662 173.972C294.772 176.892 292.802 176.972 292.802 176.972C290.492 177.122 290.332 174.372 290.322 173.902L294.622 173.512V173.432C294.622 173.432 294.622 173.482 294.622 173.512C294.627 173.608 294.627 173.705 294.622 173.802C294.622 173.802 294.662 173.932 294.662 173.972Z" fill="#FFF3E9"/>
<path d="M297.222 176.532C295.322 176.722 294.802 174.902 294.662 173.992C294.662 173.992 294.662 173.902 294.662 173.862C294.662 173.822 294.662 173.632 294.662 173.572V173.492C294.662 173.492 294.662 173.542 294.662 173.572L298.922 173.182C298.932 173.241 298.932 173.302 298.922 173.362C298.918 173.442 298.918 173.522 298.922 173.602C299.142 176.422 297.222 176.532 297.222 176.532Z" fill="#FFF3E9"/>
<path d="M301.471 176.231C299.621 176.391 299.091 174.551 298.941 173.581C298.937 173.501 298.937 173.421 298.941 173.341C298.936 173.281 298.936 173.221 298.941 173.161L303.241 172.781C303.651 176.151 301.471 176.231 301.471 176.231Z" fill="#FFF3E9"/>
<path d="M329.721 153.472C329.691 153.534 329.658 153.594 329.621 153.652L329.401 153.952V154.002C325.931 147.822 311.841 136.672 311.841 136.672L312.031 136.492C311.968 136.375 311.895 136.264 311.811 136.162V136.052C313.487 134.537 314.98 132.833 316.261 130.972C316.261 130.972 330.201 140.882 331.261 145.602C331.791 148.325 331.239 151.149 329.721 153.472Z" fill="#684B44"/>
<path d="M310.16 181.182H310.05C308.805 181.044 307.606 180.631 306.54 179.972H306.47C304.595 178.69 303.302 176.721 302.87 174.492C302.548 173.123 302.424 171.715 302.5 170.312C302.51 170.2 302.542 170.091 302.594 169.992C302.646 169.893 302.717 169.804 302.802 169.732C302.888 169.66 302.988 169.606 303.094 169.573C303.201 169.539 303.314 169.527 303.425 169.537C303.537 169.546 303.646 169.578 303.745 169.63C303.844 169.682 303.933 169.753 304.005 169.839C304.076 169.924 304.131 170.024 304.164 170.131C304.198 170.237 304.21 170.35 304.2 170.461C304.135 171.681 304.246 172.904 304.53 174.091C304.691 174.994 305.03 175.855 305.528 176.624C306.026 177.393 306.673 178.056 307.43 178.572H307.51C308.349 179.074 309.288 179.388 310.26 179.492C310.47 179.523 310.66 179.632 310.794 179.797C310.927 179.962 310.994 180.17 310.982 180.382C310.969 180.594 310.878 180.793 310.726 180.941C310.574 181.089 310.372 181.175 310.16 181.182Z" fill="#281911"/>
<path d="M329.691 153.502C329.662 153.564 329.628 153.624 329.591 153.682L329.371 153.982V154.032C325.901 147.852 311.811 136.702 311.811 136.702V136.052L312.181 136.342C314.021 137.812 325.861 147.112 329.691 153.502Z" fill="#D6A9A1"/>
<path d="M269.061 141.422C270.661 140.662 274.741 139.122 278.811 140.622C278.889 140.655 278.974 140.665 279.057 140.65C279.14 140.636 279.217 140.598 279.279 140.541C279.342 140.484 279.386 140.411 279.408 140.33C279.429 140.248 279.427 140.162 279.401 140.082C278.811 138.392 277.151 134.962 273.611 135.732C272.313 135.955 271.117 136.578 270.19 137.514C269.263 138.45 268.652 139.652 268.441 140.952C268.428 141.031 268.437 141.112 268.467 141.186C268.497 141.261 268.546 141.325 268.61 141.374C268.674 141.422 268.749 141.452 268.829 141.461C268.908 141.469 268.989 141.456 269.061 141.422Z" fill="#281911"/>
<path d="M315.261 241.552C315.261 241.552 311.741 257.552 315.261 268.722C315.261 268.722 304.761 272.282 305.631 280.792C306.631 290.282 326.421 289.022 336.891 275.582C337.231 275.144 337.391 274.594 337.341 274.042C336.991 269.612 335.501 248.112 337.411 241.552H315.261Z" fill="#F55E44"/>
<path d="M315.261 241.552C315.261 241.552 311.741 257.552 315.261 268.722C315.261 268.722 304.761 272.282 305.631 280.792C306.631 290.282 326.421 289.022 336.891 275.582C337.231 275.144 337.391 274.594 337.341 274.042C336.991 269.612 335.501 248.112 337.411 241.552H315.261Z" fill="url(#paint19_linear_129_6329)"/>
<mask id="mask2_129_6329" style="mask-type:luminance" maskUnits="userSpaceOnUse" x="305" y="241" width="33" height="46">
<path d="M315.261 241.552C315.261 241.552 311.741 257.552 315.261 268.722C315.261 268.722 304.761 272.282 305.631 280.792C306.631 290.282 326.421 289.022 336.891 275.582C337.231 275.144 337.391 274.594 337.341 274.042C336.991 269.612 335.501 248.112 337.411 241.552H315.261Z" fill="white"/>
</mask>
<g mask="url(#mask2_129_6329)">
<path d="M311.672 289.051C311.345 287.958 311.257 286.807 311.412 285.676C311.568 284.546 311.963 283.461 312.572 282.496C313.181 281.531 313.99 280.707 314.943 280.08C315.897 279.453 316.974 279.038 318.102 278.861C316.408 280.05 314.968 281.562 313.864 283.311C312.761 285.061 312.015 287.012 311.672 289.051Z" fill="#993030"/>
<path d="M306.232 285.642C305.917 284.623 305.829 283.548 305.975 282.491C306.121 281.435 306.497 280.424 307.077 279.529C307.657 278.634 308.427 277.878 309.331 277.313C310.236 276.749 311.253 276.39 312.312 276.262C309.123 278.46 306.937 281.834 306.232 285.642Z" fill="#993030"/>
</g>
<path d="M304.552 140.102C302.872 139.522 298.652 138.432 294.772 140.362C294.699 140.404 294.615 140.424 294.53 140.42C294.446 140.415 294.364 140.387 294.295 140.337C294.227 140.287 294.174 140.219 294.143 140.14C294.113 140.061 294.105 139.975 294.122 139.892C294.532 138.142 295.802 134.562 299.412 134.942C300.725 135.027 301.98 135.518 303.001 136.348C304.022 137.177 304.76 138.304 305.112 139.572C305.136 139.649 305.138 139.73 305.117 139.808C305.097 139.886 305.055 139.956 304.997 140.011C304.939 140.066 304.866 140.104 304.788 140.12C304.709 140.136 304.627 140.13 304.552 140.102Z" fill="#281911"/>
<path d="M283.972 230.051C283.972 230.051 285.972 231.621 283.462 233.651C283.662 233.861 284.972 235.361 282.562 236.961C279.712 238.861 274.872 237.181 273.272 233.561C272.488 231.79 272.077 229.876 272.063 227.939C272.049 226.002 272.433 224.083 273.192 222.301L273.322 222.081C273.383 221.974 273.45 221.87 273.522 221.771C274.832 220.051 276.663 218.802 278.742 218.211H278.912C278.912 218.211 278.742 220.151 278.732 220.791C278.697 221.672 278.723 222.554 278.812 223.431L278.962 223.621L279.062 223.711C279.855 224.429 280.814 224.941 281.852 225.201L282.472 225.391C284.832 226.041 286.072 227.881 284.892 229.261C284.646 229.588 284.332 229.857 283.972 230.051Z" fill="#F55E44"/>
<path d="M283.972 230.052C283.972 230.052 285.972 231.622 283.462 233.652C283.662 233.862 284.972 235.362 282.562 236.962C279.712 238.862 274.872 237.182 273.272 233.562C272.488 231.79 272.077 229.877 272.063 227.94C272.049 226.003 272.433 224.084 273.192 222.302L273.322 222.082C273.383 221.975 273.45 221.871 273.522 221.772C274.797 220.009 276.64 218.741 278.742 218.182L278.522 223.072C278.65 223.251 278.798 223.415 278.962 223.562L279.062 223.652C279.88 224.334 280.83 224.842 281.852 225.142L282.472 225.332C284.832 225.982 286.072 227.822 284.892 229.202C284.653 229.55 284.338 229.841 283.972 230.052Z" fill="url(#paint20_linear_129_6329)"/>
<path d="M283.982 230.102C281.982 232.282 277.982 230.982 277.422 228.182C277.422 228.122 277.482 228.072 277.522 228.112C278.473 228.744 279.511 229.236 280.602 229.572C281.683 229.917 282.821 230.047 283.952 229.952C284.042 229.952 284.042 230.052 283.952 230.102H283.982Z" fill="#993030"/>
<path d="M283.471 233.711C283.064 234.224 282.528 234.619 281.918 234.856C281.308 235.094 280.646 235.166 280 235.064C279.353 234.963 278.745 234.691 278.237 234.278C277.73 233.864 277.341 233.324 277.111 232.711C277.107 232.699 277.106 232.686 277.11 232.674C277.113 232.662 277.121 232.651 277.131 232.644C277.141 232.636 277.153 232.631 277.165 232.631C277.178 232.63 277.19 232.634 277.201 232.641C278.142 233.131 279.154 233.469 280.201 233.641C281.257 233.821 282.335 233.821 283.391 233.641C283.481 233.641 283.491 233.741 283.391 233.791L283.471 233.711Z" fill="#993030"/>
<path d="M366.272 238.762C366.272 238.762 353.912 244.112 333.572 242.242V231.582L336.492 208.582L336.702 206.952L337.272 202.432C337.272 202.432 352.962 207.322 373.972 203.832C373.972 203.832 385.452 200.962 388.632 204.262C392.702 208.512 391.202 229.262 366.272 238.762Z" fill="#F55E44"/>
<path d="M383.181 221.832C379.561 226.682 366.371 241.502 332.531 239.092V231.942L335.531 208.072L335.751 206.382C347.893 209.624 360.618 210.027 372.941 207.562C372.941 207.562 383.941 204.772 385.851 207.002C387.761 209.232 386.861 216.992 383.181 221.832Z" fill="#FF9797"/>
<path d="M383.181 221.832C379.561 226.682 366.371 241.502 332.531 239.092V231.942L335.531 208.072L335.751 206.382C347.893 209.624 360.618 210.027 372.941 207.562C372.941 207.562 383.941 204.772 385.851 207.002C387.761 209.232 386.861 216.992 383.181 221.832Z" fill="url(#paint21_linear_129_6329)"/>
<path d="M322.961 210.302C325.404 210.903 327.587 212.281 329.181 214.229C330.775 216.176 331.694 218.588 331.801 221.102C331.516 220.559 331.082 220.109 330.551 219.802C330.02 219.496 329.413 219.347 328.801 219.372C326.801 219.632 326.111 221.242 326.281 223.602C326.451 225.962 327.591 230.952 320.871 232.252C320.871 232.252 316.541 232.872 317.601 236.252C317.601 236.252 317.851 238.252 321.321 238.112C321.321 238.112 319.751 240.302 321.001 241.912C322.251 243.522 325.161 242.672 325.161 242.672C325.161 242.672 323.421 245.042 325.921 245.572C328.421 246.102 333.431 244.382 336.741 237.572C339.483 236.25 341.823 234.221 343.519 231.693C345.216 229.165 346.207 226.231 346.391 223.192C347.511 214.142 343.621 203.952 332.391 200.002C329.501 203.659 326.349 207.101 322.961 210.302Z" fill="#F55E44"/>
<path d="M322.961 210.302C325.404 210.903 327.587 212.281 329.181 214.229C330.775 216.176 331.694 218.588 331.801 221.102C331.516 220.559 331.082 220.109 330.551 219.802C330.02 219.496 329.413 219.347 328.801 219.372C326.801 219.632 326.111 221.242 326.281 223.602C326.451 225.962 327.591 230.952 320.871 232.252C320.871 232.252 316.541 232.872 317.601 236.252C317.601 236.252 317.851 238.252 321.321 238.112C321.321 238.112 319.751 240.302 321.001 241.912C322.251 243.522 325.161 242.672 325.161 242.672C325.161 242.672 323.421 245.042 325.921 245.572C328.421 246.102 333.431 244.382 336.741 237.572C339.483 236.25 341.823 234.221 343.519 231.693C345.216 229.165 346.207 226.231 346.391 223.192C347.511 214.142 343.621 203.952 332.391 200.002C329.501 203.659 326.349 207.101 322.961 210.302Z" fill="url(#paint22_linear_129_6329)"/>
<path d="M321.271 238.051C323.311 237.548 325.218 236.61 326.861 235.301C326.87 235.291 326.883 235.285 326.896 235.284C326.909 235.282 326.923 235.285 326.935 235.292C326.946 235.299 326.955 235.309 326.96 235.322C326.965 235.334 326.965 235.348 326.961 235.361C326.889 235.986 326.662 236.583 326.301 237.099C325.94 237.614 325.456 238.032 324.894 238.313C324.331 238.595 323.707 238.732 323.078 238.713C322.449 238.693 321.835 238.517 321.291 238.201C321.221 238.201 321.181 238.081 321.291 238.051H321.271Z" fill="#993030"/>
<path d="M325.102 242.632C327.124 242.036 328.886 240.774 330.102 239.052C330.108 239.041 330.117 239.033 330.127 239.027C330.138 239.021 330.149 239.018 330.162 239.018C330.174 239.018 330.186 239.021 330.196 239.027C330.207 239.033 330.215 239.041 330.222 239.052C330.852 241.752 327.572 244.052 325.222 242.762C325.152 242.762 325.102 242.652 325.222 242.612L325.102 242.632Z" fill="#993030"/>
<path opacity="0.4" d="M298.471 200.682C296.471 202.822 291.471 206.802 281.311 207.552C282.195 205.315 283.513 203.275 285.191 201.552C289.497 201.492 293.779 200.901 297.941 199.792C298.058 199.735 298.192 199.725 298.316 199.762C298.44 199.8 298.546 199.883 298.612 199.994C298.679 200.106 298.701 200.238 298.675 200.365C298.649 200.493 298.576 200.605 298.471 200.682Z" fill="#5B180D"/>
<path d="M278.461 223.112C276.531 215.842 278.231 205.652 285.141 201.552C285.211 201.552 285.311 201.552 285.241 201.662C279.741 207.192 278.671 215.662 278.611 223.102C278.605 223.117 278.595 223.13 278.582 223.14C278.568 223.149 278.552 223.154 278.536 223.154C278.52 223.154 278.504 223.149 278.49 223.14C278.477 223.13 278.467 223.117 278.461 223.102V223.112Z" fill="#993030"/>
<path d="M329.182 227.131C333.742 221.261 331.292 215.131 325.272 211.641L322.922 210.361C322.852 210.361 322.922 210.211 322.972 210.231C328.662 211.041 334.502 216.431 332.552 222.601C332.004 224.466 330.854 226.098 329.282 227.241C329.267 227.247 329.251 227.248 329.235 227.244C329.22 227.24 329.206 227.232 329.195 227.22C329.184 227.208 329.177 227.194 329.175 227.178C329.173 227.162 329.175 227.146 329.182 227.131Z" fill="#993030"/>
<defs>
<linearGradient id="paint0_linear_129_6329" x1="209.511" y1="221.211" x2="187.701" y2="281.131" gradientUnits="userSpaceOnUse">
<stop stop-color="#FBD08D" stop-opacity="0"/>
<stop offset="0.38" stop-color="#D26E31" stop-opacity="0.09"/>
<stop offset="0.42" stop-color="#CD6226" stop-opacity="0.1"/>
<stop offset="0.53" stop-color="#CD6226" stop-opacity="0.37"/>
<stop offset="0.64" stop-color="#CD6226" stop-opacity="0.6"/>
<stop offset="0.74" stop-color="#CD6226" stop-opacity="0.77"/>
<stop offset="0.84" stop-color="#CD6226" stop-opacity="0.9"/>
<stop offset="0.93" stop-color="#CD6226" stop-opacity="0.97"/>
<stop offset="1" stop-color="#CD6226"/>
</linearGradient>
<linearGradient id="paint1_linear_129_6329" x1="151.951" y1="248.101" x2="183.781" y2="266.471" gradientUnits="userSpaceOnUse">
<stop stop-color="#FBD08D" stop-opacity="0"/>
<stop offset="0.38" stop-color="#C89663" stop-opacity="0.2"/>
<stop offset="0.87" stop-color="#7A3E23" stop-opacity="0.5"/>
</linearGradient>
<linearGradient id="paint2_linear_129_6329" x1="245.042" y1="192.032" x2="245.042" y2="263.802" gradientUnits="userSpaceOnUse">
<stop stop-color="#FBD08D" stop-opacity="0"/>
<stop offset="0.38" stop-color="#C89663" stop-opacity="0.2"/>
<stop offset="0.87" stop-color="#7A3E23" stop-opacity="0.5"/>
</linearGradient>
<linearGradient id="paint3_linear_129_6329" x1="229.221" y1="221.181" x2="215.291" y2="204.581" gradientUnits="userSpaceOnUse">
<stop stop-color="#FBD08D" stop-opacity="0"/>
<stop offset="0.5" stop-color="#CD6226" stop-opacity="0.1"/>
<stop offset="0.59" stop-color="#CD6226" stop-opacity="0.3"/>
<stop offset="0.73" stop-color="#CD6226" stop-opacity="0.6"/>
<stop offset="0.85" stop-color="#CD6226" stop-opacity="0.82"/>
<stop offset="0.95" stop-color="#CD6226" stop-opacity="0.95"/>
<stop offset="1" stop-color="#CD6226"/>
</linearGradient>
<linearGradient id="paint4_linear_129_6329" x1="210.241" y1="240.152" x2="210.241" y2="195.872" gradientUnits="userSpaceOnUse">
<stop stop-color="#7A3E23" stop-opacity="0.7"/>
<stop offset="0.07" stop-color="#89502E" stop-opacity="0.65"/>
<stop offset="0.57" stop-color="#DCB46B" stop-opacity="0.39"/>
<stop offset="1" stop-color="#F9D780" stop-opacity="0.3"/>
</linearGradient>
<linearGradient id="paint5_linear_129_6329" x1="237.031" y1="211.722" x2="208.931" y2="231.402" gradientUnits="userSpaceOnUse">
<stop stop-color="#FBD08D" stop-opacity="0"/>
<stop offset="0.38" stop-color="#D26E31" stop-opacity="0.09"/>
<stop offset="0.42" stop-color="#CD6226" stop-opacity="0.1"/>
<stop offset="0.53" stop-color="#CD6226" stop-opacity="0.37"/>
<stop offset="0.64" stop-color="#CD6226" stop-opacity="0.6"/>
<stop offset="0.74" stop-color="#CD6226" stop-opacity="0.77"/>
<stop offset="0.84" stop-color="#CD6226" stop-opacity="0.9"/>
<stop offset="0.93" stop-color="#CD6226" stop-opacity="0.97"/>
<stop offset="1" stop-color="#CD6226"/>
</linearGradient>
<linearGradient id="paint6_linear_129_6329" x1="190.892" y1="219.591" x2="208.802" y2="219.591" gradientUnits="userSpaceOnUse">
<stop stop-color="#FFC088" stop-opacity="0"/>
<stop offset="0.38" stop-color="#D26C31" stop-opacity="0.09"/>
<stop offset="0.42" stop-color="#CD6226" stop-opacity="0.1"/>
<stop offset="0.53" stop-color="#CD6226" stop-opacity="0.37"/>
<stop offset="0.64" stop-color="#CD6226" stop-opacity="0.6"/>
<stop offset="0.74" stop-color="#CD6226" stop-opacity="0.77"/>
<stop offset="0.84" stop-color="#CD6226" stop-opacity="0.9"/>
<stop offset="0.93" stop-color="#CD6226" stop-opacity="0.97"/>
<stop offset="1" stop-color="#CD6226"/>
</linearGradient>
<linearGradient id="paint7_linear_129_6329" x1="248.83" y1="235.921" x2="227.02" y2="295.841" gradientUnits="userSpaceOnUse">
<stop stop-color="#FBD08D" stop-opacity="0"/>
<stop offset="0.21" stop-color="#D26E31" stop-opacity="0.09"/>
<stop offset="0.24" stop-color="#CD6226" stop-opacity="0.1"/>
<stop offset="0.28" stop-color="#CD6226" stop-opacity="0.23"/>
<stop offset="0.36" stop-color="#CD6226" stop-opacity="0.43"/>
<stop offset="0.45" stop-color="#CD6226" stop-opacity="0.61"/>
<stop offset="0.54" stop-color="#CD6226" stop-opacity="0.75"/>
<stop offset="0.63" stop-color="#CD6226" stop-opacity="0.86"/>
<stop offset="0.73" stop-color="#CD6226" stop-opacity="0.94"/>
<stop offset="0.85" stop-color="#CD6226" stop-opacity="0.99"/>
<stop offset="1" stop-color="#CD6226"/>
</linearGradient>
<linearGradient id="paint8_linear_129_6329" x1="193.261" y1="256.191" x2="220.531" y2="288.691" gradientUnits="userSpaceOnUse">
<stop stop-color="#FBD08D" stop-opacity="0"/>
<stop offset="0.38" stop-color="#C89663" stop-opacity="0.2"/>
<stop offset="0.87" stop-color="#7A3E23" stop-opacity="0.5"/>
</linearGradient>
<linearGradient id="paint9_linear_129_6329" x1="227.252" y1="191.011" x2="251.302" y2="54.6214" gradientUnits="userSpaceOnUse">
<stop offset="0.02" stop-color="#FA9936" stop-opacity="0"/>
<stop offset="0.07" stop-color="#FA9D3A" stop-opacity="0.03"/>
<stop offset="0.49" stop-color="#F9BC60" stop-opacity="0.28"/>
<stop offset="0.81" stop-color="#F9D077" stop-opacity="0.44"/>
<stop offset="0.97" stop-color="#F9D780" stop-opacity="0.5"/>
</linearGradient>
<linearGradient id="paint10_linear_129_6329" x1="239.445" y1="111.437" x2="223.453" y2="92.2934" gradientUnits="userSpaceOnUse">
<stop stop-color="#F9D780" stop-opacity="0"/>
<stop offset="0.07" stop-color="#E9C474" stop-opacity="0.06"/>
<stop offset="0.4" stop-color="#AC7B48" stop-opacity="0.3"/>
<stop offset="0.69" stop-color="#874E2D" stop-opacity="0.45"/>
<stop offset="0.89" stop-color="#7A3E23" stop-opacity="0.5"/>
</linearGradient>
<linearGradient id="paint11_linear_129_6329" x1="200.1" y1="116.957" x2="189.304" y2="95.1314" gradientUnits="userSpaceOnUse">
<stop stop-color="#F9D780" stop-opacity="0"/>
<stop offset="0.07" stop-color="#E9C474" stop-opacity="0.06"/>
<stop offset="0.4" stop-color="#AC7B48" stop-opacity="0.3"/>
<stop offset="0.69" stop-color="#874E2D" stop-opacity="0.45"/>
<stop offset="0.89" stop-color="#7A3E23" stop-opacity="0.5"/>
</linearGradient>
<linearGradient id="paint12_linear_129_6329" x1="186.736" y1="160.818" x2="173.819" y2="133.782" gradientUnits="userSpaceOnUse">
<stop stop-color="#F9D780" stop-opacity="0"/>
<stop offset="0.07" stop-color="#E9C474" stop-opacity="0.06"/>
<stop offset="0.4" stop-color="#AC7B48" stop-opacity="0.3"/>
<stop offset="0.69" stop-color="#874E2D" stop-opacity="0.45"/>
<stop offset="0.89" stop-color="#7A3E23" stop-opacity="0.5"/>
</linearGradient>
<linearGradient id="paint13_linear_129_6329" x1="303.491" y1="171.571" x2="309.841" y2="207.601" gradientUnits="userSpaceOnUse">
<stop stop-color="#C43333"/>
<stop offset="0.85" stop-color="#C43333" stop-opacity="0.15"/>
<stop offset="1" stop-color="#C43333" stop-opacity="0"/>
</linearGradient>
<linearGradient id="paint14_linear_129_6329" x1="318.932" y1="222.451" x2="337.712" y2="190.271" gradientUnits="userSpaceOnUse">
<stop stop-color="#C43333"/>
<stop offset="0.15" stop-color="#C43333" stop-opacity="0.98"/>
<stop offset="0.29" stop-color="#C43333" stop-opacity="0.92"/>
<stop offset="0.43" stop-color="#C43333" stop-opacity="0.82"/>
<stop offset="0.57" stop-color="#C43333" stop-opacity="0.68"/>
<stop offset="0.71" stop-color="#C43333" stop-opacity="0.5"/>
<stop offset="0.86" stop-color="#C43333" stop-opacity="0.27"/>
<stop offset="0.99" stop-color="#C43333" stop-opacity="0.01"/>
<stop offset="1" stop-color="#C43333" stop-opacity="0"/>
</linearGradient>
<linearGradient id="paint15_linear_129_6329" x1="276.762" y1="299.791" x2="299.562" y2="243.831" gradientUnits="userSpaceOnUse">
<stop stop-color="#C43333"/>
<stop offset="0.1" stop-color="#C43333" stop-opacity="0.92"/>
<stop offset="0.29" stop-color="#C43333" stop-opacity="0.72"/>
<stop offset="0.55" stop-color="#C43333" stop-opacity="0.39"/>
<stop offset="0.82" stop-color="#C43333" stop-opacity="0"/>
</linearGradient>
<linearGradient id="paint16_linear_129_6329" x1="349.702" y1="221.822" x2="365.652" y2="256.022" gradientUnits="userSpaceOnUse">
<stop stop-color="#C43333"/>
<stop offset="0.1" stop-color="#C43333" stop-opacity="0.92"/>
<stop offset="0.29" stop-color="#C43333" stop-opacity="0.72"/>
<stop offset="0.55" stop-color="#C43333" stop-opacity="0.39"/>
<stop offset="0.82" stop-color="#C43333" stop-opacity="0"/>
</linearGradient>
<linearGradient id="paint17_linear_129_6329" x1="306.962" y1="210.301" x2="306.962" y2="262.131" gradientUnits="userSpaceOnUse">
<stop stop-color="#FBD08D" stop-opacity="0"/>
<stop offset="0.23" stop-color="#EBBE80" stop-opacity="0.06"/>
<stop offset="0.58" stop-color="#C08D5C" stop-opacity="0.23"/>
<stop offset="1" stop-color="#7A3E23" stop-opacity="0.5"/>
</linearGradient>
<linearGradient id="paint18_linear_129_6329" x1="336.742" y1="119.091" x2="269.192" y2="199.591" gradientUnits="userSpaceOnUse">
<stop stop-color="#C43333" stop-opacity="0.6"/>
<stop offset="0.06" stop-color="#C43333" stop-opacity="0.49"/>
<stop offset="0.14" stop-color="#C43333" stop-opacity="0.34"/>
<stop offset="0.24" stop-color="#C43333" stop-opacity="0.21"/>
<stop offset="0.36" stop-color="#C43333" stop-opacity="0.12"/>
<stop offset="0.49" stop-color="#C43333" stop-opacity="0.05"/>
<stop offset="0.66" stop-color="#C43333" stop-opacity="0.01"/>
<stop offset="1" stop-color="#C43333" stop-opacity="0"/>
</linearGradient>
<linearGradient id="paint19_linear_129_6329" x1="310.021" y1="306.662" x2="326.651" y2="257.052" gradientUnits="userSpaceOnUse">
<stop stop-color="#C43333"/>
<stop offset="0.1" stop-color="#C43333" stop-opacity="0.92"/>
<stop offset="0.29" stop-color="#C43333" stop-opacity="0.72"/>
<stop offset="0.55" stop-color="#C43333" stop-opacity="0.39"/>
<stop offset="0.82" stop-color="#C43333" stop-opacity="0"/>
</linearGradient>
<linearGradient id="paint20_linear_129_6329" x1="289.512" y1="266.432" x2="275.672" y2="218.202" gradientUnits="userSpaceOnUse">
<stop stop-color="#C43333"/>
<stop offset="0.09" stop-color="#C43333" stop-opacity="0.97"/>
<stop offset="0.21" stop-color="#C43333" stop-opacity="0.87"/>
<stop offset="0.36" stop-color="#C43333" stop-opacity="0.72"/>
<stop offset="0.52" stop-color="#C43333" stop-opacity="0.51"/>
<stop offset="0.7" stop-color="#C43333" stop-opacity="0.24"/>
<stop offset="0.83" stop-color="#C43333" stop-opacity="0"/>
</linearGradient>
<linearGradient id="paint21_linear_129_6329" x1="299.441" y1="281.372" x2="359.701" y2="213.962" gradientUnits="userSpaceOnUse">
<stop stop-color="#C43333"/>
<stop offset="0.11" stop-color="#C43333" stop-opacity="0.97"/>
<stop offset="0.26" stop-color="#C43333" stop-opacity="0.87"/>
<stop offset="0.44" stop-color="#C43333" stop-opacity="0.71"/>
<stop offset="0.64" stop-color="#C43333" stop-opacity="0.49"/>
<stop offset="0.85" stop-color="#C43333" stop-opacity="0.22"/>
<stop offset="1" stop-color="#C43333" stop-opacity="0"/>
</linearGradient>
<linearGradient id="paint22_linear_129_6329" x1="295.041" y1="259.102" x2="343.511" y2="210.632" gradientUnits="userSpaceOnUse">
<stop stop-color="#C43333"/>
<stop offset="0.09" stop-color="#C43333" stop-opacity="0.97"/>
<stop offset="0.21" stop-color="#C43333" stop-opacity="0.87"/>
<stop offset="0.36" stop-color="#C43333" stop-opacity="0.72"/>
<stop offset="0.52" stop-color="#C43333" stop-opacity="0.51"/>
<stop offset="0.7" stop-color="#C43333" stop-opacity="0.24"/>
<stop offset="0.83" stop-color="#C43333" stop-opacity="0"/>
</linearGradient>
</defs>
</svg>
