<svg width="259" height="259" viewBox="0 0 259 259" fill="none" xmlns="http://www.w3.org/2000/svg">
<mask id="mask0_129_6196" style="mask-type:luminance" maskUnits="userSpaceOnUse" x="0" y="0" width="259" height="259">
<path d="M258.36 20V238.38C258.358 242.375 257.16 246.279 254.92 249.587C252.679 252.895 249.499 255.456 245.79 256.94C243.766 257.756 241.619 258.225 239.44 258.33C239.09 258.33 238.75 258.33 238.44 258.33H20C14.6957 258.33 9.60852 256.223 5.85779 252.472C2.10706 248.721 0 243.634 0 238.33V20C0 14.6957 2.10706 9.60858 5.85779 5.85785C9.60852 2.10712 14.6957 0 20 0H238.39C243.689 0.0079487 248.768 2.1186 252.513 5.86847C256.257 9.61834 258.36 14.7009 258.36 20Z" fill="white"/>
</mask>
<g mask="url(#mask0_129_6196)">
<path d="M105.69 229.17C105.8 231.3 108.23 231.17 108.23 231.17C108.99 229.29 112.94 226.23 111.91 223.39C110.91 220.73 106.74 221.91 105.68 223.6L106.06 224.34C106.51 227.29 105.58 227.04 105.69 229.17Z" fill="#2B662B"/>
<path d="M93.59 163.82C93.76 164.36 93.94 164.93 94.12 165.52C97.99 178.25 102.99 200.13 100.74 223.36C100.62 224.67 100.47 225.97 100.3 227.29C100.315 227.84 100.524 228.368 100.89 228.779C101.256 229.191 101.755 229.46 102.3 229.54C104.65 229.79 104.91 227.45 105.42 225.6C105.558 225.158 105.756 224.737 106.01 224.35C107.08 222.65 109.12 221.06 110.08 223.71C111.08 226.56 108.95 229.3 108.18 231.18C108.052 231.465 107.971 231.769 107.94 232.08C107.77 233.91 111.37 236.16 114.82 231.08C118.27 226 115.44 218.2 115.44 218.2C112.02 189.23 97.95 169.27 93.59 163.82Z" fill="#57BC57"/>
<path d="M93.59 163.82C93.76 164.36 93.94 164.93 94.12 165.52C97.99 178.25 102.99 200.13 100.74 223.36C100.62 224.67 100.47 225.97 100.3 227.29C100.315 227.84 100.524 228.368 100.89 228.779C101.256 229.191 101.755 229.46 102.3 229.54C104.65 229.79 104.91 227.45 105.42 225.6C105.558 225.158 105.756 224.737 106.01 224.35C107.08 222.65 109.12 221.06 110.08 223.71C111.08 226.56 108.95 229.3 108.18 231.18C108.052 231.465 107.971 231.769 107.94 232.08C107.77 233.91 111.37 236.16 114.82 231.08C118.27 226 115.44 218.2 115.44 218.2C112.02 189.23 97.95 169.27 93.59 163.82Z" fill="url(#paint0_linear_129_6196)"/>
<path d="M102.47 215.39C102.47 215.39 109.77 214.89 115.16 214.3C115.285 214.285 115.406 214.246 115.515 214.183C115.624 214.12 115.719 214.035 115.794 213.933C115.869 213.832 115.923 213.717 115.951 213.594C115.98 213.471 115.983 213.344 115.96 213.22C114.96 207.81 109.46 181.12 95.0499 165.37L99.34 214.79L102.47 215.39Z" fill="#282828"/>
<path d="M-10.5001 243.72C-10.1201 244.33 -8.79008 244.88 -7.40008 245.31C-6.98008 245.44 -6.55008 245.56 -6.15007 245.66C-4.80008 246.01 -3.67009 246.22 -3.67009 246.22C3.38991 247.16 7.32996 247.22 17.51 246.79C47.51 245.43 52.51 229.63 52.51 229.63L39.9899 224.42L32.6398 221.36L29.0599 219.88L15.3999 214.68L14.7698 220.14C11.1098 233.85 -6.53008 240.14 -6.53008 240.14C-10.3401 241.25 -11.3601 242.31 -10.5001 243.72Z" fill="#57BC57"/>
<path d="M-10.5001 243.72C-10.1201 244.33 -8.79008 244.88 -7.40008 245.31C-6.98008 245.44 -6.55008 245.56 -6.15007 245.66C-4.80008 246.01 -3.67009 246.22 -3.67009 246.22C3.38991 247.16 7.32996 247.22 17.51 246.79C47.51 245.43 52.51 229.63 52.51 229.63L39.9899 224.42L32.6398 221.36L29.0599 219.88L15.3999 214.68L14.7698 220.14C11.1098 233.85 -6.53008 240.14 -6.53008 240.14C-10.3401 241.25 -11.3601 242.31 -10.5001 243.72Z" fill="url(#paint1_linear_129_6196)"/>
<path d="M-6.13 245.66C-4.78 246.01 -3.65002 246.22 -3.65002 246.22C3.40998 247.16 7.34991 247.22 17.5299 246.79C47.5299 245.43 52.5299 229.63 52.5299 229.63L40.01 224.42C29.85 245.66 -6.13 245.66 -6.13 245.66Z" fill="#FBD08D"/>
<path opacity="0.6" d="M-6.13 245.66C-4.78 246.01 -3.65002 246.22 -3.65002 246.22C3.40998 247.16 7.34991 247.22 17.5299 246.79C47.5299 245.43 52.5299 229.63 52.5299 229.63L40.01 224.42C29.85 245.66 -6.13 245.66 -6.13 245.66Z" fill="url(#paint2_linear_129_6196)"/>
<path d="M33.1999 117.82L19.5699 123.25C19.2354 123.376 18.9621 123.626 18.8059 123.948C18.6497 124.269 18.6225 124.639 18.73 124.98L24.6599 137.53L32.4499 132.44C32.4758 132.423 32.498 132.401 32.5152 132.375C32.5324 132.349 32.5442 132.32 32.5499 132.29L33.3499 117.91C33.3506 117.892 33.3464 117.874 33.3379 117.859C33.3293 117.843 33.3168 117.83 33.3015 117.821C33.2862 117.811 33.2687 117.807 33.2508 117.806C33.233 117.806 33.2154 117.811 33.1999 117.82Z" fill="#3E241A"/>
<path d="M24.67 137.41L12.33 145.35C12.0233 145.533 11.7997 145.829 11.7065 146.174C11.6132 146.519 11.6575 146.887 11.83 147.2L19.53 157.66L26.72 151.92C26.7433 151.898 26.7615 151.872 26.7736 151.842C26.7857 151.813 26.7913 151.782 26.79 151.75L24.79 137.48C24.7829 137.455 24.7666 137.434 24.7442 137.421C24.7218 137.408 24.6952 137.404 24.67 137.41Z" fill="#3E241A"/>
<path d="M19.5899 157.56L8.23994 166.86C7.95982 167.081 7.77477 167.401 7.72272 167.754C7.67068 168.107 7.75554 168.467 7.95991 168.76L16.7099 178.14C16.7099 178.14 16.8099 178.14 16.8599 178.14L23.2899 171.74C23.3101 171.717 23.3251 171.69 23.3337 171.66C23.3423 171.631 23.3445 171.6 23.3399 171.57L19.76 157.57C19.7519 157.555 19.74 157.542 19.7257 157.533C19.7113 157.524 19.6947 157.518 19.6777 157.517C19.6606 157.516 19.6436 157.52 19.6282 157.527C19.6129 157.535 19.5997 157.546 19.5899 157.56Z" fill="#3E241A"/>
<path d="M16.51 177.88L5.70992 188.12C5.44169 188.354 5.27506 188.683 5.24519 189.037C5.21533 189.392 5.32455 189.744 5.54988 190.02L15.0399 198.42C15.0399 198.42 15.1399 198.42 15.1899 198.42L21.1899 191.49C21.2048 191.464 21.2127 191.435 21.2127 191.405C21.2127 191.375 21.2048 191.346 21.1899 191.32L16.6099 177.93C16.6001 177.912 16.5854 177.898 16.5676 177.889C16.5498 177.881 16.5297 177.877 16.51 177.88Z" fill="#3E241A"/>
<path d="M15.13 198.33L4.63 209.67C4.50298 209.786 4.40143 209.928 4.33203 210.085C4.26263 210.243 4.22681 210.413 4.22681 210.585C4.22681 210.757 4.26263 210.927 4.33203 211.085C4.40143 211.242 4.50298 211.384 4.63 211.5L15.0699 218.13C15.0903 218.149 15.1171 218.16 15.1449 218.16C15.1727 218.16 15.1996 218.149 15.22 218.13L21.01 210.65C21.0272 210.625 21.0364 210.595 21.0364 210.565C21.0364 210.535 21.0272 210.505 21.01 210.48L15.3199 198.38C15.2799 198.26 15.19 198.26 15.13 198.33Z" fill="#3E241A"/>
<path d="M20.37 223.3C20.37 223.3 21.0399 248.16 29.5599 264.85H60.7999C60.7999 264.85 61.3499 258 63.2699 246.54C63.5299 244.94 63.8299 243.36 64.1599 241.82C64.1599 241.75 64.1599 241.67 64.1599 241.6C64.1647 241.67 64.1647 241.74 64.1599 241.81C64.4699 243.36 64.74 244.93 64.98 246.5C66.0371 252.568 66.7052 258.697 66.98 264.85H91.71C99.92 248.85 100.61 224.04 100.61 224.04L66.61 227.7C66.85 227.08 67.1 226.49 67.36 225.95L20.37 223.3Z" fill="#282828"/>
<path d="M20.5 225.94C20.69 228.86 21.12 233.94 22.09 239.83C35.7234 241.342 49.433 242.063 63.1499 241.99C63.1499 241.74 63.2299 241.5 63.2699 241.26C63.5499 239.58 63.86 237.93 64.2 236.32C64.53 237.93 64.8099 239.57 65.0599 241.22L65.1799 241.97C80.1799 241.87 92.41 240.97 98.98 240.36C99.7721 235.455 100.306 230.511 100.58 225.55C87.5 227.94 54.76 232.36 20.5 225.94Z" fill="url(#paint3_linear_129_6196)"/>
<path opacity="0.7" d="M67.1599 241.64L64.24 241.81C64.55 243.36 64.8199 244.93 65.0599 246.5C66.1171 252.568 66.7851 258.697 67.0599 264.85H75.35L72.6 240.94H72.3899L67.1599 241.64Z" fill="#212121"/>
<path opacity="0.7" d="M52.85 264.82H60.7999C60.7999 264.82 61.3499 257.97 63.2699 246.51C63.5299 244.91 63.8299 243.33 64.1599 241.79L61.2899 241.96L55.8199 240.96L52.85 264.82Z" fill="#212121"/>
<path d="M55.8199 240.94C59.8368 242.434 64.1799 242.827 68.3999 242.08C69.8173 241.882 71.2025 241.499 72.5199 240.94C72.5899 240.94 72.5199 240.82 72.5199 240.83H72.37C66.9192 241.42 61.4207 241.42 55.9699 240.83H55.8299C55.7699 240.82 55.7399 240.93 55.8199 240.94Z" fill="#191919"/>
<path d="M17.0599 225.37C53.6899 232.89 89.19 227.63 101.48 225.28C102.114 225.157 102.685 224.817 103.095 224.319C103.506 223.821 103.73 223.195 103.73 222.55C103.92 182.15 96.09 168.08 95.6 166.41C95.17 164.97 94.8999 164.19 94.8999 164.19L29.7999 150.19L21.7999 147.96C21.1399 150.57 13.8699 173.67 14.7999 222.64C14.8021 223.286 15.0286 223.912 15.4408 224.41C15.853 224.908 16.4253 225.247 17.0599 225.37Z" fill="#282828"/>
<mask id="mask1_129_6196" style="mask-type:luminance" maskUnits="userSpaceOnUse" x="14" y="147" width="90" height="83">
<path d="M17.0599 225.37C53.6899 232.89 89.19 227.63 101.48 225.28C102.114 225.157 102.685 224.817 103.095 224.319C103.506 223.821 103.73 223.195 103.73 222.55C103.92 182.15 96.09 168.08 95.6 166.41C95.17 164.97 94.8999 164.19 94.8999 164.19L29.7999 150.19L21.7999 147.96C21.1399 150.57 13.8699 173.67 14.7999 222.64C14.8021 223.286 15.0286 223.912 15.4408 224.41C15.853 224.908 16.4253 225.247 17.0599 225.37Z" fill="white"/>
</mask>
<g mask="url(#mask1_129_6196)">
<path d="M76.1599 193.13C76.1599 193.13 77.1599 215.46 77.0599 230.72L76.1599 193.13Z" fill="#212121"/>
<path d="M77.0599 231.3C76.9061 231.3 76.7585 231.239 76.6498 231.13C76.541 231.021 76.48 230.874 76.48 230.72C76.56 215.64 75.5899 193.38 75.5799 193.15C75.5773 193.074 75.5896 192.998 75.6163 192.926C75.643 192.855 75.6836 192.79 75.7356 192.734C75.7876 192.678 75.85 192.633 75.9194 192.602C75.9888 192.57 76.0637 192.552 76.1399 192.55C76.2156 192.546 76.2913 192.557 76.3627 192.583C76.434 192.608 76.4995 192.648 76.5554 192.699C76.6113 192.75 76.6564 192.812 76.6881 192.881C76.7198 192.95 76.7374 193.024 76.74 193.1C76.74 193.33 77.7399 215.62 77.6399 230.73C77.6399 230.806 77.6248 230.881 77.5956 230.95C77.5663 231.02 77.5235 231.083 77.4695 231.137C77.4155 231.19 77.3514 231.231 77.2811 231.259C77.2108 231.287 77.1356 231.301 77.0599 231.3Z" fill="#212121"/>
</g>
<path d="M88.76 172.71L92.4399 185.04L76.34 198.74L75.6 173.86L88.76 172.71Z" fill="#333333"/>
<path d="M75.6 172.11L76.34 198.74L57.13 185.43L60.1599 172.71L75.6 172.11Z" fill="#333333"/>
<path d="M80.95 174.15L83.63 183.48L93.96 174.29L93.36 166.13C91.65 166.38 89.3 164.33 87.45 164.45C85.971 164.765 84.6443 165.577 83.6899 166.75L80.95 174.15Z" fill="#383838"/>
<path d="M55.34 173.7L68.1799 183.48L70.51 173.48L67.7699 166.08C67.7528 165.958 67.7261 165.838 67.6899 165.72C66.1299 162.48 60.8199 161.47 56.4199 163.8L55.34 173.7Z" fill="#383838"/>
<path d="M57.48 163.49L65.36 178.21L70.5199 187.85L76.34 198.74L81.8099 187.28L86.99 176.4L92.72 164.41L90.88 163.77L79.9399 162.46L75.71 161.95L73.47 162.14L57.48 163.49Z" fill="#D6D6D6"/>
<path d="M70.5199 187.82L76.34 198.71L81.7999 187.25L78.71 178.25C78.71 178.25 74.7099 176.64 74.5299 176.91C74.3499 177.18 73.6499 178.37 73.6499 178.37L70.5199 187.82Z" fill="#08605F"/>
<path d="M70.5199 187.82L76.34 198.71L81.7999 187.25L78.71 178.25C78.71 178.25 74.7099 176.64 74.5299 176.91C74.3499 177.18 73.6499 178.37 73.6499 178.37L70.5199 187.82Z" fill="url(#paint4_linear_129_6196)"/>
<path d="M67.59 167.82L68.37 171.96L73.6499 178.38C75.308 178.167 76.9836 178.127 78.6499 178.26L83.5699 171.17C83.5699 171.17 83.57 168.85 83.5 166.73C78.5536 166.694 73.6128 166.387 68.7 165.81L67.59 167.82Z" fill="#08605F"/>
<path d="M67.59 167.82L68.37 171.96L73.6499 178.38C75.308 178.167 76.9836 178.127 78.6499 178.26L83.5699 171.17C83.5699 171.17 83.57 168.85 83.5 166.73C78.5536 166.694 73.6128 166.387 68.7 165.81L67.59 167.82Z" fill="url(#paint5_linear_129_6196)"/>
<path d="M77.0599 165.35C77.0599 165.35 82.77 168.28 86.99 176.4L92.72 164.4L90.88 163.76L79.95 162.46C78.9216 163.356 77.956 164.322 77.0599 165.35Z" fill="#FFF3E9"/>
<path d="M57.48 163.49L65.36 178.21C68.62 168.83 74.7899 165.21 74.7899 165.21C74.7899 165.21 74.2 163.79 73.47 162.21L57.48 163.49Z" fill="#FFF3E9"/>
<path d="M77.0599 165.35C77.0599 165.35 82.77 168.28 86.99 176.4L92.72 164.4L90.88 163.76L79.95 162.46C78.9216 163.356 77.956 164.322 77.0599 165.35Z" fill="url(#paint6_linear_129_6196)"/>
<path d="M57.48 163.49L65.36 178.21C68.62 168.83 74.7899 165.21 74.7899 165.21C74.7899 165.21 74.2 163.79 73.47 162.21L57.48 163.49Z" fill="url(#paint7_linear_129_6196)"/>
<path d="M23.6399 148.14C27.2399 151.14 29.36 153.6 33.47 155.73C33.81 155.92 34.15 156.09 34.47 156.26C41.4438 159.657 48.8091 162.182 56.3999 163.78C60.3399 164.64 64.1399 165.26 67.6599 165.7L68.73 165.83C73.6395 166.407 78.5768 166.714 83.5199 166.75H83.6599C86.3999 166.75 87.98 166.67 87.98 166.67C89.83 166.56 91.61 166.38 93.33 166.13C93.98 166.04 94.63 165.94 95.26 165.83C96.54 165.61 97.78 165.36 98.99 165.07C130.85 157.5 137.69 127.54 132.6 116.89C127.6 106.54 110.86 106.29 106.99 106.37C107.032 106.152 107.059 105.931 107.07 105.71C107.42 101.645 106.282 97.5911 103.87 94.301C101.457 91.0109 97.9321 88.708 93.95 87.8199C93.1997 87.6466 92.4376 87.5297 91.6699 87.4699C89.1152 87.2506 86.5443 87.6206 84.1552 88.5516C81.766 89.4827 79.6226 90.9498 77.8899 92.8399C76.4912 90.6886 74.6185 88.886 72.4154 87.5704C70.2123 86.2548 67.7373 85.461 65.1799 85.2499C57.9399 84.6399 50.42 88.3799 47.51 94.6099C46.6374 96.33 45.866 98.0997 45.2 99.9099C44.56 101.58 43.85 103.62 43.2 106L43.11 106.33C43.11 106.33 33.5899 110.76 26.0199 133.17C25.5399 134.57 26.7899 144.98 23.6399 148.14Z" fill="url(#paint8_linear_129_6196)"/>
<path d="M100.87 105.18C100.749 106.638 100.327 108.054 99.63 109.34C99.4 109.79 97.54 108.23 97.24 108.63C96.94 109.03 98.15 111.47 97.76 111.84C97.015 112.577 96.1659 113.2 95.24 113.69C94.58 114.05 92.8799 111.11 92.1499 111.31C91.4199 111.51 91.5299 114.88 90.6799 114.9C90.2571 114.93 89.8327 114.93 89.4099 114.9C88.0215 114.785 86.6694 114.398 85.4308 113.76C84.1922 113.123 83.0915 112.247 82.1915 111.184C81.2916 110.12 80.61 108.89 80.1859 107.563C79.7618 106.236 79.6035 104.838 79.72 103.45C79.836 102.206 80.1748 100.994 80.72 99.87C80.96 99.35 83.4899 101.2 83.8099 100.72C84.1299 100.24 82.2699 97.42 82.6699 97C83.064 96.5728 83.4921 96.1782 83.9499 95.82C84.7899 95.2 87.7899 98.92 88.7999 98.56C89.8099 98.2 88.5599 93.82 89.5199 93.75C90.069 93.7051 90.6208 93.7051 91.1699 93.75C93.9699 93.9845 96.5629 95.319 98.381 97.4613C100.199 99.6037 101.094 102.379 100.87 105.18Z" fill="#282828"/>
<path d="M93.33 107.02L95.24 113.69C93.8325 114.437 92.2724 114.851 90.6799 114.9L80.6799 99.84C81.1786 98.7766 81.855 97.806 82.6799 96.97L86.08 100.52C86.1402 100.578 86.2193 100.613 86.3029 100.618C86.3864 100.622 86.4689 100.597 86.5354 100.546C86.6019 100.496 86.6481 100.423 86.6654 100.341C86.6828 100.259 86.6702 100.173 86.63 100.1L83.95 95.82C85.5683 94.6076 87.5025 93.8887 89.5199 93.75L99.62 109.37C99.1285 110.294 98.4978 111.137 97.75 111.87L94.0399 106.7C93.9816 106.636 93.9048 106.593 93.8203 106.575C93.7358 106.558 93.6479 106.568 93.5692 106.603C93.4905 106.639 93.425 106.698 93.3821 106.773C93.3391 106.848 93.3209 106.934 93.33 107.02Z" fill="#FFF3E9"/>
<path d="M110.77 129.18C110.966 129.245 111.176 129.26 111.38 129.223C111.583 129.185 111.774 129.097 111.935 128.967C112.095 128.836 112.22 128.667 112.298 128.475C112.376 128.284 112.404 128.075 112.38 127.87C112.13 125.79 111.26 122.33 108.38 123.33C105.06 124.44 107.95 128.24 110.77 129.18Z" fill="#281911"/>
<path d="M58.37 80.8199C60.53 80.1899 65.93 79.0699 70.72 81.7599C70.8101 81.8183 70.9153 81.8489 71.0226 81.8482C71.1299 81.8475 71.2346 81.8154 71.3239 81.7559C71.4132 81.6963 71.4831 81.612 71.5251 81.5132C71.567 81.4144 71.5792 81.3055 71.56 81.1999C71.16 78.9599 69.78 74.3499 65.19 74.6099C63.5243 74.6327 61.9073 75.175 60.5646 76.1609C59.2219 77.1469 58.2204 78.5275 57.7 80.1099C57.6668 80.205 57.6604 80.3074 57.6814 80.4059C57.7025 80.5044 57.7503 80.5952 57.8194 80.6685C57.8885 80.7417 57.9763 80.7946 58.0734 80.8213C58.1705 80.848 58.2732 80.8475 58.37 80.8199Z" fill="#281911"/>
<path d="M96.1899 83.3699C94.1899 82.3699 89.0299 80.3699 83.8599 82.2399C83.7624 82.2822 83.6546 82.2953 83.5497 82.2776C83.4449 82.2599 83.3474 82.2122 83.2691 82.1402C83.1908 82.0683 83.1349 81.9752 83.1085 81.8722C83.082 81.7692 83.086 81.6607 83.1199 81.5599C83.8899 79.4199 86.0199 75.0999 90.4999 76.1099C92.1406 76.4158 93.6445 77.2272 94.8011 78.4304C95.9577 79.6336 96.709 81.1684 96.9499 82.8199C96.9544 82.913 96.9357 83.0057 96.8953 83.0896C96.855 83.1736 96.7943 83.2461 96.7188 83.3008C96.6434 83.3554 96.5556 83.3903 96.4632 83.4024C96.3708 83.4145 96.2769 83.4033 96.1899 83.3699Z" fill="#281911"/>
<path d="M21.8099 148.01C25.4025 151.007 29.3165 153.596 33.48 155.73C33.24 155.35 32.98 154.97 32.71 154.6C31.3999 152.801 30.2011 150.925 29.12 148.98C25.64 142.91 26.0399 133.13 26.0399 133.13V133.22C24.3595 138.069 22.9474 143.006 21.8099 148.01Z" fill="#08605F"/>
<path d="M73.48 102.97C73.3612 104.423 72.9424 105.836 72.25 107.12C71.98 107.64 70.1399 106.26 69.7899 106.71C69.4399 107.16 70.71 109.3 70.37 109.63C69.625 110.366 68.776 110.99 67.85 111.48C67.18 111.84 64.85 108.97 64.1 109.17C63.35 109.37 64.0999 112.67 63.2899 112.69C62.8671 112.72 62.4427 112.72 62.0199 112.69C60.6311 112.574 59.2787 112.185 58.0401 111.547C56.8014 110.908 55.7008 110.031 54.8009 108.967C53.9011 107.903 53.2196 106.672 52.7957 105.344C52.3717 104.017 52.2135 102.619 52.33 101.23C52.4303 99.9893 52.752 98.7768 53.2799 97.6498C53.4999 97.1898 56.33 98.9998 56.6 98.5698C56.87 98.1398 54.78 95.2498 55.23 94.7798C55.6432 94.3501 56.0914 93.9554 56.57 93.5998C57.3 93.0598 60.57 96.8098 61.46 96.4698C62.35 96.1298 61.0299 91.6098 62.1399 91.5298C62.689 91.4849 63.2409 91.4849 63.7899 91.5298C66.591 91.7641 69.1847 93.1004 71.0015 95.2453C72.8183 97.3901 73.7097 100.168 73.48 102.97Z" fill="#282828"/>
<path d="M65.95 104.82L67.86 111.5C66.4525 112.247 64.8924 112.661 63.2999 112.71L53.2999 97.64C53.7986 96.5766 54.4749 95.606 55.2999 94.77L58.71 98.33C58.7657 98.4016 58.8475 98.4482 58.9375 98.4594C59.0275 98.4707 59.1183 98.4457 59.1899 98.39C59.2615 98.3343 59.3081 98.2524 59.3193 98.1624C59.3306 98.0724 59.3057 97.9816 59.25 97.91L56.6399 93.59C58.2582 92.3776 60.1926 91.6587 62.21 91.52L72.3199 107.14C71.8225 108.066 71.1887 108.912 70.4399 109.65L66.73 104.48C66.6849 104.377 66.6005 104.295 66.4955 104.254C66.3905 104.213 66.2734 104.215 66.1699 104.26C66.0665 104.305 65.9852 104.389 65.944 104.494C65.9027 104.599 65.9049 104.717 65.95 104.82Z" fill="#FFF3E9"/>
<path d="M79.95 105.12C79.95 105.12 77.3499 103.57 72.7699 104.12L72.5599 102.2C77.8599 101.63 80.85 103.45 80.97 103.53L79.97 105.17L80.48 104.35L79.95 105.12Z" fill="#282828"/>
<path d="M67.3499 134.47C70.4799 134.38 74.2799 135.8 74.6499 135.29C74.956 134.783 75.0829 134.188 75.01 133.6C74.9871 130.796 75.1474 127.993 75.49 125.21C76.28 122.1 73.01 121.86 73.01 121.86C70.5859 121.553 68.1251 121.969 65.9367 123.056C63.7484 124.143 61.9301 125.853 60.7099 127.97C60.4999 128.33 62.8099 134.59 67.3499 134.47Z" fill="#530007"/>
<path d="M67.25 137.51C70.82 137.57 73.6899 137.04 74.6499 135.29C74.6499 135.29 72.7599 128.35 60.7099 127.98C60.5027 128.351 60.319 128.736 60.1599 129.13C57.8399 134.82 62.71 137.42 67.25 137.51Z" fill="#B23F74"/>
<path d="M44.5899 115.07C44.8253 117.075 44.7102 119.105 44.25 121.07C44.1946 121.256 44.0812 121.419 43.9265 121.536C43.7718 121.653 43.5838 121.717 43.3899 121.72C42.3899 121.72 40.63 121.98 40.5 123.35C40.2804 125.426 40.1736 127.512 40.1799 129.6H37.4599C37.4599 129.6 33.53 114.96 43.61 114.21C43.8535 114.196 44.0926 114.279 44.2759 114.439C44.4592 114.6 44.572 114.827 44.5899 115.07Z" fill="#282828"/>
<path d="M43.65 163.89C43.4924 163.889 43.3395 163.836 43.2161 163.738C43.0927 163.64 43.006 163.503 42.97 163.35C40.48 152.8 38.3 128.28 38.28 128.03C38.2703 127.938 38.2795 127.844 38.3067 127.756C38.3339 127.667 38.3788 127.585 38.4385 127.514C38.4983 127.443 38.5716 127.385 38.6543 127.343C38.7371 127.301 38.8274 127.276 38.92 127.27C39.1052 127.256 39.2885 127.315 39.4306 127.435C39.5727 127.554 39.6622 127.725 39.68 127.91C39.68 128.15 41.87 152.58 44.34 163.03C44.3607 163.12 44.3633 163.213 44.3478 163.304C44.3323 163.395 44.2991 163.482 44.2498 163.56C44.2005 163.638 44.1363 163.706 44.0608 163.759C43.9854 163.812 43.9001 163.85 43.81 163.87L43.65 163.89Z" fill="#282828"/>
<path d="M144.69 171.34L141.95 186.08C141.843 186.664 141.513 187.184 141.03 187.53L135.79 191.28L139.52 171.34C139.579 171.032 139.569 170.715 139.491 170.411C139.413 170.108 139.27 169.825 139.07 169.583C138.87 169.342 138.62 169.147 138.336 169.013C138.053 168.88 137.743 168.81 137.43 168.81H142.62C142.932 168.813 143.239 168.885 143.52 169.02C143.801 169.155 144.049 169.35 144.246 169.591C144.444 169.832 144.586 170.114 144.662 170.416C144.739 170.718 144.749 171.034 144.69 171.34Z" fill="#FF9F00"/>
<path d="M141.86 170.28H109.86C109.388 170.272 108.928 170.431 108.562 170.729C108.196 171.028 107.947 171.446 107.86 171.91L100.05 213.82C99.995 214.112 100.006 214.412 100.081 214.699C100.157 214.986 100.295 215.253 100.487 215.48C100.678 215.707 100.918 215.888 101.188 216.011C101.459 216.134 101.753 216.195 102.05 216.19H133.28L133.58 214.59L133.75 213.68V213.41L141.29 173.15L141.86 170.28Z" fill="#CCCCCC"/>
<path d="M140.8 170.28H108.8C108.328 170.272 107.868 170.431 107.502 170.729C107.136 171.028 106.887 171.446 106.8 171.91L98.95 213.82C98.895 214.112 98.9057 214.412 98.9812 214.699C99.0568 214.986 99.1954 215.253 99.3869 215.48C99.5784 215.707 99.8181 215.888 100.088 216.011C100.359 216.134 100.653 216.195 100.95 216.19H132.17L132.48 214.6L132.7 213.42L140.24 173.16L140.8 170.28Z" fill="#E6E6E6"/>
<path d="M139.5 171.34L131.15 215.9C131.061 216.386 130.804 216.826 130.424 217.142C130.044 217.458 129.564 217.631 129.07 217.63H97.6C97.2867 217.631 96.9771 217.562 96.6933 217.43C96.4094 217.298 96.1582 217.104 95.9577 216.863C95.7571 216.623 95.6121 216.341 95.533 216.038C95.4539 215.735 95.4427 215.418 95.5 215.11L103.85 170.55C103.943 170.062 104.204 169.622 104.588 169.306C104.971 168.99 105.453 168.818 105.95 168.82H137.41C137.722 168.82 138.031 168.89 138.314 169.023C138.596 169.156 138.846 169.35 139.045 169.59C139.245 169.831 139.389 170.112 139.468 170.414C139.546 170.717 139.557 171.033 139.5 171.34Z" fill="#FFC928"/>
<path d="M114.031 180.904C115.242 180.005 115.625 178.471 114.887 177.478C114.15 176.484 112.571 176.408 111.36 177.307C110.15 178.206 109.767 179.74 110.504 180.733C111.242 181.726 112.821 181.802 114.031 180.904Z" fill="#1BBCFE"/>
<path d="M108.13 176.62C107.432 176.636 106.759 176.884 106.216 177.323C105.673 177.763 105.291 178.37 105.13 179.05C105.067 179.345 105.071 179.651 105.142 179.945C105.214 180.238 105.351 180.512 105.544 180.745C105.736 180.977 105.979 181.164 106.254 181.289C106.528 181.415 106.828 181.477 107.13 181.47H109.66L110.66 176.62H108.13Z" fill="#A259FF"/>
<path d="M109.09 171.76C108.392 171.778 107.72 172.026 107.177 172.465C106.635 172.905 106.253 173.511 106.09 174.19C106.025 174.486 106.028 174.793 106.098 175.088C106.169 175.382 106.306 175.657 106.499 175.891C106.691 176.125 106.935 176.313 107.21 176.439C107.486 176.565 107.787 176.627 108.09 176.62H110.61L111.61 171.76H109.09Z" fill="#F24F1E"/>
<path d="M114.13 171.76C114.433 171.753 114.734 171.815 115.009 171.941C115.285 172.067 115.528 172.254 115.721 172.488C115.914 172.722 116.051 172.997 116.121 173.292C116.192 173.587 116.195 173.894 116.13 174.19C115.966 174.868 115.583 175.473 115.041 175.912C114.499 176.351 113.827 176.6 113.13 176.62H110.6L111.6 171.76H114.13Z" fill="#FF7161"/>
<path d="M107.17 181.47C106.473 181.49 105.801 181.738 105.259 182.178C104.717 182.617 104.334 183.222 104.17 183.9C104.105 184.196 104.108 184.503 104.178 184.798C104.249 185.093 104.386 185.367 104.579 185.601C104.771 185.836 105.015 186.023 105.291 186.149C105.566 186.275 105.867 186.337 106.17 186.33C106.868 186.313 107.541 186.066 108.084 185.626C108.627 185.187 109.009 184.58 109.17 183.9L109.65 181.47H107.17Z" fill="#0ACE82"/>
<path d="M119.41 129.64C119.203 129.654 118.996 129.615 118.809 129.526C118.622 129.438 118.46 129.304 118.339 129.136C118.218 128.968 118.141 128.771 118.117 128.566C118.093 128.36 118.121 128.152 118.2 127.96C119 126.01 120.75 122.9 123.31 124.65C126.16 126.59 122.38 129.49 119.41 129.64Z" fill="#281911"/>
<path d="M90.76 189.65C90.76 189.65 94.37 186.78 100.83 186.78L99.83 191.78C99.83 191.78 105.42 191.48 108.22 190.36C108.457 190.291 108.706 190.275 108.949 190.313C109.193 190.351 109.426 190.442 109.63 190.579C109.835 190.716 110.008 190.897 110.135 191.107C110.263 191.318 110.343 191.555 110.37 191.8C110.73 193.71 108.58 196.11 106.66 196.71C106.66 196.71 108.66 199.46 104.74 201.71C104.74 201.71 104.4 206.01 98.5599 206.3C91.2899 206.66 87.5 202.55 87.5 202.55L90.76 189.65Z" fill="#57BC57"/>
<path d="M35.3299 192.39C43.0199 197.26 52.3299 198.04 61.2099 199.86C67.6499 201.22 80.7999 196.3 81.2099 202.86C81.1399 201.72 87.97 204.48 87.97 204.48C87.97 204.48 88.06 204.62 87.97 204.62C85.69 204.77 83.4 204.76 81.11 204.83C70.764 204.78 60.4813 203.213 50.59 200.18C45.17 198.33 39.71 196.18 35.23 192.47C35.17 192.47 35.2299 192.31 35.3199 192.36L35.3299 192.39Z" fill="#212121"/>
<path d="M90.76 189.65C90.76 189.65 94.37 186.78 100.83 186.78L99.83 191.78C99.83 191.78 105.42 191.48 108.22 190.36C108.457 190.291 108.706 190.275 108.949 190.313C109.193 190.351 109.426 190.442 109.63 190.579C109.835 190.716 110.008 190.897 110.135 191.107C110.263 191.318 110.343 191.555 110.37 191.8C110.73 193.71 108.58 196.11 106.66 196.71C106.66 196.71 108.66 199.46 104.74 201.71C104.74 201.71 104.4 206.01 98.5599 206.3C91.2899 206.66 87.5 202.55 87.5 202.55L90.76 189.65Z" fill="url(#paint9_linear_129_6196)"/>
<path d="M35.2799 192.45C52.9599 203.27 87.98 204.58 87.98 204.58C90.85 197.58 90.84 187.22 90.84 187.22C57.08 184.46 37.0399 174.72 37.0399 174.72L35.2799 192.45Z" fill="#282828"/>
<path d="M106.72 196.82C105.22 198.82 101.41 199.33 99.6499 197.54C102.001 197.422 104.34 197.135 106.65 196.68C106.74 196.68 106.75 196.77 106.65 196.82H106.72Z" fill="#285B28"/>
<path d="M104.81 201.82C103.61 203.92 99.9899 204.23 98.5599 202.35C100.646 202.381 102.728 202.159 104.76 201.69C104.84 201.69 104.86 201.77 104.76 201.82H104.81Z" fill="#285B28"/>
<path d="M284.85 239.12C283.52 239.34 274.34 242.18 265.42 241.33C260.16 240.84 253.6 240.18 250.21 235.8C247.976 233.013 246.222 229.873 245.02 226.51C245.02 226.51 240.43 206.74 227.15 195.67C219.15 189.01 215.93 181.67 211.15 177.25C205.59 172.02 202.82 165.62 204.15 151.69C206.06 131.79 209.29 109.17 210.07 91.0099C210.35 86.2499 210 79.2199 209.96 78.5899C208.96 60.8599 201.47 49.2499 191.79 41.5899C190.92 40.8799 190.01 40.2099 189.1 39.5899C187.681 42.1704 185.444 44.2053 182.741 45.3737C180.038 46.5421 177.023 46.7775 174.172 46.0428C171.32 45.3082 168.794 43.6452 166.992 41.3162C165.19 38.9871 164.215 36.1246 164.22 33.1799C164.22 32.9699 164.22 32.7599 164.22 32.5599C163.14 32.4799 162.03 32.4299 160.9 32.3999C159.81 32.3999 158.7 32.3999 157.56 32.3999C157.56 32.6599 157.56 32.9199 157.56 33.1899C157.503 36.2573 156.386 39.2104 154.397 41.5466C152.409 43.8828 149.672 45.4578 146.653 46.0036C143.634 46.5494 140.519 46.0323 137.839 44.5402C135.158 43.0482 133.077 40.6733 131.95 37.8199L131.39 38.0499C130.557 38.4344 129.754 38.8824 128.99 39.3899C125.14 41.8599 118.05 47.8899 118.49 58.6899C118.49 58.6899 120.03 87.7899 163.22 89.6899C163.22 89.6899 163.3 94.0299 163.22 99.4099C163.22 102.28 163.06 105.41 162.85 108.41C162.73 110.11 162.6 111.93 162.45 113.83L162.36 114.98C162.36 115.08 162.36 115.13 162.36 115.13C161.36 127.66 166.25 145.41 162.3 163.58C160.9 169.99 161.66 177.36 159.45 183.53C153.69 199.53 134.17 233.11 177.62 246.82C203.22 254.89 222.8 261.24 238.78 260.26C255.22 259.26 266.91 258.26 274.53 255.67C274.797 255.583 275.067 255.483 275.34 255.37C276.069 255.086 276.777 254.752 277.46 254.37C281.02 252.37 289.62 247.37 290.07 243.94C290.53 239.56 286.95 238.82 284.85 239.12Z" fill="#4BB9F7"/>
<path d="M289.95 243.91C289.51 247.35 280.95 252.39 277.34 254.34C276.658 254.716 275.953 255.05 275.23 255.34C274.95 255.46 274.68 255.55 274.41 255.65C262.899 259.782 250.865 262.276 238.66 263.06L247.1 225.73C248.04 228.975 249.557 232.024 251.58 234.73C254.97 239.11 260.13 240.89 265.4 241.39C274.32 242.23 283.5 239.39 284.84 239.17C286.95 238.82 290.53 239.57 289.95 243.91Z" fill="url(#paint10_linear_129_6196)"/>
<path d="M153.75 251.44C154.02 253.55 151.6 253.84 151.6 253.84C149.01 253.02 142.6 245.21 147.31 243.96C150.04 243.23 151.18 245.25 152.53 246.73C152.61 249.73 153.48 249.32 153.75 251.44Z" fill="#1B5B77"/>
<path d="M154.11 184.93C154.04 185.5 153.96 186.09 153.89 186.7C152.33 199.91 151.27 222.33 157.58 244.8C157.93 246.06 158.31 247.32 158.71 248.59C158.795 249.139 158.68 249.7 158.387 250.172C158.093 250.644 157.64 250.994 157.11 251.16C154.84 251.82 154.17 249.57 153.34 247.84C153.124 247.43 152.855 247.05 152.54 246.71C151.19 245.22 148.9 244.02 148.42 246.8C147.91 249.8 150.52 252.1 151.61 253.8C151.785 254.06 151.923 254.342 152.02 254.64C152.5 256.42 149.35 259.27 145.02 254.93C140.69 250.59 142.13 242.36 142.13 242.36C140.46 213.24 150.8 191.11 154.11 184.93Z" fill="#4BB9F7"/>
<path d="M154.11 184.93C154.04 185.5 153.96 186.09 153.89 186.7C152.33 199.91 151.27 222.33 157.58 244.8C157.93 246.06 158.31 247.32 158.71 248.59C158.795 249.139 158.68 249.7 158.387 250.172C158.093 250.644 157.64 250.994 157.11 251.16C154.84 251.82 154.17 249.57 153.34 247.84C153.124 247.43 152.855 247.05 152.54 246.71C151.19 245.22 148.9 244.02 148.42 246.8C147.91 249.8 150.52 252.1 151.61 253.8C151.785 254.06 151.923 254.342 152.02 254.64C152.5 256.42 149.35 259.27 145.02 254.93C140.69 250.59 142.13 242.36 142.13 242.36C140.46 213.24 150.8 191.11 154.11 184.93Z" fill="url(#paint11_linear_129_6196)"/>
<path d="M265.42 241.34C236.42 241.11 226.97 227.04 225.64 220.96C224.31 214.88 224.01 213.39 218.64 208.8C213.27 204.21 213.44 199.6 213.44 190.8C213.44 182 211.15 177.21 211.15 177.21C215.89 181.66 222.66 185.21 230.65 191.92C248 206.37 242.44 222.84 251.57 234.63C254.95 239.06 260.15 240.82 265.42 241.34Z" fill="#035E8C"/>
<path d="M213.55 212.32C213.55 212.32 216.78 211.54 218.11 213.1C219.44 214.66 220.22 217.99 218.11 218.88C216 219.77 209.21 213.51 213.55 212.32Z" fill="#035E8C"/>
<path d="M198.71 280.62H157.56C157.32 280.62 157.082 280.567 156.865 280.464C156.648 280.362 156.456 280.212 156.303 280.027C156.15 279.842 156.04 279.625 155.981 279.392C155.921 279.159 155.914 278.916 155.96 278.68C158.18 266.73 171.04 266.38 171.04 266.38C161.82 259.69 158.59 251.78 157.58 245.87C158.29 245.76 158.17 245.42 157.26 243.53C156.773 242.526 156.538 241.419 156.575 240.304C156.611 239.189 156.919 238.1 157.47 237.13L190.95 244.91C190.64 249.62 192.13 254.15 192.18 258.56C192.23 262.97 193.26 262.73 193.92 264.66C194.44 266.2 195 267.66 195.58 269.04C195.83 269.64 196.08 270.22 196.33 270.79C197.458 273.32 198.723 275.787 200.12 278.18C200.265 278.427 200.342 278.708 200.343 278.994C200.344 279.281 200.269 279.562 200.125 279.81C199.982 280.059 199.776 280.264 199.527 280.406C199.278 280.549 198.996 280.622 198.71 280.62Z" fill="#4BB9F7"/>
<path d="M193.95 264.66C164.95 258.66 157.82 246.25 157.61 245.87C157.47 245.05 157.36 244.26 157.29 243.53C162.03 247.93 168.29 251.64 176.65 254.26C182.06 255.97 187.25 257.39 192.21 258.56C192.67 260.69 193.27 262.73 193.95 264.66Z" fill="#2E81AA"/>
<path d="M227.34 231.9C227.34 231.9 228.68 233.01 231.13 234.68C233.58 236.35 233.35 238.91 231.13 239.91C228.91 240.91 223.78 240.24 223.23 235.91C222.68 231.58 225.41 230.42 227.34 231.9Z" fill="#035E8C"/>
<path d="M275.25 255.32C274.97 255.44 274.7 255.53 274.43 255.63C260.97 260.18 234.8 268.63 192.18 258.56C187.18 257.39 182.03 255.97 176.62 254.26C168.31 251.64 162 247.93 157.26 243.53C147.96 234.89 144.71 223.6 144.37 212.68C144.252 207.196 144.721 201.714 145.77 196.33C146.6 191.925 147.729 187.582 149.15 183.33C149.43 182.49 149.7 181.71 149.96 180.99C152.192 174.826 154.019 168.522 155.43 162.12C158.743 146.622 161.022 130.921 162.25 115.12C162.25 115.12 162.25 115.06 162.25 114.96C162.262 114.578 162.295 114.198 162.35 113.82C162.67 111.18 164.08 105.4 170.14 104.9C178.26 104.23 182.93 109.02 182.37 117.25C181.833 127.774 180.621 138.252 178.74 148.62C175.63 165.82 165.24 221.29 192.98 239.39C220.72 257.49 250.1 259.58 275.25 255.32Z" fill="#FBD08D"/>
<path opacity="0.6" d="M275.25 255.32C274.97 255.44 274.7 255.53 274.43 255.63C260.97 260.18 234.8 268.63 192.18 258.56C187.18 257.39 182.03 255.97 176.62 254.26C168.31 251.64 162 247.93 157.26 243.53C147.96 234.89 144.71 223.6 144.37 212.68C144.252 207.196 144.721 201.714 145.77 196.33C146.6 191.925 147.729 187.582 149.15 183.33C149.43 182.49 149.7 181.71 149.96 180.99C152.192 174.826 154.019 168.522 155.43 162.12C158.743 146.622 161.022 130.921 162.25 115.12C162.25 115.12 162.25 115.06 162.25 114.96C162.262 114.578 162.295 114.198 162.35 113.82C162.67 111.18 164.08 105.4 170.14 104.9C178.26 104.23 182.93 109.02 182.37 117.25C181.833 127.774 180.621 138.252 178.74 148.62C175.63 165.82 165.24 221.29 192.98 239.39C220.72 257.49 250.1 259.58 275.25 255.32Z" fill="url(#paint12_linear_129_6196)"/>
<path d="M231.36 270.82C230.52 268.96 229.69 266.91 228.94 264.69C226.664 258.364 225.645 251.656 225.94 244.94L192.46 237.16C191.984 240.054 192.018 243.008 192.56 245.89C193.56 251.8 196.8 259.71 206.02 266.4C206.02 266.4 193.16 266.75 190.94 278.7C190.896 278.936 190.904 279.178 190.964 279.41C191.024 279.642 191.135 279.858 191.287 280.043C191.44 280.228 191.631 280.378 191.847 280.481C192.064 280.584 192.3 280.638 192.54 280.64H233.69C233.976 280.642 234.258 280.568 234.507 280.426C234.756 280.284 234.962 280.079 235.105 279.831C235.249 279.582 235.324 279.301 235.323 279.014C235.322 278.728 235.245 278.447 235.1 278.2C233.717 275.811 232.469 273.347 231.36 270.82Z" fill="#4BB9F7"/>
<path d="M210.18 88.1898C210.185 88.2464 210.185 88.3032 210.18 88.3598C210.185 88.4464 210.185 88.5332 210.18 88.6198V88.8198C210.18 88.8998 210.18 88.9798 210.18 89.0598C210.18 89.7098 210.18 90.3698 210.11 91.0598L181.06 90.1898L163.18 89.6599C119.99 87.7999 118.45 58.6599 118.45 58.6599C118.01 47.8599 125.1 41.8298 128.95 39.3598C129.714 38.8523 130.517 38.4043 131.35 38.0198L131.91 37.7898C133.004 40.698 135.084 43.13 137.788 44.662C140.491 46.1939 143.646 46.7287 146.703 46.1729C149.761 45.6172 152.526 44.0063 154.517 41.6209C156.508 39.2356 157.599 36.2271 157.6 33.1198C157.6 32.8498 157.6 32.5898 157.6 32.3298C158.74 32.3298 159.85 32.3298 160.94 32.3298C162.07 32.3298 163.18 32.4098 164.26 32.4898C164.26 32.6898 164.26 32.8998 164.26 33.1098C164.255 36.0545 165.23 38.9171 167.032 41.2462C168.834 43.5752 171.36 45.2381 174.212 45.9728C177.063 46.7075 180.078 46.4721 182.781 45.3036C185.484 44.1352 187.721 42.1003 189.14 39.5198C190.05 40.1598 190.96 40.8298 191.83 41.5198C201.51 49.2298 208.95 60.8398 210 78.5198C210.04 79.1465 210.07 79.7765 210.09 80.4099C210.09 81.0399 210.09 81.6698 210.16 82.3098C210.23 82.9498 210.16 83.5898 210.16 84.2398C210.16 85.4898 210.16 86.7498 210.16 88.0298C210.183 88.0799 210.19 88.1357 210.18 88.1898Z" fill="url(#paint13_linear_129_6196)"/>
<path d="M135.2 58.62C135.015 58.6659 134.821 58.6643 134.637 58.6153C134.453 58.5663 134.284 58.4716 134.147 58.3399C134.009 58.2081 133.907 58.0437 133.85 57.8619C133.793 57.6801 133.782 57.4868 133.82 57.2999C134.22 55.3999 135.28 52.2999 137.91 53.4199C140.83 54.6999 137.88 57.98 135.2 58.62Z" fill="#281911"/>
<path d="M127.21 58.3799C127.399 58.4076 127.593 58.3866 127.772 58.3189C127.951 58.2513 128.11 58.1392 128.234 57.9932C128.358 57.8473 128.443 57.6722 128.481 57.4845C128.518 57.2968 128.508 57.1025 128.45 56.9199C127.87 55.0699 126.45 52.0699 124 53.4799C121.22 55.0499 124.48 58.0099 127.21 58.3799Z" fill="#281911"/>
<path d="M182.4 86.0598C182.203 87.494 181.745 88.8801 181.05 90.1498C179.12 93.8398 174.43 98.7898 163.17 99.3398C163.28 93.9598 163.17 89.6198 163.17 89.6198C169.707 89.2679 176.17 88.0713 182.4 86.0598Z" fill="#2E81AA"/>
<path d="M156.49 70.82C156.55 73.36 159.6 73.17 159.94 73.18C161.64 73.3 162.5 71.79 165.94 71.1C165.94 71.1 173.54 67.53 173.64 67.38C173.74 67.23 175.64 67.09 175.64 66.96C175.64 66.83 178.77 66.08 178.9 64.96C179.56 59.44 177.63 53.83 176.9 52.01C176.87 51.9384 176.824 51.8741 176.767 51.8216C176.709 51.7691 176.641 51.7297 176.567 51.7059C176.493 51.6822 176.415 51.6747 176.338 51.6841C176.261 51.6934 176.186 51.7193 176.12 51.76C176.12 51.76 175.68 52.04 175.44 52.17C174.31 52.83 174.96 54.53 172.14 55.58C171.93 55.87 170.38 57.44 169.59 56.96C167.85 55.9 165.34 59.01 162.59 59.64C162.51 59.64 160.4 59.64 160.3 59.64C158.3 60.09 157.68 57.99 155.24 58.32L154.24 58.46C154.162 58.4677 154.086 58.4931 154.019 58.5343C153.951 58.5755 153.894 58.6315 153.852 58.6979C153.81 58.7644 153.783 58.8397 153.774 58.918C153.765 58.9963 153.774 59.0757 153.8 59.15C154.932 62.809 155.545 66.6123 155.606 70.4419L156.49 70.82Z" fill="#530007"/>
<path d="M155.338 58.3052L156.948 61.1953C157.008 61.3085 157.095 61.4051 157.202 61.4766C157.308 61.5481 157.43 61.5923 157.558 61.6053C160.754 61.962 163.99 61.6559 167.063 60.7062C170.136 59.7564 172.98 58.1834 175.418 56.0853C175.5 56.0071 175.564 55.912 175.605 55.8067C175.647 55.7014 175.665 55.5883 175.658 55.4753L175.488 52.1553C173.604 53.219 171.634 54.1222 169.598 54.8553L169.158 55.0153C166.899 55.8147 164.595 56.4825 162.258 57.0153L161.988 57.0753C159.998 57.5553 157.778 57.9752 155.338 58.3052Z" fill="#FFF3E9"/>
<path d="M155.343 76.923C155.335 77.0028 155.343 77.0836 155.367 77.1601C155.392 77.2366 155.431 77.3074 155.484 77.3678C155.537 77.4283 155.602 77.4771 155.675 77.5113C155.747 77.5456 155.826 77.5645 155.907 77.5668C159.262 77.8359 162.638 77.7177 165.967 77.2147H166.027C171.379 76.259 174.648 74.0458 176.58 71.2793C176.693 71.1314 176.797 70.9769 176.892 70.8165L177.143 70.4041C177.264 70.2029 177.375 70.0016 177.475 69.7904C177.612 69.5402 177.733 69.2815 177.837 69.0158C177.948 68.7442 178.049 68.4826 178.149 68.2109C178.524 67.1463 178.777 66.0428 178.904 64.9214C176.188 64.3781 170.574 63.7343 166.329 66.4203C164.347 66.131 162.324 66.3483 160.449 67.052C158.574 67.7556 156.907 68.9227 155.605 70.4443V70.8367C155.622 72.8686 155.534 74.9 155.343 76.923Z" fill="#B23F74"/>
<path d="M172.195 57.2072L173.618 56.6452C173.818 56.5661 173.916 56.3395 173.837 56.1392L173.275 54.7162C173.196 54.5158 172.97 54.4176 172.769 54.4967L171.346 55.0587C171.146 55.1378 171.048 55.3643 171.127 55.5647L171.689 56.9877C171.768 57.188 171.994 57.2863 172.195 57.2072Z" fill="#564787"/>
<path d="M167.975 58.6259L169.427 58.1427C169.631 58.0747 169.742 57.8538 169.674 57.6495L169.191 56.1978C169.123 55.9934 168.902 55.8829 168.697 55.9509L167.246 56.4341C167.041 56.5022 166.931 56.723 166.999 56.9274L167.482 58.379C167.55 58.5834 167.771 58.6939 167.975 58.6259Z" fill="#564787"/>
<path d="M163.582 60.0172L165.067 59.6479C165.276 59.5959 165.403 59.3843 165.351 59.1753L164.982 57.6905C164.93 57.4815 164.718 57.3542 164.509 57.4062L163.025 57.7756C162.815 57.8276 162.688 58.0392 162.74 58.2482L163.11 59.733C163.162 59.942 163.373 60.0692 163.582 60.0172Z" fill="#564787"/>
<path d="M159.309 60.8323L160.809 60.5301C161.02 60.4876 161.157 60.2819 161.115 60.0708L160.812 58.571C160.77 58.3598 160.564 58.2231 160.353 58.2656L158.853 58.5678C158.642 58.6103 158.505 58.816 158.548 59.0272L158.85 60.527C158.892 60.7381 159.098 60.8748 159.309 60.8323Z" fill="#564787"/>
<path d="M166.29 66.4106C164.368 67.7184 163.332 69.841 162.497 71.7323C162.38 71.1311 162.384 70.5125 162.51 69.913C162.635 69.3135 162.88 68.7453 163.229 68.2418C163.578 67.7382 164.024 67.3097 164.541 66.9814C165.058 66.653 165.635 66.4316 166.239 66.3301C166.239 66.3301 166.34 66.3301 166.239 66.4106H166.29Z" fill="#7C1A4B"/>
<path d="M192.64 32.1498L206.82 31.4398C207.017 31.4309 207.211 31.4971 207.361 31.6252C207.511 31.7532 207.607 31.9336 207.63 32.1298L208.39 38.7297C208.403 38.8505 208.388 38.9728 208.345 39.0865C208.303 39.2002 208.234 39.3022 208.144 39.3841C208.054 39.466 207.946 39.5256 207.829 39.5579C207.712 39.5901 207.589 39.5942 207.47 39.5698L192.19 36.4498L192.64 32.1498Z" fill="#EF476F"/>
<path d="M180.95 14.3499C179.19 13.6799 174.73 12.3499 170.52 14.2699C170.441 14.3113 170.352 14.329 170.264 14.3208C170.175 14.3127 170.091 14.2791 170.021 14.2241C169.951 14.1691 169.899 14.095 169.87 14.0109C169.842 13.9267 169.838 13.8361 169.86 13.7499C170.35 11.8999 171.86 8.12993 175.67 8.65993C177.066 8.79481 178.386 9.36273 179.444 10.2843C180.502 11.2059 181.245 12.435 181.57 13.7999C181.594 13.8832 181.593 13.9714 181.569 14.0545C181.545 14.1376 181.498 14.2122 181.433 14.2696C181.368 14.3271 181.288 14.3651 181.203 14.3793C181.118 14.3935 181.03 14.3833 180.95 14.3499Z" fill="#281911"/>
<path d="M139.62 14.3499C141.38 13.6799 145.84 12.3499 150.05 14.2699C150.129 14.3097 150.218 14.3262 150.306 14.3176C150.395 14.3089 150.479 14.2755 150.549 14.2211C150.619 14.1667 150.672 14.0936 150.703 14.0102C150.733 13.9268 150.739 13.8366 150.72 13.7499C150.22 11.8999 148.72 8.12993 144.9 8.65993C143.503 8.79481 142.184 9.36273 141.126 10.2843C140.068 11.2059 139.325 12.435 139 13.7999C138.976 13.8832 138.977 13.9714 139.001 14.0545C139.025 14.1376 139.072 14.2122 139.137 14.2696C139.202 14.3271 139.282 14.3651 139.367 14.3793C139.452 14.3935 139.54 14.3833 139.62 14.3499Z" fill="#281911"/>
<path d="M160.95 32.33C160.738 28.0052 158.844 23.9346 155.673 20.9864C152.501 18.0382 148.304 16.4458 143.975 16.5489C139.646 16.652 135.529 18.4423 132.502 21.5381C129.474 24.6339 127.776 28.79 127.77 33.1199C127.766 35.2563 128.18 37.3729 128.99 39.35C130.43 42.9289 133.072 45.8945 136.461 47.7372C139.85 49.5799 143.776 50.1846 147.562 49.4473C151.349 48.7101 154.761 46.677 157.211 43.6974C159.662 40.7178 160.998 36.9777 160.99 33.1199C160.95 32.8199 160.95 32.59 160.95 32.33Z" fill="#EF476F"/>
<path d="M157.59 33.1198C157.566 36.2064 156.467 39.1882 154.482 41.5518C152.496 43.9154 149.749 45.513 146.713 46.0696C143.677 46.6261 140.542 46.1068 137.847 44.601C135.152 43.0953 133.067 40.6973 131.95 37.8198C131.395 36.3253 131.111 34.744 131.11 33.1498C131.133 29.7149 132.486 26.4226 134.886 23.9652C137.286 21.5079 140.546 20.0769 143.979 19.9733C147.413 19.8697 150.753 21.1015 153.297 23.4097C155.84 25.7178 157.39 28.9225 157.62 32.3498C157.58 32.5798 157.59 32.8198 157.59 33.1198Z" fill="#FFF3E9"/>
<path d="M150.95 37.17C151.164 38.9485 150.76 40.7466 149.806 42.2628C148.852 43.779 147.406 44.9212 145.71 45.4978C144.014 46.0745 142.171 46.0506 140.491 45.4302C138.81 44.8097 137.394 43.6304 136.48 42.09C136.404 41.9561 136.385 41.7976 136.426 41.6495C136.468 41.5013 136.566 41.3756 136.7 41.3L142.25 38.1L136.7 34.9C136.568 34.8226 136.471 34.6969 136.43 34.5495C136.389 34.4021 136.407 34.2445 136.48 34.11C137.313 32.7071 138.565 31.6004 140.059 30.9451C141.553 30.2899 143.215 30.119 144.811 30.4566C146.407 30.7942 147.858 31.6232 148.959 32.8273C150.06 34.0313 150.756 35.5499 150.95 37.17Z" fill="#281911"/>
<path d="M177.51 16.52C173.248 16.5255 169.151 18.1701 166.068 21.1133C162.985 24.0565 161.153 28.0727 160.95 32.33C160.95 32.59 160.95 32.85 160.95 33.12C160.95 36.4036 161.924 39.6134 163.748 42.3435C165.573 45.0736 168.166 47.2012 171.2 48.4573C174.234 49.7135 177.572 50.0417 180.792 49.4003C184.012 48.759 186.97 47.177 189.292 44.8544C191.613 42.5319 193.193 39.5731 193.832 36.3524C194.472 33.1316 194.141 29.7936 192.883 26.7606C191.625 23.7275 189.496 21.1356 186.765 19.3127C184.034 17.4899 180.824 16.518 177.54 16.52H177.51Z" fill="#EF476F"/>
<path d="M190.79 33.12C190.79 36.6394 189.392 40.0147 186.903 42.5033C184.415 44.9919 181.039 46.39 177.52 46.39C174 46.39 170.625 44.9919 168.137 42.5033C165.648 40.0147 164.25 36.6394 164.25 33.12C164.25 32.91 164.25 32.7 164.25 32.5C164.437 29.0569 165.958 25.8219 168.489 23.4803C171.02 21.1387 174.363 19.8742 177.811 19.9548C181.258 20.0354 184.538 21.4547 186.957 23.9121C189.376 26.3694 190.744 29.6719 190.77 33.12H190.79Z" fill="#FFF3E9"/>
<path d="M183.75 37.1698C183.964 38.9484 183.56 40.7465 182.606 42.2627C181.652 43.7789 180.206 44.9211 178.51 45.4977C176.814 46.0744 174.971 46.0505 173.291 45.43C171.61 44.8096 170.194 43.6303 169.28 42.0899C169.204 41.9559 169.185 41.7975 169.226 41.6493C169.268 41.5012 169.366 41.3755 169.5 41.2998L175.04 38.0999L169.5 34.8999C169.368 34.8224 169.271 34.6967 169.23 34.5494C169.189 34.402 169.207 34.2443 169.28 34.1098C170.062 32.7844 171.219 31.7207 172.606 31.0532C173.993 30.3857 175.546 30.1444 177.07 30.3598C178.776 30.6054 180.354 31.4051 181.561 32.6356C182.768 33.8661 183.537 35.4593 183.75 37.1698Z" fill="#281911"/>
<path d="M197.58 201.58C190.428 208.928 180.811 213.37 170.58 214.05C169.247 214.13 167.987 214.15 166.8 214.11C163.793 214.063 160.81 213.567 157.95 212.64C155.708 211.923 153.612 210.812 151.76 209.36C150.613 208.491 149.634 207.42 148.87 206.2C152.47 203.91 157.35 200.91 162.19 200.2L163.38 199.89L163.57 199.83C165.01 199.44 166.4 199 167.74 198.54H167.84C168.84 198.21 169.74 197.85 170.64 197.49C177.151 194.933 183.224 191.377 188.64 186.95L197.58 201.58Z" fill="#4BB9F7"/>
<path d="M198.14 200.73L198.22 200.55C198.22 200.62 198.3 200.73 198.36 200.69C198.42 200.65 198.09 201.08 198.1 201.08C193.22 207.68 185.49 214.08 176.91 214.16C176.84 214.16 176.81 214.05 176.91 214.04C185.19 212.33 191.91 206.53 197.91 200.86L198.22 200.59C198.22 200.59 198.35 200.45 198.42 200.54C198.49 200.63 198.42 200.59 198.42 200.63L198.27 200.85C198.27 200.92 198.12 200.85 198.16 200.77L198.14 200.73Z" fill="#1B5B77"/>
<path d="M146.41 198.35C146.41 198.35 144.08 194.15 137.85 191.58L136.85 196.85C136.85 196.85 131.48 194.28 129.23 192.09C129.028 191.93 128.795 191.816 128.544 191.755C128.294 191.695 128.034 191.69 127.782 191.74C127.53 191.791 127.292 191.896 127.084 192.047C126.876 192.199 126.704 192.395 126.58 192.62C125.47 194.32 126.58 197.49 128.21 198.82C128.21 198.82 125.15 200.67 128.05 204.43C128.05 204.43 126.68 208.71 132.19 211.31C139.05 214.54 144.34 212.09 144.34 212.09L146.41 198.35Z" fill="#4BB9F7"/>
<path d="M144.38 212.09C144.38 212.09 165.25 220.66 184.69 211.09L175.32 195.69C175.32 195.69 164.01 202.18 146.41 198.37L142.26 204.48L144.38 212.09Z" fill="#4BB9F7"/>
<path d="M175.32 195.67C175.32 195.67 164.01 202.16 146.41 198.35C146.41 198.35 144.08 194.15 137.85 191.58L136.85 196.85C136.85 196.85 131.48 194.28 129.23 192.09C129.028 191.93 128.795 191.816 128.544 191.755C128.294 191.695 128.034 191.69 127.782 191.74C127.53 191.791 127.292 191.896 127.084 192.047C126.876 192.199 126.704 192.395 126.58 192.62C125.47 194.32 126.58 197.49 128.21 198.82C128.21 198.82 125.15 200.67 128.05 204.43C128.05 204.43 126.68 208.71 132.19 211.31C139.05 214.54 144.34 212.09 144.34 212.09C144.34 212.09 165.21 220.66 184.65 211.09L175.32 195.67Z" fill="url(#paint14_linear_129_6196)"/>
<path d="M128.29 198.82C130.324 200.183 132.464 201.381 134.69 202.4C134.701 202.405 134.71 202.412 134.716 202.422C134.723 202.432 134.726 202.443 134.726 202.455C134.726 202.467 134.723 202.478 134.716 202.488C134.71 202.498 134.701 202.505 134.69 202.51C133.36 202.797 131.97 202.593 130.779 201.935C129.587 201.277 128.675 200.209 128.21 198.93C128.21 198.87 128.21 198.77 128.3 198.82H128.29Z" fill="#1B5B77"/>
<path d="M128.14 204.38C129.891 205.65 131.805 206.679 133.83 207.44C133.838 207.446 133.845 207.455 133.85 207.464C133.854 207.474 133.857 207.484 133.857 207.495C133.857 207.505 133.854 207.516 133.85 207.525C133.845 207.535 133.838 207.543 133.83 207.55C133.25 207.76 132.633 207.846 132.017 207.803C131.402 207.76 130.803 207.588 130.258 207.299C129.713 207.009 129.235 206.609 128.855 206.123C128.475 205.638 128.2 205.078 128.05 204.48C128.05 204.42 128.05 204.33 128.14 204.38Z" fill="#1B5B77"/>
</g>
<defs>
<linearGradient id="paint0_linear_129_6196" x1="93.59" y1="198.98" x2="116.58" y2="198.98" gradientUnits="userSpaceOnUse">
<stop stop-color="#127C12" stop-opacity="0.8"/>
<stop offset="0.17" stop-color="#198219" stop-opacity="0.73"/>
<stop offset="0.43" stop-color="#2B922C" stop-opacity="0.55"/>
<stop offset="0.76" stop-color="#49AD4B" stop-opacity="0.26"/>
<stop offset="1" stop-color="#63C466" stop-opacity="0"/>
</linearGradient>
<linearGradient id="paint1_linear_129_6196" x1="-8.86005" y1="246.94" x2="42.08" y2="220.84" gradientUnits="userSpaceOnUse">
<stop offset="0.1" stop-color="#127C12" stop-opacity="0.8"/>
<stop offset="0.21" stop-color="#228A23" stop-opacity="0.64"/>
<stop offset="0.43" stop-color="#3EA340" stop-opacity="0.36"/>
<stop offset="0.65" stop-color="#52B555" stop-opacity="0.16"/>
<stop offset="0.84" stop-color="#5FC062" stop-opacity="0.04"/>
<stop offset="1" stop-color="#63C466" stop-opacity="0"/>
</linearGradient>
<linearGradient id="paint2_linear_129_6196" x1="42.3799" y1="219.46" x2="5.0199" y2="256.82" gradientUnits="userSpaceOnUse">
<stop stop-color="#FBD08D" stop-opacity="0"/>
<stop offset="0.2" stop-color="#DEAF75" stop-opacity="0.18"/>
<stop offset="0.74" stop-color="#965E3A" stop-opacity="0.63"/>
<stop offset="1" stop-color="#7A3E23" stop-opacity="0.8"/>
</linearGradient>
<linearGradient id="paint3_linear_129_6196" x1="60.54" y1="225.55" x2="60.54" y2="241.99" gradientUnits="userSpaceOnUse">
<stop stop-color="#111111"/>
<stop offset="0.04" stop-color="#121212" stop-opacity="0.95"/>
<stop offset="1" stop-color="#282828" stop-opacity="0"/>
</linearGradient>
<linearGradient id="paint4_linear_129_6196" x1="79.3099" y1="178.47" x2="72.4499" y2="197.32" gradientUnits="userSpaceOnUse">
<stop stop-color="#062322" stop-opacity="0.4"/>
<stop offset="0.53" stop-color="#073433" stop-opacity="0.29"/>
<stop offset="1" stop-color="#08605F" stop-opacity="0"/>
</linearGradient>
<linearGradient id="paint5_linear_129_6196" x1="76.82" y1="164.95" x2="73.2499" y2="178.29" gradientUnits="userSpaceOnUse">
<stop stop-color="#062322" stop-opacity="0.4"/>
<stop offset="0.53" stop-color="#073433" stop-opacity="0.29"/>
<stop offset="1" stop-color="#08605F" stop-opacity="0"/>
</linearGradient>
<linearGradient id="paint6_linear_129_6196" x1="85.06" y1="162.9" x2="83.9" y2="176.13" gradientUnits="userSpaceOnUse">
<stop offset="0.27" stop-color="#A3A3A3" stop-opacity="0.8"/>
<stop offset="0.37" stop-color="#A9A8A7" stop-opacity="0.75"/>
<stop offset="0.53" stop-color="#B9B6B3" stop-opacity="0.61"/>
<stop offset="0.73" stop-color="#D3CCC7" stop-opacity="0.39"/>
<stop offset="0.95" stop-color="#F6EBE2" stop-opacity="0.08"/>
<stop offset="1" stop-color="#FFF3E9" stop-opacity="0"/>
</linearGradient>
<linearGradient id="paint7_linear_129_6196" x1="66.3699" y1="161.52" x2="64.9199" y2="178.17" gradientUnits="userSpaceOnUse">
<stop offset="0.27" stop-color="#A3A3A3" stop-opacity="0.8"/>
<stop offset="0.37" stop-color="#A9A8A7" stop-opacity="0.75"/>
<stop offset="0.53" stop-color="#B9B6B3" stop-opacity="0.61"/>
<stop offset="0.73" stop-color="#D3CCC7" stop-opacity="0.39"/>
<stop offset="0.95" stop-color="#F6EBE2" stop-opacity="0.08"/>
<stop offset="1" stop-color="#FFF3E9" stop-opacity="0"/>
</linearGradient>
<linearGradient id="paint8_linear_129_6196" x1="83.5399" y1="167.56" x2="71.3799" y2="83.8899" gradientUnits="userSpaceOnUse">
<stop offset="0.16" stop-color="#57BC57"/>
<stop offset="0.34" stop-color="#63C35B"/>
<stop offset="0.67" stop-color="#81D565"/>
<stop offset="1" stop-color="#A6EA71"/>
</linearGradient>
<linearGradient id="paint9_linear_129_6196" x1="104" y1="204.18" x2="92.81" y2="188.21" gradientUnits="userSpaceOnUse">
<stop stop-color="#127C12" stop-opacity="0.8"/>
<stop offset="0.17" stop-color="#188118" stop-opacity="0.74"/>
<stop offset="0.41" stop-color="#289029" stop-opacity="0.58"/>
<stop offset="0.71" stop-color="#43A845" stop-opacity="0.32"/>
<stop offset="1" stop-color="#63C466" stop-opacity="0"/>
</linearGradient>
<linearGradient id="paint10_linear_129_6196" x1="244.34" y1="267.3" x2="273.54" y2="228.54" gradientUnits="userSpaceOnUse">
<stop stop-color="#4BB9F7" stop-opacity="0"/>
<stop offset="0.2" stop-color="#4AB8F5" stop-opacity="0.02"/>
<stop offset="0.36" stop-color="#46B3F0" stop-opacity="0.08"/>
<stop offset="0.5" stop-color="#3EACE7" stop-opacity="0.18"/>
<stop offset="0.64" stop-color="#35A1DA" stop-opacity="0.33"/>
<stop offset="0.77" stop-color="#2894CA" stop-opacity="0.52"/>
<stop offset="0.89" stop-color="#1883B6" stop-opacity="0.75"/>
<stop offset="1" stop-color="#0771A0"/>
</linearGradient>
<linearGradient id="paint11_linear_129_6196" x1="158.72" y1="221.1" x2="141.95" y2="221.1" gradientUnits="userSpaceOnUse">
<stop stop-color="#035E8C" stop-opacity="0.8"/>
<stop offset="0.15" stop-color="#086594" stop-opacity="0.74"/>
<stop offset="0.4" stop-color="#1777A9" stop-opacity="0.58"/>
<stop offset="0.7" stop-color="#2E95CC" stop-opacity="0.32"/>
<stop offset="1" stop-color="#4BB9F7" stop-opacity="0"/>
</linearGradient>
<linearGradient id="paint12_linear_129_6196" x1="209.79" y1="104.8" x2="209.79" y2="263.28" gradientUnits="userSpaceOnUse">
<stop stop-color="#FBD08D" stop-opacity="0"/>
<stop offset="0.27" stop-color="#E3B479" stop-opacity="0.09"/>
<stop offset="0.75" stop-color="#A26B44" stop-opacity="0.34"/>
<stop offset="1" stop-color="#7A3E23" stop-opacity="0.5"/>
</linearGradient>
<linearGradient id="paint13_linear_129_6196" x1="142.78" y1="7.68984" x2="167.25" y2="74.1998" gradientUnits="userSpaceOnUse">
<stop stop-color="#A1E2FF"/>
<stop offset="0.22" stop-color="#A1E2FF" stop-opacity="0.76"/>
<stop offset="0.6" stop-color="#A1E2FF" stop-opacity="0.36"/>
<stop offset="0.87" stop-color="#A1E2FF" stop-opacity="0.1"/>
<stop offset="1" stop-color="#A1E2FF" stop-opacity="0"/>
</linearGradient>
<linearGradient id="paint14_linear_129_6196" x1="126.18" y1="203.6" x2="184.69" y2="203.6" gradientUnits="userSpaceOnUse">
<stop stop-color="#035E8C" stop-opacity="0.8"/>
<stop offset="0.21" stop-color="#1B7DB0" stop-opacity="0.53"/>
<stop offset="0.42" stop-color="#3097CF" stop-opacity="0.3"/>
<stop offset="0.63" stop-color="#3FAAE5" stop-opacity="0.13"/>
<stop offset="0.83" stop-color="#48B5F2" stop-opacity="0.03"/>
<stop offset="1" stop-color="#4BB9F7" stop-opacity="0"/>
</linearGradient>
</defs>
</svg>
