<svg width="259" height="259" viewBox="0 0 259 259" fill="none" xmlns="http://www.w3.org/2000/svg">
<g clip-path="url(#clip0_64_16686)">
<path d="M187.48 93.94L181.73 100.06L179.89 98.21C179.89 98.21 184.32 92.05 184.59 92.01L187.48 93.94Z" fill="#034745"/>
<path d="M23.02 49.9199L16.46 56.8499L16.93 63.3299L23.22 59.3299L23.02 49.9199Z" fill="#034745"/>
<path d="M27.1799 52.1201H171.24C175.08 52.1201 178.763 53.6457 181.479 56.3612C184.194 59.0767 185.72 62.7598 185.72 66.6001V90.0901C185.717 93.9287 184.191 97.6092 181.475 100.323C178.76 103.036 175.079 104.56 171.24 104.56H29.4399C25.0002 104.56 20.7423 102.796 17.603 99.6571C14.4636 96.5177 12.7 92.2598 12.7 87.8201V66.6001C12.7 62.7598 14.2255 59.0767 16.941 56.3612C19.6566 53.6457 23.3396 52.1201 27.1799 52.1201Z" fill="#034745"/>
<path d="M177.2 45.77H33.1699C25.1729 45.77 18.6899 52.2529 18.6899 60.25V83.74C18.6899 91.7371 25.1729 98.22 33.1699 98.22H177.2C185.197 98.22 191.68 91.7371 191.68 83.74V60.25C191.68 52.2529 185.197 45.77 177.2 45.77Z" fill="#08605F"/>
<path d="M46.9147 80.2551C45.1474 80.2551 43.6805 80.0077 42.514 79.5128C41.3476 79.0003 40.4639 78.3375 39.863 77.5246C39.2621 76.7116 38.944 75.8456 38.9087 74.9266C38.9087 74.7852 38.9617 74.6615 39.0677 74.5554C39.1915 74.4317 39.3328 74.3699 39.4919 74.3699H42.8322C43.0796 74.3699 43.2652 74.4141 43.3889 74.5024C43.5303 74.5908 43.654 74.7057 43.76 74.8471C43.9014 75.1122 44.0958 75.3684 44.3432 75.6158C44.6083 75.8633 44.9441 76.0665 45.3506 76.2256C45.7748 76.367 46.2961 76.4377 46.9147 76.4377C47.9398 76.4377 48.7085 76.2786 49.2211 75.9605C49.7513 75.6424 50.0164 75.2094 50.0164 74.6615C50.0164 74.2727 49.875 73.9545 49.5922 73.7071C49.3094 73.442 48.8499 73.2123 48.2137 73.0179C47.5951 72.8058 46.7645 72.5937 45.7218 72.3816C44.3786 72.0988 43.2298 71.7365 42.2755 71.2947C41.3388 70.8352 40.623 70.2431 40.1281 69.5185C39.6333 68.7763 39.3859 67.8572 39.3859 66.7615C39.3859 65.6834 39.6863 64.7202 40.2872 63.8719C40.9058 63.0236 41.7629 62.3608 42.8587 61.8837C43.9544 61.4065 45.2534 61.1679 46.7556 61.1679C47.9751 61.1679 49.0443 61.3269 49.9634 61.6451C50.9 61.9632 51.6865 62.3873 52.3227 62.9175C52.959 63.4477 53.4362 64.0133 53.7543 64.6142C54.0901 65.1974 54.2668 65.7718 54.2845 66.3373C54.2845 66.4787 54.2315 66.6113 54.1254 66.735C54.0194 66.841 53.8868 66.894 53.7278 66.894H50.2285C50.034 66.894 49.8661 66.8587 49.7248 66.788C49.5834 66.7173 49.4597 66.6024 49.3536 66.4434C49.2476 66.0546 48.9648 65.7188 48.5053 65.436C48.0635 65.1356 47.4802 64.9853 46.7556 64.9853C45.978 64.9853 45.3683 65.1267 44.9265 65.4095C44.5023 65.6746 44.2902 66.0899 44.2902 66.6555C44.2902 67.0089 44.4051 67.3182 44.6348 67.5833C44.8823 67.8484 45.2799 68.0782 45.8278 68.2726C46.3933 68.467 47.1621 68.6702 48.1342 68.8823C49.7424 69.1827 51.0414 69.5627 52.0311 70.0222C53.0208 70.4641 53.7454 71.0473 54.205 71.7719C54.6645 72.4788 54.8942 73.3713 54.8942 74.4494C54.8942 75.6512 54.5496 76.6939 53.8603 77.5776C53.1887 78.4436 52.252 79.1063 51.0503 79.5658C49.8485 80.0253 48.47 80.2551 46.9147 80.2551ZM62.3199 80.2551C61.3125 80.2551 60.4112 80.0253 59.6159 79.5658C58.8383 79.1063 58.2285 78.4347 57.7867 77.5511C57.3449 76.6497 57.124 75.554 57.124 74.2638V66.8675C57.124 66.6731 57.1858 66.5141 57.3095 66.3904C57.4332 66.2666 57.5923 66.2048 57.7867 66.2048H61.1005C61.2949 66.2048 61.4539 66.2666 61.5776 66.3904C61.7013 66.5141 61.7632 66.6731 61.7632 66.8675V74.1048C61.7632 75.8368 62.5408 76.7028 64.0961 76.7028C64.8207 76.7028 65.3951 76.4818 65.8192 76.04C66.2611 75.5805 66.482 74.9354 66.482 74.1048V66.8675C66.482 66.6731 66.5438 66.5141 66.6676 66.3904C66.7913 66.2666 66.9503 66.2048 67.1447 66.2048H70.4585C70.6529 66.2048 70.8119 66.2666 70.9357 66.3904C71.0594 66.5141 71.1212 66.6731 71.1212 66.8675V79.3272C71.1212 79.5216 71.0594 79.6807 70.9357 79.8044C70.8119 79.9281 70.6529 79.99 70.4585 79.99H67.3833C67.2066 79.99 67.0475 79.9281 66.9061 79.8044C66.7824 79.6807 66.7206 79.5216 66.7206 79.3272V78.3199C66.2611 78.9561 65.6602 79.4421 64.9179 79.7779C64.1933 80.096 63.3273 80.2551 62.3199 80.2551ZM82.6697 80.2551C81.6799 80.2551 80.8493 80.0872 80.1777 79.7514C79.5238 79.4156 78.9848 78.9914 78.5606 78.4789V79.3272C78.5606 79.5216 78.4899 79.6807 78.3485 79.8044C78.2248 79.9281 78.0746 79.99 77.8979 79.99H74.9022C74.7078 79.99 74.5488 79.9281 74.425 79.8044C74.3013 79.6807 74.2395 79.5216 74.2395 79.3272V61.8306C74.2395 61.6362 74.3013 61.4772 74.425 61.3535C74.5488 61.2297 74.7078 61.1679 74.9022 61.1679H78.1364C78.3308 61.1679 78.4899 61.2297 78.6136 61.3535C78.7373 61.4772 78.7992 61.6362 78.7992 61.8306V67.5038C79.2234 67.0443 79.7536 66.6731 80.3898 66.3904C81.0437 66.0899 81.8037 65.9397 82.6697 65.9397C83.5533 65.9397 84.3309 66.0899 85.0025 66.3904C85.6918 66.6731 86.275 67.0885 86.7522 67.6363C87.2294 68.1842 87.6005 68.8381 87.8656 69.5981C88.1307 70.358 88.2809 71.2152 88.3163 72.1695C88.334 72.5053 88.3428 72.8146 88.3428 73.0974C88.3428 73.3625 88.334 73.6718 88.3163 74.0252C88.2809 75.0149 88.1219 75.8986 87.8391 76.6762C87.574 77.4362 87.2029 78.0901 86.7257 78.638C86.2485 79.1682 85.6741 79.5747 85.0025 79.8574C84.3309 80.1225 83.5533 80.2551 82.6697 80.2551ZM81.2381 76.7028C81.839 76.7028 82.3073 76.579 82.6431 76.3316C82.9789 76.0842 83.2175 75.7484 83.3589 75.3242C83.518 74.9001 83.6152 74.4317 83.6505 73.9192C83.6859 73.3713 83.6859 72.8235 83.6505 72.2756C83.6152 71.7631 83.518 71.2947 83.3589 70.8705C83.2175 70.4464 82.9789 70.1106 82.6431 69.8632C82.3073 69.6157 81.839 69.492 81.2381 69.492C80.6902 69.492 80.2396 69.6157 79.8861 69.8632C79.5326 70.0929 79.2675 70.4022 79.0908 70.791C78.9141 71.1622 78.8169 71.5686 78.7992 72.0105C78.7815 72.3463 78.7727 72.6732 78.7727 72.9914C78.7727 73.3095 78.7815 73.6453 78.7992 73.9987C78.8169 74.4759 78.9052 74.9177 79.0643 75.3242C79.2234 75.7307 79.4796 76.0665 79.8331 76.3316C80.1865 76.579 80.6549 76.7028 81.2381 76.7028ZM96.6367 80.2551C95.4879 80.2551 94.5071 80.1314 93.6941 79.884C92.8988 79.6189 92.2449 79.3007 91.7323 78.9296C91.2375 78.5585 90.8664 78.1785 90.6189 77.7897C90.3715 77.3832 90.2389 77.0385 90.2213 76.7558C90.2036 76.5614 90.2655 76.4023 90.4068 76.2786C90.5482 76.1372 90.6985 76.0665 90.8575 76.0665H93.8797C93.9327 76.0665 93.9769 76.0753 94.0122 76.093C94.0476 76.1107 94.1006 76.146 94.1713 76.1991C94.401 76.3228 94.6308 76.4818 94.8605 76.6762C95.0903 76.853 95.3554 77.012 95.6558 77.1534C95.9563 77.2948 96.3186 77.3655 96.7427 77.3655C97.2376 77.3655 97.6529 77.2683 97.9887 77.0739C98.3245 76.8795 98.4924 76.5879 98.4924 76.1991C98.4924 75.9163 98.4129 75.6865 98.2538 75.5098C98.0947 75.3154 97.7678 75.1298 97.2729 74.9531C96.7958 74.7764 96.0711 74.5996 95.0991 74.4229C94.1801 74.2108 93.376 73.9369 92.6867 73.6011C91.9974 73.2476 91.4672 72.7969 91.0961 72.2491C90.725 71.6835 90.5394 71.0031 90.5394 70.2078C90.5394 69.5009 90.7691 68.8204 91.2287 68.1665C91.6882 67.5126 92.3597 66.9824 93.2434 66.5759C94.1271 66.1518 95.214 65.9397 96.5041 65.9397C97.5292 65.9397 98.4129 66.0634 99.1551 66.3108C99.9151 66.5406 100.551 66.841 101.064 67.2122C101.594 67.5833 101.992 67.9633 102.257 68.3521C102.522 68.7409 102.663 69.0944 102.681 69.4125C102.699 69.5892 102.646 69.7483 102.522 69.8897C102.398 70.0134 102.257 70.0752 102.098 70.0752H99.3407C99.27 70.0752 99.1993 70.0664 99.1286 70.0487C99.0579 70.0134 98.9961 69.978 98.9431 69.9427C98.731 69.8367 98.5189 69.6953 98.3068 69.5185C98.0947 69.3418 97.8473 69.1827 97.5645 69.0414C97.2818 68.9 96.9283 68.8293 96.5041 68.8293C96.027 68.8293 95.6558 68.9353 95.3907 69.1474C95.1256 69.3595 94.9931 69.6334 94.9931 69.9692C94.9931 70.199 95.0638 70.411 95.2052 70.6055C95.3642 70.7999 95.6735 70.9766 96.133 71.1356C96.6102 71.2947 97.3436 71.4714 98.3333 71.6658C99.5528 71.8603 100.525 72.1784 101.249 72.6202C101.974 73.0444 102.487 73.5481 102.787 74.1313C103.087 74.6968 103.238 75.2977 103.238 75.934C103.238 76.7823 102.981 77.5334 102.469 78.1873C101.974 78.8412 101.232 79.3538 100.242 79.7249C99.2523 80.0784 98.0506 80.2551 96.6367 80.2551ZM111.952 80.2551C110.645 80.2551 109.487 80.0165 108.48 79.5393C107.472 79.0621 106.668 78.3729 106.067 77.4715C105.484 76.5525 105.166 75.4568 105.113 74.1843C105.095 73.9015 105.086 73.5481 105.086 73.1239C105.086 72.6821 105.095 72.3198 105.113 72.037C105.166 70.7468 105.484 69.6511 106.067 68.7497C106.65 67.8307 107.446 67.1326 108.453 66.6555C109.478 66.1783 110.645 65.9397 111.952 65.9397C113.172 65.9397 114.215 66.1164 115.081 66.4699C115.947 66.8057 116.654 67.2298 117.201 67.7424C117.749 68.2549 118.156 68.7851 118.421 69.333C118.704 69.8632 118.854 70.3315 118.872 70.738C118.889 70.9147 118.827 71.0738 118.686 71.2152C118.545 71.3389 118.386 71.4008 118.209 71.4008H114.842C114.648 71.4008 114.497 71.3566 114.391 71.2682C114.285 71.1798 114.188 71.0473 114.1 70.8705C113.888 70.3227 113.614 69.9339 113.278 69.7041C112.96 69.4744 112.544 69.3595 112.032 69.3595C111.325 69.3595 110.777 69.5892 110.388 70.0487C110.017 70.5082 109.814 71.2152 109.779 72.1695C109.761 72.8765 109.761 73.5039 109.779 74.0517C109.814 75.0238 110.017 75.7307 110.388 76.1725C110.777 76.6144 111.325 76.8353 112.032 76.8353C112.58 76.8353 113.013 76.7204 113.331 76.4907C113.649 76.2609 113.905 75.8721 114.1 75.3242C114.188 75.1475 114.285 75.0149 114.391 74.9266C114.497 74.8382 114.648 74.794 114.842 74.794H118.209C118.386 74.794 118.545 74.8647 118.686 75.0061C118.827 75.1298 118.889 75.28 118.872 75.4568C118.854 75.7572 118.766 76.1107 118.606 76.5172C118.447 76.906 118.2 77.3213 117.864 77.7632C117.528 78.205 117.087 78.6203 116.539 79.0091C116.008 79.3803 115.363 79.6807 114.603 79.9105C113.843 80.1402 112.96 80.2551 111.952 80.2551ZM121.916 79.99C121.722 79.99 121.563 79.9281 121.439 79.8044C121.315 79.6807 121.253 79.5216 121.253 79.3272V66.8675C121.253 66.6908 121.315 66.5406 121.439 66.4169C121.563 66.2755 121.722 66.2048 121.916 66.2048H124.965C125.159 66.2048 125.318 66.2755 125.442 66.4169C125.566 66.5406 125.627 66.6908 125.627 66.8675V67.9279C126.105 67.3801 126.67 66.9559 127.324 66.6555C127.996 66.355 128.747 66.2048 129.577 66.2048H130.744C130.921 66.2048 131.071 66.2666 131.195 66.3904C131.336 66.5141 131.407 66.6731 131.407 66.8675V69.5981C131.407 69.7748 131.336 69.9339 131.195 70.0752C131.071 70.199 130.921 70.2608 130.744 70.2608H128.172C127.448 70.2608 126.882 70.4641 126.476 70.8705C126.087 71.2594 125.893 71.8161 125.893 72.5407V79.3272C125.893 79.5216 125.822 79.6807 125.68 79.8044C125.557 79.9281 125.398 79.99 125.203 79.99H121.916ZM133.954 79.99C133.76 79.99 133.601 79.9281 133.477 79.8044C133.353 79.6807 133.292 79.5216 133.292 79.3272V66.8675C133.292 66.6731 133.353 66.5141 133.477 66.3904C133.601 66.2666 133.76 66.2048 133.954 66.2048H137.082C137.259 66.2048 137.409 66.2666 137.533 66.3904C137.675 66.5141 137.745 66.6731 137.745 66.8675V79.3272C137.745 79.5216 137.675 79.6807 137.533 79.8044C137.409 79.9281 137.259 79.99 137.082 79.99H133.954ZM133.928 64.2165C133.733 64.2165 133.574 64.1547 133.451 64.031C133.327 63.9073 133.265 63.7482 133.265 63.5538V61.1944C133.265 61 133.327 60.8409 133.451 60.7172C133.574 60.5758 133.733 60.5051 133.928 60.5051H137.082C137.277 60.5051 137.436 60.5758 137.56 60.7172C137.701 60.8409 137.772 61 137.772 61.1944V63.5538C137.772 63.7482 137.701 63.9073 137.56 64.031C137.436 64.1547 137.277 64.2165 137.082 64.2165H133.928ZM149.281 80.2551C148.291 80.2551 147.461 80.0872 146.789 79.7514C146.135 79.4156 145.596 78.9914 145.172 78.4789V79.3272C145.172 79.5216 145.101 79.6807 144.96 79.8044C144.836 79.9281 144.686 79.99 144.509 79.99H141.514C141.319 79.99 141.16 79.9281 141.037 79.8044C140.913 79.6807 140.851 79.5216 140.851 79.3272V61.8306C140.851 61.6362 140.913 61.4772 141.037 61.3535C141.16 61.2297 141.319 61.1679 141.514 61.1679H144.748C144.942 61.1679 145.101 61.2297 145.225 61.3535C145.349 61.4772 145.411 61.6362 145.411 61.8306V67.5038C145.835 67.0443 146.365 66.6731 147.001 66.3904C147.655 66.0899 148.415 65.9397 149.281 65.9397C150.165 65.9397 150.942 66.0899 151.614 66.3904C152.303 66.6731 152.887 67.0885 153.364 67.6363C153.841 68.1842 154.212 68.8381 154.477 69.5981C154.742 70.358 154.892 71.2152 154.928 72.1695C154.946 72.5053 154.954 72.8146 154.954 73.0974C154.954 73.3625 154.946 73.6718 154.928 74.0252C154.892 75.0149 154.733 75.8986 154.451 76.6762C154.186 77.4362 153.814 78.0901 153.337 78.638C152.86 79.1682 152.286 79.5747 151.614 79.8574C150.942 80.1225 150.165 80.2551 149.281 80.2551ZM147.85 76.7028C148.451 76.7028 148.919 76.579 149.255 76.3316C149.59 76.0842 149.829 75.7484 149.97 75.3242C150.13 74.9001 150.227 74.4317 150.262 73.9192C150.297 73.3713 150.297 72.8235 150.262 72.2756C150.227 71.7631 150.13 71.2947 149.97 70.8705C149.829 70.4464 149.59 70.1106 149.255 69.8632C148.919 69.6157 148.451 69.492 147.85 69.492C147.302 69.492 146.851 69.6157 146.498 69.8632C146.144 70.0929 145.879 70.4022 145.702 70.791C145.526 71.1622 145.428 71.5686 145.411 72.0105C145.393 72.3463 145.384 72.6732 145.384 72.9914C145.384 73.3095 145.393 73.6453 145.411 73.9987C145.428 74.4759 145.517 74.9177 145.676 75.3242C145.835 75.7307 146.091 76.0665 146.445 76.3316C146.798 76.579 147.266 76.7028 147.85 76.7028ZM163.938 80.2551C161.852 80.2551 160.191 79.6895 158.954 78.5585C157.716 77.4274 157.071 75.7484 157.018 73.5215C157.018 73.3978 157.018 73.2388 157.018 73.0444C157.018 72.85 157.018 72.6997 157.018 72.5937C157.071 71.1975 157.381 70.0046 157.946 69.0148C158.529 68.0075 159.325 67.2475 160.332 66.735C161.357 66.2048 162.55 65.9397 163.911 65.9397C165.466 65.9397 166.748 66.249 167.755 66.8675C168.78 67.4861 169.549 68.3256 170.061 69.386C170.574 70.4464 170.83 71.657 170.83 73.0179V73.6541C170.83 73.8485 170.759 74.0076 170.618 74.1313C170.494 74.255 170.344 74.3168 170.167 74.3168H161.684C161.684 74.3345 161.684 74.361 161.684 74.3964C161.684 74.4317 161.684 74.4671 161.684 74.5024C161.702 75.0149 161.79 75.4833 161.949 75.9074C162.108 76.3316 162.356 76.6674 162.692 76.9148C163.027 77.1623 163.434 77.286 163.911 77.286C164.264 77.286 164.556 77.233 164.786 77.1269C165.033 77.0032 165.236 76.8706 165.396 76.7293C165.555 76.5702 165.678 76.4377 165.767 76.3316C165.926 76.1549 166.049 76.0488 166.138 76.0135C166.244 75.9605 166.403 75.934 166.615 75.934H169.902C170.079 75.934 170.22 75.987 170.326 76.093C170.45 76.1814 170.503 76.3139 170.485 76.4907C170.468 76.7911 170.318 77.1534 170.035 77.5776C169.752 78.0017 169.337 78.4259 168.789 78.8501C168.259 79.2565 167.587 79.5923 166.774 79.8574C165.961 80.1225 165.016 80.2551 163.938 80.2551ZM161.684 71.6924H166.164V71.6393C166.164 71.0738 166.076 70.5789 165.899 70.1548C165.74 69.7306 165.484 69.4037 165.13 69.1739C164.795 68.9442 164.388 68.8293 163.911 68.8293C163.434 68.8293 163.027 68.9442 162.692 69.1739C162.373 69.4037 162.126 69.7306 161.949 70.1548C161.773 70.5789 161.684 71.0738 161.684 71.6393V71.6924Z" fill="#FFF3E9"/>
<path d="M210.16 34.93C208.6 35.4866 207.102 36.2038 205.69 37.07C204.089 38.0366 202.543 39.0916 201.06 40.23C199.412 37.7217 197.099 35.7207 194.38 34.45C196.67 30.97 199.01 27.36 200.38 25C197.63 27 195.61 30 193.66 32.77C193.43 33.14 193.19 33.51 192.97 33.89C191.541 33.3785 190.038 33.1049 188.52 33.08C188.501 33.08 188.484 33.0874 188.47 33.1005C188.457 33.1136 188.45 33.1314 188.45 33.15C188.45 33.1686 188.457 33.1864 188.47 33.1995C188.484 33.2126 188.501 33.22 188.52 33.22C189.902 33.598 191.242 34.114 192.52 34.76C191.125 37 190.022 39.4096 189.24 41.93C189.19 42.01 189.31 42.08 189.36 42.01L193.72 35.44C196.163 36.8878 198.283 38.8209 199.95 41.12C197.999 42.7307 196.25 44.5706 194.74 46.6C194.67 46.67 194.74 46.78 194.83 46.72C196.36 45.6 198.49 44.01 200.74 42.32C201.983 44.352 202.79 46.6198 203.11 48.98C203.116 48.9953 203.126 49.0085 203.139 49.0178C203.153 49.0272 203.169 49.0322 203.185 49.0322C203.201 49.0322 203.217 49.0272 203.231 49.0178C203.244 49.0085 203.254 48.9953 203.26 48.98C203.538 46.4073 203.033 43.8105 201.81 41.53C204.94 39.16 208.17 36.69 210.23 35.08C210.3 35.01 210.24 34.91 210.16 34.93Z" fill="url(#paint0_linear_64_16686)"/>
<path d="M24.11 36.9399C21.6143 36.2472 18.9669 36.3309 16.52 37.1799C14.69 33.6999 12.77 30.1199 11.52 27.8199C11.52 27.7499 11.36 27.8199 11.38 27.8199C11.6777 29.4503 12.1436 31.0455 12.77 32.5799C13.4617 34.3402 14.253 36.0596 15.14 37.7299C12.4 38.9531 10.0529 40.9124 8.36 43.3899C5.3 40.5699 2.11 37.6799 0 35.9099C1.52 38.9099 4.17001 41.4199 6.59001 43.7899L7.59001 44.6599C6.85681 45.9851 6.34347 47.4204 6.07001 48.9099C6.07001 48.9999 6.18001 49.0499 6.21001 48.9699C6.80708 47.6814 7.53063 46.4554 8.37001 45.3099C10.3593 47.0356 12.5603 48.5007 14.92 49.6699C14.99 49.7299 15.08 49.6699 15.02 49.5599L9.24001 44.1899C11.0555 42.0031 13.3066 40.2185 15.85 38.9499C17.1221 41.1294 18.6569 43.1444 20.42 44.9499C20.4293 44.9672 20.445 44.98 20.4638 44.9856C20.4825 44.9913 20.5028 44.9892 20.52 44.9799C20.5372 44.9706 20.5501 44.9549 20.5557 44.9361C20.5613 44.9174 20.5593 44.8972 20.55 44.8799C19.69 43.1899 18.46 40.8799 17.15 38.3399C19.3698 37.4348 21.7538 37.0023 24.15 37.0699C24.159 37.0597 24.1651 37.0473 24.168 37.034C24.1708 37.0206 24.1702 37.0068 24.1662 36.9938C24.1622 36.9808 24.1549 36.969 24.1451 36.9596C24.1353 36.9501 24.1232 36.9434 24.11 36.9399Z" fill="url(#paint1_linear_64_16686)"/>
<path d="M226.44 105.51L243.14 112.05C243.542 112.208 243.87 112.512 244.055 112.902C244.241 113.292 244.271 113.739 244.14 114.15L237.5 128.36C237.481 128.389 237.453 128.41 237.42 128.42C237.386 128.429 237.351 128.425 237.32 128.41L227.43 123.41C227.399 123.39 227.373 123.363 227.352 123.332C227.331 123.301 227.317 123.267 227.31 123.23L226.24 105.63C226.232 105.604 226.233 105.577 226.242 105.552C226.252 105.526 226.27 105.505 226.293 105.491C226.316 105.478 226.343 105.472 226.37 105.475C226.396 105.479 226.421 105.491 226.44 105.51Z" fill="#3E241A"/>
<path d="M236.35 127.21L252.35 135.31C252.744 135.501 253.05 135.835 253.206 136.244C253.362 136.652 253.356 137.105 253.19 137.51L245.19 151.02C245.19 151.08 245.08 151.09 245.01 151.02L235.65 145.08C235.62 145.058 235.595 145.03 235.578 144.997C235.56 144.964 235.551 144.927 235.55 144.89L236.14 127.3C236.138 127.275 236.143 127.249 236.156 127.227C236.169 127.206 236.189 127.188 236.212 127.178C236.236 127.168 236.262 127.166 236.286 127.172C236.311 127.177 236.333 127.191 236.35 127.21Z" fill="#3E241A"/>
<path d="M245.34 149.79L260.21 159.79C260.579 160.027 260.843 160.397 260.948 160.823C261.052 161.249 260.988 161.699 260.77 162.08L251.24 174.51C251.214 174.534 251.18 174.547 251.145 174.547C251.11 174.547 251.076 174.534 251.05 174.51L242.5 167.45C242.471 167.426 242.449 167.395 242.435 167.36C242.421 167.325 242.416 167.287 242.42 167.25L245.18 149.87C245.184 149.854 245.192 149.838 245.203 149.825C245.214 149.812 245.227 149.802 245.242 149.794C245.257 149.787 245.274 149.782 245.291 149.782C245.307 149.781 245.324 149.784 245.34 149.79Z" fill="#3E241A"/>
<path d="M251.81 173.05L266.64 183.6C267.002 183.841 267.257 184.213 267.352 184.638C267.447 185.062 267.375 185.507 267.15 185.88L257.1 197.66C257.076 197.683 257.043 197.696 257.01 197.696C256.976 197.696 256.944 197.683 256.92 197.66L248.43 190.31C248.401 190.286 248.379 190.255 248.365 190.22C248.351 190.185 248.346 190.147 248.35 190.11L251.61 173.11C251.615 173.089 251.625 173.07 251.639 173.055C251.654 173.039 251.672 173.028 251.692 173.022C251.713 173.016 251.734 173.015 251.755 173.02C251.776 173.025 251.795 173.035 251.81 173.05Z" fill="#3E241A"/>
<path d="M144.33 164.19C144.33 164.19 111.91 162.19 90.2299 183.98C90.2299 183.98 73.4199 191.66 69.6599 199.76C69.6599 199.76 67.6599 204.11 70.9399 205.05C70.9399 205.05 69.6799 208.1 71.7999 210.05C72.3203 210.497 72.9468 210.802 73.6193 210.937C74.2917 211.072 74.9876 211.032 75.6399 210.82C75.6399 210.82 74.1199 214.46 76.4899 215.76C78.5799 216.92 81.3999 215.76 82.9299 213.52C86.2893 208.428 91.4219 204.768 97.3299 203.25C97.3299 203.25 96.05 206.58 98 211.81C98 211.81 99.3199 215.33 102.36 214.66C102.36 214.66 104.17 214.53 104.23 210.37C104.196 207.083 104.987 203.839 106.529 200.936C108.072 198.033 110.317 195.562 113.06 193.75C120.61 188.7 138.53 181.19 154.94 184.75L167.51 176.59C167.51 176.59 165.71 165.59 165.01 164.8C164.31 164.01 144.33 164.19 144.33 164.19Z" fill="#57BC57"/>
<path d="M167.51 176.64L154.94 184.8C149.496 183.694 143.898 183.569 138.41 184.43C129.404 185.766 120.773 188.953 113.06 193.79C110.321 195.608 108.08 198.082 106.54 200.986C105 203.89 104.209 207.133 104.24 210.42C104.18 214.58 102.38 214.7 102.38 214.7C99.38 215.38 98.02 211.85 98.02 211.85C96.07 206.62 97.35 203.29 97.35 203.29C91.4404 204.811 86.3076 208.475 82.95 213.57C81.42 215.78 78.6 216.96 76.51 215.81C74.21 214.55 75.56 211.11 75.65 210.87C74.9982 211.079 74.3038 211.116 73.6333 210.98C72.9627 210.843 72.3384 210.537 71.82 210.09C69.69 208.09 70.96 205.09 70.96 205.09C67.72 204.16 69.68 199.8 69.68 199.8C73.44 191.7 90.25 184.02 90.25 184.02C108.35 165.79 133.96 164.21 141.9 164.18C143.47 164.18 144.35 164.18 144.35 164.18C144.35 164.18 164.35 164.08 165.02 164.84C165.69 165.6 167.51 176.64 167.51 176.64Z" fill="url(#paint2_linear_64_16686)"/>
<path d="M70.87 205.01C71.17 200.4 75.35 195.5 80.21 195.88C80.31 195.88 80.38 195.99 80.28 196.05C76.28 197.87 73.44 201.53 71.02 205.1C70.96 205.19 70.84 205.1 70.87 205.01Z" fill="#285B28"/>
<path d="M75.5601 210.81C75.9401 205.96 80.1501 200.97 85.2501 201.13C85.3401 201.13 85.4201 201.24 85.3101 201.3C81.1401 203.3 78.1901 207.11 75.7201 210.9C75.6601 210.99 75.5301 210.9 75.5601 210.81Z" fill="#285B28"/>
<path d="M154.51 164.24C154.41 164.72 154.17 165.94 153.92 167.34C153.56 169.48 153.02 172.77 152.52 176.97C152.525 176.996 152.525 177.023 152.52 177.05C152.44 177.75 152.36 178.48 152.28 179.24C152.12 180.8 151.96 182.46 151.81 184.24C147.366 183.684 142.867 183.744 138.44 184.42L141.63 164.42L141.91 164.15C143.48 164.15 144.36 164.15 144.36 164.15C144.36 164.15 149.39 164.16 154.51 164.24Z" fill="url(#paint3_linear_64_16686)"/>
<path d="M257.41 197.48L271.72 209.8C271.893 209.922 272.038 210.078 272.147 210.259C272.256 210.44 272.326 210.642 272.353 210.852C272.381 211.061 272.364 211.274 272.305 211.477C272.246 211.68 272.146 211.868 272.01 212.03L260.24 221.51C260.214 221.534 260.18 221.547 260.145 221.547C260.11 221.547 260.076 221.534 260.05 221.51L251.99 213.22C251.965 213.194 251.948 213.162 251.939 213.127C251.93 213.092 251.931 213.055 251.94 213.02L257.24 197.51C257.24 197.42 257.32 197.41 257.41 197.48Z" fill="#3E241A"/>
<mask id="mask0_64_16686" style="mask-type:luminance" maskUnits="userSpaceOnUse" x="148" y="112" width="117" height="147">
<path d="M264.37 112.93H148.93V258.93H264.37V112.93Z" fill="white"/>
</mask>
<g mask="url(#mask0_64_16686)">
<path d="M260.37 258.83C255.9 260.65 251.48 262.23 247.13 263.61C238.768 266.272 230.221 268.318 221.56 269.73C218.43 270.26 215.39 270.73 212.44 271.01L211.87 271.08C209.95 271.3 208.08 271.47 206.24 271.61C202.01 271.96 198.02 272.13 194.3 272.19C191.73 272.19 189.3 272.19 186.99 272.19H186.17C179.023 272.063 171.898 271.344 164.87 270.04L164.56 269.4C162.469 264.9 160.643 260.282 159.09 255.57C158.583 254.01 158.103 252.457 157.65 250.91C150.31 225.91 150.43 200.91 151.81 184.3C151.96 182.55 152.12 180.89 152.28 179.3C152.36 178.54 152.44 177.81 152.52 177.11C152.525 177.083 152.525 177.056 152.52 177.03C153.02 172.83 153.52 169.54 153.92 167.4C154.17 166 154.41 164.78 154.51 164.3C154.51 164.16 154.56 164.09 154.56 164.09L209.68 145.73L231.45 138.47L236.45 136.76L240.51 135.38L240.93 136.48L241.35 137.59C242.23 139.96 243.08 142.33 243.89 144.68C244 145.01 244.12 145.34 244.23 145.68C248.267 157.582 251.553 169.726 254.07 182.04C254.59 184.533 255.067 186.983 255.5 189.39C256.12 192.803 256.67 196.137 257.15 199.39C257.21 199.78 257.26 200.16 257.32 200.54C258.18 206.39 258.83 211.94 259.32 217.12C259.51 219.12 259.67 221.03 259.82 222.89C259.82 223.07 259.82 223.24 259.82 223.41C260.16 227.95 260.37 232.16 260.5 235.96C260.865 243.58 260.821 251.214 260.37 258.83Z" fill="#57BC57"/>
<path d="M257.24 199.3C257.16 199.4 257.06 199.52 256.96 199.67C255.946 201.382 254.817 203.022 253.58 204.58C253.09 205.141 252.41 205.499 251.67 205.586C250.931 205.673 250.186 205.482 249.58 205.05C246.09 202.51 246.99 197.17 249.42 192.98C249.75 192.42 250.06 191.85 250.35 191.3C251.15 189.77 251.82 188.3 252.29 187.22C252.6 186.52 252.83 185.97 252.98 185.64C253.48 184.455 253.868 183.227 254.14 181.97C254.65 184.46 255.14 186.91 255.56 189.32C255.66 189.82 255.75 190.32 255.83 190.81C255.98 191.6 256.11 192.38 256.24 193.16C256.473 194.533 256.693 195.883 256.9 197.21C257 197.91 257.11 198.61 257.24 199.3Z" fill="#08605F"/>
<path d="M260.6 235.86C259.945 236.508 259.254 237.119 258.53 237.69C257.995 238.176 257.322 238.482 256.604 238.564C255.886 238.647 255.161 238.502 254.53 238.15C251.03 235.61 251.94 230.27 254.37 226.08C255.49 224.14 257.31 221.46 258.66 218.65C258.91 218.11 259.15 217.57 259.36 217.02C259.55 219.02 259.71 220.94 259.86 222.8C259.86 222.98 259.86 223.15 259.86 223.32C260.24 227.86 260.47 232.06 260.6 235.86Z" fill="#08605F"/>
<path d="M203.4 168.84C203.4 168.84 194.18 168.08 186.97 169.38C186.97 169.38 156.04 173.59 157.22 206.3C158.12 231.41 164.03 252.3 176.42 264.93C177.11 265.64 177.82 266.31 178.55 266.93C180.808 268.958 183.279 270.735 185.92 272.23C186.32 272.52 193.07 277.23 205.49 281.23C207.1 281.75 209.23 282.35 211.36 282.91C212.29 283.15 213.25 283.39 214.24 283.61L215.18 283.83H215.37C216.13 284 216.9 284.17 217.7 284.32C217.777 278.85 219.232 273.488 221.93 268.73C224.78 264.39 231.56 253.43 233.29 244.59C237.24 224.48 234.15 171.99 203.4 168.84Z" fill="#FBD08D"/>
<path opacity="0.6" d="M203.4 168.84C203.4 168.84 194.18 168.08 186.97 169.38C186.97 169.38 156.04 173.59 157.22 206.3C158.12 231.41 164.03 252.3 176.42 264.93C177.11 265.64 177.82 266.31 178.55 266.93C180.808 268.958 183.279 270.735 185.92 272.23C186.32 272.52 193.07 277.23 205.49 281.23C207.1 281.75 209.23 282.35 211.36 282.91C212.29 283.15 213.25 283.39 214.24 283.61L215.18 283.83H215.37C216.13 284 216.9 284.17 217.7 284.32C217.777 278.85 219.232 273.488 221.93 268.73C224.78 264.39 231.56 253.43 233.29 244.59C237.24 224.48 234.15 171.99 203.4 168.84Z" fill="url(#paint4_linear_64_16686)"/>
</g>
<path d="M240.57 135.31C238.79 136.06 237.44 136.67 236.33 137.2C233.97 138.3 232.69 139.02 230.8 139.89C229.65 140.42 228.27 141.02 226.26 141.8C221 143.87 209.79 147.35 209.79 147.35C191.12 158.41 171.31 161.53 165.15 162.84L164.75 162.92L163.19 163.23C160.515 163.7 157.818 164.034 155.11 164.23H154.81H154.51H154.36C111.36 166.89 93.5399 131.43 96.6999 116.92C99.6999 103.33 119.38 98.37 123.96 97.38C123.852 97.1334 123.762 96.8795 123.69 96.62C122.418 92.7956 122.327 88.6767 123.43 84.8C124.214 82.0098 125.583 79.4186 127.447 77.1994C129.311 74.9801 131.627 73.1838 134.24 71.93C135.08 71.5253 135.945 71.1745 136.83 70.88C139.783 69.9117 142.918 69.6336 145.995 70.067C149.073 70.5004 152.009 71.6338 154.58 73.38C155.63 70.4527 157.337 67.8049 159.57 65.6398C161.803 63.4747 164.502 61.8499 167.46 60.89C175.84 58.15 185.74 60.47 190.9 67C194.141 70.9194 196.991 75.1462 199.41 79.62C199.41 79.62 211.66 82.33 227.05 106.51C229.47 110.884 231.669 115.376 233.64 119.97C236.04 125.28 238.47 130.81 240.09 134.21L240.57 135.31Z" fill="url(#paint5_linear_64_16686)"/>
<path opacity="0.7" d="M184.24 158.5C182.11 161.62 173.51 172 152.49 176.99C153 172.79 153.49 169.5 153.89 167.36C154.14 165.96 154.38 164.74 154.48 164.25H154.78H155.08C156.56 164.12 160.18 163.75 164.72 162.97L165.12 162.89C171.444 161.853 177.635 160.123 183.58 157.73C183.683 157.697 183.794 157.695 183.898 157.724C184.002 157.754 184.095 157.813 184.166 157.896C184.236 157.978 184.281 158.079 184.294 158.187C184.307 158.294 184.289 158.403 184.24 158.5Z" fill="#3D7C3F"/>
<path d="M125.9 125.36C125.686 125.491 125.443 125.566 125.193 125.578C124.943 125.591 124.693 125.54 124.468 125.43C124.243 125.32 124.049 125.156 123.904 124.951C123.759 124.747 123.669 124.509 123.64 124.26C123.36 121.74 123.41 117.41 127.15 117.77C131.31 118.18 128.97 123.46 125.9 125.36Z" fill="#281911"/>
<path d="M115.84 128.31C116.09 128.27 116.326 128.168 116.525 128.012C116.725 127.856 116.882 127.653 116.982 127.42C117.082 127.188 117.121 126.934 117.096 126.682C117.071 126.43 116.983 126.189 116.84 125.98C115.35 123.91 112.42 120.73 109.84 123.51C107.02 126.58 112.29 128.95 115.84 128.31Z" fill="#281911"/>
<path d="M168.24 50.8301C165.67 51.7001 159.52 54.3301 156.62 60.3201C156.565 60.4367 156.478 60.5353 156.369 60.6043C156.26 60.6733 156.134 60.71 156.005 60.71C155.876 60.71 155.75 60.6733 155.641 60.6043C155.532 60.5353 155.445 60.4367 155.39 60.3201C154.24 57.8201 152.39 52.3201 157.16 49.3201C158.832 48.1876 160.816 47.6059 162.835 47.6561C164.854 47.7063 166.806 48.3859 168.42 49.6001C168.54 49.664 168.638 49.7634 168.699 49.8849C168.761 50.0063 168.783 50.1438 168.763 50.2785C168.744 50.4132 168.683 50.5385 168.589 50.6373C168.495 50.736 168.374 50.8034 168.24 50.8301Z" fill="#281911"/>
<path d="M128.01 64.99C130.59 64.13 137.08 62.54 143.01 65.59C143.122 65.6522 143.249 65.6814 143.377 65.6743C143.506 65.6672 143.629 65.6241 143.733 65.5498C143.838 65.4756 143.919 65.3733 143.968 65.2548C144.017 65.1363 144.032 65.0064 144.01 64.88C143.43 62.18 141.55 56.66 136.01 57.17C133.992 57.2721 132.057 58.0015 130.474 59.2564C128.891 60.5113 127.74 62.2291 127.18 64.17C127.149 64.2846 127.149 64.4053 127.18 64.5199C127.21 64.6345 127.271 64.7388 127.356 64.8222C127.44 64.9056 127.545 64.9651 127.66 64.9946C127.775 65.0241 127.896 65.0225 128.01 64.99Z" fill="#281911"/>
<path d="M199.02 114.79C199.202 116.452 199.202 118.128 199.02 119.79C198.96 120.2 198.92 120.62 198.84 121.04C198.78 121.451 198.696 121.858 198.59 122.26C198.516 122.598 198.423 122.932 198.31 123.26C198.25 123.488 198.177 123.711 198.09 123.93C198.014 124.193 197.921 124.45 197.81 124.7C195.98 129.29 192.04 133.57 184.71 136.77H184.63C179.91 138.94 172.86 140.25 170.39 140.67C170.161 140.702 169.929 140.644 169.742 140.507C169.556 140.371 169.429 140.168 169.39 139.94C168.975 136.963 168.394 134.012 167.65 131.1L167.51 130.54C166.1 125.048 163.929 119.78 161.06 114.89C161.001 114.79 160.965 114.679 160.954 114.563C160.943 114.448 160.957 114.332 160.995 114.223C161.033 114.113 161.094 114.013 161.174 113.93C161.255 113.847 161.352 113.782 161.46 113.74L162.24 113.44C165.86 112.06 169.09 110.63 171.96 109.22L172.33 109.04C175.511 107.464 178.599 105.708 181.58 103.78C181.77 103.65 181.96 103.52 182.16 103.4C185.139 101.478 187.92 99.2634 190.46 96.7899L190.57 96.6799C190.65 96.5975 190.748 96.5338 190.856 96.4935C190.963 96.4532 191.079 96.4372 191.194 96.4468C191.308 96.4563 191.419 96.4912 191.519 96.5488C191.619 96.6064 191.704 96.6853 191.77 96.7799C193.41 99.1799 198.1 106.62 199.02 114.79Z" fill="#530007"/>
<path d="M169.4 139.97C169.416 140.085 169.454 140.195 169.514 140.295C169.573 140.395 169.651 140.481 169.744 140.55C169.837 140.619 169.943 140.669 170.056 140.696C170.169 140.724 170.286 140.728 170.4 140.71C172.87 140.29 179.93 138.98 184.64 136.81L184.72 136.76C192.05 133.58 195.99 129.3 197.81 124.69C197.917 124.438 198.01 124.181 198.09 123.92C198.17 123.69 198.25 123.47 198.31 123.25C198.37 123.03 198.51 122.59 198.59 122.25C198.67 121.91 198.78 121.42 198.85 121.01C198.92 120.6 198.97 120.18 199.01 119.77C199.192 118.108 199.192 116.432 199.01 114.77C194.93 114.91 186.67 115.89 181.51 121.16C178.574 121.417 175.75 122.413 173.303 124.055C170.855 125.696 168.862 127.931 167.51 130.55L167.65 131.11C168.391 134.03 168.975 136.988 169.4 139.97Z" fill="#B23F74"/>
<path d="M177.12 129.79C175.67 126.59 178.12 121.73 181.5 121.17C179.226 123.537 177.744 126.553 177.26 129.8C177.26 129.88 177.13 129.87 177.12 129.8V129.79Z" fill="#7C1A4B"/>
<path d="M190.39 105.78C187.21 108.27 183.54 104.91 182.16 103.43C185.139 101.508 187.92 99.2936 190.46 96.8201C191.1 97.9601 193.71 103.15 190.39 105.78Z" fill="#FFF3E9"/>
<path d="M180.82 112.49C177.1 115.19 172.96 109.92 172.33 109.07C175.511 107.495 178.6 105.738 181.58 103.81C182.24 105.35 184.05 110.17 180.82 112.49Z" fill="#FFF3E9"/>
<path d="M170.29 117.51C166.46 119.56 163.03 114.7 162.24 113.51C165.86 112.13 169.09 110.7 171.96 109.29C172.55 111.13 173.6 115.73 170.29 117.51Z" fill="#FFF3E9"/>
<path d="M176.95 68.9499L179.11 71.1399C179.216 71.2503 179.298 71.3819 179.35 71.5261C179.402 71.6703 179.423 71.8239 179.412 71.9767C179.401 72.1296 179.357 72.2784 179.284 72.4134C179.212 72.5483 179.111 72.6664 178.99 72.7599L168.24 80.8899C168.188 80.9313 168.15 80.9878 168.132 81.0516C168.114 81.1154 168.116 81.1833 168.138 81.2459C168.16 81.3085 168.201 81.3627 168.255 81.4011C168.309 81.4394 168.374 81.46 168.44 81.4599L181.66 81.1999C181.809 81.1969 181.956 81.2247 182.094 81.2815C182.231 81.3382 182.355 81.4228 182.459 81.5298C182.562 81.6368 182.642 81.764 182.694 81.9034C182.746 82.0428 182.768 82.1914 182.76 82.3399L182.6 85.2199C182.589 85.367 182.548 85.5102 182.48 85.6411C182.412 85.7719 182.318 85.8876 182.204 85.9811C182.09 86.0746 181.958 86.1439 181.816 86.185C181.675 86.226 181.526 86.2379 181.38 86.2199L165.38 84.0899C165.203 84.0664 165.034 83.9993 164.889 83.8946C164.744 83.7898 164.628 83.6508 164.55 83.4899L163.85 82.0799C163.753 81.8815 163.719 81.6582 163.753 81.4401C163.787 81.222 163.887 81.0195 164.04 80.8599L175.4 68.9399C175.502 68.8381 175.623 68.7575 175.757 68.7028C175.89 68.6481 176.033 68.6204 176.177 68.6214C176.321 68.6223 176.464 68.6518 176.596 68.7082C176.729 68.7646 176.849 68.8468 176.95 68.9499Z" fill="#281911"/>
<path d="M134.24 83.01L133.7 86.01C133.674 86.1597 133.681 86.313 133.718 86.46C133.756 86.607 133.824 86.7445 133.919 86.8634C134.013 86.9823 134.131 87.0799 134.266 87.15C134.401 87.2201 134.548 87.261 134.7 87.2701L148.14 87.9001C148.209 87.8983 148.277 87.9197 148.333 87.9609C148.388 88.0022 148.428 88.0608 148.447 88.1275C148.465 88.1942 148.461 88.2652 148.434 88.329C148.407 88.3929 148.36 88.4461 148.3 88.48L137.3 95.75C137.175 95.8309 137.068 95.9369 136.987 96.0613C136.905 96.1857 136.85 96.3258 136.826 96.4726C136.801 96.6194 136.808 96.7698 136.844 96.914C136.881 97.0582 136.948 97.193 137.04 97.31L138.8 99.6C138.891 99.7179 139.006 99.8157 139.136 99.8872C139.267 99.9588 139.411 100.002 139.559 100.016C139.708 100.029 139.857 100.011 139.999 99.9637C140.14 99.9162 140.27 99.8401 140.38 99.7401L152.38 88.91C152.519 88.7875 152.625 88.6311 152.686 88.4559C152.747 88.2807 152.762 88.0927 152.73 87.91L152.5 86.35C152.465 86.132 152.365 85.9296 152.214 85.7691C152.062 85.6086 151.866 85.4974 151.65 85.45L135.54 82.06C135.392 82.0299 135.238 82.0312 135.09 82.0636C134.942 82.096 134.803 82.1589 134.68 82.2483C134.558 82.3377 134.456 82.4516 134.38 82.5827C134.304 82.7139 134.256 82.8594 134.24 83.01Z" fill="#281911"/>
<path d="M241.41 137.51L234.89 151.77L231.89 158.35C230.654 158.127 229.48 157.639 228.45 156.92C224.95 154.38 225.86 149.04 228.29 144.85C229.213 143.227 230.054 141.558 230.81 139.85C231.06 139.29 231.28 138.79 231.46 138.36L231.85 137.48C234.33 131.67 233.96 123.7 233.6 119.93C236 125.24 238.43 130.77 240.05 134.17H240.21L240.58 135.22L241 136.32L241.41 137.51Z" fill="#08605F"/>
<path d="M244.29 145.6C238.82 158.02 234.29 158.44 232.45 158.42C232.259 158.419 232.068 158.399 231.88 158.36L232.57 147.23C233.35 145.35 235.08 140.61 236.33 137.23L236.51 136.72C237.2 134.81 237.69 133.43 237.69 133.43L240.04 134.24H240.2L240.57 135.29L240.99 136.39L241.41 137.49C242.29 139.86 243.15 142.23 243.95 144.58L244.29 145.6Z" fill="#08605F"/>
<path opacity="0.7" d="M252.24 187.22C251.77 188.31 251.1 189.77 250.3 191.3C244.76 186.05 238.22 181.969 231.07 179.3C238.586 180.495 245.785 183.188 252.24 187.22Z" fill="#3D7C3F"/>
<path d="M257.38 200.45C257.24 200.19 257.09 199.93 256.93 199.67C255.141 196.582 252.922 193.764 250.34 191.3C251.14 189.77 251.81 188.3 252.28 187.22C253.42 187.887 254.51 188.587 255.55 189.32C255.64 189.82 255.73 190.32 255.81 190.81C255.96 191.6 256.09 192.38 256.22 193.16C256.453 194.533 256.673 195.883 256.88 197.21C256.99 197.91 257.1 198.61 257.2 199.3C257.24 199.73 257.32 200.07 257.38 200.45Z" fill="#023F3D"/>
<path d="M303.5 217.73C303.5 217.73 304.04 220.98 301.5 222.44C300.893 222.758 300.215 222.915 299.531 222.896C298.846 222.876 298.178 222.682 297.59 222.33C297.59 222.58 298.15 226.23 295.59 226.94C293.3 227.6 290.82 225.82 289.83 223.31C287.747 217.594 283.617 212.855 278.24 210.01C278.24 210.01 278.73 213.55 275.65 218.19C275.65 218.19 273.56 221.33 270.75 219.99C270.75 219.99 269.03 219.46 269.91 215.39C270.683 212.197 270.646 208.86 269.8 205.685C268.955 202.51 267.329 199.596 265.07 197.21C263.416 195.47 261.638 193.853 259.75 192.37C252.92 186.92 242.47 180.88 231.16 179.37C229.667 179.17 228.165 179.05 226.66 179.01C234.19 170.31 241.3 161.33 241.3 161.33C241.3 161.33 273.35 166.68 289.52 192.84C289.52 192.84 304.16 204.12 305.98 212.84C305.93 212.83 306.86 217.51 303.5 217.73Z" fill="#57BC57"/>
<path d="M303.5 217.73C303.5 217.73 304.04 220.98 301.5 222.44C300.893 222.758 300.215 222.915 299.531 222.896C298.846 222.876 298.178 222.682 297.59 222.33C297.59 222.58 298.15 226.23 295.59 226.94C293.3 227.6 290.82 225.82 289.83 223.31C287.747 217.594 283.617 212.855 278.24 210.01C278.24 210.01 278.73 213.55 275.65 218.19C275.65 218.19 273.56 221.33 270.75 219.99C270.75 219.99 269.03 219.46 269.91 215.39C270.683 212.197 270.646 208.86 269.8 205.685C268.955 202.51 267.329 199.596 265.07 197.21C263.416 195.47 261.638 193.853 259.75 192.37C252.92 186.92 242.47 180.88 231.16 179.37C229.667 179.17 228.165 179.05 226.66 179.01C234.19 170.31 241.3 161.33 241.3 161.33C241.3 161.33 273.35 166.68 289.52 192.84C289.52 192.84 304.16 204.12 305.98 212.84C305.93 212.83 306.86 217.51 303.5 217.73Z" fill="url(#paint6_linear_64_16686)"/>
<path d="M74.3101 187.26C70.0918 171.164 70.7391 154.179 76.1701 138.45C76.1701 138.36 76.3401 138.39 76.3201 138.45C72.5901 154.28 72.3201 171.57 74.3201 187.23L74.3101 187.26Z" fill="url(#paint7_linear_64_16686)"/>
<path d="M87.5701 123.13C84.4601 140.77 80.9901 158.59 81.7201 176.56C81.8201 177.75 81.8901 178.96 81.9401 180.18C81.9401 180.27 81.8001 180.29 81.7901 180.18C80.0201 170.67 80.4001 160.92 81.5001 151.35C82.1101 146.57 82.9401 141.82 83.9201 137.1C84.9001 132.38 86.0501 127.69 87.4201 123.1C87.4201 123.01 87.6001 123.05 87.5701 123.1V123.13Z" fill="url(#paint8_linear_64_16686)"/>
<path d="M90.43 173.46C89.4279 167.179 89.1294 160.807 89.54 154.46C89.7972 148.096 90.9106 141.796 92.85 135.73C92.85 135.64 93.01 135.66 92.99 135.73C90.79 148.02 90.81 161.41 90.43 173.41V173.46Z" fill="url(#paint9_linear_64_16686)"/>
</g>
<defs>
<linearGradient id="paint0_linear_64_16686" x1="192.19" y1="44.86" x2="206.09" y2="30.47" gradientUnits="userSpaceOnUse">
<stop offset="0.16" stop-color="#281911"/>
<stop offset="0.51" stop-color="#281911" stop-opacity="0.66"/>
<stop offset="1" stop-color="#281911" stop-opacity="0"/>
</linearGradient>
<linearGradient id="paint1_linear_64_16686" x1="18.26" y1="47.2799" x2="6.54" y2="31.1499" gradientUnits="userSpaceOnUse">
<stop offset="0.14" stop-color="#281911"/>
<stop offset="0.81" stop-color="#281911" stop-opacity="0.24"/>
<stop offset="1" stop-color="#281911" stop-opacity="0"/>
</linearGradient>
<linearGradient id="paint2_linear_64_16686" x1="79.69" y1="219.9" x2="156.86" y2="155.15" gradientUnits="userSpaceOnUse">
<stop stop-color="#127C12" stop-opacity="0.8"/>
<stop offset="0.16" stop-color="#238B24" stop-opacity="0.63"/>
<stop offset="0.54" stop-color="#46AA48" stop-opacity="0.29"/>
<stop offset="0.83" stop-color="#5BBD5E" stop-opacity="0.08"/>
<stop offset="1" stop-color="#63C466" stop-opacity="0"/>
</linearGradient>
<linearGradient id="paint3_linear_64_16686" x1="154.51" y1="174.28" x2="138.41" y2="174.28" gradientUnits="userSpaceOnUse">
<stop stop-color="#127C12" stop-opacity="0.8"/>
<stop offset="0.16" stop-color="#238B24" stop-opacity="0.63"/>
<stop offset="0.54" stop-color="#46AA48" stop-opacity="0.29"/>
<stop offset="0.83" stop-color="#5BBD5E" stop-opacity="0.08"/>
<stop offset="1" stop-color="#63C466" stop-opacity="0"/>
</linearGradient>
<linearGradient id="paint4_linear_64_16686" x1="188.77" y1="169.085" x2="206.622" y2="286.184" gradientUnits="userSpaceOnUse">
<stop stop-color="#FBD08D" stop-opacity="0"/>
<stop offset="0.25" stop-color="#F2C686" stop-opacity="0.03"/>
<stop offset="0.51" stop-color="#D9A971" stop-opacity="0.13"/>
<stop offset="0.77" stop-color="#AE794E" stop-opacity="0.3"/>
<stop offset="1" stop-color="#7A3E23" stop-opacity="0.5"/>
</linearGradient>
<linearGradient id="paint5_linear_64_16686" x1="171.47" y1="162.78" x2="162.51" y2="60.73" gradientUnits="userSpaceOnUse">
<stop offset="0.17" stop-color="#57BC57"/>
<stop offset="0.49" stop-color="#7BD163"/>
<stop offset="0.82" stop-color="#9AE36D"/>
<stop offset="1" stop-color="#A6EA71"/>
</linearGradient>
<linearGradient id="paint6_linear_64_16686" x1="280.25" y1="245.92" x2="251.83" y2="144.15" gradientUnits="userSpaceOnUse">
<stop stop-color="#127C12" stop-opacity="0.8"/>
<stop offset="0.36" stop-color="#349A35" stop-opacity="0.47"/>
<stop offset="0.78" stop-color="#56B858" stop-opacity="0.13"/>
<stop offset="1" stop-color="#63C466" stop-opacity="0"/>
</linearGradient>
<linearGradient id="paint7_linear_64_16686" x1="73.9401" y1="187.26" x2="73.9401" y2="138.39" gradientUnits="userSpaceOnUse">
<stop offset="0.38" stop-color="#281911"/>
<stop offset="0.59" stop-color="#281911" stop-opacity="0.49"/>
<stop offset="0.81" stop-color="#281911" stop-opacity="0.13"/>
<stop offset="1" stop-color="#281911" stop-opacity="0"/>
</linearGradient>
<linearGradient id="paint8_linear_64_16686" x1="84.0701" y1="180.26" x2="84.0701" y2="123.04" gradientUnits="userSpaceOnUse">
<stop offset="0.38" stop-color="#281911"/>
<stop offset="0.59" stop-color="#281911" stop-opacity="0.49"/>
<stop offset="0.81" stop-color="#281911" stop-opacity="0.13"/>
<stop offset="1" stop-color="#281911" stop-opacity="0"/>
</linearGradient>
<linearGradient id="paint9_linear_64_16686" x1="91.19" y1="173.46" x2="91.19" y2="135.7" gradientUnits="userSpaceOnUse">
<stop offset="0.38" stop-color="#281911"/>
<stop offset="0.59" stop-color="#281911" stop-opacity="0.49"/>
<stop offset="0.81" stop-color="#281911" stop-opacity="0.13"/>
<stop offset="1" stop-color="#281911" stop-opacity="0"/>
</linearGradient>
<clipPath id="clip0_64_16686">
<rect width="259" height="259" fill="white"/>
</clipPath>
</defs>
</svg>
