<svg width="259" height="259" viewBox="0 0 259 259" fill="none" xmlns="http://www.w3.org/2000/svg">
<g clip-path="url(#clip0_64_16695)">
<path d="M235.92 210.176L236.16 208.376H139.34L147.06 150.296C147.291 148.755 148.057 147.343 149.223 146.309C150.389 145.274 151.881 144.682 153.44 144.636H242.44L243.24 142.726L246.65 145.986C247.476 146.785 248.003 147.845 248.14 148.986C248.15 149.032 248.15 149.08 248.14 149.126C248.184 149.522 248.184 149.921 248.14 150.316L240.43 208.376C240.43 208.376 240.02 211.756 235.25 211.876C235.471 211.653 235.645 211.388 235.76 211.095C235.875 210.803 235.929 210.49 235.92 210.176Z" fill="#7D9E7D"/>
<path d="M140.51 211.966H230.24C232.47 211.966 234.24 212.706 235.16 211.966C235.396 211.752 235.586 211.492 235.717 211.201C235.847 210.91 235.917 210.595 235.92 210.276C235.92 210.276 236.26 208.136 236.45 206.356C238.04 191.446 244.52 146.926 244.52 146.926C244.641 146.221 244.605 145.498 244.413 144.809C244.222 144.12 243.88 143.482 243.412 142.941C242.945 142.399 242.363 141.969 241.709 141.679C241.055 141.39 240.345 141.249 239.63 141.266H149.91C144.61 141.266 143.97 143.036 143.52 146.926L134.68 211.496C134.669 211.558 134.673 211.622 134.69 211.682C134.707 211.743 134.737 211.799 134.778 211.847C134.819 211.894 134.87 211.933 134.927 211.958C134.985 211.984 135.047 211.997 135.11 211.996L140.51 211.966Z" fill="#95AF95"/>
<path d="M143.52 146.916C143.97 143.026 144.61 141.256 149.91 141.256H239.63C240.3 141.243 240.965 141.367 241.586 141.619C242.207 141.872 242.769 142.249 243.24 142.726L246.65 145.986C247.476 146.785 248.003 147.845 248.14 148.986C248.15 149.032 248.15 149.08 248.14 149.126C248.184 149.522 248.184 149.921 248.14 150.316L240.43 208.376C240.43 208.376 240.02 211.696 235.36 211.876L235.25 211.976C234.25 212.726 232.56 211.976 230.33 211.976H140.6H135.2C135.137 211.977 135.074 211.964 135.017 211.938C134.96 211.913 134.909 211.874 134.868 211.827C134.827 211.779 134.797 211.723 134.78 211.662C134.763 211.602 134.759 211.538 134.77 211.476L143.52 146.916Z" fill="url(#paint0_linear_64_16695)"/>
<path d="M84.7797 211.876V213.376C84.7797 213.963 84.8953 214.545 85.1199 215.087C85.3446 215.629 85.6739 216.122 86.0889 216.537C86.504 216.952 86.9967 217.282 87.5391 217.506C88.0814 217.731 88.6627 217.846 89.2497 217.846H230.69C231.277 217.846 231.858 217.731 232.4 217.506C232.943 217.282 233.435 216.952 233.85 216.537C234.265 216.122 234.595 215.629 234.819 215.087C235.044 214.545 235.16 213.963 235.16 213.376V211.876H84.7797Z" fill="#6F936F"/>
<path d="M84.7797 211.876V213.376C84.7797 213.963 84.8953 214.545 85.1199 215.087C85.3446 215.629 85.6739 216.122 86.0889 216.537C86.504 216.952 86.9967 217.282 87.5391 217.506C88.0814 217.731 88.6627 217.846 89.2497 217.846H186.54C187.127 217.846 187.708 217.731 188.25 217.506C188.793 217.282 189.285 216.952 189.7 216.537C190.116 216.122 190.445 215.629 190.669 215.087C190.894 214.545 191.01 213.963 191.01 213.376V211.876H84.7797Z" fill="#95AF95"/>
<path d="M191.01 211.876H235.16V213.376C235.16 213.963 235.044 214.545 234.819 215.087C234.595 215.629 234.266 216.122 233.85 216.537C233.435 216.952 232.943 217.282 232.4 217.506C231.858 217.731 231.277 217.846 230.69 217.846H89.2397C88.6527 217.846 88.0715 217.731 87.5292 217.506C86.9868 217.282 86.4941 216.952 86.079 216.537C85.6639 216.122 85.3346 215.629 85.11 215.087C84.8853 214.545 84.7698 213.963 84.7698 213.376V211.876H191.01Z" fill="url(#paint1_linear_64_16695)"/>
<path d="M240.58 149.727L240.5 150.327L240.21 152.517V152.617L240.11 153.337L238.19 167.477L238.06 168.477L237.91 169.637L235.91 184.407L233.75 200.337L233.17 204.697C232.977 205.709 232.45 206.627 231.675 207.305C230.899 207.983 229.918 208.381 228.89 208.437H228.24H215.59H211.69H142.52H140.6C140.234 208.458 139.869 208.396 139.531 208.255C139.193 208.114 138.892 207.898 138.65 207.624C138.408 207.349 138.232 207.023 138.135 206.67C138.038 206.317 138.022 205.946 138.09 205.587L140.83 184.727L141.05 183.107L144.99 153.827L145.47 150.287L145.55 149.687L240.58 149.727Z" fill="#4D4D4D"/>
<path d="M241.04 146.117C241.04 146.227 241.04 146.337 241.04 146.447C241.036 146.47 241.036 146.493 241.04 146.517L240.61 149.707H145.61L145.93 147.376C145.951 147.21 145.988 147.046 146.04 146.887C146.033 146.87 146.033 146.853 146.04 146.836C146.072 146.706 146.116 146.579 146.17 146.457V146.376C146.25 146.206 146.33 146.037 146.42 145.887C146.51 145.737 146.6 145.606 146.71 145.466C146.8 145.346 146.9 145.236 147 145.126C147.152 144.958 147.319 144.804 147.5 144.667C147.603 144.575 147.713 144.491 147.83 144.417C147.895 144.366 147.965 144.322 148.04 144.286C148.217 144.172 148.404 144.075 148.6 143.996C148.765 143.911 148.939 143.844 149.12 143.797L149.4 143.727C149.524 143.696 149.651 143.676 149.78 143.667H150.14L238.48 143.716C238.821 143.716 239.16 143.777 239.48 143.897L239.7 143.996C239.841 144.066 239.975 144.149 240.1 144.246L240.26 144.387C240.33 144.44 240.39 144.504 240.44 144.577L240.56 144.737C240.629 144.837 240.69 144.945 240.74 145.056C240.797 145.169 240.843 145.286 240.88 145.406C240.918 145.533 240.942 145.664 240.95 145.797C240.955 145.823 240.955 145.85 240.95 145.876C240.983 145.955 241.013 146.035 241.04 146.117Z" fill="#F2F2F2"/>
<path d="M241.04 146.116C241.044 146.203 241.044 146.29 241.04 146.376C241.034 146.399 241.034 146.423 241.04 146.446C241.036 146.47 241.036 146.493 241.04 146.516L240.61 149.706H145.61L145.93 147.376C145.951 147.21 145.988 147.046 146.04 146.886C146.033 146.87 146.033 146.852 146.04 146.836C146.072 146.706 146.116 146.579 146.17 146.456V146.376C146.25 146.206 146.33 146.036 146.42 145.886C146.51 145.736 146.6 145.606 146.71 145.466C146.8 145.346 146.9 145.236 147 145.126C147.152 144.958 147.319 144.804 147.5 144.666C147.603 144.574 147.713 144.491 147.83 144.416C147.895 144.366 147.965 144.322 148.04 144.286C148.214 144.168 148.402 144.071 148.6 143.996C148.765 143.911 148.939 143.844 149.12 143.796L149.4 143.726C149.524 143.696 149.651 143.676 149.78 143.666H150.16H238.5C238.842 143.663 239.182 143.728 239.5 143.856L239.72 143.956C239.861 144.026 239.995 144.109 240.12 144.206L240.28 144.346C240.35 144.4 240.41 144.464 240.46 144.536L240.58 144.696C240.649 144.797 240.71 144.904 240.76 145.016C240.817 145.129 240.863 145.246 240.9 145.366C240.938 145.493 240.962 145.624 240.97 145.756C240.975 145.783 240.975 145.81 240.97 145.836C240.998 145.928 241.021 146.022 241.04 146.116Z" fill="#CCCCCC"/>
<path d="M241.03 145.826L146.41 145.886C146.771 145.27 147.269 144.744 147.865 144.35C148.462 143.957 149.141 143.706 149.85 143.616H150.17H238.51C238.82 143.596 239.132 143.637 239.427 143.737C239.721 143.837 239.993 143.994 240.227 144.199C240.461 144.405 240.653 144.654 240.79 144.933C240.928 145.212 241.009 145.516 241.03 145.826Z" fill="#F4F4F4"/>
<mask id="mask0_64_16695" style="mask-type:luminance" maskUnits="userSpaceOnUse" x="149" y="152" width="79" height="57">
<path d="M227.17 153.316L227.09 153.896H227.1L223.17 183.056L223.15 183.186L220.14 205.536V205.596L219.78 208.326H149.67L153.05 183.326L157.2 152.596H227.27L227.17 153.316Z" fill="white"/>
</mask>
<g mask="url(#mask0_64_16695)">
<path d="M219.78 208.356H149.52L157.47 152.396H227.72L219.78 208.356Z" fill="#4D4D4D"/>
<path d="M189.05 157.726L182.11 206.606C182.037 207.09 181.798 207.533 181.432 207.859C181.067 208.184 180.599 208.371 180.11 208.386H161.48C161.258 208.389 161.038 208.342 160.836 208.249C160.634 208.156 160.456 208.02 160.313 207.849C160.171 207.679 160.068 207.479 160.012 207.264C159.956 207.049 159.948 206.825 159.99 206.606L166.93 157.726C167.01 157.247 167.252 156.809 167.616 156.487C167.98 156.165 168.444 155.977 168.93 155.956H187.5C187.726 155.945 187.951 155.985 188.16 156.073C188.368 156.162 188.554 156.296 188.703 156.466C188.852 156.637 188.961 156.838 189.021 157.057C189.081 157.275 189.091 157.504 189.05 157.726Z" fill="#F2F2F2"/>
<path d="M189.05 157.726L187.3 170.076H165.18L166.93 157.726C167.01 157.247 167.252 156.809 167.616 156.487C167.98 156.165 168.444 155.977 168.93 155.956H187.5C187.726 155.945 187.951 155.985 188.16 156.073C188.368 156.162 188.554 156.296 188.703 156.466C188.852 156.637 188.961 156.838 189.021 157.057C189.081 157.275 189.091 157.504 189.05 157.726Z" fill="#CCCCCC"/>
<path d="M173.71 182.027H165.24L166.31 174.467C166.351 174.213 166.48 173.981 166.673 173.812C166.866 173.642 167.113 173.545 167.37 173.537H174.01C174.127 173.533 174.243 173.556 174.351 173.603C174.458 173.651 174.553 173.722 174.629 173.811C174.705 173.901 174.76 174.006 174.789 174.119C174.819 174.233 174.822 174.351 174.8 174.467L173.71 182.027Z" fill="#CCCCCC"/>
<path d="M172.14 186.516H165.51C165.392 186.52 165.276 186.497 165.168 186.449C165.061 186.402 164.965 186.331 164.888 186.242C164.812 186.153 164.756 186.048 164.725 185.934C164.694 185.821 164.689 185.702 164.71 185.586L165.22 182.026H173.71L173.2 185.586C173.162 185.842 173.035 186.076 172.84 186.246C172.646 186.416 172.398 186.512 172.14 186.516Z" fill="white"/>
<path d="M172.47 178.537H167.47C167.47 178.537 168.77 177.427 169.23 177.437H169.24C169.622 177.55 169.968 177.765 170.24 178.057C170.492 177.843 170.789 177.689 171.11 177.607C171.58 177.647 172.11 178.267 172.47 178.537Z" fill="#999999"/>
<path d="M170.868 177.45C170.981 177.345 171 177.18 170.909 177.083C170.819 176.986 170.654 176.993 170.541 177.099C170.428 177.204 170.409 177.368 170.5 177.465C170.59 177.562 170.755 177.555 170.868 177.45Z" fill="#999999"/>
<path d="M171.95 184.017H166.41C166.357 184.017 166.305 184.006 166.257 183.985C166.208 183.963 166.166 183.931 166.131 183.891C166.097 183.851 166.072 183.804 166.058 183.753C166.044 183.702 166.041 183.649 166.05 183.597V183.507C166.07 183.393 166.129 183.291 166.217 183.216C166.304 183.142 166.415 183.099 166.53 183.097H172.07C172.122 183.094 172.174 183.104 172.222 183.124C172.27 183.145 172.313 183.176 172.348 183.215C172.382 183.255 172.408 183.301 172.422 183.352C172.436 183.402 172.439 183.455 172.43 183.507V183.597C172.411 183.711 172.353 183.816 172.265 183.893C172.178 183.97 172.066 184.013 171.95 184.017Z" fill="#CCCCCC"/>
<path d="M170.3 185.446H166.24C166.187 185.451 166.134 185.443 166.085 185.423C166.036 185.403 165.992 185.372 165.957 185.332C165.922 185.292 165.897 185.245 165.883 185.193C165.87 185.142 165.869 185.088 165.88 185.036V184.946C165.898 184.831 165.957 184.727 166.044 184.65C166.132 184.573 166.243 184.53 166.36 184.526H170.45C170.503 184.526 170.555 184.537 170.603 184.558C170.651 184.58 170.694 184.612 170.728 184.652C170.763 184.692 170.788 184.739 170.802 184.79C170.816 184.841 170.819 184.894 170.81 184.946V185.036C170.792 185.157 170.73 185.266 170.636 185.342C170.541 185.418 170.421 185.455 170.3 185.446Z" fill="#CCCCCC"/>
<path d="M183.86 182.027H175.37L176.44 174.467C176.481 174.213 176.61 173.981 176.803 173.812C176.996 173.642 177.243 173.545 177.5 173.537H184.14C184.257 173.533 184.373 173.556 184.481 173.603C184.588 173.651 184.683 173.722 184.759 173.811C184.835 173.901 184.89 174.006 184.919 174.119C184.949 174.233 184.952 174.351 184.93 174.467L183.86 182.027Z" fill="#CCCCCC"/>
<path d="M182.3 186.516H175.66C175.542 186.52 175.425 186.497 175.318 186.449C175.21 186.402 175.115 186.331 175.038 186.242C174.962 186.153 174.906 186.048 174.875 185.934C174.844 185.821 174.839 185.702 174.86 185.586L175.37 182.026H183.86L183.35 185.586C183.312 185.84 183.186 186.073 182.994 186.243C182.802 186.413 182.556 186.51 182.3 186.516Z" fill="white"/>
<path d="M182.62 178.537H177.62C177.62 178.537 178.91 177.427 179.38 177.437C179.762 177.55 180.108 177.765 180.38 178.057C180.632 177.843 180.929 177.689 181.25 177.607H181.3C181.73 177.647 182.24 178.267 182.62 178.537Z" fill="#999999"/>
<path d="M181.015 177.452C181.128 177.346 181.147 177.182 181.056 177.085C180.966 176.988 180.801 176.995 180.688 177.1C180.575 177.206 180.556 177.37 180.646 177.467C180.737 177.564 180.902 177.557 181.015 177.452Z" fill="#999999"/>
<path d="M182.1 184.016H176.56C176.507 184.017 176.455 184.006 176.407 183.985C176.358 183.963 176.316 183.931 176.281 183.891C176.247 183.851 176.222 183.804 176.208 183.753C176.194 183.702 176.191 183.648 176.2 183.596V183.506C176.22 183.393 176.279 183.291 176.367 183.216C176.454 183.141 176.565 183.099 176.68 183.096H182.24C182.292 183.094 182.344 183.103 182.392 183.124C182.439 183.144 182.482 183.176 182.516 183.215C182.549 183.255 182.574 183.302 182.587 183.352C182.599 183.403 182.6 183.455 182.59 183.506V183.596C182.571 183.713 182.511 183.819 182.422 183.896C182.332 183.973 182.218 184.016 182.1 184.016Z" fill="#CCCCCC"/>
<path d="M180.45 185.446H176.36C176.307 185.449 176.255 185.439 176.207 185.419C176.159 185.398 176.116 185.367 176.081 185.328C176.047 185.288 176.022 185.242 176.008 185.191C175.993 185.141 175.991 185.088 176 185.036V184.946C176.018 184.831 176.076 184.727 176.164 184.65C176.252 184.573 176.363 184.53 176.48 184.526H180.57C180.623 184.526 180.675 184.537 180.723 184.558C180.771 184.58 180.814 184.612 180.848 184.652C180.882 184.692 180.908 184.739 180.922 184.79C180.936 184.841 180.939 184.894 180.93 184.946V185.036C180.909 185.15 180.85 185.252 180.763 185.327C180.675 185.401 180.565 185.444 180.45 185.446Z" fill="#CCCCCC"/>
<path d="M171.62 196.726H163.13L164.2 189.166C164.243 188.913 164.372 188.683 164.565 188.514C164.758 188.344 165.003 188.247 165.26 188.236H171.9C172.017 188.233 172.133 188.256 172.241 188.303C172.348 188.351 172.443 188.422 172.519 188.511C172.595 188.6 172.65 188.706 172.679 188.819C172.709 188.933 172.712 189.051 172.69 189.166L171.62 196.726Z" fill="#CCCCCC"/>
<path d="M170.06 201.227H163.42C163.303 201.23 163.187 201.207 163.081 201.16C162.974 201.113 162.879 201.043 162.803 200.955C162.726 200.867 162.67 200.764 162.639 200.651C162.607 200.539 162.6 200.421 162.62 200.307L163.13 196.737H171.62L171.11 200.307C171.07 200.559 170.943 200.789 170.751 200.957C170.559 201.125 170.315 201.22 170.06 201.227Z" fill="white"/>
<path d="M170.38 193.246H165.38C165.38 193.246 166.67 192.146 167.14 192.146C167.219 192.318 167.343 192.465 167.497 192.574C167.652 192.683 167.833 192.75 168.021 192.767C168.209 192.784 168.399 192.751 168.57 192.672C168.742 192.593 168.89 192.471 169 192.316H169.05C169.49 192.366 170.02 192.976 170.38 193.246Z" fill="#999999"/>
<path d="M166.454 193.1C166.567 192.995 166.585 192.832 166.495 192.735C166.405 192.638 166.24 192.645 166.128 192.75C166.015 192.855 165.996 193.019 166.086 193.116C166.176 193.212 166.341 193.206 166.454 193.1Z" fill="#999999"/>
<path d="M169.86 198.726H164.32C164.267 198.727 164.215 198.716 164.166 198.695C164.118 198.673 164.076 198.641 164.041 198.601C164.007 198.561 163.982 198.514 163.968 198.463C163.954 198.412 163.951 198.359 163.96 198.306V198.226C163.976 198.112 164.032 198.008 164.118 197.931C164.204 197.854 164.314 197.81 164.43 197.806H169.98C170.032 197.805 170.084 197.816 170.132 197.838C170.18 197.86 170.222 197.892 170.256 197.932C170.289 197.973 170.313 198.02 170.326 198.071C170.339 198.122 170.34 198.175 170.33 198.226V198.306C170.313 198.421 170.257 198.525 170.171 198.602C170.085 198.679 169.975 198.723 169.86 198.726Z" fill="#CCCCCC"/>
<path d="M168.24 200.166H164.15C164.097 200.167 164.045 200.156 163.997 200.135C163.948 200.113 163.906 200.081 163.871 200.041C163.837 200.001 163.812 199.954 163.798 199.903C163.784 199.852 163.781 199.798 163.79 199.746V199.656C163.809 199.542 163.867 199.439 163.955 199.364C164.043 199.289 164.154 199.247 164.27 199.246H168.36C168.412 199.244 168.464 199.254 168.512 199.274C168.56 199.295 168.603 199.326 168.638 199.365C168.673 199.405 168.698 199.451 168.712 199.502C168.726 199.552 168.729 199.605 168.72 199.656V199.726C168.704 199.844 168.647 199.953 168.559 200.033C168.471 200.113 168.358 200.161 168.24 200.166Z" fill="#CCCCCC"/>
<path d="M161.89 208.356H159.74L160.03 206.306H162.18L161.89 208.356Z" fill="#F2F2F2"/>
<path d="M181.86 208.356H179.71L180 206.306H182.15L181.86 208.356Z" fill="#F2F2F2"/>
<path d="M181.77 196.726H173.24L174.31 189.166C174.353 188.913 174.482 188.683 174.675 188.514C174.868 188.344 175.113 188.247 175.37 188.236H182.01C182.127 188.233 182.243 188.256 182.351 188.303C182.458 188.351 182.553 188.422 182.629 188.511C182.705 188.6 182.76 188.706 182.789 188.819C182.819 188.933 182.822 189.051 182.8 189.166L181.77 196.726Z" fill="#CCCCCC"/>
<path d="M180.24 201.227H173.6C173.483 201.232 173.367 201.211 173.259 201.164C173.152 201.118 173.057 201.048 172.981 200.959C172.905 200.87 172.85 200.766 172.82 200.652C172.79 200.539 172.787 200.421 172.81 200.307L173.24 196.727H181.73L181.22 200.297C181.185 200.539 181.069 200.763 180.891 200.932C180.714 201.1 180.484 201.204 180.24 201.227Z" fill="white"/>
<path d="M180.53 193.246H175.53C175.53 193.246 176.82 192.146 177.29 192.146H177.34C177.726 192.252 178.073 192.467 178.34 192.766C178.591 192.545 178.893 192.39 179.22 192.316C179.64 192.366 180.17 192.976 180.53 193.246Z" fill="#999999"/>
<path d="M178.939 192.167C179.052 192.062 179.071 191.897 178.98 191.8C178.89 191.704 178.725 191.71 178.612 191.816C178.499 191.921 178.48 192.085 178.571 192.182C178.661 192.279 178.826 192.272 178.939 192.167Z" fill="#999999"/>
<path d="M180.02 198.726H174.47C174.417 198.727 174.365 198.716 174.317 198.695C174.269 198.673 174.226 198.641 174.191 198.601C174.157 198.561 174.132 198.514 174.118 198.463C174.104 198.412 174.101 198.359 174.11 198.306V198.226C174.126 198.112 174.182 198.008 174.268 197.931C174.354 197.854 174.465 197.81 174.58 197.806H180.13C180.182 197.805 180.234 197.816 180.282 197.838C180.33 197.86 180.372 197.892 180.406 197.932C180.439 197.973 180.463 198.02 180.476 198.071C180.489 198.122 180.49 198.175 180.48 198.226V198.306C180.464 198.419 180.409 198.522 180.325 198.599C180.241 198.676 180.133 198.721 180.02 198.726Z" fill="#CCCCCC"/>
<path d="M178.36 200.166H174.24C174.187 200.167 174.135 200.156 174.087 200.135C174.038 200.113 173.996 200.081 173.961 200.041C173.927 200.001 173.902 199.954 173.888 199.903C173.874 199.852 173.871 199.798 173.88 199.746V199.656C173.899 199.542 173.957 199.439 174.045 199.364C174.133 199.289 174.244 199.247 174.36 199.246H178.45C178.502 199.244 178.554 199.254 178.602 199.274C178.651 199.295 178.693 199.326 178.728 199.365C178.763 199.405 178.788 199.451 178.802 199.502C178.816 199.552 178.819 199.605 178.81 199.656V199.726C178.795 199.84 178.742 199.944 178.661 200.024C178.579 200.104 178.473 200.154 178.36 200.166Z" fill="#CCCCCC"/>
<path d="M170.61 203.896L169.97 208.356H161.48L162.12 203.896C162.158 203.641 162.285 203.407 162.479 203.237C162.673 203.067 162.922 202.971 163.18 202.966H169.81C169.927 202.963 170.044 202.986 170.151 203.033C170.259 203.081 170.355 203.152 170.431 203.241C170.508 203.33 170.564 203.435 170.595 203.548C170.625 203.662 170.631 203.781 170.61 203.896Z" fill="#CCCCCC"/>
<path d="M168.3 207.966H163.3C163.3 207.966 164.59 206.857 165.06 206.867H165.11C165.191 207.038 165.315 207.185 165.471 207.294C165.626 207.402 165.807 207.468 165.996 207.486C166.185 207.503 166.375 207.47 166.548 207.392C166.72 207.313 166.869 207.19 166.98 207.037C167.4 207.077 167.93 207.726 168.3 207.966Z" fill="#999999"/>
<path d="M166.689 206.884C166.803 206.778 166.821 206.614 166.731 206.517C166.64 206.42 166.475 206.427 166.362 206.532C166.249 206.638 166.231 206.802 166.321 206.899C166.411 206.996 166.576 206.989 166.689 206.884Z" fill="#999999"/>
<path d="M180.75 203.896L180.12 208.356H171.63L172.26 203.896C172.301 203.643 172.43 203.411 172.623 203.242C172.816 203.072 173.063 202.975 173.32 202.966H179.96C180.077 202.963 180.193 202.986 180.301 203.033C180.408 203.081 180.503 203.152 180.579 203.241C180.655 203.33 180.71 203.436 180.739 203.549C180.769 203.663 180.772 203.781 180.75 203.896Z" fill="#CCCCCC"/>
<path d="M178.45 207.966H173.45C173.45 207.966 174.74 206.857 175.21 206.867C175.592 206.98 175.938 207.194 176.21 207.487C176.459 207.269 176.758 207.114 177.08 207.037C177.55 207.077 178.09 207.726 178.45 207.966Z" fill="#999999"/>
<path d="M174.481 207.798C174.593 207.693 174.612 207.529 174.522 207.432C174.432 207.336 174.267 207.342 174.154 207.448C174.041 207.553 174.023 207.716 174.113 207.813C174.203 207.91 174.368 207.903 174.481 207.798Z" fill="#999999"/>
<path d="M172.18 164.787H168.08C168.027 164.788 167.975 164.777 167.927 164.755C167.88 164.733 167.837 164.701 167.804 164.661C167.77 164.62 167.746 164.573 167.733 164.522C167.72 164.471 167.719 164.418 167.73 164.367V164.287C167.746 164.172 167.802 164.068 167.888 163.991C167.974 163.914 168.085 163.87 168.2 163.867H172.3C172.352 163.865 172.404 163.876 172.452 163.898C172.5 163.92 172.542 163.952 172.576 163.992C172.609 164.033 172.633 164.08 172.646 164.131C172.659 164.182 172.66 164.235 172.65 164.287V164.367C172.633 164.481 172.577 164.585 172.491 164.662C172.405 164.739 172.295 164.783 172.18 164.787Z" fill="#F2F2F2"/>
<path d="M185.52 165.837H168.15C167.975 165.841 167.808 165.907 167.676 166.022C167.545 166.137 167.458 166.294 167.43 166.467L167.24 167.727C167.225 167.806 167.228 167.888 167.249 167.967C167.27 168.045 167.308 168.117 167.361 168.179C167.414 168.24 167.48 168.289 167.554 168.322C167.628 168.354 167.709 168.37 167.79 168.367H185.16C185.336 168.361 185.504 168.294 185.636 168.177C185.768 168.06 185.854 167.901 185.88 167.727L186.07 166.437C186.078 166.36 186.07 166.282 186.047 166.209C186.023 166.136 185.983 166.068 185.931 166.012C185.879 165.955 185.815 165.91 185.744 165.879C185.673 165.849 185.597 165.835 185.52 165.837Z" fill="#F2F2F2"/>
<path d="M216.76 157.726L209.82 206.606C209.744 207.089 209.503 207.53 209.138 207.854C208.773 208.179 208.307 208.367 207.82 208.386H189.18C188.958 208.389 188.738 208.342 188.536 208.249C188.334 208.156 188.156 208.02 188.013 207.849C187.871 207.679 187.768 207.479 187.712 207.264C187.656 207.049 187.648 206.825 187.69 206.606L194.63 157.726C194.711 157.248 194.954 156.811 195.318 156.489C195.682 156.167 196.144 155.979 196.63 155.956H215.24C215.463 155.952 215.684 155.996 215.888 156.087C216.091 156.178 216.273 156.313 216.418 156.482C216.563 156.652 216.669 156.851 216.728 157.066C216.787 157.281 216.798 157.507 216.76 157.726Z" fill="#F2F2F2"/>
<path d="M216.76 157.726L213.09 183.586H190.96L194.63 157.726C194.711 157.248 194.954 156.811 195.318 156.489C195.682 156.167 196.145 155.979 196.63 155.956H215.24C215.463 155.952 215.684 155.996 215.888 156.087C216.092 156.178 216.273 156.313 216.418 156.482C216.563 156.652 216.669 156.851 216.728 157.066C216.787 157.281 216.798 157.507 216.76 157.726Z" fill="#CCCCCC"/>
<path d="M189.59 208.356H187.44L187.73 206.306H189.88L189.59 208.356Z" fill="#F2F2F2"/>
<path d="M209.56 208.356H207.41L207.71 206.306H209.86L209.56 208.356Z" fill="#F2F2F2"/>
<path d="M214.4 157.576H197.03C196.853 157.583 196.684 157.65 196.551 157.767C196.418 157.883 196.329 158.042 196.3 158.216L196.12 159.506C196.105 159.585 196.107 159.666 196.128 159.743C196.148 159.82 196.186 159.891 196.238 159.952C196.29 160.012 196.354 160.06 196.428 160.092C196.501 160.124 196.58 160.139 196.66 160.136H214.03C214.205 160.132 214.374 160.067 214.507 159.952C214.64 159.837 214.73 159.68 214.76 159.506L214.94 158.216C214.954 158.138 214.952 158.057 214.931 157.979C214.911 157.901 214.873 157.829 214.822 157.768C214.77 157.707 214.705 157.658 214.632 157.625C214.559 157.592 214.48 157.575 214.4 157.576Z" fill="#F2F2F2"/>
<path d="M207.98 170.997H199.63C199.63 170.997 201.78 169.157 202.56 169.167H202.65C203.279 169.341 203.846 169.688 204.29 170.167C204.71 169.812 205.206 169.559 205.74 169.427H205.82C206.49 169.527 207.38 170.537 207.98 170.997Z" fill="#999999"/>
<path d="M205.319 169.206C205.505 169.033 205.533 168.761 205.383 168.6C205.232 168.438 204.96 168.447 204.774 168.62C204.588 168.794 204.559 169.065 204.71 169.227C204.86 169.388 205.133 169.379 205.319 169.206Z" fill="#999999"/>
<path d="M194.91 188.977H191.91C191.839 188.978 191.77 188.963 191.706 188.934C191.641 188.905 191.584 188.862 191.539 188.809C191.493 188.756 191.459 188.693 191.441 188.625C191.422 188.557 191.418 188.486 191.43 188.417L191.86 185.417C191.883 185.263 191.96 185.122 192.078 185.02C192.195 184.917 192.344 184.859 192.5 184.857H195.5C195.571 184.854 195.641 184.867 195.706 184.895C195.771 184.924 195.829 184.966 195.875 185.02C195.922 185.074 195.955 185.138 195.973 185.206C195.991 185.275 195.993 185.347 195.98 185.417L195.56 188.417C195.534 188.571 195.455 188.712 195.336 188.814C195.217 188.917 195.067 188.974 194.91 188.977Z" fill="#CCCCCC"/>
<path d="M199.73 188.976H196.73C196.659 188.977 196.59 188.963 196.526 188.934C196.461 188.905 196.404 188.862 196.359 188.809C196.313 188.755 196.279 188.693 196.261 188.625C196.242 188.557 196.238 188.486 196.25 188.416L196.68 185.416C196.703 185.264 196.779 185.125 196.894 185.023C197.009 184.921 197.156 184.862 197.31 184.856H200.31C200.38 184.856 200.45 184.87 200.514 184.899C200.578 184.928 200.635 184.971 200.681 185.024C200.727 185.077 200.76 185.14 200.779 185.208C200.798 185.276 200.801 185.347 200.79 185.416L200.37 188.416C200.344 188.569 200.267 188.709 200.15 188.811C200.033 188.913 199.885 188.972 199.73 188.976Z" fill="#CCCCCC"/>
<path d="M204.55 188.976H201.55C201.479 188.977 201.41 188.963 201.345 188.934C201.281 188.905 201.224 188.862 201.179 188.809C201.133 188.755 201.099 188.693 201.08 188.625C201.062 188.557 201.058 188.486 201.07 188.416L201.5 185.416C201.521 185.264 201.596 185.123 201.712 185.021C201.827 184.918 201.975 184.86 202.13 184.856H205.13C205.2 184.856 205.27 184.87 205.334 184.899C205.398 184.928 205.455 184.971 205.501 185.024C205.547 185.077 205.58 185.14 205.599 185.208C205.618 185.276 205.621 185.347 205.61 185.416L205.19 188.416C205.164 188.569 205.087 188.709 204.97 188.811C204.853 188.913 204.705 188.972 204.55 188.976Z" fill="#CCCCCC"/>
<path d="M209.37 188.976H206.37C206.299 188.977 206.23 188.963 206.166 188.934C206.101 188.905 206.044 188.862 205.999 188.809C205.953 188.755 205.919 188.693 205.901 188.625C205.882 188.557 205.878 188.486 205.89 188.416L206.31 185.416C206.335 185.264 206.413 185.124 206.53 185.022C206.646 184.92 206.795 184.861 206.95 184.856H209.95C210.02 184.856 210.09 184.87 210.154 184.899C210.218 184.928 210.275 184.971 210.321 185.024C210.367 185.077 210.4 185.14 210.419 185.208C210.438 185.276 210.441 185.347 210.43 185.416L210 188.416C209.978 188.569 209.903 188.71 209.788 188.812C209.672 188.915 209.524 188.973 209.37 188.976Z" fill="#CCCCCC"/>
<path d="M212.9 184.866L212.32 188.976H211.24C211.169 188.979 211.098 188.966 211.033 188.938C210.968 188.909 210.91 188.867 210.864 188.813C210.818 188.759 210.785 188.695 210.766 188.627C210.748 188.558 210.746 188.486 210.76 188.416L211.18 185.416C211.203 185.263 211.28 185.122 211.398 185.02C211.515 184.917 211.664 184.859 211.82 184.856L212.9 184.866Z" fill="#CCCCCC"/>
<path d="M209.37 191.447H191.44C191.387 191.449 191.335 191.439 191.287 191.419C191.239 191.398 191.196 191.367 191.161 191.328C191.127 191.288 191.102 191.242 191.087 191.192C191.073 191.141 191.071 191.088 191.08 191.037L191.14 190.627C191.156 190.512 191.212 190.408 191.298 190.331C191.384 190.254 191.494 190.21 191.61 190.207H209.54C209.593 190.206 209.645 190.217 209.693 190.238C209.741 190.26 209.784 190.292 209.818 190.332C209.852 190.372 209.878 190.419 209.892 190.47C209.906 190.521 209.909 190.575 209.9 190.627L209.84 191.037C209.823 191.15 209.767 191.253 209.68 191.328C209.594 191.403 209.484 191.445 209.37 191.447Z" fill="#CCCCCC"/>
<path d="M195.51 203.326H189.75C189.697 203.328 189.645 203.317 189.597 203.295C189.55 203.273 189.507 203.241 189.474 203.201C189.44 203.16 189.416 203.113 189.403 203.062C189.39 203.011 189.389 202.958 189.4 202.906L189.45 202.496C189.47 202.382 189.529 202.279 189.616 202.202C189.703 202.126 189.814 202.081 189.93 202.076H195.68C195.732 202.076 195.785 202.087 195.833 202.108C195.881 202.13 195.924 202.162 195.958 202.202C195.992 202.242 196.017 202.289 196.032 202.34C196.046 202.391 196.048 202.444 196.04 202.496L195.98 202.906C195.963 203.021 195.907 203.125 195.821 203.202C195.735 203.279 195.625 203.323 195.51 203.326Z" fill="#CCCCCC"/>
<path d="M202 193.496H191.15C191.097 193.497 191.045 193.486 190.997 193.465C190.948 193.443 190.906 193.411 190.871 193.371C190.837 193.331 190.812 193.284 190.798 193.233C190.784 193.182 190.781 193.128 190.79 193.076L190.85 192.666C190.866 192.553 190.923 192.45 191.009 192.375C191.095 192.3 191.205 192.258 191.32 192.256H202.17C202.222 192.254 202.274 192.264 202.322 192.284C202.371 192.305 202.413 192.336 202.448 192.375C202.483 192.415 202.508 192.461 202.522 192.512C202.536 192.562 202.539 192.615 202.53 192.666L202.47 193.076C202.453 193.191 202.397 193.295 202.311 193.372C202.225 193.449 202.115 193.493 202 193.496Z" fill="#CCCCCC"/>
<path d="M198.68 201.056H190.14C190.079 201.059 190.018 201.048 189.962 201.024C189.907 201 189.857 200.963 189.817 200.917C189.778 200.87 189.749 200.816 189.734 200.757C189.719 200.698 189.717 200.636 189.73 200.576L190.25 196.876C190.273 196.744 190.341 196.623 190.444 196.536C190.546 196.448 190.675 196.399 190.81 196.396H199.35C199.411 196.394 199.471 196.405 199.527 196.429C199.583 196.453 199.632 196.49 199.672 196.536C199.712 196.582 199.74 196.637 199.755 196.696C199.77 196.755 199.772 196.817 199.76 196.876L199.24 200.576C199.217 200.709 199.148 200.829 199.046 200.917C198.944 201.004 198.814 201.054 198.68 201.056Z" fill="#CCCCCC"/>
<path d="M208.87 201.056H200.33C200.269 201.059 200.208 201.048 200.152 201.024C200.097 201 200.047 200.963 200.007 200.917C199.968 200.87 199.939 200.816 199.924 200.757C199.909 200.698 199.908 200.636 199.92 200.576L200.44 196.876C200.463 196.744 200.531 196.623 200.634 196.536C200.736 196.448 200.865 196.399 201 196.396H209.54C209.601 196.394 209.661 196.405 209.717 196.429C209.773 196.453 209.823 196.49 209.862 196.536C209.902 196.582 209.93 196.637 209.945 196.696C209.961 196.755 209.962 196.817 209.95 196.876L209.43 200.576C209.407 200.709 209.338 200.829 209.236 200.917C209.134 201.004 209.004 201.054 208.87 201.056Z" fill="#CCCCCC"/>
<path d="M211.47 194.776H189.35V195.026H211.47V194.776Z" fill="#CCCCCC"/>
<mask id="mask1_64_16695" style="mask-type:luminance" maskUnits="userSpaceOnUse" x="188" y="203" width="22" height="6">
<path d="M208.74 208.356H188.06L188.7 203.876H209.38L208.74 208.356Z" fill="white"/>
</mask>
<g mask="url(#mask1_64_16695)">
<path d="M205.3 224.217H187.3C187.174 224.223 187.047 224.2 186.932 224.149C186.816 224.098 186.713 224.022 186.632 223.925C186.55 223.828 186.493 223.714 186.463 223.591C186.433 223.468 186.432 223.34 186.46 223.217L189.02 205.157C189.065 204.903 189.196 204.672 189.391 204.503C189.585 204.334 189.832 204.236 190.09 204.227H208.15C208.27 204.224 208.39 204.248 208.501 204.296C208.611 204.344 208.71 204.416 208.79 204.507C208.87 204.601 208.928 204.711 208.961 204.831C208.994 204.95 209 205.075 208.98 205.197L206.42 223.247C206.385 223.518 206.252 223.767 206.045 223.946C205.839 224.125 205.573 224.221 205.3 224.217ZM190.04 204.507C189.841 204.513 189.651 204.589 189.501 204.72C189.351 204.851 189.252 205.03 189.22 205.227L186.66 223.277C186.644 223.363 186.648 223.451 186.671 223.536C186.693 223.621 186.734 223.699 186.79 223.767C186.847 223.832 186.917 223.884 186.997 223.919C187.077 223.953 187.163 223.97 187.25 223.967H205.25C205.449 223.962 205.641 223.887 205.791 223.755C205.941 223.624 206.039 223.444 206.07 223.247L208.64 205.187C208.653 205.1 208.648 205.011 208.623 204.926C208.599 204.842 208.557 204.763 208.5 204.697C208.442 204.635 208.373 204.586 208.295 204.554C208.217 204.521 208.134 204.505 208.05 204.507H190.04Z" fill="#CCCCCC"/>
</g>
<path d="M200.318 182.435C200.5 182.265 200.528 182 200.382 181.843C200.235 181.685 199.968 181.695 199.786 181.864C199.605 182.033 199.576 182.298 199.723 182.456C199.87 182.614 200.136 182.604 200.318 182.435Z" fill="#999999"/>
<path d="M201.406 182.432C201.587 182.262 201.616 181.997 201.469 181.84C201.322 181.682 201.056 181.692 200.874 181.861C200.692 182.03 200.664 182.295 200.811 182.453C200.957 182.611 201.224 182.601 201.406 182.432Z" fill="#F2F2F2"/>
<path d="M202.486 182.435C202.668 182.266 202.696 182.001 202.549 181.843C202.403 181.686 202.136 181.695 201.954 181.865C201.772 182.034 201.744 182.299 201.891 182.457C202.038 182.614 202.304 182.605 202.486 182.435Z" fill="#F2F2F2"/>
<path d="M203.574 182.432C203.755 182.263 203.784 181.998 203.637 181.84C203.49 181.683 203.224 181.692 203.042 181.862C202.86 182.031 202.832 182.296 202.978 182.454C203.125 182.611 203.392 182.602 203.574 182.432Z" fill="#F2F2F2"/>
<path d="M204.654 182.436C204.836 182.267 204.864 182.002 204.717 181.844C204.57 181.687 204.304 181.696 204.122 181.866C203.94 182.035 203.912 182.3 204.059 182.458C204.205 182.615 204.472 182.606 204.654 182.436Z" fill="#F2F2F2"/>
</g>
<path d="M148.505 148.355C148.756 148.046 148.75 147.626 148.493 147.418C148.235 147.209 147.824 147.29 147.573 147.599C147.323 147.907 147.328 148.327 147.585 148.536C147.843 148.745 148.254 148.664 148.505 148.355Z" fill="#F2685B"/>
<path d="M150.74 148.385C150.99 148.076 150.985 147.656 150.728 147.447C150.47 147.239 150.058 147.32 149.808 147.628C149.557 147.937 149.563 148.357 149.82 148.566C150.077 148.774 150.489 148.693 150.74 148.385Z" fill="#FBB035"/>
<path d="M152.991 148.406C153.241 148.098 153.236 147.678 152.979 147.469C152.721 147.26 152.31 147.341 152.059 147.65C151.808 147.959 151.814 148.379 152.071 148.587C152.329 148.796 152.74 148.715 152.991 148.406Z" fill="#5EB955"/>
<path d="M157.37 145.186H151.66L151.77 144.296H157.47L157.37 145.186Z" fill="#656668"/>
<path d="M160.35 145.186H158.18L158.28 144.296H160.46L160.35 145.186Z" fill="#7F7F7F"/>
<path d="M163.14 145.186H160.97L161.07 144.296H163.25L163.14 145.186Z" fill="#7F7F7F"/>
<path d="M165.94 145.186H163.76L163.87 144.296H166.04L165.94 145.186Z" fill="#7F7F7F"/>
<path d="M168.73 145.186H166.55L166.66 144.296H168.83L168.73 145.186Z" fill="#7F7F7F"/>
<path d="M171.52 145.186H169.35L169.45 144.296H171.63L171.52 145.186Z" fill="#7F7F7F"/>
<path d="M174.32 145.186H172.14L172.24 144.296H174.42L174.32 145.186Z" fill="#7F7F7F"/>
<path d="M177.11 145.186H174.93L175.04 144.296H177.21L177.11 145.186Z" fill="#7F7F7F"/>
<path d="M179.9 145.186H177.73L177.83 144.296H180L179.9 145.186Z" fill="#7F7F7F"/>
<path d="M182.69 145.186H180.52L180.62 144.296H182.8L182.69 145.186Z" fill="#7F7F7F"/>
<path d="M150.596 145.11C150.847 144.802 150.841 144.382 150.584 144.173C150.327 143.964 149.915 144.045 149.664 144.354C149.414 144.663 149.419 145.083 149.677 145.291C149.934 145.5 150.346 145.419 150.596 145.11Z" fill="#656668"/>
<path d="M229.31 206.316H216.82C216.609 206.322 216.4 206.281 216.207 206.197C216.014 206.112 215.843 205.986 215.704 205.828C215.566 205.669 215.464 205.482 215.406 205.279C215.348 205.077 215.336 204.864 215.37 204.656L222.12 153.186C222.197 152.737 222.425 152.327 222.767 152.025C223.109 151.723 223.544 151.547 224 151.526H236.49C236.7 151.521 236.909 151.562 237.102 151.646C237.295 151.731 237.467 151.857 237.605 152.015C237.744 152.174 237.846 152.361 237.904 152.563C237.961 152.766 237.974 152.979 237.94 153.186L231.24 204.656C231.161 205.114 230.925 205.53 230.573 205.833C230.221 206.136 229.774 206.307 229.31 206.316Z" fill="#F4F4F4"/>
<path d="M224.565 154.05C224.942 153.701 224.997 153.149 224.689 152.816C224.381 152.484 223.826 152.498 223.45 152.848C223.073 153.197 223.017 153.749 223.325 154.081C223.633 154.413 224.188 154.399 224.565 154.05Z" fill="#EA54A0"/>
<path d="M236.5 154.256H233.5C233.464 154.258 233.428 154.252 233.394 154.239C233.361 154.225 233.331 154.204 233.307 154.177C233.283 154.15 233.266 154.118 233.256 154.083C233.246 154.049 233.244 154.012 233.25 153.976L233.41 152.786C233.421 152.711 233.458 152.642 233.515 152.591C233.571 152.54 233.644 152.51 233.72 152.506H236.72C236.756 152.504 236.792 152.511 236.825 152.524C236.858 152.538 236.888 152.559 236.912 152.586C236.936 152.613 236.954 152.645 236.964 152.68C236.974 152.714 236.976 152.751 236.97 152.786L236.81 153.966C236.802 154.044 236.767 154.117 236.71 154.17C236.653 154.224 236.578 154.254 236.5 154.256Z" fill="#29ABE2"/>
<path d="M225.97 156.466H222.97C222.935 156.468 222.9 156.462 222.867 156.449C222.835 156.436 222.806 156.415 222.782 156.39C222.758 156.364 222.74 156.333 222.729 156.3C222.719 156.266 222.715 156.231 222.72 156.196L222.78 155.736C222.792 155.659 222.83 155.589 222.889 155.538C222.947 155.487 223.022 155.458 223.1 155.456H226.1C226.135 155.456 226.17 155.463 226.202 155.478C226.234 155.492 226.262 155.513 226.285 155.54C226.308 155.567 226.325 155.598 226.334 155.632C226.344 155.666 226.346 155.702 226.34 155.736L226.28 156.186C226.27 156.262 226.234 156.332 226.177 156.384C226.12 156.435 226.046 156.465 225.97 156.466Z" fill="#999999"/>
<path d="M233.37 160.726H222.43C222.394 160.727 222.36 160.72 222.328 160.705C222.296 160.691 222.267 160.669 222.244 160.643C222.221 160.616 222.204 160.584 222.195 160.55C222.186 160.517 222.184 160.481 222.19 160.446L222.25 159.986C222.261 159.911 222.298 159.842 222.355 159.791C222.411 159.74 222.484 159.71 222.56 159.706H233.5C233.535 159.706 233.57 159.713 233.602 159.728C233.634 159.742 233.662 159.763 233.685 159.79C233.708 159.817 233.725 159.848 233.734 159.882C233.744 159.916 233.746 159.952 233.74 159.986L233.68 160.436C233.672 160.514 233.637 160.587 233.58 160.64C233.523 160.694 233.448 160.724 233.37 160.726Z" fill="#999999"/>
<path d="M227.06 162.986H222.14C222.105 162.989 222.07 162.983 222.038 162.969C222.006 162.956 221.977 162.936 221.954 162.91C221.931 162.884 221.914 162.853 221.905 162.819C221.895 162.786 221.894 162.751 221.9 162.716L221.96 162.256C221.971 162.181 222.008 162.112 222.065 162.061C222.121 162.01 222.194 161.98 222.27 161.976H227.24C227.276 161.974 227.312 161.981 227.345 161.994C227.378 162.008 227.408 162.029 227.432 162.056C227.456 162.083 227.474 162.115 227.484 162.15C227.494 162.184 227.496 162.221 227.49 162.256L227.43 162.706C227.417 162.792 227.372 162.87 227.302 162.922C227.233 162.975 227.146 162.998 227.06 162.986Z" fill="#CCCCCC"/>
<path d="M230.02 156.466H227.02C226.985 156.467 226.95 156.46 226.918 156.445C226.885 156.431 226.857 156.409 226.834 156.383C226.811 156.356 226.795 156.324 226.785 156.29C226.776 156.257 226.774 156.221 226.78 156.186L226.84 155.736C226.849 155.66 226.886 155.59 226.943 155.539C227 155.487 227.073 155.458 227.15 155.456H230.15C230.185 155.456 230.22 155.463 230.252 155.478C230.284 155.492 230.312 155.513 230.335 155.54C230.358 155.567 230.375 155.598 230.384 155.632C230.394 155.666 230.396 155.702 230.39 155.736L230.33 156.196C230.316 156.27 230.278 156.336 230.222 156.385C230.166 156.435 230.094 156.463 230.02 156.466Z" fill="#CCCCCC"/>
<path d="M219.93 202.187H216.93C216.894 202.187 216.86 202.18 216.828 202.165C216.796 202.151 216.767 202.129 216.744 202.103C216.721 202.076 216.704 202.045 216.695 202.011C216.686 201.977 216.684 201.941 216.69 201.907L216.75 201.457C216.761 201.381 216.798 201.312 216.855 201.261C216.911 201.21 216.984 201.18 217.06 201.177H220.06C220.095 201.176 220.13 201.183 220.162 201.198C220.194 201.212 220.222 201.234 220.245 201.26C220.268 201.287 220.285 201.318 220.294 201.352C220.304 201.386 220.306 201.422 220.3 201.457L220.24 201.907C220.228 201.982 220.191 202.051 220.135 202.102C220.078 202.153 220.006 202.183 219.93 202.187Z" fill="#CCCCCC"/>
<path d="M223.99 202.177H220.99C220.955 202.177 220.92 202.17 220.888 202.155C220.855 202.141 220.827 202.119 220.804 202.093C220.781 202.066 220.764 202.035 220.755 202.001C220.746 201.967 220.744 201.931 220.75 201.897L220.81 201.447C220.819 201.37 220.856 201.3 220.913 201.249C220.97 201.198 221.043 201.168 221.12 201.167H224.12C224.155 201.166 224.19 201.173 224.222 201.188C224.254 201.202 224.282 201.224 224.305 201.25C224.328 201.277 224.345 201.308 224.354 201.342C224.364 201.376 224.366 201.412 224.36 201.447V201.897C224.345 201.981 224.299 202.057 224.23 202.109C224.161 202.161 224.075 202.185 223.99 202.177Z" fill="#CCCCCC"/>
<path d="M230 203.796H216.75C216.715 203.797 216.68 203.79 216.648 203.775C216.615 203.761 216.587 203.739 216.564 203.713C216.541 203.686 216.524 203.654 216.515 203.621C216.506 203.587 216.504 203.551 216.51 203.516L216.57 203.066C216.579 202.99 216.616 202.92 216.673 202.869C216.73 202.817 216.803 202.788 216.88 202.786H230.14C230.175 202.786 230.21 202.793 230.242 202.808C230.274 202.822 230.302 202.843 230.325 202.87C230.348 202.897 230.365 202.928 230.374 202.962C230.384 202.996 230.386 203.032 230.38 203.066L230.32 203.516C230.31 203.594 230.272 203.666 230.213 203.717C230.154 203.769 230.078 203.797 230 203.796Z" fill="#CCCCCC"/>
<path d="M235.64 160.726H234.44C234.404 160.729 234.368 160.723 234.335 160.709C234.302 160.695 234.273 160.674 234.249 160.647C234.226 160.619 234.21 160.587 234.201 160.552C234.192 160.518 234.192 160.481 234.2 160.446L234.26 159.996C234.271 159.921 234.308 159.852 234.365 159.801C234.421 159.75 234.494 159.72 234.57 159.716H235.78C235.815 159.716 235.85 159.723 235.882 159.738C235.914 159.752 235.942 159.773 235.965 159.8C235.988 159.827 236.005 159.858 236.014 159.892C236.024 159.926 236.026 159.962 236.02 159.996L235.96 160.446C235.948 160.523 235.909 160.594 235.851 160.645C235.792 160.696 235.718 160.725 235.64 160.726Z" fill="#CCCCCC"/>
<path d="M222.6 158.726C222.547 158.726 222.496 158.705 222.458 158.668C222.421 158.63 222.4 158.579 222.4 158.526C222.4 158.473 222.421 158.422 222.458 158.385C222.496 158.347 222.547 158.326 222.6 158.326H224.7C224.727 158.326 224.754 158.332 224.779 158.343C224.804 158.353 224.826 158.369 224.845 158.388C224.863 158.408 224.878 158.431 224.887 158.457C224.897 158.482 224.901 158.509 224.9 158.536C224.897 158.589 224.875 158.638 224.838 158.675C224.801 158.712 224.752 158.734 224.7 158.736L222.6 158.726Z" fill="#333333"/>
<path d="M221.67 165.906C221.617 165.906 221.566 165.885 221.528 165.848C221.491 165.81 221.47 165.759 221.47 165.706C221.47 165.653 221.491 165.602 221.528 165.565C221.566 165.527 221.617 165.506 221.67 165.506H226.03C226.083 165.506 226.134 165.527 226.171 165.565C226.209 165.602 226.23 165.653 226.23 165.706C226.23 165.759 226.209 165.81 226.171 165.848C226.134 165.885 226.083 165.906 226.03 165.906H221.67Z" fill="#333333"/>
<path d="M217.24 199.636C217.187 199.636 217.136 199.615 217.098 199.578C217.061 199.54 217.04 199.489 217.04 199.436C217.04 199.383 217.061 199.332 217.098 199.295C217.136 199.257 217.187 199.236 217.24 199.236H221.6C221.653 199.236 221.704 199.257 221.741 199.295C221.779 199.332 221.8 199.383 221.8 199.436C221.8 199.489 221.779 199.54 221.741 199.578C221.704 199.615 221.653 199.636 221.6 199.636H217.24Z" fill="#333333"/>
<path d="M221.3 168.726C221.247 168.726 221.196 168.705 221.158 168.668C221.121 168.63 221.1 168.579 221.1 168.526C221.1 168.473 221.121 168.422 221.158 168.385C221.196 168.347 221.247 168.326 221.3 168.326H225.66C225.713 168.326 225.764 168.347 225.801 168.385C225.839 168.422 225.86 168.473 225.86 168.526C225.86 168.579 225.839 168.63 225.801 168.668C225.764 168.705 225.713 168.726 225.66 168.726H221.3Z" fill="#333333"/>
<path d="M220.92 171.577C220.867 171.577 220.816 171.555 220.778 171.518C220.741 171.48 220.72 171.43 220.72 171.376C220.72 171.323 220.741 171.273 220.778 171.235C220.816 171.198 220.867 171.177 220.92 171.177H225.24C225.266 171.177 225.292 171.182 225.316 171.192C225.341 171.202 225.363 171.217 225.381 171.235C225.4 171.254 225.415 171.276 225.425 171.3C225.435 171.324 225.44 171.35 225.44 171.376C225.44 171.403 225.435 171.429 225.425 171.453C225.415 171.477 225.4 171.499 225.381 171.518C225.363 171.536 225.341 171.551 225.316 171.561C225.292 171.571 225.266 171.577 225.24 171.577H220.92Z" fill="#CCCCCC"/>
<path d="M221.9 173.436C221.847 173.436 221.796 173.415 221.758 173.378C221.721 173.34 221.7 173.289 221.7 173.236C221.7 173.183 221.721 173.132 221.758 173.095C221.796 173.057 221.847 173.036 221.9 173.036H225.04C225.093 173.036 225.144 173.057 225.181 173.095C225.219 173.132 225.24 173.183 225.24 173.236C225.24 173.289 225.219 173.34 225.181 173.378C225.144 173.415 225.093 173.436 225.04 173.436H221.9Z" fill="#999999"/>
<path d="M221.66 175.286C221.607 175.286 221.556 175.265 221.518 175.228C221.481 175.19 221.46 175.139 221.46 175.086C221.46 175.033 221.481 174.983 221.518 174.945C221.556 174.908 221.607 174.886 221.66 174.886H224.8C224.826 174.886 224.852 174.892 224.876 174.902C224.901 174.912 224.923 174.926 224.941 174.945C224.96 174.964 224.974 174.986 224.984 175.01C224.995 175.034 225 175.06 225 175.086C225 175.113 224.995 175.139 224.984 175.163C224.974 175.187 224.96 175.209 224.941 175.228C224.923 175.246 224.901 175.261 224.876 175.271C224.852 175.281 224.826 175.286 224.8 175.286H221.66Z" fill="#999999"/>
<path d="M221.41 177.146C221.357 177.146 221.306 177.125 221.268 177.088C221.231 177.05 221.21 176.999 221.21 176.946C221.21 176.893 221.231 176.842 221.268 176.805C221.306 176.767 221.357 176.746 221.41 176.746H224.55C224.603 176.746 224.654 176.767 224.691 176.805C224.729 176.842 224.75 176.893 224.75 176.946C224.75 176.999 224.729 177.05 224.691 177.088C224.654 177.125 224.603 177.146 224.55 177.146H221.41Z" fill="#999999"/>
<path d="M219.82 179.976C219.767 179.976 219.716 179.955 219.678 179.918C219.641 179.88 219.62 179.829 219.62 179.776C219.62 179.723 219.641 179.672 219.678 179.635C219.716 179.597 219.767 179.576 219.82 179.576H224.18C224.233 179.576 224.284 179.597 224.321 179.635C224.359 179.672 224.38 179.723 224.38 179.776C224.38 179.829 224.359 179.88 224.321 179.918C224.284 179.955 224.233 179.976 224.18 179.976H219.82Z" fill="#CCCCCC"/>
<path d="M220.8 181.827C220.747 181.827 220.696 181.805 220.658 181.768C220.621 181.73 220.6 181.68 220.6 181.626C220.6 181.573 220.621 181.523 220.658 181.485C220.696 181.448 220.747 181.427 220.8 181.427H223.94C223.966 181.427 223.992 181.432 224.016 181.442C224.04 181.452 224.062 181.467 224.081 181.485C224.1 181.504 224.114 181.526 224.124 181.55C224.134 181.574 224.14 181.6 224.14 181.626C224.14 181.653 224.134 181.679 224.124 181.703C224.114 181.727 224.1 181.749 224.081 181.768C224.062 181.786 224.04 181.801 224.016 181.811C223.992 181.821 223.966 181.827 223.94 181.827H220.8Z" fill="#999999"/>
<path d="M218.24 192.136C218.213 192.136 218.186 192.131 218.161 192.12C218.136 192.11 218.113 192.094 218.095 192.074C218.076 192.055 218.061 192.031 218.052 192.006C218.043 191.98 218.038 191.953 218.04 191.926C218.042 191.874 218.064 191.825 218.101 191.788C218.138 191.751 218.187 191.729 218.24 191.726H222.6C222.653 191.726 222.704 191.747 222.741 191.785C222.779 191.822 222.8 191.873 222.8 191.926C222.8 191.979 222.779 192.03 222.741 192.068C222.704 192.105 222.653 192.126 222.6 192.126L218.24 192.136Z" fill="#CCCCCC"/>
<path d="M219.24 193.986C219.187 193.986 219.136 193.965 219.098 193.928C219.061 193.89 219.04 193.839 219.04 193.786C219.04 193.733 219.061 193.683 219.098 193.645C219.136 193.608 219.187 193.586 219.24 193.586H222.38C222.433 193.586 222.484 193.608 222.521 193.645C222.559 193.683 222.58 193.733 222.58 193.786C222.58 193.84 222.559 193.892 222.522 193.932C222.485 193.971 222.434 193.994 222.38 193.996L219.24 193.986Z" fill="#999999"/>
<path d="M219.24 184.726C219.187 184.726 219.136 184.705 219.098 184.668C219.061 184.63 219.04 184.579 219.04 184.526C219.04 184.473 219.061 184.422 219.098 184.385C219.136 184.347 219.187 184.326 219.24 184.326H223.6C223.653 184.326 223.704 184.347 223.741 184.385C223.779 184.422 223.8 184.473 223.8 184.526C223.8 184.579 223.779 184.63 223.741 184.668C223.704 184.705 223.653 184.726 223.6 184.726H219.24Z" fill="#CCCCCC"/>
<path d="M220.18 186.566C220.127 186.566 220.076 186.545 220.038 186.508C220.001 186.47 219.98 186.42 219.98 186.367C219.98 186.313 220.001 186.263 220.038 186.225C220.076 186.188 220.127 186.167 220.18 186.167H226.1C226.126 186.167 226.152 186.172 226.176 186.182C226.201 186.192 226.223 186.206 226.241 186.225C226.26 186.244 226.274 186.266 226.285 186.29C226.295 186.314 226.3 186.34 226.3 186.367C226.3 186.393 226.295 186.419 226.285 186.443C226.274 186.467 226.26 186.489 226.241 186.508C226.223 186.527 226.201 186.541 226.176 186.551C226.152 186.561 226.126 186.566 226.1 186.566H220.18Z" fill="#999999"/>
<path d="M219.94 188.416C219.887 188.416 219.836 188.395 219.798 188.358C219.761 188.32 219.74 188.269 219.74 188.216C219.74 188.163 219.761 188.112 219.798 188.075C219.836 188.037 219.887 188.016 219.94 188.016H225.86C225.913 188.016 225.964 188.037 226.001 188.075C226.039 188.112 226.06 188.163 226.06 188.216C226.06 188.269 226.039 188.32 226.001 188.358C225.964 188.395 225.913 188.416 225.86 188.416H219.94Z" fill="#999999"/>
<path d="M220.67 164.356V164.106L236.5 164.086V164.336L220.67 164.356Z" fill="#CCCCCC"/>
<path d="M220.3 167.246V166.996L236.12 166.976V167.226L220.3 167.246Z" fill="#CCCCCC"/>
<path d="M216.43 196.736V196.486L232.25 196.466V196.716L216.43 196.736Z" fill="#CCCCCC"/>
<path d="M219.24 186.726H218.83C218.814 186.725 218.799 186.721 218.785 186.714C218.77 186.706 218.758 186.696 218.748 186.684C218.737 186.672 218.73 186.658 218.725 186.643C218.72 186.628 218.718 186.612 218.72 186.596L218.78 186.196C218.784 186.162 218.801 186.13 218.826 186.106C218.852 186.083 218.885 186.068 218.92 186.066H219.32C219.336 186.066 219.352 186.07 219.367 186.076C219.382 186.083 219.395 186.093 219.405 186.105C219.416 186.118 219.424 186.132 219.428 186.148C219.432 186.164 219.433 186.18 219.43 186.196V186.596C219.428 186.618 219.421 186.639 219.41 186.658C219.398 186.677 219.383 186.693 219.365 186.706C219.347 186.718 219.326 186.727 219.305 186.73C219.283 186.734 219.261 186.732 219.24 186.726Z" fill="#999999"/>
<path d="M219 188.546H218.6C218.584 188.548 218.568 188.547 218.553 188.541C218.538 188.536 218.525 188.527 218.514 188.515C218.503 188.503 218.495 188.489 218.491 188.474C218.487 188.458 218.486 188.442 218.49 188.426V188.016C218.497 187.982 218.516 187.951 218.543 187.929C218.57 187.907 218.605 187.896 218.64 187.896H219.04C219.056 187.895 219.072 187.896 219.087 187.902C219.101 187.907 219.115 187.916 219.126 187.928C219.136 187.94 219.144 187.954 219.148 187.969C219.153 187.985 219.153 188.001 219.15 188.016V188.426C219.141 188.46 219.122 188.49 219.095 188.511C219.068 188.533 219.034 188.545 219 188.546Z" fill="#999999"/>
<path d="M162.72 153.186L155.97 204.656C155.894 205.109 155.665 205.523 155.321 205.827C154.977 206.131 154.539 206.307 154.08 206.326H141.59C141.378 206.332 141.168 206.291 140.974 206.206C140.781 206.121 140.608 205.994 140.47 205.835C140.331 205.675 140.229 205.486 140.172 205.283C140.115 205.079 140.104 204.865 140.14 204.656L146.88 153.196C146.957 152.745 147.187 152.334 147.531 152.032C147.875 151.73 148.312 151.555 148.77 151.536H161.26C161.47 151.529 161.679 151.569 161.873 151.652C162.066 151.736 162.238 151.86 162.378 152.018C162.517 152.176 162.62 152.362 162.679 152.564C162.738 152.766 162.752 152.979 162.72 153.186Z" fill="#F4F4F4"/>
<path d="M150.46 158.546H147.46C147.424 158.547 147.39 158.54 147.358 158.525C147.325 158.511 147.297 158.489 147.274 158.463C147.251 158.436 147.234 158.404 147.225 158.371C147.216 158.337 147.214 158.301 147.22 158.266L147.28 157.806C147.291 157.729 147.33 157.659 147.389 157.608C147.447 157.557 147.522 157.528 147.6 157.526H150.6C150.635 157.526 150.67 157.533 150.702 157.548C150.734 157.562 150.762 157.583 150.785 157.61C150.808 157.637 150.825 157.668 150.834 157.702C150.844 157.736 150.846 157.772 150.84 157.806L150.78 158.256C150.772 158.336 150.735 158.41 150.676 158.464C150.617 158.517 150.54 158.547 150.46 158.546Z" fill="#999999"/>
<path d="M161.49 162.506L161.29 164.076L145.46 164.096L145.66 162.526L161.49 162.506Z" fill="#CCCCCC"/>
<path d="M159.71 168.246L159.32 171.246C159.31 171.322 159.274 171.393 159.217 171.444C159.16 171.495 159.086 171.525 159.01 171.526H145.8C145.764 171.528 145.728 171.522 145.694 171.508C145.661 171.495 145.631 171.473 145.607 171.447C145.583 171.42 145.566 171.388 145.556 171.353C145.546 171.318 145.544 171.282 145.55 171.246L145.94 168.246C145.949 168.169 145.987 168.097 146.046 168.046C146.105 167.994 146.181 167.966 146.26 167.966H159.47C159.505 167.964 159.541 167.97 159.574 167.984C159.607 167.998 159.637 168.019 159.66 168.046C159.683 168.073 159.7 168.106 159.708 168.14C159.717 168.175 159.718 168.211 159.71 168.246Z" fill="#CCCCCC"/>
<path d="M154.52 158.546H151.52C151.485 158.547 151.45 158.54 151.418 158.525C151.386 158.511 151.357 158.489 151.334 158.463C151.311 158.436 151.295 158.405 151.285 158.371C151.276 158.337 151.274 158.301 151.28 158.266L151.34 157.816C151.349 157.74 151.386 157.67 151.443 157.619C151.5 157.567 151.573 157.538 151.65 157.536H154.65C154.685 157.535 154.72 157.541 154.752 157.554C154.785 157.567 154.814 157.587 154.838 157.613C154.862 157.639 154.879 157.669 154.89 157.703C154.901 157.736 154.904 157.772 154.9 157.806L154.84 158.266C154.826 158.343 154.787 158.412 154.729 158.463C154.671 158.514 154.597 158.543 154.52 158.546Z" fill="#CCCCCC"/>
<path d="M161.31 153.886H160.11C160.074 153.887 160.04 153.88 160.008 153.865C159.976 153.851 159.947 153.829 159.924 153.803C159.901 153.776 159.884 153.745 159.875 153.711C159.866 153.677 159.864 153.641 159.87 153.606L159.93 153.146C159.941 153.071 159.978 153.002 160.035 152.951C160.091 152.9 160.164 152.87 160.24 152.866H161.45C161.485 152.866 161.52 152.873 161.552 152.888C161.584 152.902 161.612 152.924 161.635 152.95C161.658 152.977 161.675 153.008 161.684 153.042C161.694 153.076 161.696 153.112 161.69 153.146L161.63 153.596C161.622 153.676 161.585 153.75 161.526 153.804C161.467 153.857 161.39 153.887 161.31 153.886Z" fill="#CCCCCC"/>
<path d="M159.04 153.896H157.83C157.795 153.897 157.76 153.89 157.728 153.875C157.695 153.861 157.667 153.839 157.644 153.813C157.621 153.786 157.604 153.754 157.595 153.721C157.586 153.687 157.584 153.651 157.59 153.616L157.65 153.166C157.659 153.09 157.696 153.02 157.753 152.969C157.81 152.917 157.883 152.888 157.96 152.886H159.17C159.204 152.884 159.239 152.89 159.271 152.903C159.303 152.917 159.332 152.937 159.355 152.963C159.378 152.989 159.395 153.02 159.405 153.054C159.414 153.087 159.416 153.122 159.41 153.156L159.35 153.616C159.338 153.692 159.301 153.761 159.245 153.812C159.188 153.863 159.116 153.893 159.04 153.896Z" fill="#CCCCCC"/>
<path d="M156.76 153.896H155.56C155.524 153.898 155.488 153.892 155.454 153.878C155.421 153.865 155.391 153.843 155.367 153.817C155.343 153.79 155.326 153.758 155.316 153.723C155.306 153.688 155.304 153.652 155.31 153.616L155.37 153.166C155.379 153.089 155.417 153.017 155.476 152.966C155.535 152.914 155.611 152.886 155.69 152.886H156.89C156.926 152.884 156.962 152.89 156.995 152.904C157.028 152.918 157.058 152.939 157.082 152.966C157.106 152.993 157.124 153.025 157.134 153.06C157.144 153.094 157.146 153.131 157.14 153.166L157.08 153.616C157.068 153.693 157.029 153.764 156.971 153.815C156.912 153.866 156.837 153.895 156.76 153.896Z" fill="#CCCCCC"/>
<path d="M147.15 161.786C147.123 161.786 147.097 161.781 147.073 161.771C147.049 161.761 147.027 161.746 147.008 161.728C146.99 161.709 146.975 161.687 146.965 161.663C146.955 161.639 146.95 161.613 146.95 161.586C146.95 161.56 146.955 161.534 146.965 161.51C146.975 161.486 146.99 161.464 147.008 161.445C147.027 161.426 147.049 161.412 147.073 161.402C147.097 161.392 147.123 161.386 147.15 161.386H149.24C149.266 161.386 149.292 161.392 149.316 161.402C149.34 161.412 149.363 161.426 149.381 161.445C149.4 161.464 149.414 161.486 149.424 161.51C149.434 161.534 149.44 161.56 149.44 161.586C149.44 161.613 149.434 161.639 149.424 161.663C149.414 161.687 149.4 161.709 149.381 161.728C149.363 161.746 149.34 161.761 149.316 161.771C149.292 161.781 149.266 161.786 149.24 161.786H147.15Z" fill="#333333"/>
<path d="M145.44 174.796C145.387 174.796 145.336 174.775 145.298 174.738C145.261 174.7 145.24 174.65 145.24 174.596C145.24 174.543 145.261 174.493 145.298 174.455C145.336 174.418 145.387 174.396 145.44 174.396H147.54C147.566 174.396 147.592 174.402 147.616 174.412C147.641 174.422 147.663 174.436 147.681 174.455C147.7 174.474 147.714 174.496 147.725 174.52C147.735 174.544 147.74 174.57 147.74 174.596C147.74 174.623 147.735 174.649 147.725 174.673C147.714 174.697 147.7 174.719 147.681 174.738C147.663 174.756 147.641 174.771 147.616 174.781C147.592 174.791 147.566 174.796 147.54 174.796H145.44Z" fill="#333333"/>
<path d="M146.92 163.506C146.867 163.506 146.816 163.485 146.778 163.448C146.741 163.41 146.72 163.359 146.72 163.306C146.72 163.253 146.741 163.203 146.778 163.165C146.816 163.128 146.867 163.106 146.92 163.106H149.02C149.046 163.106 149.072 163.112 149.096 163.122C149.121 163.132 149.143 163.146 149.161 163.165C149.18 163.184 149.194 163.206 149.205 163.23C149.215 163.254 149.22 163.28 149.22 163.306C149.22 163.333 149.215 163.359 149.205 163.383C149.194 163.407 149.18 163.429 149.161 163.448C149.143 163.466 149.121 163.481 149.096 163.491C149.072 163.501 149.046 163.506 149.02 163.506H146.92Z" fill="#333333"/>
<path d="M146.69 165.316C146.663 165.316 146.637 165.311 146.613 165.301C146.589 165.291 146.567 165.277 146.548 165.258C146.53 165.239 146.515 165.217 146.505 165.193C146.495 165.169 146.49 165.143 146.49 165.117C146.49 165.09 146.495 165.064 146.505 165.04C146.515 165.016 146.53 164.994 146.548 164.975C146.567 164.956 146.589 164.942 146.613 164.932C146.637 164.922 146.663 164.917 146.69 164.917H148.78C148.833 164.917 148.884 164.938 148.921 164.975C148.959 165.013 148.98 165.063 148.98 165.117C148.98 165.17 148.959 165.22 148.921 165.258C148.884 165.295 148.833 165.316 148.78 165.316H146.69Z" fill="#CCCCCC"/>
<path d="M146.47 167.006C146.417 167.006 146.366 166.985 146.328 166.948C146.291 166.91 146.27 166.859 146.27 166.806C146.27 166.753 146.291 166.703 146.328 166.665C146.366 166.628 146.417 166.606 146.47 166.606H148.56C148.613 166.606 148.664 166.628 148.701 166.665C148.739 166.703 148.76 166.753 148.76 166.806C148.76 166.859 148.739 166.91 148.701 166.948C148.664 166.985 148.613 167.006 148.56 167.006H146.47Z" fill="#CCCCCC"/>
<path d="M146.14 177.476C146.087 177.476 146.036 177.455 145.998 177.418C145.961 177.38 145.94 177.329 145.94 177.276C145.94 177.223 145.961 177.172 145.998 177.135C146.036 177.097 146.087 177.076 146.14 177.076H154.08C154.133 177.076 154.184 177.097 154.221 177.135C154.259 177.172 154.28 177.223 154.28 177.276C154.28 177.329 154.259 177.38 154.221 177.418C154.184 177.455 154.133 177.476 154.08 177.476H146.14Z" fill="#999999"/>
<path d="M147.32 178.946C147.293 178.946 147.267 178.941 147.243 178.931C147.219 178.921 147.197 178.906 147.178 178.888C147.16 178.869 147.145 178.847 147.135 178.823C147.125 178.799 147.12 178.773 147.12 178.746C147.12 178.72 147.125 178.694 147.135 178.67C147.145 178.646 147.16 178.624 147.178 178.605C147.197 178.586 147.219 178.572 147.243 178.562C147.267 178.552 147.293 178.546 147.32 178.546H150.46C150.513 178.546 150.564 178.567 150.601 178.605C150.639 178.642 150.66 178.693 150.66 178.746C150.66 178.799 150.639 178.85 150.601 178.888C150.564 178.925 150.513 178.946 150.46 178.946H147.32Z" fill="#CCCCCC"/>
<g opacity="0.3">
<path d="M148.95 180.406C148.897 180.406 148.846 180.385 148.808 180.348C148.771 180.31 148.75 180.259 148.75 180.206C148.75 180.153 148.771 180.102 148.808 180.065C148.846 180.027 148.897 180.006 148.95 180.006H155.06C155.113 180.006 155.164 180.027 155.201 180.065C155.239 180.102 155.26 180.153 155.26 180.206C155.26 180.26 155.239 180.312 155.202 180.351C155.165 180.391 155.114 180.414 155.06 180.416L148.95 180.406Z" fill="#93278F"/>
</g>
<g opacity="0.3">
<path d="M148.76 181.876C148.707 181.876 148.656 181.855 148.618 181.818C148.581 181.78 148.56 181.729 148.56 181.676C148.56 181.623 148.581 181.572 148.618 181.535C148.656 181.497 148.707 181.476 148.76 181.476H152.76C152.813 181.476 152.864 181.497 152.901 181.535C152.939 181.572 152.96 181.623 152.96 181.676C152.961 181.703 152.957 181.73 152.947 181.755C152.938 181.779 152.923 181.802 152.904 181.821C152.885 181.84 152.863 181.855 152.838 181.864C152.813 181.874 152.786 181.878 152.76 181.876H148.76Z" fill="#93278F"/>
</g>
<g opacity="0.3">
<path d="M148.57 183.347C148.517 183.347 148.466 183.325 148.428 183.288C148.391 183.25 148.37 183.2 148.37 183.147C148.37 183.094 148.391 183.043 148.428 183.005C148.466 182.968 148.517 182.947 148.57 182.947H152.57C152.623 182.947 152.674 182.968 152.711 183.005C152.749 183.043 152.77 183.094 152.77 183.147C152.77 183.2 152.749 183.25 152.711 183.288C152.674 183.325 152.623 183.347 152.57 183.347H148.57Z" fill="#93278F"/>
</g>
<g opacity="0.3">
<path d="M148.37 184.806C148.317 184.806 148.266 184.785 148.228 184.748C148.191 184.71 148.17 184.66 148.17 184.607C148.17 184.553 148.191 184.503 148.228 184.465C148.266 184.428 148.317 184.406 148.37 184.406H152.37C152.423 184.406 152.474 184.428 152.511 184.465C152.549 184.503 152.57 184.553 152.57 184.607C152.57 184.66 152.549 184.71 152.511 184.748C152.474 184.785 152.423 184.806 152.37 184.806H148.37Z" fill="#93278F"/>
</g>
<g opacity="0.3">
<path d="M148.18 186.276C148.127 186.276 148.076 186.255 148.038 186.218C148.001 186.18 147.98 186.13 147.98 186.076C147.98 186.023 148.001 185.973 148.038 185.935C148.076 185.898 148.127 185.876 148.18 185.876H152.18C152.233 185.876 152.284 185.898 152.321 185.935C152.359 185.973 152.38 186.023 152.38 186.076C152.38 186.13 152.359 186.18 152.321 186.218C152.284 186.255 152.233 186.276 152.18 186.276H148.18Z" fill="#93278F"/>
</g>
<g opacity="0.3">
<path d="M149.83 187.726C149.777 187.726 149.726 187.705 149.688 187.668C149.651 187.63 149.63 187.579 149.63 187.526C149.63 187.473 149.651 187.422 149.688 187.385C149.726 187.347 149.777 187.326 149.83 187.326H152.24C152.293 187.326 152.344 187.347 152.381 187.385C152.419 187.422 152.44 187.473 152.44 187.526C152.44 187.579 152.419 187.63 152.381 187.668C152.344 187.705 152.293 187.726 152.24 187.726H149.83Z" fill="#93278F"/>
</g>
<g opacity="0.3">
<path d="M149.64 189.206C149.587 189.206 149.536 189.185 149.498 189.148C149.461 189.11 149.44 189.059 149.44 189.006C149.44 188.953 149.461 188.902 149.498 188.865C149.536 188.827 149.587 188.806 149.64 188.806H152.07C152.123 188.806 152.174 188.827 152.211 188.865C152.249 188.902 152.27 188.953 152.27 189.006C152.27 189.059 152.249 189.11 152.211 189.148C152.174 189.185 152.123 189.206 152.07 189.206H149.64Z" fill="#93278F"/>
</g>
<path d="M145.65 191.666C145.597 191.666 145.546 191.645 145.508 191.608C145.471 191.57 145.45 191.519 145.45 191.466C145.45 191.413 145.471 191.362 145.508 191.325C145.546 191.287 145.597 191.266 145.65 191.266H148.8C148.853 191.266 148.904 191.287 148.941 191.325C148.979 191.362 149 191.413 149 191.466C149 191.519 148.979 191.57 148.941 191.608C148.904 191.645 148.853 191.666 148.8 191.666H145.65Z" fill="#CCCCCC"/>
<path d="M147.24 193.136C147.187 193.136 147.136 193.115 147.098 193.078C147.061 193.04 147.04 192.989 147.04 192.936C147.04 192.883 147.061 192.832 147.098 192.795C147.136 192.757 147.187 192.736 147.24 192.736H153.35C153.403 192.736 153.454 192.757 153.491 192.795C153.529 192.832 153.55 192.883 153.55 192.936C153.55 192.989 153.529 193.04 153.491 193.078C153.454 193.115 153.403 193.136 153.35 193.136H147.24Z" fill="#999999"/>
<path d="M147.09 194.607C147.037 194.607 146.986 194.585 146.948 194.548C146.911 194.51 146.89 194.46 146.89 194.407C146.89 194.353 146.911 194.303 146.948 194.265C146.986 194.228 147.037 194.207 147.09 194.207H153.24C153.293 194.207 153.344 194.228 153.381 194.265C153.419 194.303 153.44 194.353 153.44 194.407C153.44 194.46 153.419 194.51 153.381 194.548C153.344 194.585 153.293 194.607 153.24 194.607H147.09Z" fill="#999999"/>
<path d="M146.9 196.067C146.847 196.067 146.796 196.045 146.758 196.008C146.721 195.97 146.7 195.92 146.7 195.867C146.7 195.814 146.721 195.763 146.758 195.725C146.796 195.688 146.847 195.667 146.9 195.667H153.01C153.036 195.665 153.063 195.669 153.088 195.679C153.113 195.688 153.135 195.703 153.154 195.722C153.173 195.741 153.188 195.763 153.197 195.788C153.207 195.813 153.211 195.84 153.21 195.867C153.21 195.92 153.189 195.97 153.151 196.008C153.114 196.045 153.063 196.067 153.01 196.067H146.9Z" fill="#999999"/>
<path d="M146.71 197.536C146.683 197.536 146.658 197.531 146.633 197.521C146.609 197.511 146.587 197.496 146.568 197.478C146.55 197.459 146.535 197.437 146.525 197.413C146.515 197.389 146.51 197.363 146.51 197.336C146.51 197.31 146.515 197.284 146.525 197.26C146.535 197.236 146.55 197.214 146.568 197.195C146.587 197.176 146.609 197.162 146.633 197.152C146.658 197.142 146.683 197.136 146.71 197.136H152.82C152.846 197.136 152.872 197.142 152.896 197.152C152.921 197.162 152.943 197.176 152.961 197.195C152.98 197.214 152.994 197.236 153.005 197.26C153.015 197.284 153.02 197.31 153.02 197.336C153.02 197.363 153.015 197.389 153.005 197.413C152.994 197.437 152.98 197.459 152.961 197.478C152.943 197.496 152.921 197.511 152.896 197.521C152.872 197.531 152.846 197.536 152.82 197.536H146.71Z" fill="#999999"/>
<path d="M146.51 199.006C146.483 199.006 146.457 199.001 146.433 198.991C146.409 198.981 146.387 198.966 146.368 198.948C146.35 198.929 146.335 198.907 146.325 198.883C146.315 198.859 146.31 198.833 146.31 198.806C146.31 198.78 146.315 198.754 146.325 198.73C146.335 198.706 146.35 198.684 146.368 198.665C146.387 198.646 146.409 198.632 146.433 198.622C146.457 198.612 146.483 198.606 146.51 198.606H152.62C152.646 198.606 152.672 198.612 152.696 198.622C152.72 198.632 152.743 198.646 152.761 198.665C152.78 198.684 152.794 198.706 152.804 198.73C152.814 198.754 152.82 198.78 152.82 198.806C152.82 198.833 152.814 198.859 152.804 198.883C152.794 198.907 152.78 198.929 152.761 198.948C152.743 198.966 152.72 198.981 152.696 198.991C152.672 199.001 152.646 199.006 152.62 199.006H146.51Z" fill="#999999"/>
<path d="M148.16 200.466C148.133 200.466 148.107 200.461 148.083 200.451C148.059 200.441 148.037 200.426 148.018 200.408C148 200.389 147.985 200.367 147.975 200.343C147.965 200.319 147.96 200.293 147.96 200.266C147.96 200.24 147.965 200.214 147.975 200.19C147.985 200.166 148 200.144 148.018 200.125C148.037 200.106 148.059 200.092 148.083 200.082C148.107 200.072 148.133 200.066 148.16 200.066H150.59C150.643 200.066 150.694 200.087 150.731 200.125C150.769 200.163 150.79 200.213 150.79 200.266C150.79 200.319 150.769 200.37 150.731 200.408C150.694 200.445 150.643 200.466 150.59 200.466H148.16Z" fill="#999999"/>
<path d="M147.97 201.936C147.917 201.936 147.866 201.915 147.828 201.878C147.791 201.84 147.77 201.789 147.77 201.736C147.77 201.683 147.791 201.632 147.828 201.595C147.866 201.557 147.917 201.536 147.97 201.536H150.4C150.453 201.536 150.504 201.557 150.541 201.595C150.579 201.632 150.6 201.683 150.6 201.736C150.6 201.789 150.579 201.84 150.541 201.878C150.504 201.915 150.453 201.936 150.4 201.936H147.97Z" fill="#999999"/>
<path d="M147.78 203.406C147.727 203.406 147.676 203.385 147.638 203.348C147.601 203.31 147.58 203.259 147.58 203.206C147.58 203.153 147.601 203.102 147.638 203.065C147.676 203.027 147.727 203.006 147.78 203.006H150.24C150.293 203.006 150.344 203.027 150.381 203.065C150.419 203.102 150.44 203.153 150.44 203.206C150.44 203.259 150.419 203.31 150.381 203.348C150.344 203.385 150.293 203.406 150.24 203.406H147.78Z" fill="#999999"/>
<path d="M147.59 204.866C147.537 204.866 147.486 204.845 147.448 204.808C147.411 204.77 147.39 204.719 147.39 204.666C147.39 204.613 147.411 204.562 147.448 204.525C147.486 204.487 147.537 204.466 147.59 204.466H150.01C150.036 204.466 150.062 204.471 150.086 204.482C150.11 204.492 150.132 204.506 150.151 204.525C150.17 204.543 150.184 204.566 150.194 204.59C150.204 204.614 150.21 204.64 150.21 204.666C150.21 204.693 150.204 204.719 150.194 204.743C150.184 204.767 150.17 204.789 150.151 204.808C150.132 204.826 150.11 204.841 150.086 204.851C150.062 204.861 150.036 204.866 150.01 204.866H147.59Z" fill="#999999"/>
<path d="M146.53 156.086V155.836L162.35 155.826V156.076L146.53 156.086Z" fill="#CCCCCC"/>
<path d="M145.96 160.396V160.146L161.79 160.126V160.376L145.96 160.396Z" fill="#CCCCCC"/>
<path d="M144.26 173.356V173.106L160.09 173.096V173.346L144.26 173.356Z" fill="#CCCCCC"/>
<path d="M143.89 176.197V175.947L159.72 175.927V176.177L143.89 176.197Z" fill="#CCCCCC"/>
<path d="M149.15 154.297H148.15C148.096 154.299 148.043 154.29 147.994 154.268C147.945 154.247 147.901 154.215 147.867 154.175C147.832 154.134 147.807 154.086 147.794 154.035C147.78 153.983 147.779 153.929 147.79 153.877L147.91 152.927C147.926 152.81 147.983 152.703 148.071 152.624C148.159 152.545 148.272 152.5 148.39 152.497H149.39C149.443 152.494 149.496 152.504 149.545 152.525C149.594 152.546 149.638 152.578 149.673 152.618C149.707 152.659 149.732 152.707 149.746 152.758C149.759 152.81 149.76 152.864 149.75 152.917L149.63 153.917C149.605 154.025 149.544 154.122 149.456 154.191C149.369 154.26 149.261 154.297 149.15 154.297Z" fill="#999999"/>
<path d="M159.71 168.246V168.366H145.94V168.246C145.949 168.169 145.987 168.097 146.046 168.046C146.105 167.994 146.181 167.966 146.26 167.966H159.47C159.505 167.964 159.541 167.97 159.574 167.984C159.607 167.998 159.637 168.019 159.66 168.046C159.683 168.073 159.7 168.106 159.708 168.14C159.717 168.175 159.718 168.211 159.71 168.246Z" fill="#FFC928"/>
<path d="M244.73 231.476H19.7197V258.496H244.73V231.476Z" fill="url(#paint2_linear_64_16695)"/>
<path d="M252.88 221.916V228.726C252.88 231.066 251.48 232.956 249.77 232.956H14.6797C12.9697 232.956 11.5697 231.066 11.5697 228.726V221.956C11.5697 219.626 12.9697 217.736 14.6797 217.736H249.77C251.48 217.726 252.88 219.586 252.88 221.916Z" fill="url(#paint3_linear_64_16695)"/>
<path d="M153.15 122.007C153.91 121.007 160.92 119.797 165.49 110.517C170.22 100.937 172.3 112.757 172.23 116.107C172.16 119.457 171.31 128.697 163.61 130.217C155.91 131.737 151.13 124.007 153.15 122.007Z" fill="#FBD08D"/>
<path opacity="0.6" d="M163.61 130.216C161.948 130.558 160.225 130.452 158.617 129.909C157.009 129.366 155.575 128.406 154.46 127.126C153.844 126.433 153.353 125.638 153.01 124.776C152.77 124.349 152.657 123.863 152.684 123.375C152.711 122.886 152.876 122.415 153.16 122.016C153.91 121.016 160.92 119.806 165.5 110.526C167.34 106.806 168.78 106.306 169.84 107.306C170.172 107.642 170.439 108.035 170.63 108.466C171.624 110.881 172.147 113.465 172.17 116.076C172.17 119.466 171.31 128.726 163.61 130.216Z" fill="url(#paint4_linear_64_16695)"/>
<path d="M174.96 135.406C173.699 129.7 170.304 124.691 165.47 121.406C165.47 121.406 153.8 113.126 136.06 113.156L66.8698 115.916L66.6797 122.626L66.5798 125.976L65.7598 154.316C67.8398 165.046 80.0497 171.726 80.0497 171.726C80.0497 171.726 89.5298 177.986 104.7 180.386C112.677 181.642 120.805 181.602 128.77 180.266C134.721 179.322 140.552 177.733 146.16 175.526L147.03 175.166C158.58 170.316 166.12 163.586 170.47 156.646C175.85 148.066 176.24 142.826 174.96 135.406Z" fill="#FA9936"/>
<path d="M174.96 135.406C173.699 129.7 170.304 124.691 165.47 121.406C165.47 121.406 153.8 113.126 136.06 113.156L66.8698 115.916L66.6797 122.626L66.5798 125.976L65.7598 154.316C67.8398 165.046 80.0497 171.726 80.0497 171.726C80.0497 171.726 89.5298 177.986 104.7 180.386C112.677 181.642 120.805 181.602 128.77 180.266C134.721 179.322 140.552 177.733 146.16 175.526L147.03 175.166C158.58 170.316 166.12 163.586 170.47 156.646C175.85 148.066 176.24 142.826 174.96 135.406Z" fill="url(#paint5_linear_64_16695)"/>
<path d="M152.73 139.066C157.303 142.413 160.925 146.894 163.24 152.066C163.267 152.137 163.31 152.2 163.365 152.251C163.421 152.303 163.487 152.341 163.559 152.363C163.631 152.385 163.707 152.391 163.782 152.379C163.857 152.367 163.928 152.339 163.99 152.296L170.58 147.736C170.673 147.671 170.741 147.577 170.776 147.468C170.81 147.36 170.808 147.243 170.77 147.136C170.13 145.426 167.13 138.136 160.32 133.556C160.233 133.5 160.133 133.47 160.03 133.47C159.927 133.47 159.826 133.5 159.74 133.556L152.74 138.226C152.671 138.272 152.615 138.334 152.575 138.407C152.536 138.48 152.515 138.561 152.514 138.644C152.513 138.726 152.532 138.808 152.57 138.882C152.607 138.955 152.662 139.019 152.73 139.066Z" fill="#FFF3E9"/>
<path d="M157.9 141.256C159.577 142.879 161.051 144.699 162.29 146.676C162.338 146.76 162.402 146.833 162.48 146.89C162.557 146.947 162.646 146.988 162.74 147.01C162.833 147.031 162.931 147.033 163.025 147.015C163.12 146.998 163.21 146.961 163.29 146.906L166.93 144.536C167.072 144.444 167.176 144.302 167.222 144.139C167.269 143.975 167.253 143.8 167.18 143.646C166.56 142.346 164.83 139.136 162.25 137.596C162.13 137.531 161.994 137.501 161.857 137.51C161.721 137.518 161.59 137.566 161.48 137.646L158 140.196C157.918 140.256 157.85 140.332 157.801 140.419C157.751 140.507 157.72 140.604 157.711 140.704C157.701 140.804 157.713 140.905 157.746 141.001C157.778 141.096 157.831 141.183 157.9 141.256Z" fill="#CCCCCC"/>
<path d="M136.47 258.496H26.6797C14.4297 223.856 24.3197 190.696 30.4297 175.496C31.5832 172.571 32.8883 169.707 34.3397 166.917L60.0697 167.316H60.7297L91.1197 167.786L97.1197 167.876L125.03 168.306H127.45C129.459 171.88 131.233 175.582 132.76 179.387C137.06 190.372 139.62 201.962 140.35 213.737C140.54 216.447 140.64 219.097 140.67 221.667C140.875 234.073 139.464 246.454 136.47 258.496Z" fill="#FA9936"/>
<path d="M147.84 105.127C138.91 110.217 136.39 101.607 136.39 101.607C136.39 101.607 136.33 101.457 136.24 101.187C135.77 99.7865 134.46 95.1865 137.24 93.7165C138.08 92.8065 145.18 92.2765 150.64 83.5065C153.06 79.6165 154.64 79.5865 155.56 81.0765V81.1365C155.641 81.2653 155.715 81.3989 155.78 81.5365C156.78 83.5365 156.95 87.3765 156.78 89.3165C156.78 89.4565 156.78 89.5865 156.78 89.7065C156.78 89.8265 156.1 100.417 147.84 105.127Z" fill="#FBD08D"/>
<path opacity="0.6" d="M156.8 89.7263C156.8 89.6063 156.8 89.4763 156.8 89.3363C156.95 87.3963 156.75 83.5863 155.8 81.5563C155.734 81.4187 155.661 81.2851 155.58 81.1563V81.0963C154.63 79.6063 153.08 79.6363 150.66 83.5263C145.2 92.2963 138.1 92.8263 137.26 93.7363C134.49 95.2163 135.8 99.8063 136.26 101.206C136.35 101.476 136.41 101.626 136.41 101.626C136.41 101.626 138.93 110.236 147.86 105.146C156.1 100.416 156.8 89.7263 156.8 89.7263Z" fill="url(#paint6_linear_64_16695)"/>
<path d="M42.9197 64.0565C40.6653 64.5765 38.4704 65.3271 36.3697 66.2965C34.8714 66.978 33.433 67.7842 32.0697 68.7065L33.9197 61.7065C33.9728 61.5026 34.0704 61.3129 34.2054 61.151C34.3404 60.9892 34.5095 60.8591 34.7006 60.7703C34.8917 60.6814 35.1 60.6359 35.3108 60.637C35.5215 60.6381 35.7295 60.6857 35.9197 60.7765L42.9197 64.0565Z" fill="#FFD8A4"/>
<path d="M140.16 73.1364C138.62 71.4122 136.908 69.8506 135.05 68.4764C133.732 67.4904 132.334 66.6173 130.87 65.8664L137.87 64.1364C138.072 64.0846 138.282 64.0778 138.487 64.1166C138.692 64.1555 138.886 64.239 139.055 64.3612C139.224 64.4833 139.364 64.6412 139.465 64.8236C139.566 65.006 139.626 65.2084 139.64 65.4164L140.16 73.1364Z" fill="#FFD8A4"/>
<path d="M155.24 116.116C154.799 113.844 154.129 111.623 153.24 109.486C152.616 107.962 151.863 106.493 150.99 105.096L157.88 107.206C158.078 107.268 158.26 107.371 158.414 107.509C158.568 107.648 158.69 107.818 158.771 108.008C158.853 108.198 158.893 108.404 158.887 108.611C158.882 108.818 158.831 109.021 158.74 109.206L155.24 116.116Z" fill="#FFD8A4"/>
<path d="M7.47974 101.167C6.54656 103.275 5.82955 105.473 5.33972 107.727C4.98415 109.332 4.76009 110.964 4.66974 112.607L0.239748 106.966C0.109807 106.803 0.0175329 106.613 -0.0305156 106.41C-0.078564 106.206 -0.0811797 105.995 -0.038206 105.791C0.00476771 105.586 0.0922499 105.394 0.218081 105.227C0.343911 105.061 0.504981 104.924 0.68976 104.827L7.47974 101.167Z" fill="#FFD8A4"/>
<path d="M5.17965 146.296C5.53729 148.585 6.13046 150.83 6.94967 152.996C7.51701 154.535 8.21275 156.024 9.02963 157.446L2.23965 155.106C2.04799 155.038 1.87316 154.929 1.72689 154.787C1.58063 154.646 1.46629 154.475 1.39151 154.285C1.31672 154.096 1.28321 153.893 1.29324 153.69C1.30326 153.486 1.35662 153.287 1.44967 153.106L5.17965 146.296Z" fill="#FFD8A4"/>
<path d="M92.7698 51.6564C90.5269 51.0882 88.2314 50.7531 85.9197 50.6564C84.277 50.5875 82.6315 50.6544 80.9998 50.8564L85.7897 45.4764C85.929 45.3208 86.1007 45.1976 86.2927 45.1154C86.4847 45.0332 86.6923 44.9941 86.9011 45.0007C87.1098 45.0074 87.3146 45.0597 87.5009 45.154C87.6873 45.2483 87.8507 45.3822 87.9797 45.5464L92.7698 51.6564Z" fill="#FFD8A4"/>
<path d="M156.6 147.726C156.243 150.012 155.65 152.254 154.83 154.416C154.262 155.959 153.567 157.45 152.75 158.876L159.56 156.536C159.751 156.468 159.926 156.359 160.072 156.217C160.219 156.076 160.333 155.905 160.408 155.715C160.483 155.526 160.516 155.323 160.506 155.12C160.496 154.916 160.443 154.717 160.35 154.536L156.6 147.726Z" fill="#FFD8A4"/>
<path d="M148.44 133.406L148.79 133.216C149.012 133.04 149.213 132.839 149.39 132.616C152.308 129.238 154.248 125.127 155 120.726C155.26 119.174 155.35 117.598 155.27 116.026C155.118 113.328 154.391 110.692 153.14 108.296C152.547 107.18 151.836 106.131 151.02 105.166C145.72 98.8664 137.47 98.1664 137.47 98.1664C146.79 86.8564 143.72 77.9864 140.14 72.9564C138.923 71.2118 137.445 69.6639 135.76 68.3664C134.24 67.4001 132.649 66.551 131 65.8264C130.118 65.445 129.217 65.1112 128.3 64.8264L127.64 64.6164C115.15 60.8664 108.12 68.8564 108.12 68.8564C108.12 68.8564 107.62 55.4864 92.7697 51.6664L92.1497 51.5264C91.8397 51.4564 91.5297 51.3864 91.2297 51.3364L90.7497 51.2564C90.2797 51.1664 89.8197 51.0964 89.3397 51.0264H89.2397L88.3697 50.9364H87.9997H87.5897H87.1697H86.5897H85.9297C84.2967 50.8612 82.6602 50.9315 81.0397 51.1464C80.5097 51.2164 80.0397 51.2964 79.4997 51.3964C78.0942 51.6732 76.7205 52.092 75.3997 52.6464C73.1095 53.6074 71.0378 55.0225 69.3097 56.8064C63.3997 62.8064 62.7397 71.2864 62.7397 71.2864C56.8997 63.3664 48.4597 63.1864 42.8197 64.2864C40.7576 64.6507 38.7443 65.2514 36.8197 66.0764C35.1469 66.8232 33.5745 67.7774 32.1397 68.9164C21.4497 77.5264 26.7097 92.1864 26.7097 92.1864C17.8897 89.9364 11.0997 94.1864 7.46967 101.596C6.05365 104.585 5.14458 107.789 4.77967 111.076C4.70967 111.686 4.66966 112.256 4.64966 112.836C4.40966 124.446 15.6497 131.336 15.6497 131.336C9.64966 133.096 5.20967 139.336 5.21967 146.616C5.26577 150.57 6.53374 154.412 8.84968 157.616L8.90967 157.716C16.7197 168.846 34.4197 167.186 34.4197 167.186C37.1797 178.776 51.5197 185.666 51.5197 185.666H107.1C120.16 182.446 127.5 168.666 127.5 168.666C127.5 168.666 145.2 170.326 153.01 159.196L153.07 159.096C155.386 155.892 156.654 152.05 156.7 148.096C156.64 141.436 153.24 135.896 148.44 133.406Z" fill="#FA9936"/>
<path d="M160.35 154.506L156.63 147.786C156.63 141.446 153.24 135.906 148.44 133.416L148.79 133.226C149.012 133.05 149.213 132.849 149.39 132.626C152.31 129.245 154.25 125.13 155 120.726C155.26 119.174 155.35 117.598 155.27 116.026L158.74 109.206C158.831 109.021 158.882 108.818 158.887 108.611C158.893 108.404 158.853 108.198 158.771 108.008C158.69 107.818 158.568 107.648 158.414 107.509C158.26 107.371 158.077 107.268 157.88 107.206L150.99 105.096L151.07 105.226L151.02 105.166C145.72 98.8665 137.47 98.1665 137.47 98.1665C146.79 86.8565 143.72 77.9865 140.14 72.9565L139.62 65.3965C139.606 65.1885 139.546 64.986 139.445 64.8037C139.344 64.6213 139.204 64.4634 139.035 64.3412C138.866 64.219 138.672 64.1355 138.467 64.0967C138.263 64.0579 138.052 64.0646 137.85 64.1165L130.99 65.8165C130.108 65.4351 129.207 65.1013 128.29 64.8165L127.63 64.6065C115.14 60.8565 108.11 68.8465 108.11 68.8465C108.11 68.8465 107.61 55.4765 92.7597 51.6565L87.9897 45.6065C87.8606 45.4423 87.6972 45.3083 87.5109 45.214C87.3245 45.1198 87.1198 45.0675 86.911 45.0608C86.7023 45.0541 86.4946 45.0932 86.3026 45.1754C86.1106 45.2576 85.9389 45.3809 85.7997 45.5365L81.0097 50.9165C80.4797 50.9865 80.0097 51.0665 79.4697 51.1665C78.0642 51.4433 76.6905 51.8621 75.3697 52.4165C73.0795 53.3774 71.0077 54.7926 69.2797 56.5765C63.3697 62.5765 62.7097 71.0565 62.7097 71.0565C56.8797 63.1365 48.4397 62.9565 42.7997 64.0565L35.9097 60.8665C35.7195 60.7757 35.5116 60.728 35.3008 60.7269C35.0901 60.7259 34.8817 60.7714 34.6906 60.8602C34.4994 60.9491 34.3304 61.0791 34.1954 61.241C34.0604 61.4028 33.9628 61.5925 33.9097 61.7965L32.0897 68.6865C21.3997 77.2965 26.6597 91.9565 26.6597 91.9565C17.8497 89.7065 11.0597 93.9565 7.42969 101.346V101.226L0.619692 104.886C0.434913 104.984 0.273843 105.121 0.148012 105.287C0.0221815 105.454 -0.0653007 105.646 -0.108274 105.851C-0.151248 106.055 -0.148632 106.266 -0.100584 106.47C-0.0525355 106.673 0.0397385 106.863 0.16968 107.026L4.54968 112.596C4.30968 124.206 15.5497 131.096 15.5497 131.096C9.54968 132.856 5.10969 139.096 5.11969 146.376L1.39966 153.096C1.30661 153.278 1.25331 153.476 1.24329 153.68C1.23326 153.883 1.26677 154.086 1.34155 154.275C1.41634 154.465 1.53068 154.636 1.67694 154.778C1.82321 154.919 1.99804 155.028 2.1897 155.096L8.7497 157.356L8.80969 157.456C16.6197 168.586 34.3197 166.926 34.3197 166.926C37.0797 178.516 51.4197 185.406 51.4197 185.406H107C120.06 182.186 127.4 168.406 127.4 168.406C127.4 168.406 145.1 170.066 152.91 158.936L152.97 158.836L159.53 156.576C159.734 156.513 159.921 156.405 160.077 156.26C160.234 156.115 160.356 155.936 160.435 155.738C160.513 155.539 160.547 155.325 160.532 155.112C160.517 154.899 160.455 154.692 160.35 154.506ZM88.8097 50.9365L88.3297 50.8865H87.9697L88.8097 50.9365ZM87.9597 50.8365H87.5497H87.3297H87.9597Z" fill="url(#paint7_linear_64_16695)"/>
<path d="M15.0097 140.157C15.0097 140.157 11.5097 145.337 14.0097 151.057C16.5097 156.777 21.0096 158.057 24.0596 157.777C27.1096 157.497 34.4697 152.987 33.6997 145.947C33.0697 140.217 27.1096 137.656 22.8696 137.336C18.6296 137.016 16.4897 138.237 15.0097 140.157Z" fill="#CD6226"/>
<path d="M21.6296 101.156C21.6296 101.156 15.5096 103.536 14.2796 109.986C13.0496 116.436 16.0796 120.236 18.9196 121.796C21.7596 123.356 30.7696 123.896 34.3096 117.366C37.1996 112.046 33.5996 106.266 30.1296 103.466C26.6596 100.666 24.0596 100.396 21.6296 101.156Z" fill="#CD6226"/>
<path d="M52.0097 74.3063C52.0097 74.3063 45.4896 71.7763 39.8696 75.9563C34.2496 80.1363 33.8697 85.3163 35.0097 88.5863C36.1497 91.8563 42.8196 98.7763 50.3096 96.1863C56.4096 94.0863 57.7396 86.9463 57.0396 82.2463C56.3396 77.5463 54.4697 75.4563 52.0097 74.3063Z" fill="#CD6226"/>
<path d="M95.1297 64.8365C95.1297 64.8365 90.5397 59.5565 83.6197 60.6465C76.6997 61.7365 73.9897 66.1465 73.4397 69.5565C72.8897 72.9665 75.5997 82.2065 83.4397 83.4065C89.8097 84.4065 94.3197 78.6965 95.8897 74.1965C97.4597 69.6965 96.7797 66.9965 95.1297 64.8365Z" fill="#CD6226"/>
<path d="M134.02 86.0963C134.02 86.0963 134.09 79.3563 128.42 75.7163C122.75 72.0763 117.97 73.5164 115.42 75.6164C112.87 77.7164 108.89 86.0963 113.76 91.9663C117.76 96.7463 124.59 95.5263 128.59 93.3063C132.59 91.0863 133.81 88.7263 134.02 86.0963Z" fill="#CD6226"/>
<path d="M145.94 123.797C145.94 123.797 148.94 117.887 145.47 112.237C142 106.587 137.2 105.797 134.03 106.547C130.86 107.297 123.76 112.976 125.52 120.256C126.96 126.176 133.52 128.056 138.03 127.816C142.54 127.576 144.64 126.007 145.94 123.797Z" fill="#CD6226"/>
<path d="M146.77 141.586C146.77 141.586 150.27 146.776 147.77 152.496C145.27 158.216 140.77 159.496 137.77 159.216C134.77 158.936 127.24 154.426 128.04 147.386C128.67 141.656 134.63 139.086 138.87 138.776C143.11 138.466 145.29 139.726 146.77 141.586Z" fill="#CD6226"/>
<path d="M118.85 250.836C119.75 255.686 118.68 258.496 118.68 258.496H31.0996C29.7696 251.436 33.0997 247.766 33.8297 244.496C34.5597 241.226 31.8296 238.786 30.3396 236.346C27.9459 232.3 26.9744 227.569 27.5797 222.906C28.3697 215.706 31.2797 211.076 33.3197 207.757C35.3597 204.437 36.6396 199.496 35.0296 195.156C34.0938 192.439 34.2443 189.465 35.4497 186.857C40.7697 176.987 53.8297 170.306 53.8297 170.306C61.0717 166.516 69.1468 164.598 77.3197 164.727C82.0629 164.995 86.7291 166.046 91.1297 167.836C103.79 172.646 116.49 181.946 118.43 187.966C121.11 196.266 115.75 197.667 114.98 204.177C114.21 210.687 122.64 217.066 122.64 224.836C122.64 232.606 118.81 235.456 117.03 239.286C115.25 243.117 117.96 245.986 118.85 250.836Z" fill="#CD6226"/>
<path d="M77.9197 175.246C75.1397 184.696 74.1797 193.466 73.5597 202.996C68.0897 202.126 61.4397 195.796 63.9997 185.806C66.5597 175.816 77.9197 175.246 77.9197 175.246Z" fill="#7A3E23"/>
<path d="M73.5797 202.667C73.0797 214.777 72.8997 219.777 72.9697 230.757C67.4397 230.587 59.8397 225.137 61.1097 214.897C62.3797 204.657 73.5797 202.667 73.5797 202.667Z" fill="#7A3E23"/>
<path d="M73.0797 230.486C73.6697 242.596 74.2597 247.616 75.3197 258.536C69.7897 258.866 61.4197 254.106 61.7597 243.796C62.0997 233.486 73.0797 230.486 73.0797 230.486Z" fill="#7A3E23"/>
<path d="M73.8697 253.256C68.8697 201.686 76.7797 175.646 76.8697 175.396L77.7797 175.676C77.6997 175.936 69.8397 201.806 74.7797 253.166L73.8697 253.256Z" fill="#7A3E23"/>
<path d="M190.09 211.947C190.09 211.947 187.28 212.707 186.6 210.417C185.92 208.127 183.79 206.497 182.51 206.667C182.51 206.667 182.51 210.577 175.79 212.717C169.65 214.667 166.94 212.287 166.94 212.287C166.94 212.287 143.45 221.907 127.28 206.287V183.947C135.887 191.937 147.205 196.364 158.95 196.337C160.05 196.337 161.18 196.287 162.34 196.197C164.994 194.651 167.811 193.404 170.74 192.477C175.28 191.097 180.54 190.637 183.45 194.327C184.38 194.274 185.312 194.414 186.186 194.739C187.06 195.063 187.857 195.564 188.529 196.211C189.2 196.858 189.73 197.636 190.087 198.498C190.443 199.359 190.618 200.285 190.6 201.217C190.6 201.217 194.6 209.817 190.09 211.947Z" fill="#FA9936"/>
<path d="M190.54 201.256C188.05 197.006 183.31 197.456 179.82 200.176L178.4 201.276C178.34 201.326 178.25 201.276 178.29 201.186C179.97 197.516 185.11 194.966 188.65 197.746C189.203 198.155 189.666 198.673 190.01 199.268C190.355 199.863 190.572 200.523 190.65 201.206C190.644 201.219 190.636 201.231 190.624 201.238C190.612 201.246 190.599 201.25 190.585 201.25C190.571 201.25 190.557 201.246 190.545 201.238C190.534 201.231 190.525 201.219 190.52 201.206L190.54 201.256Z" fill="#995116"/>
<path d="M183.43 194.396C179.83 193.546 176.07 194.866 173.2 197.066C173.13 197.116 173.06 197.066 173.11 196.946C174.69 193.176 180.31 191.426 183.48 194.256C183.492 194.263 183.503 194.273 183.51 194.286C183.517 194.298 183.521 194.312 183.521 194.326C183.521 194.341 183.517 194.355 183.51 194.367C183.503 194.379 183.492 194.389 183.48 194.396H183.43Z" fill="#995116"/>
<path d="M170.74 192.476C167.811 193.403 164.994 194.651 162.34 196.196C161.18 196.286 160.05 196.336 158.95 196.336C159.24 196.006 164.76 189.836 165.95 185.416C167.14 180.996 174.24 184.926 170.74 192.476Z" fill="#D6731A"/>
<path d="M136.43 190.656C131.86 188.226 127.43 185.386 123.98 181.436C123.92 181.346 123.98 181.256 124.12 181.316C127.642 182.883 130.903 184.981 133.79 187.536C134.815 188.428 135.735 189.434 136.53 190.536C136.59 190.596 136.53 190.696 136.43 190.656Z" fill="#995116"/>
<g style="mix-blend-mode:multiply" opacity="0.3">
<path d="M140.66 221.776C130.45 219.086 127.24 206.326 127.24 206.326C131.62 211.436 140.29 213.836 140.29 213.836C140.53 216.556 140.63 219.206 140.66 221.776Z" fill="#B6652C"/>
</g>
<g style="mix-blend-mode:multiply" opacity="0.3">
<path d="M132.75 179.496C124.469 178.292 116.334 176.245 108.47 173.386C104.504 171.976 100.615 170.357 96.8197 168.536C90.5945 165.221 83.6207 163.565 76.5697 163.726C70.3226 163.652 64.1069 164.622 58.1797 166.596C48.5197 169.986 40.9297 175.296 30.4297 175.596C31.5832 172.671 32.8883 169.807 34.3397 167.016C41.2899 166.187 48.1256 164.584 54.7197 162.236C66.7197 158.156 84.4597 158.786 92.2497 160.446C99.4597 161.976 112.53 167.686 124.99 168.446C125.81 168.496 126.62 168.526 127.43 168.526C129.438 172.064 131.215 175.729 132.75 179.496Z" fill="#B6652C"/>
</g>
<path d="M234.746 110.337C233.586 117.878 229.386 120.388 227.226 121.188C227.158 121.22 227.101 121.271 227.061 121.335C227.021 121.399 227 121.472 227 121.547C227 121.623 227.021 121.696 227.061 121.76C227.101 121.824 227.158 121.875 227.226 121.908C229.386 122.708 233.586 125.218 234.746 132.748C234.806 133.168 235.276 133.168 235.336 132.748C236.496 125.218 240.696 122.748 242.856 121.908C242.923 121.875 242.98 121.824 243.02 121.76C243.06 121.696 243.081 121.623 243.081 121.547C243.081 121.472 243.06 121.399 243.02 121.335C242.98 121.271 242.923 121.22 242.856 121.188C240.696 120.388 236.496 117.878 235.336 110.337C235.276 109.887 234.806 109.887 234.746 110.337Z" fill="#FFC016"/>
<path d="M186.01 97.7264C184.74 106.006 180.12 108.726 177.75 109.646C177.678 109.684 177.619 109.74 177.577 109.808C177.535 109.877 177.513 109.956 177.513 110.036C177.513 110.117 177.535 110.196 177.577 110.264C177.619 110.333 177.678 110.389 177.75 110.426C180.12 111.306 184.75 114.066 186.01 122.346C186.08 122.796 186.59 122.796 186.66 122.346C187.93 114.066 192.55 111.346 194.92 110.426C194.994 110.392 195.057 110.337 195.101 110.268C195.145 110.199 195.169 110.118 195.169 110.036C195.169 109.954 195.145 109.874 195.101 109.805C195.057 109.736 194.994 109.681 194.92 109.646C192.55 108.766 187.92 106.006 186.66 97.7264C186.59 97.3064 186.08 97.3064 186.01 97.7264Z" fill="#FFC016"/>
<path d="M251.937 130.248C251.047 136.028 247.827 137.958 246.167 138.568C246.117 138.594 246.074 138.633 246.045 138.682C246.016 138.73 246 138.786 246 138.843C246 138.899 246.016 138.955 246.045 139.003C246.074 139.052 246.117 139.091 246.167 139.117C247.827 139.737 251.047 141.658 251.937 147.438C251.937 147.758 252.337 147.758 252.387 147.438C253.277 141.658 256.507 139.737 258.157 139.117C258.207 139.091 258.249 139.052 258.279 139.003C258.308 138.955 258.324 138.899 258.324 138.843C258.324 138.786 258.308 138.73 258.279 138.682C258.249 138.633 258.207 138.594 258.157 138.568C256.507 137.958 253.277 136.028 252.387 130.248C252.337 129.917 251.987 129.917 251.937 130.248Z" fill="#FFC016"/>
</g>
<defs>
<linearGradient id="paint0_linear_64_16695" x1="196.88" y1="135.986" x2="186.77" y2="218.336" gradientUnits="userSpaceOnUse">
<stop stop-color="#C6E5A0" stop-opacity="0.25"/>
<stop offset="0.33" stop-color="#A4C38C" stop-opacity="0.41"/>
<stop offset="1" stop-color="#688768" stop-opacity="0.7"/>
</linearGradient>
<linearGradient id="paint1_linear_64_16695" x1="84.7798" y1="214.866" x2="235.16" y2="214.866" gradientUnits="userSpaceOnUse">
<stop stop-color="#C6E5A0" stop-opacity="0.25"/>
<stop offset="0.33" stop-color="#A4C38C" stop-opacity="0.41"/>
<stop offset="1" stop-color="#688768" stop-opacity="0.7"/>
</linearGradient>
<linearGradient id="paint2_linear_64_16695" x1="132.22" y1="258.496" x2="132.22" y2="231.476" gradientUnits="userSpaceOnUse">
<stop stop-color="#3A3A3A"/>
<stop offset="0.47" stop-color="#383838"/>
<stop offset="0.74" stop-color="#303030"/>
<stop offset="0.95" stop-color="#222222"/>
<stop offset="0.99" stop-color="#1E1E1E"/>
</linearGradient>
<linearGradient id="paint3_linear_64_16695" x1="132.22" y1="205.486" x2="132.22" y2="246.966" gradientUnits="userSpaceOnUse">
<stop stop-color="#F6E9BC"/>
<stop offset="0.11" stop-color="#E0CCA1"/>
<stop offset="0.27" stop-color="#C8AD84"/>
<stop offset="0.43" stop-color="#B6956E"/>
<stop offset="0.6" stop-color="#A8845E"/>
<stop offset="0.78" stop-color="#A17954"/>
<stop offset="0.99" stop-color="#9E7651"/>
</linearGradient>
<linearGradient id="paint4_linear_64_16695" x1="157.11" y1="134.54" x2="167.213" y2="109.944" gradientUnits="userSpaceOnUse">
<stop stop-color="#F9D780" stop-opacity="0"/>
<stop offset="0.07" stop-color="#E9C474" stop-opacity="0.06"/>
<stop offset="0.4" stop-color="#AC7B48" stop-opacity="0.3"/>
<stop offset="0.69" stop-color="#874E2D" stop-opacity="0.45"/>
<stop offset="0.89" stop-color="#7A3E23" stop-opacity="0.5"/>
</linearGradient>
<linearGradient id="paint5_linear_64_16695" x1="210.35" y1="210.316" x2="26.4697" y2="76.7164" gradientUnits="userSpaceOnUse">
<stop offset="0.02" stop-color="#FA9936" stop-opacity="0"/>
<stop offset="0.04" stop-color="#F89735" stop-opacity="0.04"/>
<stop offset="0.3" stop-color="#E98430" stop-opacity="0.38"/>
<stop offset="0.52" stop-color="#DD762C" stop-opacity="0.64"/>
<stop offset="0.72" stop-color="#D46B29" stop-opacity="0.84"/>
<stop offset="0.87" stop-color="#CF6427" stop-opacity="0.96"/>
<stop offset="0.97" stop-color="#CD6226"/>
</linearGradient>
<linearGradient id="paint6_linear_64_16695" x1="138.425" y1="105.784" x2="151.588" y2="88.1301" gradientUnits="userSpaceOnUse">
<stop stop-color="#F9D780" stop-opacity="0"/>
<stop offset="0.07" stop-color="#E9C474" stop-opacity="0.06"/>
<stop offset="0.4" stop-color="#AC7B48" stop-opacity="0.3"/>
<stop offset="0.69" stop-color="#874E2D" stop-opacity="0.45"/>
<stop offset="0.89" stop-color="#7A3E23" stop-opacity="0.5"/>
</linearGradient>
<linearGradient id="paint7_linear_64_16695" x1="106.2" y1="186.306" x2="45.3597" y2="55.8365" gradientUnits="userSpaceOnUse">
<stop offset="0.02" stop-color="#FA9936" stop-opacity="0"/>
<stop offset="0.07" stop-color="#FA9D3A" stop-opacity="0.03"/>
<stop offset="0.49" stop-color="#F9BC60" stop-opacity="0.28"/>
<stop offset="0.81" stop-color="#F9D077" stop-opacity="0.44"/>
<stop offset="0.97" stop-color="#F9D780" stop-opacity="0.5"/>
</linearGradient>
<clipPath id="clip0_64_16695">
<rect width="259" height="259" fill="white"/>
</clipPath>
</defs>
</svg>
