<svg width="259" height="259" viewBox="0 0 259 259" fill="none" xmlns="http://www.w3.org/2000/svg">
<g clip-path="url(#clip0_64_16690)">
<path d="M106.96 259.295H99.33C86.66 241.235 83.55 214.405 82.91 206.985C82.81 205.715 82.77 204.985 82.77 204.985L85.54 203.315L88.98 201.245C88.98 201.675 88.98 202.095 89.03 202.515C89.03 203.515 89.15 204.575 89.22 205.585C89.35 207.305 89.51 208.995 89.7 210.645C93.2 241.095 106.96 259.295 106.96 259.295Z" fill="#F55E44"/>
<path d="M63.1299 259.295H55.4999C42.8299 241.235 39.72 214.405 39.08 206.985C38.98 205.715 38.9399 204.985 38.9399 204.985L41.71 203.315L45.15 201.245C45.15 201.675 45.15 202.095 45.15 202.515C45.2 203.515 45.27 204.575 45.34 205.585C45.47 207.305 45.6299 208.995 45.8199 210.645C49.3699 241.095 63.1299 259.295 63.1299 259.295Z" fill="#F55E44"/>
<path d="M63.1299 259.295H55.4999C42.8299 241.235 39.72 214.405 39.08 206.985C38.98 205.715 38.9399 204.985 38.9399 204.985L41.71 203.315L45.15 201.245C45.15 201.675 45.15 202.095 45.15 202.515C45.2 203.515 45.27 204.575 45.34 205.585C45.47 207.305 45.6299 208.995 45.8199 210.645C49.3699 241.095 63.1299 259.295 63.1299 259.295Z" fill="url(#paint0_linear_64_16690)"/>
<path d="M99.7899 204.095H52.4299C51.9269 205.631 51.0717 207.027 49.9326 208.173C48.7936 209.319 47.4023 210.183 45.8699 210.695C45.0364 211.047 44.1147 211.135 43.2299 210.945C41.8899 210.355 41.9999 208.445 43.7399 207.245C44.3859 206.817 44.9456 206.27 45.3899 205.635C46.0552 204.73 46.368 203.614 46.2699 202.495C45.9119 202.488 45.5539 202.511 45.1999 202.565C42.4499 202.955 40.6399 205.025 39.0799 207.005C37.5199 208.985 36.3999 210.615 34.8099 210.885C34.4715 210.964 34.1206 210.971 33.779 210.908C33.4374 210.845 33.1125 210.712 32.8245 210.518C32.5365 210.324 32.2916 210.072 32.105 209.78C31.9184 209.487 31.7941 209.158 31.7399 208.815C27.8499 210.095 27.7399 206.735 27.7399 206.735C27.3541 207.023 26.9074 207.219 26.4342 207.307C25.9609 207.396 25.4737 207.374 25.0099 207.245C22.1599 206.075 23.3599 202.465 23.3599 202.465C27.1999 188.675 48.7099 189.905 48.7099 189.905H99.0599L99.3599 195.845L99.7899 204.095Z" fill="#F55E44"/>
<path d="M56.2599 204.095H52.4299C51.9269 205.631 51.0717 207.027 49.9326 208.173C48.7936 209.319 47.4023 210.183 45.8699 210.695C45.0364 211.047 44.1147 211.135 43.2299 210.945C41.8899 210.355 41.9999 208.445 43.7399 207.245C44.3859 206.817 44.9456 206.27 45.3899 205.635C46.0552 204.73 46.368 203.614 46.2699 202.495C45.9119 202.488 45.5539 202.511 45.1999 202.565C42.4499 202.955 40.6399 205.025 39.0799 207.005C37.5199 208.985 36.3999 210.615 34.8099 210.885C34.4715 210.964 34.1206 210.971 33.779 210.908C33.4374 210.845 33.1125 210.712 32.8245 210.518C32.5365 210.324 32.2916 210.072 32.105 209.78C31.9184 209.487 31.7941 209.158 31.7399 208.815C27.8499 210.095 27.7399 206.735 27.7399 206.735C27.3522 207.023 26.9039 207.219 26.429 207.307C25.9541 207.396 25.4653 207.375 24.9999 207.245C22.1499 206.075 23.3499 202.465 23.3499 202.465C27.1899 188.675 48.6999 189.905 48.6999 189.905H54.6999L55.3399 195.845L56.2599 204.095Z" fill="url(#paint1_linear_64_16690)"/>
<path d="M27.6697 206.695C26.4497 202.585 29.5898 197.295 34.0798 197.325C34.1398 197.325 34.2198 197.325 34.2098 197.415C30.9498 199.515 28.9598 203.095 27.8398 206.745C27.8398 206.835 27.6697 206.805 27.6697 206.745V206.695Z" fill="#993030"/>
<path d="M31.6599 208.765C30.6599 204.645 34.6599 198.815 39.0199 199.365C35.6735 201.669 33.1536 204.984 31.8299 208.825C31.822 208.848 31.8053 208.866 31.7838 208.876C31.7622 208.887 31.7375 208.888 31.7149 208.88C31.6924 208.872 31.6739 208.856 31.6636 208.834C31.6533 208.812 31.6519 208.788 31.6599 208.765Z" fill="#993030"/>
<path d="M109.83 259.295H63.1299C63.1299 259.295 49.3699 241.095 45.8699 210.675C47.4023 210.163 48.7936 209.299 49.9326 208.153C51.0717 207.007 51.9268 205.61 52.4299 204.075H95.8899C93.9999 216.655 94.0299 233.175 102.06 248.195C104.196 252.193 106.805 255.919 109.83 259.295Z" fill="#FF9797"/>
<path d="M45.39 205.615C45.32 204.615 45.25 203.615 45.2 202.545C45.5539 202.491 45.9119 202.467 46.27 202.475C46.368 203.594 46.0552 204.71 45.39 205.615Z" fill="#FF9797"/>
<path d="M109.83 259.295H63.1299C63.1299 259.295 49.3699 241.095 45.8699 210.675C47.4023 210.163 48.7936 209.299 49.9326 208.153C51.0717 207.007 51.9268 205.61 52.4299 204.075H95.8899C93.9999 216.655 94.0299 233.175 102.06 248.195C104.196 252.193 106.805 255.919 109.83 259.295Z" fill="url(#paint2_linear_64_16690)"/>
<path d="M45.39 205.615C45.32 204.615 45.25 203.615 45.2 202.545C45.5539 202.491 45.9119 202.467 46.27 202.475C46.368 203.594 46.0552 204.71 45.39 205.615Z" fill="url(#paint3_linear_64_16690)"/>
<path d="M106.96 259.295H99.33C86.66 241.235 83.55 214.405 82.91 206.985C82.82 205.815 82.78 204.305 82.77 204.075H89.12C89.12 204.585 89.18 205.075 89.22 205.615C89.35 207.335 89.51 209.025 89.7 210.675C93.2 241.095 106.96 259.295 106.96 259.295Z" fill="url(#paint4_linear_64_16690)"/>
<path d="M238.31 259.265C237.96 259.265 237.62 259.265 237.31 259.265H109.83C106.807 255.899 104.198 252.182 102.06 248.195C94.0598 233.195 93.9998 216.655 95.8898 204.075C95.9698 203.525 96.0599 202.975 96.1499 202.445C96.4399 200.645 96.7799 198.955 97.1499 197.375C97.3399 196.535 97.5298 195.735 97.7198 194.955C98.1698 193.065 98.6399 191.375 99.0899 189.885C99.2999 189.185 99.5398 188.425 99.7998 187.655C100.97 184.235 102.43 180.595 102.49 180.445C111.858 181.127 121.275 180.548 130.49 178.725C147.45 175.557 163.443 168.495 177.21 158.095C177.38 158.515 177.54 158.935 177.71 159.345C181.328 168.573 185.468 177.587 190.11 186.345C190.11 186.345 209.23 225.445 238.31 259.265Z" fill="#F55E44"/>
<path d="M148.64 259.295H109.83C106.807 255.929 104.198 252.212 102.06 248.225C93.6799 232.545 94.06 215.225 96.15 202.475C96.44 200.675 96.78 198.985 97.15 197.405C98.8 193.555 102.84 187.825 112.25 187.695C126.44 187.465 131.47 202.315 134.56 216.695C136.48 225.785 138.84 241.985 148.64 259.295Z" fill="#FBD08D"/>
<path opacity="0.6" d="M148.64 259.295H109.83C106.807 255.929 104.198 252.212 102.06 248.225C93.6799 232.545 94.06 215.225 96.15 202.475C96.44 200.675 96.78 198.985 97.15 197.405C98.8 193.555 102.84 187.825 112.25 187.695C126.44 187.465 131.47 202.315 134.56 216.695C136.48 225.785 138.84 241.985 148.64 259.295Z" fill="url(#paint5_linear_64_16690)"/>
<path d="M238.32 259.265H237.32H204.7C154.7 253.965 168.04 215.025 167.92 206.345C167.8 197.665 161.92 201.585 161.73 187.135C161.56 174.255 174.82 161.845 177.73 159.295C181.348 168.523 185.488 177.537 190.13 186.295C190.13 186.295 209.23 225.445 238.32 259.265Z" fill="#A4210A"/>
<path d="M109.56 259.295H101.93C89.2599 241.235 86.1499 214.405 85.5099 206.985C85.4099 205.715 85.3699 204.985 85.3699 204.985L88.1399 203.315L91.5799 201.245C91.5799 201.675 91.5799 202.095 91.5799 202.515C91.6299 203.515 91.6999 204.575 91.7699 205.585C91.8999 207.305 92.0599 208.995 92.2499 210.645C95.7599 241.095 109.56 259.295 109.56 259.295Z" fill="#F55E44"/>
<path d="M167.87 259.295H109.56C109.56 259.295 95.7599 241.095 92.2599 210.675C92.0699 209.025 91.9099 207.335 91.7799 205.615L91.6899 204.205C93.8999 204.045 96.4399 204.025 98.8199 204.075H148.64C153.4 235.915 163.11 251.095 167.87 259.295Z" fill="#FF9797"/>
<path d="M167.87 259.295H109.56C109.56 259.295 95.7599 241.095 92.2599 210.675C92.0699 209.025 91.9099 207.335 91.7799 205.615L91.6899 204.205C93.8999 204.045 96.4399 204.025 98.8199 204.075H148.64C153.4 235.915 163.11 251.095 167.87 259.295Z" fill="url(#paint6_linear_64_16690)"/>
<path d="M109.56 259.295H101.93C89.2599 241.235 86.1499 214.405 85.5099 206.985C85.4099 205.715 85.3699 204.985 85.3699 204.985L88.1399 203.315L91.5799 201.245C91.5799 201.675 91.5799 202.095 91.5799 202.515C91.5799 202.935 91.6399 203.625 91.6799 204.175L91.7699 205.585C91.8999 207.305 92.0599 208.995 92.2499 210.645C95.7599 241.095 109.56 259.295 109.56 259.295Z" fill="url(#paint7_linear_64_16690)"/>
<path d="M149.56 259.295H141.93C129.26 241.235 126.15 214.405 125.51 206.985C125.41 205.715 125.37 204.985 125.37 204.985L128.14 203.315L131.58 201.245C131.58 201.675 131.58 202.095 131.58 202.515C131.63 203.515 131.7 204.575 131.77 205.585C131.9 207.305 132.06 208.995 132.25 210.645C135.76 241.095 149.56 259.295 149.56 259.295Z" fill="#F55E44"/>
<path d="M149.56 259.295H141.93C129.26 241.235 126.15 214.405 125.51 206.985C125.41 205.715 125.37 204.985 125.37 204.985L128.14 203.315L131.58 201.245C131.58 201.675 131.58 202.095 131.58 202.515C131.58 202.935 131.64 203.625 131.68 204.175L131.77 205.585C131.9 207.305 132.06 208.995 132.25 210.645C135.76 241.095 149.56 259.295 149.56 259.295Z" fill="url(#paint8_linear_64_16690)"/>
<path d="M151.17 207.095H96.1699C90.9799 210.175 85.5499 207.095 85.5499 207.095C84.5316 207.961 83.6156 208.941 82.8199 210.015C81.3799 211.855 80.1399 213.625 78.5499 213.895C78.2115 213.973 77.8606 213.981 77.519 213.918C77.1774 213.855 76.8525 213.722 76.5645 213.528C76.2764 213.334 76.0315 213.082 75.8449 212.789C75.6583 212.496 75.5341 212.168 75.4799 211.825C71.5899 213.105 71.4799 209.745 71.4799 209.745C71.0922 210.033 70.6438 210.229 70.1689 210.317C69.6941 210.406 69.2053 210.384 68.7399 210.255C65.8899 209.085 67.0899 205.475 67.0899 205.475C70.9299 191.685 92.4399 192.915 92.4399 192.915H148.23L151.17 207.095Z" fill="#F55E44"/>
<path d="M103.3 207.095H96.1598C90.9698 210.175 85.5399 207.095 85.5399 207.095C84.5216 207.961 83.6056 208.941 82.8099 210.015C81.3699 211.855 80.1299 213.625 78.5399 213.895C78.2015 213.973 77.8505 213.981 77.509 213.918C77.1674 213.855 76.8425 213.722 76.5545 213.528C76.2665 213.334 76.0216 213.082 75.835 212.789C75.6484 212.496 75.524 212.168 75.4698 211.825C71.5798 213.105 71.4698 209.745 71.4698 209.745C71.0822 210.033 70.6338 210.229 70.1589 210.317C69.6841 210.406 69.1952 210.384 68.7299 210.255C65.8799 209.085 67.0799 205.475 67.0799 205.475C70.9199 191.685 92.4299 192.915 92.4299 192.915H99.2099L103.3 207.095Z" fill="url(#paint9_linear_64_16690)"/>
<path d="M71.3999 209.715C70.1799 205.605 73.3199 200.315 77.8199 200.335C77.8199 200.335 77.9499 200.335 77.9399 200.425C74.6799 202.525 72.6999 206.105 71.5699 209.755C71.5699 209.855 71.3999 209.815 71.3999 209.755V209.715Z" fill="#993030"/>
<path d="M75.3899 211.785C74.3899 207.655 78.3898 201.785 82.7498 202.385C79.4051 204.686 76.8854 207.998 75.5598 211.835C75.5598 211.935 75.3899 211.885 75.3899 211.785Z" fill="#993030"/>
<path d="M116.64 192.785C124.37 190.545 132.41 190.455 140.34 191.235C143.018 191.49 145.664 192.01 148.24 192.785V193.025C140.36 193.135 124.51 193.135 116.64 193.025V192.785Z" fill="#993030"/>
<path d="M177.21 158.095C163.43 168.509 147.419 175.578 130.44 178.745C121.225 180.568 111.808 181.147 102.44 180.465C101.52 180.385 101.03 180.315 101.03 180.315C97.6797 179.925 94.2997 179.425 90.9697 178.735C72.4697 174.945 55.5198 165.655 54.3398 139.735C51.9898 87.925 132.06 57.315 132.06 57.315C132.06 57.315 170.18 42.565 186.22 54.955C193.22 60.395 186.22 59.665 176.8 106.765C172.56 128.095 174 145.215 177.21 158.095Z" fill="#F55E44"/>
<path d="M177.21 158.095C163.43 168.509 147.419 175.578 130.44 178.745C121.225 180.568 111.808 181.147 102.44 180.465C101.52 180.385 101.03 180.315 101.03 180.315C97.6797 179.925 94.2997 179.425 90.9697 178.735C72.4697 174.945 55.5198 165.655 54.3398 139.735C51.9898 87.925 132.06 57.315 132.06 57.315C132.06 57.315 170.18 42.565 186.22 54.955C193.22 60.395 186.22 59.665 176.8 106.765C172.56 128.095 174 145.215 177.21 158.095Z" fill="url(#paint10_linear_64_16690)"/>
<path d="M142.98 151.355C149.143 151.355 154.14 146.359 154.14 140.195C154.14 134.032 149.143 129.035 142.98 129.035C136.816 129.035 131.82 134.032 131.82 140.195C131.82 146.359 136.816 151.355 142.98 151.355Z" fill="#FFC016"/>
<path d="M162.37 68.945C162.37 69.535 162.37 70.145 162.37 70.705C162.289 72.6637 161.729 74.5727 160.74 76.265C157.87 81.095 150.74 91.545 141.36 93.385C129.07 95.765 123.16 91.805 117.6 88.135C116.274 87.1969 114.845 86.415 113.34 85.805C110.34 84.715 107.71 85.665 102.65 89.715C96.17 94.565 85.1199 93.715 80.0599 91.905C79.4028 91.665 78.7727 91.3566 78.1799 90.985C74.7399 88.625 76.4099 81.725 76.4099 81.725C79.1199 74.075 87.1999 67.435 91.8099 64.165C93.8908 62.6638 96.2449 61.5836 98.7399 60.985C118.562 56.224 139.329 57.195 158.62 63.785C159.558 64.1 160.385 64.6801 161 65.455C161.852 66.4215 162.337 67.657 162.37 68.945Z" fill="#FFF3E9"/>
<path d="M162.37 68.9451C162.37 69.5351 162.37 70.1451 162.37 70.7051C162.289 72.6637 161.729 74.5727 160.74 76.2651C157.87 81.0951 150.74 91.5451 141.36 93.3851C129.07 95.7651 123.16 91.8051 117.6 88.1351C116.274 87.1969 114.845 86.4151 113.34 85.8051C110.34 84.7151 107.71 85.6651 102.65 89.7151C96.33 94.7751 85.1499 93.7851 80.0599 91.9051C79.4028 91.665 78.7727 91.3567 78.1799 90.9851C74.7399 88.6251 76.4099 81.7251 76.4099 81.7251C76.4099 81.7251 81.2899 88.7751 92.3499 86.6051C103.41 84.4351 101.87 79.1351 111.71 79.4651C121.55 79.7951 122.85 87.0251 132.03 87.0551C141.21 87.0851 150.78 84.6951 161.03 65.4551C161.871 66.4258 162.345 67.6608 162.37 68.9451Z" fill="#CCCCCC"/>
<path d="M97.5598 64.985C97.5598 64.985 90.9198 67.235 83.4998 76.985C83.4998 76.985 80.6198 82.835 90.3398 81.215C100.06 79.595 103.77 73.395 114.19 75.215C124.61 77.035 123.88 80.875 130.63 81.635C136.95 82.335 145.99 80.545 152.3 70.175C152.691 69.5491 152.822 68.7953 152.665 68.0742C152.508 67.3531 152.075 66.7219 151.46 66.315C150.224 65.542 148.902 64.9176 147.52 64.455C143.87 63.195 118.38 58.195 97.5598 64.985Z" fill="#B3B3B3"/>
<mask id="mask0_64_16690" style="mask-type:luminance" maskUnits="userSpaceOnUse" x="83" y="61" width="70" height="21">
<path d="M97.5598 64.985C97.5598 64.985 90.9198 67.235 83.4998 76.985C83.4998 76.985 80.6198 82.835 90.3398 81.215C100.06 79.595 103.77 73.395 114.19 75.215C124.61 77.035 123.88 80.875 130.63 81.635C136.95 82.335 145.99 80.545 152.3 70.175C152.691 69.5491 152.822 68.7953 152.665 68.0742C152.508 67.3531 152.075 66.7219 151.46 66.315C150.224 65.542 148.902 64.9176 147.52 64.455C143.87 63.195 118.38 58.195 97.5598 64.985Z" fill="white"/>
</mask>
<g mask="url(#mask0_64_16690)">
<path d="M80.9097 84.7249L119.49 56.0649L135.13 56.6649L118.49 72.075L140.54 59.765L149.96 60.575L117.49 90.8149L80.9097 84.7249Z" fill="#F2F2F2"/>
</g>
<path d="M176.36 112.865C176.304 112.957 176.24 113.044 176.17 113.125C175.98 113.335 175.87 113.505 175.8 113.575L175.73 113.645C171.06 103.565 150.39 84.4251 150.39 84.4251V84.3752L150.72 84.1151C150.636 83.9268 150.535 83.7461 150.42 83.5752V83.4352C153.23 81.2769 155.775 78.7929 158 76.0352C158 76.0352 178.56 93.2652 179.66 100.785C180.167 105.087 178.984 109.418 176.36 112.865Z" fill="#684B44"/>
<path d="M176.31 112.905C176.254 112.997 176.19 113.084 176.12 113.165C175.93 113.375 175.82 113.545 175.75 113.615L175.68 113.685C171.01 103.605 150.34 84.4651 150.34 84.4651L150.41 83.6551V83.5151L150.95 84.0051C153.73 86.4651 171.06 102.455 176.31 112.905Z" fill="#D6A9A1"/>
<path d="M128.16 129.035C136.814 129.035 143.83 122.019 143.83 113.365C143.83 104.711 136.814 97.6951 128.16 97.6951C119.505 97.6951 112.49 104.711 112.49 113.365C112.49 122.019 119.505 129.035 128.16 129.035Z" fill="#FFF3E9"/>
<path d="M138.33 110.645C138.949 113.069 138.717 115.632 137.673 117.906C136.63 120.18 134.838 122.028 132.597 123.139C130.355 124.251 127.8 124.561 125.359 124.016C122.917 123.471 120.736 122.104 119.18 120.145C119.052 119.974 118.997 119.759 119.027 119.547C119.057 119.335 119.169 119.144 119.34 119.015L126.44 113.545L118.16 110.095C117.961 110.015 117.802 109.86 117.716 109.664C117.63 109.468 117.624 109.246 117.7 109.045C118.593 106.943 120.122 105.174 122.073 103.986C124.023 102.799 126.297 102.252 128.574 102.425C130.852 102.597 133.018 103.479 134.768 104.946C136.518 106.414 137.763 108.393 138.33 110.605V110.645Z" fill="#281911"/>
<path d="M90.5399 129.035C99.1942 129.035 106.21 122.019 106.21 113.365C106.21 104.711 99.1942 97.6951 90.5399 97.6951C81.8856 97.6951 74.8699 104.711 74.8699 113.365C74.8699 122.019 81.8856 129.035 90.5399 129.035Z" fill="#FFF3E9"/>
<path d="M100.72 110.645C101.339 113.069 101.107 115.632 100.063 117.906C99.0201 120.18 97.2281 122.028 94.9868 123.139C92.7455 124.251 90.1905 124.561 87.7487 124.016C85.3068 123.471 83.1259 122.104 81.57 120.145C81.5054 120.061 81.4582 119.964 81.4313 119.862C81.4043 119.759 81.3981 119.652 81.413 119.547C81.4279 119.441 81.4636 119.34 81.518 119.249C81.5724 119.158 81.6445 119.078 81.7299 119.015L88.82 113.545L80.56 110.095C80.4608 110.057 80.3703 109.999 80.2938 109.925C80.2174 109.851 80.1564 109.762 80.1145 109.665C80.0726 109.567 80.0506 109.462 80.0498 109.355C80.049 109.249 80.0695 109.144 80.1099 109.045C81.0026 106.943 82.5319 105.174 84.4826 103.986C86.4333 102.799 88.7073 102.252 90.9846 102.425C93.2619 102.597 95.4278 103.479 97.1778 104.946C98.9277 106.414 100.174 108.393 100.74 110.605L100.72 110.645Z" fill="#281911"/>
<path d="M114.1 157.275C110.29 157.335 107.24 156.775 106.21 154.905C105.912 154.354 105.78 153.729 105.83 153.105C105.854 150.117 105.684 147.131 105.32 144.165C104.47 140.845 107.96 140.595 107.96 140.595C110.543 140.265 113.165 140.705 115.498 141.862C117.831 143.019 119.769 144.839 121.07 147.095C121.29 147.493 121.487 147.904 121.66 148.325C124.13 154.375 118.94 157.185 114.1 157.275Z" fill="#530007"/>
<path d="M114.1 157.275C110.29 157.335 107.24 156.775 106.21 154.905C106.21 154.905 108.21 147.515 121.07 147.115C121.291 147.513 121.487 147.924 121.66 148.345C124.13 154.375 118.94 157.185 114.1 157.275Z" fill="#B23F74"/>
<path d="M89.6198 83.915C89.6198 83.915 91.1298 106.745 75.2898 114.805C75.2898 114.805 88.8298 126.805 119.06 119.915C119.06 119.915 130.67 111.485 126.14 83.915H89.6198Z" fill="#D0FF0F"/>
<path d="M99.5599 95.5851C99.4501 95.595 99.3396 95.595 99.2299 95.5851C98.7308 95.47 98.2695 95.229 97.8899 94.8851L97.6299 94.6851C96.9468 94.2265 96.128 94.0143 95.3082 94.0834C94.4884 94.1524 93.7166 94.4987 93.1199 95.0651C93.0602 95.1268 92.9887 95.1758 92.9097 95.2094C92.8306 95.2429 92.7457 95.2601 92.6599 95.2601C92.574 95.2601 92.4891 95.2429 92.41 95.2094C92.331 95.1758 92.2596 95.1268 92.1999 95.0651C92.1385 95.0063 92.0896 94.9356 92.0562 94.8575C92.0228 94.7793 92.0056 94.6951 92.0056 94.6101C92.0056 94.5251 92.0228 94.4409 92.0562 94.3627C92.0896 94.2845 92.1385 94.2139 92.1999 94.1551C93.0219 93.3831 94.0807 92.9116 95.2043 92.8172C96.328 92.7228 97.4507 93.0111 98.3899 93.6351L98.6899 93.8551C98.9065 94.0599 99.1662 94.2136 99.4499 94.3051C99.8499 94.3751 100.23 94.0351 100.81 93.4851C101.354 92.8279 102.111 92.3821 102.95 92.2251C103.764 92.2362 104.548 92.5377 105.16 93.0751L105.59 93.3651C106.29 93.7917 107.095 94.0173 107.915 94.0173C108.735 94.0173 109.539 93.7917 110.24 93.3651L110.44 93.2351C110.679 93.0171 110.961 92.8523 111.269 92.7519C111.576 92.6515 111.902 92.6177 112.223 92.6526C112.545 92.6876 112.855 92.7907 113.134 92.9549C113.413 93.1191 113.653 93.3408 113.84 93.6051C114.23 93.9451 114.57 94.2651 114.91 94.2451C115.126 94.2064 115.332 94.1285 115.52 94.0151L115.63 93.9551C117.395 93.0821 119.399 92.8184 121.33 93.2051C121.498 93.2389 121.646 93.3378 121.741 93.4801C121.837 93.6224 121.872 93.7968 121.84 93.9651C121.824 94.0489 121.792 94.1288 121.745 94.2001C121.699 94.2713 121.638 94.3325 121.567 94.38C121.496 94.4275 121.417 94.4604 121.333 94.4767C121.249 94.4931 121.163 94.4925 121.08 94.4751C119.429 94.1512 117.718 94.3796 116.21 95.1251L116.11 95.1751C115.766 95.3738 115.385 95.4998 114.99 95.5451C114.606 95.5219 114.231 95.4213 113.888 95.2494C113.544 95.0776 113.239 94.838 112.99 94.5451C112.61 94.2051 112.23 93.8951 111.92 93.9151C111.646 93.9736 111.391 94.1009 111.18 94.2851L110.96 94.4251C110.057 94.9785 109.019 95.2715 107.96 95.2715C106.901 95.2715 105.863 94.9785 104.96 94.4251L104.48 94.1051C104.103 93.754 103.622 93.5361 103.11 93.4851C102.582 93.637 102.114 93.9477 101.77 94.3751C101.5 94.7129 101.165 94.9938 100.786 95.2015C100.407 95.4092 99.99 95.5396 99.5599 95.5851Z" fill="#281911"/>
<path d="M99.1399 103.575C98.3519 103.519 97.5832 103.305 96.8799 102.945L96.3099 102.695C94.7865 102.115 93.1033 102.115 91.5799 102.695C91.4987 102.735 91.4101 102.757 91.3198 102.761C91.2295 102.764 91.1394 102.749 91.0553 102.716C90.9713 102.683 90.895 102.632 90.8315 102.568C90.7679 102.504 90.7186 102.427 90.6864 102.342C90.6543 102.258 90.6402 102.168 90.6449 102.077C90.6497 101.987 90.6732 101.899 90.714 101.818C90.7548 101.737 90.8119 101.666 90.8818 101.609C90.9517 101.551 91.0328 101.509 91.1199 101.485C92.9417 100.785 94.9581 100.785 96.7799 101.485L97.3999 101.745C98.0555 102.154 98.8363 102.314 99.5999 102.195C99.9717 102.018 100.31 101.778 100.6 101.485C100.86 101.176 101.181 100.923 101.542 100.741C101.903 100.559 102.297 100.451 102.7 100.425C103.23 100.473 103.741 100.648 104.19 100.935C104.763 101.488 105.499 101.844 106.288 101.95C107.078 102.056 107.881 101.907 108.58 101.525L109.28 101.235C110.821 100.798 112.441 100.713 114.02 100.985C115.133 101.151 116.263 101.168 117.38 101.035C117.463 101.021 117.549 101.023 117.631 101.042C117.714 101.061 117.792 101.096 117.861 101.146C117.929 101.195 117.988 101.257 118.032 101.329C118.077 101.401 118.107 101.481 118.12 101.565C118.149 101.735 118.109 101.909 118.01 102.05C117.911 102.19 117.76 102.286 117.59 102.315C116.362 102.475 115.118 102.475 113.89 102.315C112.503 102.07 111.08 102.132 109.72 102.495L109.1 102.755C108.691 102.955 108.262 103.109 107.82 103.215C106.312 103.363 104.8 102.966 103.56 102.095C103.409 101.957 103.229 101.856 103.033 101.799C102.836 101.742 102.63 101.73 102.429 101.766C102.227 101.802 102.037 101.884 101.873 102.005C101.708 102.126 101.574 102.284 101.48 102.465C101.071 102.887 100.586 103.226 100.05 103.465C99.7556 103.556 99.4474 103.593 99.1399 103.575Z" fill="#281911"/>
<path d="M91.5598 110.865C90.8604 110.869 90.1717 110.694 89.5598 110.355L89.2598 110.175C89.0816 110.051 88.8862 109.953 88.6798 109.885C88.4481 109.863 88.2142 109.883 87.9898 109.945L85.6098 110.405C85.5257 110.421 85.4394 110.42 85.3558 110.402C85.2721 110.385 85.1927 110.351 85.1221 110.302C85.0515 110.254 84.9912 110.192 84.9444 110.121C84.8977 110.049 84.8655 109.969 84.8498 109.885C84.834 109.801 84.835 109.715 84.8526 109.631C84.8702 109.547 84.9041 109.468 84.9524 109.397C85.0007 109.327 85.0624 109.266 85.134 109.22C85.2056 109.173 85.2857 109.141 85.3698 109.125L87.7498 108.665C88.1359 108.57 88.537 108.553 88.9298 108.615C89.2898 108.702 89.6295 108.858 89.9298 109.075L90.1798 109.225C90.8239 109.571 91.578 109.65 92.2798 109.445L92.5898 109.335C92.8566 109.237 93.1308 109.16 93.4098 109.105C93.9596 109.06 94.513 109.121 95.0398 109.285C95.441 109.44 95.8778 109.478 96.2998 109.395C96.4581 109.35 96.6277 109.367 96.7742 109.442C96.9207 109.517 97.0333 109.645 97.0892 109.8C97.145 109.954 97.14 110.125 97.0752 110.276C97.0103 110.427 96.8905 110.549 96.7398 110.615C96.0824 110.798 95.385 110.777 94.7398 110.555C94.3772 110.428 93.9933 110.374 93.6098 110.395C93.4212 110.433 93.2369 110.49 93.0598 110.565L92.6698 110.695C92.3095 110.803 91.9359 110.86 91.5598 110.865Z" fill="#281911"/>
<path d="M103.84 112.285C103.731 112.287 103.624 112.259 103.53 112.205C103.379 112.123 103.267 111.984 103.218 111.819C103.169 111.654 103.188 111.476 103.27 111.325C103.579 110.9 104.023 110.592 104.53 110.452C105.037 110.312 105.576 110.348 106.06 110.555L106.49 110.695C106.924 110.896 107.406 110.969 107.88 110.905C108.126 110.799 108.355 110.658 108.56 110.485C108.999 110.095 109.554 109.86 110.14 109.815C110.421 109.826 110.698 109.884 110.96 109.985C112.17 110.385 113.435 110.598 114.71 110.615C115.29 110.654 115.871 110.562 116.41 110.345C116.538 110.285 116.662 110.215 116.78 110.135C116.986 110.011 117.2 109.901 117.42 109.805C118.587 109.467 119.84 109.6 120.91 110.175C121.061 110.244 121.181 110.368 121.244 110.522C121.306 110.676 121.308 110.848 121.248 111.003C121.188 111.158 121.07 111.284 120.92 111.355C120.77 111.426 120.598 111.437 120.44 111.385C119.671 110.953 118.771 110.818 117.91 111.005C117.75 111.075 117.6 111.165 117.44 111.255C117.289 111.352 117.132 111.438 116.97 111.515C116.251 111.822 115.47 111.959 114.69 111.915C113.3 111.895 111.921 111.666 110.6 111.235C110.446 111.173 110.285 111.132 110.12 111.115C109.818 111.173 109.539 111.319 109.32 111.535C108.998 111.795 108.637 112.001 108.25 112.145C107.515 112.308 106.748 112.231 106.06 111.925L105.67 111.795C105.17 111.645 104.56 111.645 104.4 111.945C104.344 112.046 104.263 112.13 104.165 112.19C104.067 112.249 103.955 112.282 103.84 112.285Z" fill="#281911"/>
<path d="M56.5599 130.635C56.5599 130.635 63.1799 138.505 79.1599 141.485C79.1599 141.485 79.4099 163.575 59.7499 173.275C59.7499 173.275 40.5999 168.035 36.3899 149.765C41.1706 148.705 45.5731 146.365 49.126 142.995C52.679 139.626 55.2486 135.353 56.5599 130.635Z" fill="#FEA422"/>
<path d="M70.6999 148.985C70.0928 148.958 69.5122 148.729 69.0498 148.335C68.9098 148.235 68.7799 148.125 68.6499 148.015C68.3675 147.731 68.0261 147.512 67.6499 147.375C67.3449 147.329 67.0348 147.329 66.7298 147.375C66.3632 147.453 65.9839 147.446 65.6201 147.356C65.2564 147.266 64.9179 147.095 64.6299 146.855C64.5612 146.783 64.4977 146.706 64.4398 146.625C64.4108 146.579 64.3773 146.535 64.3399 146.495C64.201 146.45 64.0559 146.426 63.9098 146.425H63.7198C63.1012 146.369 62.5052 146.165 61.9828 145.828C61.4604 145.492 61.0271 145.035 60.7198 144.495C60.3534 144.434 60.0057 144.291 59.7026 144.076C59.3995 143.861 59.149 143.58 58.9698 143.255L58.8999 143.145C58.6299 142.725 58.3398 142.295 58.0298 142.245C57.92 142.236 57.8097 142.236 57.6999 142.245C57.3638 142.307 57.0171 142.272 56.6999 142.145C56.2455 141.9 55.8915 141.504 55.6999 141.025C55.6362 140.869 55.5485 140.724 55.4398 140.595C55.3568 140.602 55.2732 140.592 55.1941 140.566C55.115 140.539 55.042 140.497 54.9795 140.442C54.9169 140.387 54.8661 140.32 54.8301 140.245C54.7941 140.17 54.7736 140.088 54.7699 140.005C54.7644 139.831 54.8271 139.661 54.9447 139.532C55.0624 139.403 55.2257 139.325 55.3999 139.315C56.2499 139.255 56.6298 139.985 56.8598 140.425C56.9366 140.627 57.0599 140.809 57.2198 140.955C57.336 140.97 57.4537 140.97 57.5699 140.955C57.7754 140.925 57.9843 140.925 58.1898 140.955C58.5762 141.054 58.9359 141.238 59.2436 141.492C59.5512 141.746 59.7991 142.064 59.9698 142.425L60.0398 142.535C60.3198 142.955 60.6798 143.235 60.8698 143.175C61.0291 143.116 61.2051 143.122 61.3603 143.191C61.5154 143.26 61.6373 143.387 61.6999 143.545C61.8727 143.973 62.1583 144.346 62.5264 144.624C62.8945 144.902 63.3311 145.075 63.7898 145.125H63.9499C64.3634 145.119 64.7687 145.241 65.1098 145.475C65.23 145.579 65.3374 145.696 65.4298 145.825C65.4577 145.866 65.4914 145.903 65.5298 145.935C65.6998 146.115 66.0499 146.105 66.5899 146.065C67.0271 145.996 67.4726 145.996 67.9098 146.065C68.486 146.245 69.0106 146.561 69.4398 146.985L69.7898 147.265C70.1298 147.535 70.6098 147.745 70.8698 147.585C70.9426 147.539 71.0237 147.508 71.1085 147.494C71.1933 147.48 71.28 147.483 71.3637 147.502C71.4474 147.522 71.5264 147.558 71.5961 147.608C71.6658 147.658 71.7249 147.722 71.7699 147.795C71.8154 147.867 71.8461 147.947 71.8602 148.031C71.8743 148.115 71.8715 148.201 71.8519 148.284C71.8323 148.367 71.7964 148.445 71.7462 148.514C71.6961 148.583 71.6327 148.641 71.5598 148.685C71.306 148.862 71.0086 148.966 70.6999 148.985Z" fill="#281911"/>
<path d="M54.1099 150.965C53.8074 150.95 53.5216 150.822 53.3099 150.605C52.8786 150.178 52.5384 149.668 52.3099 149.105C52.1516 148.691 51.9061 148.316 51.59 148.005C51.4525 147.898 51.3011 147.811 51.14 147.745C50.7649 147.56 50.4068 147.343 50.0699 147.095C49.9351 146.989 49.8478 146.833 49.8272 146.663C49.8066 146.492 49.8543 146.321 49.96 146.185C50.0109 146.116 50.0754 146.058 50.1496 146.015C50.2238 145.972 50.306 145.944 50.3912 145.934C50.4764 145.923 50.5628 145.931 50.6451 145.955C50.7275 145.979 50.804 146.02 50.8699 146.075C51.1354 146.27 51.4202 146.438 51.7199 146.575C51.9918 146.694 52.2445 146.852 52.4699 147.045C52.8991 147.474 53.239 147.984 53.4699 148.545C53.6367 148.955 53.8813 149.328 54.1899 149.645C54.3197 149.644 54.4467 149.682 54.5552 149.753C54.6637 149.824 54.7488 149.926 54.7999 150.045C54.8662 150.204 54.8666 150.383 54.801 150.543C54.7353 150.702 54.6091 150.829 54.4499 150.895C54.3426 150.941 54.2268 150.965 54.1099 150.965Z" fill="#281911"/>
<path d="M68.3797 159.515H68.2997C67.7923 159.453 67.3055 159.277 66.8759 159C66.4463 158.723 66.0852 158.352 65.8197 157.915L65.6697 157.645C65.5597 157.435 65.4298 157.205 65.3298 157.165C65.2268 157.153 65.1227 157.153 65.0198 157.165H64.7797C63.8091 157.046 62.9036 156.614 62.1997 155.935C61.8632 155.645 61.498 155.391 61.1097 155.175C60.7656 155.01 60.4076 154.876 60.0397 154.775C59.7297 154.675 59.4197 154.575 59.1197 154.445C58.6754 154.298 58.2733 154.046 57.9477 153.71C57.622 153.374 57.3826 152.964 57.2497 152.515C57.2307 152.432 57.2283 152.345 57.2426 152.261C57.2569 152.177 57.2877 152.096 57.3332 152.024C57.3787 151.951 57.438 151.888 57.5078 151.839C57.5775 151.789 57.6563 151.754 57.7397 151.735C57.8231 151.716 57.9094 151.714 57.9938 151.728C58.0781 151.742 58.1588 151.773 58.2312 151.819C58.3037 151.864 58.3664 151.923 58.4159 151.993C58.4654 152.063 58.5007 152.142 58.5198 152.225C58.6498 152.785 59.3297 153.125 59.6197 153.225C59.9097 153.325 60.1597 153.425 60.4297 153.515C60.8705 153.639 61.299 153.803 61.7098 154.005C62.1662 154.258 62.5981 154.552 62.9997 154.885C63.4903 155.401 64.1303 155.751 64.8298 155.885H64.9997C65.267 155.868 65.5351 155.902 65.7897 155.985C66.2441 156.21 66.5999 156.595 66.7897 157.065C66.7897 157.145 66.8797 157.215 66.9197 157.285C67.0803 157.554 67.2994 157.784 67.5608 157.957C67.8222 158.13 68.1192 158.242 68.4297 158.285C68.5149 158.294 68.5975 158.319 68.6726 158.361C68.7478 158.402 68.8138 158.457 68.867 158.525C68.9201 158.592 68.9592 158.669 68.982 158.751C69.0048 158.834 69.0109 158.92 68.9997 159.005C68.9668 159.146 68.8882 159.273 68.7762 159.365C68.6641 159.457 68.5248 159.51 68.3797 159.515Z" fill="#281911"/>
<path d="M54.7498 161.615H54.6399C54.3673 161.548 54.1198 161.403 53.9267 161.2C53.7335 160.996 53.6027 160.741 53.5498 160.465C53.5104 160.325 53.4533 160.191 53.3798 160.065C53.2128 159.947 53.0214 159.869 52.8198 159.835L52.3798 159.705C51.8638 159.487 51.3926 159.175 50.9898 158.785C50.7264 158.533 50.4304 158.318 50.1098 158.145L49.7099 157.985C49.5108 157.92 49.3169 157.84 49.1298 157.745C48.6973 157.521 48.33 157.188 48.0637 156.78C47.7974 156.372 47.6411 155.902 47.6098 155.415C46.8644 155.374 46.1569 155.073 45.6098 154.565C45.3163 154.267 45.0641 153.93 44.8598 153.565L43.5298 151.565C43.4381 151.42 43.4067 151.245 43.4422 151.077C43.4777 150.909 43.5773 150.761 43.7198 150.665C43.7914 150.618 43.8714 150.586 43.9554 150.571C44.0394 150.555 44.1257 150.556 44.2092 150.574C44.2928 150.591 44.3721 150.625 44.4425 150.674C44.513 150.722 44.5732 150.784 44.6198 150.855L45.9398 152.855C46.1003 153.123 46.2916 153.372 46.5098 153.595C46.8448 153.905 47.2832 154.08 47.7398 154.085C48.0577 154.069 48.3696 154.176 48.6098 154.385C48.7173 154.502 48.8002 154.639 48.8535 154.789C48.9067 154.938 48.9293 155.097 48.9198 155.255C48.9266 155.524 49.0054 155.787 49.1478 156.015C49.2902 156.244 49.4911 156.43 49.7298 156.555C49.8667 156.63 50.0107 156.69 50.1598 156.735C50.7893 156.935 51.3643 157.277 51.8399 157.735C52.1317 158.02 52.4698 158.253 52.8399 158.425L53.1698 158.525C53.6464 158.604 54.083 158.839 54.4098 159.195C54.5741 159.431 54.7022 159.691 54.7898 159.965C54.8268 160.087 54.8771 160.204 54.9398 160.315C55.0201 160.327 55.0972 160.355 55.1663 160.398C55.2354 160.441 55.2951 160.497 55.3418 160.563C55.3886 160.629 55.4213 160.705 55.4382 160.784C55.455 160.864 55.4556 160.946 55.4398 161.025C55.4177 161.191 55.3351 161.343 55.2077 161.452C55.0804 161.561 54.9173 161.619 54.7498 161.615Z" fill="#281911"/>
<path d="M61.62 167.155C61.4777 167.155 61.34 167.105 61.2299 167.015C60.9163 166.746 60.6755 166.402 60.5299 166.015C60.4751 165.822 60.3758 165.643 60.2399 165.495C60.0578 165.413 59.8597 165.372 59.6599 165.375H59.33C58.9661 165.363 58.6191 165.219 58.3526 164.971C58.0862 164.723 57.9183 164.387 57.88 164.025C57.8786 163.94 57.8941 163.855 57.9256 163.776C57.957 163.696 58.0038 163.624 58.0632 163.563C58.1227 163.501 58.1936 163.452 58.2719 163.418C58.3503 163.385 58.4346 163.366 58.52 163.365C58.6864 163.36 58.8485 163.419 58.9717 163.531C59.0949 163.643 59.1696 163.799 59.1799 163.965C59.2782 164.034 59.3913 164.078 59.51 164.095H59.7799C60.2124 164.107 60.6339 164.234 61 164.465C61.3442 164.741 61.5984 165.114 61.7299 165.535C61.7868 165.725 61.886 165.899 62.02 166.045C62.1298 166.127 62.2108 166.242 62.2512 166.374C62.2917 166.505 62.2895 166.646 62.2451 166.775C62.2007 166.905 62.1163 167.018 62.004 167.097C61.8917 167.176 61.7572 167.217 61.62 167.215V167.155Z" fill="#281911"/>
<path d="M175.11 119.305C175.11 119.305 166.55 124.305 149.3 124.305C149.3 124.305 143.14 146.625 160.48 161.715C166.565 161.582 172.515 159.896 177.765 156.817C183.015 153.739 187.392 149.37 190.48 144.125C185.906 141.773 182.059 138.22 179.352 133.847C176.644 129.475 175.178 124.448 175.11 119.305Z" fill="#FF94BF"/>
<path d="M156.39 134.185C156.126 134.195 155.864 134.149 155.619 134.051C155.375 133.953 155.153 133.804 154.97 133.615C154.909 133.549 154.861 133.472 154.83 133.388C154.799 133.304 154.784 133.215 154.788 133.125C154.791 133.036 154.812 132.948 154.849 132.866C154.886 132.785 154.939 132.711 155.005 132.65C155.071 132.589 155.148 132.541 155.232 132.51C155.316 132.479 155.405 132.464 155.495 132.468C155.584 132.471 155.672 132.492 155.754 132.529C155.835 132.566 155.909 132.619 155.97 132.685C156.18 132.915 156.73 132.825 157.15 132.685L157.58 132.485C158.127 132.164 158.746 131.985 159.38 131.965C159.84 131.997 160.292 132.102 160.72 132.275C161.26 132.465 161.61 132.565 161.84 132.435L161.96 132.345C162.088 132.238 162.229 132.147 162.38 132.075C162.787 131.921 163.232 131.903 163.65 132.025H163.82C164.294 132.102 164.78 132.05 165.227 131.874C165.674 131.698 166.066 131.405 166.36 131.025C166.464 130.88 166.621 130.783 166.797 130.753C166.973 130.723 167.154 130.763 167.3 130.865C167.47 130.975 167.91 130.795 168.3 130.435L168.4 130.345C168.672 130.028 169.01 129.775 169.389 129.602C169.769 129.43 170.183 129.342 170.6 129.345C170.815 129.381 171.026 129.438 171.23 129.515C171.344 129.567 171.465 129.601 171.59 129.615C171.71 129.615 171.93 129.345 172.09 129.175C172.272 128.884 172.54 128.656 172.857 128.523C173.174 128.391 173.525 128.36 173.86 128.435C173.945 128.462 174.024 128.505 174.093 128.563C174.162 128.621 174.218 128.691 174.259 128.77C174.301 128.85 174.326 128.937 174.334 129.026C174.342 129.115 174.332 129.205 174.305 129.29C174.278 129.375 174.234 129.455 174.177 129.523C174.119 129.592 174.049 129.648 173.97 129.69C173.89 129.731 173.803 129.756 173.714 129.764C173.625 129.772 173.535 129.762 173.45 129.735C173.323 129.841 173.206 129.959 173.1 130.085C172.78 130.521 172.316 130.83 171.79 130.955C171.448 130.993 171.103 130.937 170.79 130.795C170.682 130.757 170.572 130.727 170.46 130.705C170.12 130.705 169.72 131.025 169.33 131.375L169.23 131.475C168.961 131.755 168.633 131.971 168.269 132.106C167.906 132.241 167.516 132.292 167.13 132.255C166.677 132.719 166.119 133.068 165.503 133.272C164.886 133.475 164.231 133.528 163.59 133.425H163.4C163.253 133.388 163.101 133.371 162.95 133.375L162.8 133.475C162.723 133.544 162.639 133.604 162.55 133.655C162.199 133.831 161.812 133.923 161.42 133.923C161.028 133.923 160.641 133.831 160.29 133.655C159.994 133.53 159.68 133.453 159.36 133.425C158.942 133.474 158.538 133.603 158.17 133.805L157.69 134.025C157.272 134.165 156.83 134.219 156.39 134.185Z" fill="#281911"/>
<path d="M172.35 140.595C172.144 140.597 171.943 140.53 171.78 140.405C171.703 140.35 171.638 140.28 171.59 140.198C171.541 140.117 171.51 140.027 171.498 139.933C171.486 139.839 171.493 139.744 171.519 139.653C171.545 139.562 171.59 139.478 171.65 139.405C171.732 139.297 171.844 139.216 171.973 139.173C172.101 139.13 172.24 139.127 172.37 139.165C172.778 138.931 173.135 138.618 173.42 138.245C173.804 137.733 174.291 137.308 174.85 136.995C175.13 136.866 175.426 136.776 175.73 136.725C176.072 136.66 176.406 136.563 176.73 136.435C176.896 136.363 177.083 136.361 177.251 136.427C177.419 136.494 177.553 136.624 177.625 136.79C177.696 136.956 177.699 137.143 177.633 137.311C177.566 137.479 177.436 137.613 177.27 137.685C176.863 137.851 176.441 137.975 176.01 138.055C175.829 138.086 175.652 138.133 175.48 138.195C175.088 138.436 174.749 138.752 174.48 139.125C174.086 139.628 173.596 140.05 173.04 140.365C172.834 140.501 172.596 140.58 172.35 140.595Z" fill="#281911"/>
<path d="M155.93 145.465C155.767 145.48 155.603 145.48 155.44 145.465C155.351 145.453 155.266 145.423 155.188 145.378C155.111 145.332 155.044 145.272 154.99 145.201C154.936 145.129 154.897 145.048 154.874 144.961C154.852 144.874 154.847 144.784 154.86 144.695C154.887 144.517 154.983 144.357 155.127 144.248C155.271 144.14 155.451 144.092 155.63 144.115C155.954 144.158 156.284 144.129 156.595 144.028C156.907 143.928 157.192 143.76 157.43 143.535L157.61 143.345C157.938 142.918 158.411 142.627 158.94 142.525C159.22 142.503 159.503 142.537 159.77 142.625L159.94 142.675C160.676 142.739 161.414 142.571 162.05 142.195C162.549 141.964 163.068 141.776 163.6 141.635C164.071 141.541 164.55 141.491 165.03 141.485C165.33 141.485 165.62 141.485 165.92 141.415C166.192 141.397 166.457 141.321 166.696 141.191C166.936 141.062 167.146 140.883 167.31 140.665C167.395 140.506 167.539 140.387 167.712 140.335C167.884 140.282 168.071 140.3 168.23 140.385C168.389 140.47 168.508 140.614 168.562 140.786C168.617 140.958 168.601 141.144 168.52 141.305C168.264 141.723 167.912 142.074 167.492 142.328C167.073 142.582 166.599 142.732 166.11 142.765C165.77 142.815 165.43 142.825 165.11 142.845C164.711 142.853 164.313 142.893 163.92 142.965C163.469 143.084 163.031 143.245 162.61 143.445C161.714 143.95 160.678 144.147 159.66 144.005L159.42 143.945C159.318 143.904 159.21 143.881 159.1 143.875C158.98 143.875 158.79 144.095 158.62 144.275L158.4 144.505C157.732 145.133 156.846 145.477 155.93 145.465Z" fill="#281911"/>
<path d="M168.86 151.215H168.72C168.541 151.195 168.377 151.105 168.265 150.964C168.152 150.823 168.1 150.644 168.12 150.465C168.143 150.3 168.224 150.148 168.349 150.036C168.473 149.925 168.633 149.86 168.8 149.855C168.877 149.767 168.947 149.674 169.01 149.575C169.164 149.314 169.363 149.084 169.6 148.895C170.023 148.619 170.526 148.492 171.03 148.535H171.4C171.808 148.452 172.2 148.304 172.56 148.095C173 147.856 173.471 147.678 173.96 147.565L174.54 147.495C174.705 147.49 174.869 147.47 175.03 147.435C175.299 147.371 175.547 147.239 175.75 147.052C175.953 146.864 176.105 146.628 176.19 146.365C176.21 146.198 176.267 146.038 176.358 145.896C176.448 145.755 176.57 145.635 176.714 145.548C176.857 145.46 177.019 145.406 177.186 145.39C177.353 145.374 177.522 145.396 177.68 145.455C178.154 145.576 178.655 145.519 179.09 145.295C179.365 145.121 179.623 144.92 179.86 144.695L181.74 143.005C181.807 142.939 181.887 142.888 181.975 142.854C182.063 142.821 182.157 142.806 182.251 142.81C182.345 142.815 182.437 142.839 182.521 142.881C182.605 142.923 182.68 142.983 182.74 143.055C182.808 143.119 182.862 143.197 182.898 143.283C182.935 143.369 182.954 143.461 182.954 143.555C182.954 143.648 182.935 143.741 182.898 143.827C182.862 143.913 182.808 143.991 182.74 144.055L180.86 145.735C180.559 146.034 180.223 146.296 179.86 146.515C179.166 146.89 178.36 147.004 177.59 146.835C177.438 147.328 177.16 147.772 176.782 148.123C176.405 148.474 175.942 148.719 175.44 148.835C175.222 148.88 175.002 148.91 174.78 148.925C174.632 148.931 174.485 148.948 174.34 148.975C173.97 149.07 173.614 149.211 173.28 149.395C172.762 149.675 172.201 149.864 171.62 149.955H171.13C170.919 149.939 170.707 149.97 170.51 150.045C170.4 150.153 170.302 150.274 170.22 150.405C170.083 150.646 169.885 150.848 169.647 150.99C169.409 151.132 169.137 151.209 168.86 151.215Z" fill="#281911"/>
<path d="M160.34 154.985C160.181 154.988 160.026 154.936 159.902 154.837C159.777 154.738 159.692 154.598 159.66 154.442C159.627 154.287 159.651 154.125 159.726 153.984C159.801 153.844 159.923 153.735 160.07 153.675C160.245 153.556 160.395 153.403 160.51 153.225C160.755 152.844 161.101 152.539 161.51 152.345C161.947 152.216 162.413 152.216 162.85 152.345H163.13C163.259 152.368 163.392 152.351 163.51 152.295C163.534 152.21 163.575 152.131 163.63 152.063C163.685 151.994 163.753 151.937 163.83 151.895C163.908 151.853 163.992 151.827 164.08 151.819C164.168 151.81 164.256 151.819 164.34 151.845C164.514 151.902 164.659 152.025 164.745 152.187C164.831 152.35 164.851 152.539 164.8 152.715C164.665 153.073 164.406 153.371 164.07 153.554C163.735 153.738 163.344 153.795 162.97 153.715L162.62 153.665C162.416 153.622 162.204 153.622 162 153.665C161.825 153.777 161.678 153.928 161.57 154.105C161.322 154.481 160.976 154.781 160.57 154.975C160.494 154.992 160.417 154.995 160.34 154.985Z" fill="#281911"/>
<path d="M73.4899 60.4249C73.4899 60.4249 56.6399 74.3349 52.1699 82.2549C50.4736 79.1398 48.2507 76.3418 45.5999 73.985C39.7779 68.9487 32.2963 66.2482 24.5999 66.4049C30.0499 61.1449 41.5999 56.2249 65.8799 56.2049C67.8319 56.1829 69.7404 56.7818 71.3299 57.915C72.2438 58.563 72.9853 59.4247 73.4899 60.4249Z" fill="#FF94BF"/>
<path d="M45.5599 73.985C44.8699 73.845 28.2199 70.675 20.0899 78.805C19.841 76.5376 20.1105 74.2432 20.8779 72.0952C21.6453 69.9471 22.8906 68.0014 24.5199 66.405C32.23 66.2383 39.7276 68.9394 45.5599 73.985Z" fill="#D86097"/>
<mask id="mask1_64_16690" style="mask-type:luminance" maskUnits="userSpaceOnUse" x="24" y="56" width="50" height="27">
<path d="M73.4899 60.4249C73.4899 60.4249 56.6399 74.3349 52.1699 82.2549C50.4736 79.1398 48.2507 76.3418 45.5999 73.985C39.7779 68.9487 32.2963 66.2482 24.5999 66.4049C30.0499 61.1449 41.5999 56.2249 65.8799 56.2049C67.8319 56.1829 69.7404 56.7818 71.3299 57.915C72.2438 58.563 72.9853 59.4247 73.4899 60.4249Z" fill="white"/>
</mask>
<g mask="url(#mask1_64_16690)">
<path d="M64.7798 62.1749C64.6856 62.1776 64.5928 62.1525 64.5128 62.1027C64.4327 62.0529 64.3691 61.9806 64.3299 61.8949C63.9243 61.0893 63.2582 60.4444 62.4399 60.0649L62.1699 59.9449C61.5779 59.7656 61.0658 59.3877 60.7198 58.8749L60.5499 58.6549C60.0978 58.1296 59.4599 57.7999 58.7699 57.7349C58.5268 57.72 58.283 57.72 58.0399 57.7349C57.5394 57.7857 57.0339 57.7416 56.5499 57.6049C56.3531 57.538 56.1624 57.4544 55.9799 57.3549C55.8233 57.2674 55.6593 57.1938 55.4899 57.1349C55.2395 57.0873 54.9846 57.0672 54.7299 57.0749C54.3381 57.0942 53.9459 57.0468 53.5699 56.9349C53.3398 56.845 53.1216 56.7275 52.9199 56.5849L52.5699 56.3849C52.5002 56.3422 52.4218 56.3155 52.3405 56.3069C52.2592 56.2982 52.177 56.3078 52.0999 56.3349C52.055 56.3827 52.0007 56.4209 51.9406 56.4469C51.8804 56.473 51.8155 56.4864 51.7499 56.4864C51.6843 56.4864 51.6194 56.473 51.5592 56.4469C51.499 56.4209 51.4448 56.3827 51.3999 56.3349C51.353 56.2884 51.3158 56.2332 51.2904 56.1722C51.265 56.1113 51.252 56.0459 51.252 55.9799C51.252 55.9139 51.265 55.8486 51.2904 55.7876C51.3158 55.7267 51.353 55.6714 51.3999 55.6249C51.6202 55.4439 51.8904 55.3345 52.1746 55.3113C52.4587 55.2881 52.7431 55.3521 52.9899 55.4949C53.1465 55.5696 53.2969 55.6566 53.4399 55.7549C53.5834 55.8552 53.7377 55.9391 53.8999 56.0049C54.1674 56.074 54.444 56.101 54.7198 56.0849C55.0562 56.0731 55.3925 56.1068 55.7198 56.1849C55.9537 56.2553 56.1786 56.3526 56.3899 56.4749C56.5319 56.5484 56.679 56.6119 56.8299 56.6649C57.1987 56.759 57.5815 56.7861 57.9599 56.7449C58.2464 56.7299 58.5334 56.7299 58.8199 56.7449C59.777 56.8292 60.6616 57.2895 61.2798 58.0249C61.3498 58.1049 61.4098 58.1949 61.4698 58.2749C61.5672 58.4151 61.6777 58.5457 61.7999 58.6649C62.0174 58.8219 62.2566 58.9465 62.5099 59.0349L62.8199 59.1649C63.8494 59.6348 64.6837 60.4478 65.1799 61.4649C65.2392 61.583 65.2494 61.7198 65.2081 61.8453C65.1669 61.9709 65.0777 62.075 64.9599 62.1349C64.9024 62.1576 64.8416 62.1711 64.7798 62.1749Z" fill="black"/>
<path d="M53.5599 62.5651H53.4799C53.0864 62.4983 52.7155 62.3356 52.3998 62.0915C52.0841 61.8473 51.8334 61.5291 51.6699 61.1651C51.6199 61.0651 51.5799 60.9551 51.5399 60.8551C51.4999 60.7551 51.3799 60.4051 51.2699 60.3551C51.1508 60.3346 51.029 60.3346 50.9099 60.3551C50.6916 60.3944 50.4681 60.3944 50.2499 60.3551C49.8541 60.2487 49.5033 60.0172 49.2499 59.6951C49.1341 59.5532 48.9956 59.4315 48.8399 59.3351C48.6491 59.2603 48.4447 59.2262 48.2399 59.2351C47.9218 59.2297 47.607 59.1688 47.3099 59.0551C46.996 58.8996 46.7197 58.6778 46.4999 58.4051L46.1799 58.0851C45.6447 57.7724 45.0285 57.6262 44.4099 57.6651C43.629 57.6889 42.8569 57.495 42.1799 57.1051C42.0728 57.0269 42.0004 56.9101 41.978 56.7794C41.9556 56.6487 41.985 56.5145 42.0599 56.4051C42.1347 56.2971 42.2491 56.2229 42.3782 56.1986C42.5074 56.1743 42.6409 56.2017 42.7499 56.2751C43.2793 56.5532 43.8723 56.6877 44.4699 56.6651C45.2949 56.6243 46.1114 56.8485 46.7999 57.3051C46.9553 57.4322 47.0991 57.5727 47.2299 57.7251C47.3643 57.8956 47.5308 58.0383 47.7199 58.1451C47.9062 58.2097 48.1027 58.2402 48.2999 58.2351C48.6444 58.2331 48.9853 58.3047 49.2999 58.4451C49.5603 58.5908 49.7937 58.7802 49.9899 59.0051C50.1071 59.17 50.2658 59.3011 50.4499 59.3851C50.5628 59.3995 50.677 59.3995 50.7899 59.3851C50.975 59.3447 51.1664 59.3428 51.3522 59.3796C51.5381 59.4164 51.7143 59.4911 51.8701 59.599C52.0258 59.7068 52.1576 59.8456 52.2574 60.0067C52.3572 60.1677 52.4227 60.3476 52.4499 60.5351C52.4789 60.6201 52.5122 60.7035 52.5499 60.7851C52.65 60.9981 52.7991 61.1844 52.9851 61.3287C53.1711 61.4729 53.3887 61.5711 53.6199 61.6151C53.7494 61.6371 53.8651 61.7093 53.9418 61.816C54.0185 61.9227 54.0501 62.0552 54.0299 62.1851C54.0023 62.2902 53.9418 62.3838 53.8573 62.4522C53.7727 62.5206 53.6685 62.5601 53.5599 62.5651Z" fill="black"/>
<path d="M58.7898 66.585C58.6948 66.5855 58.6017 66.5584 58.5218 66.5069C58.4419 66.4554 58.3787 66.3818 58.3399 66.295C58.0988 65.7826 57.6741 65.3793 57.1499 65.165C57.0078 65.113 56.8733 65.0424 56.7499 64.955C56.6517 64.8693 56.5644 64.7719 56.4898 64.665C56.3668 64.489 56.2017 64.3465 56.0096 64.2505C55.8175 64.1544 55.6045 64.1079 55.3899 64.115C55.2578 64.1206 55.1288 64.0747 55.0299 63.987C54.9311 63.8994 54.8701 63.7767 54.8598 63.645C54.8558 63.5793 54.8648 63.5135 54.8862 63.4513C54.9076 63.389 54.9411 63.3317 54.9848 63.2824C55.0284 63.2332 55.0814 63.193 55.1407 63.1643C55.1999 63.1356 55.2642 63.1188 55.3299 63.115C55.7015 63.0969 56.0719 63.1704 56.4084 63.3291C56.745 63.4878 57.0374 63.7268 57.2599 64.025L57.3698 64.175H57.4798C58.256 64.4847 58.8853 65.0782 59.2398 65.835C59.2683 65.8939 59.2847 65.958 59.2881 66.0234C59.2914 66.0888 59.2816 66.1542 59.2592 66.2157C59.2368 66.2772 59.2023 66.3336 59.1578 66.3816C59.1133 66.4296 59.0595 66.4681 58.9999 66.495C58.9371 66.5396 58.8654 66.5703 58.7898 66.585Z" fill="black"/>
<path d="M45.9499 66.095C45.864 66.0937 45.7797 66.071 45.7047 66.0291C45.6296 65.9872 45.5662 65.9274 45.5199 65.855C45.0859 65.3352 44.4851 64.9819 43.8199 64.855C43.4999 64.745 43.1799 64.635 42.8199 64.505C42.1594 64.1785 41.5414 63.7722 40.9799 63.295L40.4499 62.885C39.831 62.3477 39.0568 62.0219 38.2399 61.955H37.8999C37.5923 62.0096 37.2775 62.0096 36.9699 61.955C36.6673 61.8718 36.3803 61.7401 36.1199 61.565L35.9499 61.465C35.098 60.9817 34.1015 60.8186 33.1399 61.005C33.0102 61.0289 32.8763 61.0016 32.7663 60.9289C32.6563 60.8562 32.5787 60.7437 32.5499 60.615C32.5368 60.5507 32.5364 60.4844 32.5489 60.4199C32.5614 60.3554 32.5864 60.294 32.6227 60.2392C32.6589 60.1844 32.7056 60.1373 32.76 60.1006C32.8144 60.0638 32.8756 60.0381 32.9399 60.025C34.1404 59.7877 35.3862 59.9901 36.4499 60.595L36.6399 60.705C36.8138 60.822 37.002 60.9161 37.1999 60.985C37.4021 61.0152 37.6077 61.0152 37.8099 60.985H38.2299C39.2663 61.0514 40.2544 61.4473 41.0499 62.115L41.5899 62.535C42.0908 62.9629 42.6414 63.3289 43.2299 63.625C43.4999 63.745 43.7899 63.835 44.0799 63.935C44.9709 64.1102 45.7673 64.6045 46.3199 65.325C46.3546 65.38 46.378 65.4414 46.3887 65.5055C46.3994 65.5696 46.3973 65.6352 46.3824 65.6985C46.3675 65.7618 46.3401 65.8215 46.3019 65.8741C46.2637 65.9267 46.2154 65.9712 46.1599 66.005C46.0978 66.0508 46.0259 66.0816 45.9499 66.095Z" fill="black"/>
<path d="M54.0499 72.495C53.9551 72.4943 53.8625 72.4667 53.7828 72.4153C53.7031 72.364 53.6397 72.291 53.5999 72.205C53.4451 71.902 53.2309 71.6333 52.9699 71.415C52.8409 71.3226 52.7204 71.2188 52.6099 71.105C52.3393 70.8001 52.1683 70.4198 52.1199 70.015L50.5899 69.665C50.5254 69.6508 50.4644 69.624 50.4103 69.5861C50.3562 69.5482 50.3102 69.5 50.2749 69.4442C50.2395 69.3884 50.2156 69.3262 50.2044 69.2611C50.1933 69.196 50.1952 69.1294 50.2099 69.065C50.2408 68.9366 50.3212 68.8256 50.4336 68.7563C50.546 68.687 50.6813 68.6649 50.8099 68.695L52.6699 69.115C52.7707 69.1352 52.8627 69.1867 52.9327 69.262C53.0027 69.3374 53.0472 69.4329 53.0599 69.535C53.0659 69.8509 53.1594 70.159 53.3299 70.425L53.5099 70.565L53.5999 70.645C53.9765 70.9537 54.2833 71.3389 54.4999 71.775C54.5287 71.8333 54.5456 71.8968 54.5496 71.9618C54.5537 72.0267 54.5447 72.0918 54.5233 72.1532C54.5019 72.2147 54.4684 72.2712 54.4249 72.3196C54.3814 72.368 54.3287 72.4072 54.2699 72.435C54.2028 72.4732 54.1271 72.4938 54.0499 72.495Z" fill="black"/>
</g>
<path d="M191.38 101.605C191.38 101.605 192.78 118.965 210.91 127.905C210.91 127.905 237 114.415 236.31 96.9651C236.31 96.9651 233.42 101.815 225.68 101.225C225.68 101.225 219.68 100.745 218.53 96.2251C218.56 96.2551 208.48 105.395 191.38 101.605Z" fill="#FEA422"/>
<path d="M220.25 107.575C220.112 107.579 219.976 107.541 219.86 107.465L216.56 105.205C216.01 104.845 215.47 104.475 214.93 104.105C214.852 104.036 214.764 103.979 214.67 103.935L214.44 103.855L214.22 103.795C213.571 103.575 213.026 103.123 212.69 102.525C212.646 102.447 212.617 102.361 212.606 102.272C212.595 102.183 212.602 102.092 212.626 102.006C212.65 101.919 212.691 101.839 212.747 101.768C212.803 101.698 212.872 101.639 212.95 101.595C213.109 101.511 213.294 101.491 213.467 101.539C213.64 101.587 213.788 101.701 213.88 101.855C214.048 102.159 214.322 102.391 214.65 102.505H214.81L215.23 102.655C215.399 102.733 215.559 102.826 215.71 102.935C216.25 103.315 216.78 103.675 217.32 104.035L220.66 106.295C220.808 106.396 220.91 106.552 220.943 106.728C220.977 106.904 220.94 107.086 220.84 107.235C220.781 107.339 220.695 107.426 220.591 107.486C220.488 107.545 220.37 107.576 220.25 107.575Z" fill="#281911"/>
<path d="M226.7 110.095H226.64C226.069 110.082 225.505 109.96 224.98 109.735C224.821 109.658 224.668 109.571 224.52 109.475C224.395 109.385 224.261 109.308 224.12 109.245C223.96 109.198 223.796 109.165 223.63 109.145L223.2 109.065C222.922 109.013 222.661 108.894 222.438 108.72C222.216 108.546 222.038 108.322 221.92 108.065C221.849 107.9 221.846 107.715 221.912 107.548C221.977 107.381 222.106 107.247 222.27 107.175C222.436 107.104 222.623 107.101 222.791 107.166C222.96 107.232 223.095 107.361 223.17 107.525C223.26 107.62 223.38 107.68 223.51 107.695L223.84 107.755C224.098 107.791 224.353 107.851 224.6 107.935C224.825 108.032 225.042 108.146 225.25 108.275C225.351 108.348 225.458 108.411 225.57 108.465C225.946 108.612 226.346 108.69 226.75 108.695C226.93 108.702 227.1 108.78 227.223 108.912C227.346 109.044 227.411 109.22 227.405 109.4C227.398 109.58 227.32 109.751 227.188 109.873C227.056 109.996 226.88 110.062 226.7 110.055V110.095Z" fill="#281911"/>
<path d="M216.02 112.275C215.903 112.279 215.786 112.255 215.68 112.205C215.546 112.134 215.427 112.036 215.333 111.918C215.238 111.799 215.169 111.662 215.13 111.515C215.13 111.515 214.98 111.345 214.56 111.275H214.42C213.866 111.24 213.341 111.018 212.93 110.645C212.761 110.469 212.623 110.266 212.52 110.045C212.476 109.947 212.422 109.853 212.36 109.765C212.259 109.669 212.144 109.588 212.02 109.525C210.915 108.814 209.907 107.964 209.02 106.995L207.37 105.325C207.237 105.192 207.163 105.013 207.163 104.825C207.163 104.638 207.237 104.458 207.37 104.325C207.503 104.192 207.682 104.118 207.87 104.118C208.057 104.118 208.237 104.192 208.37 104.325L210.03 105.995C210.817 106.861 211.707 107.626 212.68 108.275C212.952 108.417 213.198 108.603 213.41 108.825C213.547 108.995 213.664 109.179 213.76 109.375C213.804 109.475 213.861 109.569 213.93 109.655C214.154 109.792 214.408 109.871 214.67 109.885H214.81C215.15 109.902 215.479 110.01 215.762 110.199C216.045 110.387 216.273 110.648 216.42 110.955C216.56 111.033 216.669 111.157 216.73 111.305C216.762 111.388 216.778 111.477 216.776 111.567C216.773 111.656 216.754 111.744 216.717 111.826C216.681 111.908 216.629 111.981 216.564 112.043C216.5 112.105 216.423 112.153 216.34 112.185C216.24 112.236 216.132 112.267 216.02 112.275Z" fill="#281911"/>
<path d="M222.29 116.425C222.124 116.428 221.963 116.367 221.84 116.255C220.99 115.512 220.015 114.926 218.96 114.525C218.359 114.375 217.829 114.022 217.46 113.525C217.367 113.369 217.339 113.184 217.382 113.008C217.425 112.832 217.536 112.68 217.69 112.585C217.844 112.493 218.028 112.465 218.202 112.508C218.376 112.552 218.527 112.662 218.62 112.815C218.828 113.019 219.087 113.164 219.37 113.235C220.606 113.689 221.749 114.367 222.74 115.235C222.814 115.294 222.874 115.367 222.918 115.45C222.962 115.534 222.988 115.626 222.995 115.72C223.001 115.814 222.988 115.908 222.956 115.997C222.925 116.085 222.875 116.167 222.81 116.235C222.74 116.3 222.658 116.35 222.569 116.383C222.48 116.415 222.385 116.43 222.29 116.425Z" fill="#281911"/>
<path d="M204.5 112.425H204.38C203.734 112.256 203.173 111.858 202.8 111.305L202.48 110.915C202.044 110.452 201.728 109.889 201.56 109.275C201.522 109.104 201.498 108.93 201.49 108.755C201.489 108.591 201.459 108.428 201.4 108.275C201.35 108.197 201.289 108.126 201.22 108.065C200.687 107.516 200.275 106.862 200.01 106.145C199.98 106.061 199.966 105.972 199.97 105.883C199.975 105.793 199.997 105.706 200.035 105.625C200.073 105.544 200.126 105.472 200.192 105.412C200.258 105.352 200.336 105.305 200.42 105.275C200.504 105.245 200.593 105.231 200.682 105.236C200.771 105.24 200.859 105.262 200.94 105.3C201.021 105.338 201.093 105.391 201.153 105.458C201.213 105.524 201.26 105.601 201.29 105.685C201.48 106.198 201.773 106.668 202.15 107.065C202.318 107.22 202.463 107.399 202.58 107.595C202.747 107.92 202.84 108.279 202.85 108.645C202.84 108.761 202.84 108.878 202.85 108.995C202.999 109.411 203.242 109.788 203.56 110.095L203.88 110.485C204.12 110.785 204.38 111.085 204.63 111.125C204.807 111.154 204.966 111.253 205.071 111.399C205.176 111.545 205.219 111.727 205.19 111.905C205.151 112.057 205.062 112.192 204.936 112.286C204.811 112.381 204.657 112.43 204.5 112.425Z" fill="#281911"/>
<path d="M215.35 121.845C215.218 121.849 215.088 121.81 214.98 121.735C213.88 121.025 212.74 120.345 211.58 119.735C211.196 119.517 210.795 119.333 210.38 119.185C210.165 119.128 209.96 119.04 209.77 118.925C209.552 118.775 209.366 118.585 209.22 118.365L209.14 118.255C208.815 117.888 208.437 117.572 208.02 117.315L207.47 116.925C207.052 116.663 206.702 116.306 206.446 115.884C206.191 115.462 206.038 114.987 206 114.495C205.999 114.406 206.015 114.317 206.048 114.234C206.081 114.151 206.13 114.075 206.192 114.011C206.254 113.947 206.328 113.896 206.41 113.861C206.492 113.825 206.581 113.806 206.67 113.805C206.85 113.805 207.023 113.877 207.151 114.004C207.278 114.132 207.35 114.305 207.35 114.485C207.401 114.763 207.51 115.027 207.67 115.26C207.83 115.492 208.038 115.688 208.28 115.835C208.44 115.965 208.62 116.075 208.79 116.195C209.319 116.528 209.794 116.939 210.2 117.415L210.31 117.555C210.367 117.639 210.434 117.717 210.51 117.785C210.578 117.824 210.652 117.851 210.73 117.865C211.241 118.042 211.737 118.263 212.21 118.525C213.4 119.165 214.58 119.855 215.71 120.595C215.786 120.643 215.851 120.705 215.902 120.779C215.954 120.852 215.99 120.935 216.008 121.023C216.027 121.11 216.028 121.201 216.011 121.289C215.994 121.377 215.96 121.46 215.91 121.535C215.849 121.629 215.766 121.706 215.669 121.76C215.571 121.814 215.461 121.843 215.35 121.845Z" fill="#281911"/>
<path opacity="0.4" d="M128.83 179.025C128.956 178.993 129.09 179.004 129.209 179.056C129.329 179.109 129.428 179.199 129.49 179.313C129.553 179.427 129.576 179.559 129.556 179.688C129.536 179.817 129.474 179.935 129.38 180.025C120.78 189.195 99.7898 187.695 99.7898 187.695C100.79 184.895 101.9 181.945 102.32 180.885C102.365 180.769 102.447 180.67 102.554 180.605C102.661 180.54 102.786 180.512 102.91 180.525C111.579 181.094 120.285 180.59 128.83 179.025Z" fill="#5B180D"/>
<path d="M135.75 84.435C133.28 83.165 126.97 80.535 120.51 82.685C120.387 82.7341 120.253 82.7466 120.124 82.7209C119.995 82.6952 119.875 82.6324 119.781 82.5402C119.687 82.448 119.621 82.3303 119.593 82.2016C119.564 82.0728 119.573 81.9385 119.62 81.815C120.62 79.185 123.39 73.905 128.91 75.285C130.932 75.6999 132.774 76.7365 134.178 78.2498C135.582 79.7631 136.477 81.6774 136.74 83.725C136.756 83.849 136.739 83.9753 136.689 84.0902C136.64 84.2051 136.56 84.3043 136.458 84.3773C136.356 84.4502 136.237 84.4941 136.112 84.5043C135.987 84.5145 135.862 84.4905 135.75 84.435Z" fill="#281911"/>
<path d="M82.95 84.435C85.42 83.165 91.73 80.535 98.19 82.685C98.3124 82.7341 98.4464 82.7466 98.5758 82.7209C98.7052 82.6952 98.8243 82.6324 98.9187 82.5402C99.013 82.448 99.0785 82.3303 99.1071 82.2016C99.1358 82.0728 99.1263 81.9385 99.08 81.815C98.08 79.185 95.3099 73.905 89.7899 75.285C87.7691 75.7026 85.9288 76.7401 84.5253 78.2529C83.1219 79.7657 82.2251 81.6785 81.96 83.725C81.9434 83.849 81.9608 83.9753 82.0104 84.0902C82.06 84.2051 82.14 84.3043 82.2417 84.3773C82.3434 84.4502 82.4631 84.4941 82.5878 84.5043C82.7126 84.5145 82.8378 84.4905 82.95 84.435Z" fill="#281911"/>
</g>
<defs>
<linearGradient id="paint0_linear_64_16690" x1="45.2099" y1="201.265" x2="55.6799" y2="260.605" gradientUnits="userSpaceOnUse">
<stop stop-color="#C43333"/>
<stop offset="0.05" stop-color="#C43333" stop-opacity="0.79"/>
<stop offset="0.1" stop-color="#C43333" stop-opacity="0.61"/>
<stop offset="0.15" stop-color="#C43333" stop-opacity="0.44"/>
<stop offset="0.21" stop-color="#C43333" stop-opacity="0.3"/>
<stop offset="0.28" stop-color="#C43333" stop-opacity="0.19"/>
<stop offset="0.36" stop-color="#C43333" stop-opacity="0.1"/>
<stop offset="0.47" stop-color="#C43333" stop-opacity="0.04"/>
<stop offset="0.61" stop-color="#C43333" stop-opacity="0.01"/>
<stop offset="1" stop-color="#C43333" stop-opacity="0"/>
</linearGradient>
<linearGradient id="paint1_linear_64_16690" x1="25.4199" y1="209.345" x2="56.0999" y2="192.335" gradientUnits="userSpaceOnUse">
<stop stop-color="#C43333"/>
<stop offset="0.14" stop-color="#C43333" stop-opacity="0.73"/>
<stop offset="0.28" stop-color="#C43333" stop-opacity="0.51"/>
<stop offset="0.43" stop-color="#C43333" stop-opacity="0.33"/>
<stop offset="0.57" stop-color="#C43333" stop-opacity="0.18"/>
<stop offset="0.71" stop-color="#C43333" stop-opacity="0.08"/>
<stop offset="0.86" stop-color="#C43333" stop-opacity="0.02"/>
<stop offset="1" stop-color="#C43333" stop-opacity="0"/>
</linearGradient>
<linearGradient id="paint2_linear_64_16690" x1="90.5099" y1="202.015" x2="67.8299" y2="261.095" gradientUnits="userSpaceOnUse">
<stop stop-color="#C43333"/>
<stop offset="0.09" stop-color="#C43333" stop-opacity="0.78"/>
<stop offset="0.18" stop-color="#C43333" stop-opacity="0.57"/>
<stop offset="0.29" stop-color="#C43333" stop-opacity="0.4"/>
<stop offset="0.4" stop-color="#C43333" stop-opacity="0.25"/>
<stop offset="0.51" stop-color="#C43333" stop-opacity="0.14"/>
<stop offset="0.64" stop-color="#C43333" stop-opacity="0.06"/>
<stop offset="0.79" stop-color="#C43333" stop-opacity="0.01"/>
<stop offset="1" stop-color="#C43333" stop-opacity="0"/>
</linearGradient>
<linearGradient id="paint3_linear_64_16690" x1="46.03" y1="202.385" x2="44.86" y2="205.415" gradientUnits="userSpaceOnUse">
<stop stop-color="#C43333"/>
<stop offset="0.14" stop-color="#C43333" stop-opacity="0.9"/>
<stop offset="0.42" stop-color="#C43333" stop-opacity="0.63"/>
<stop offset="0.82" stop-color="#C43333" stop-opacity="0.2"/>
<stop offset="1" stop-color="#C43333" stop-opacity="0"/>
</linearGradient>
<linearGradient id="paint4_linear_64_16690" x1="83.22" y1="203.915" x2="102.79" y2="260.735" gradientUnits="userSpaceOnUse">
<stop stop-color="#C43333"/>
<stop offset="0.11" stop-color="#C43333" stop-opacity="0.97"/>
<stop offset="0.26" stop-color="#C43333" stop-opacity="0.87"/>
<stop offset="0.44" stop-color="#C43333" stop-opacity="0.71"/>
<stop offset="0.64" stop-color="#C43333" stop-opacity="0.49"/>
<stop offset="0.85" stop-color="#C43333" stop-opacity="0.22"/>
<stop offset="1" stop-color="#C43333" stop-opacity="0"/>
</linearGradient>
<linearGradient id="paint5_linear_64_16690" x1="104.16" y1="189.335" x2="128.97" y2="265.685" gradientUnits="userSpaceOnUse">
<stop stop-color="#FBD08D" stop-opacity="0"/>
<stop offset="0.18" stop-color="#EABC7F" stop-opacity="0.09"/>
<stop offset="0.51" stop-color="#BB8859" stop-opacity="0.35"/>
<stop offset="0.9" stop-color="#7A3E23" stop-opacity="0.7"/>
</linearGradient>
<linearGradient id="paint6_linear_64_16690" x1="127.08" y1="201.105" x2="132.44" y2="262.395" gradientUnits="userSpaceOnUse">
<stop stop-color="#C43333"/>
<stop offset="0.09" stop-color="#C43333" stop-opacity="0.78"/>
<stop offset="0.18" stop-color="#C43333" stop-opacity="0.57"/>
<stop offset="0.29" stop-color="#C43333" stop-opacity="0.4"/>
<stop offset="0.4" stop-color="#C43333" stop-opacity="0.25"/>
<stop offset="0.51" stop-color="#C43333" stop-opacity="0.14"/>
<stop offset="0.64" stop-color="#C43333" stop-opacity="0.06"/>
<stop offset="0.79" stop-color="#C43333" stop-opacity="0.01"/>
<stop offset="1" stop-color="#C43333" stop-opacity="0"/>
</linearGradient>
<linearGradient id="paint7_linear_64_16690" x1="91.5999" y1="201.265" x2="102.07" y2="260.605" gradientUnits="userSpaceOnUse">
<stop stop-color="#C43333"/>
<stop offset="0.05" stop-color="#C43333" stop-opacity="0.79"/>
<stop offset="0.1" stop-color="#C43333" stop-opacity="0.61"/>
<stop offset="0.15" stop-color="#C43333" stop-opacity="0.44"/>
<stop offset="0.21" stop-color="#C43333" stop-opacity="0.3"/>
<stop offset="0.28" stop-color="#C43333" stop-opacity="0.19"/>
<stop offset="0.36" stop-color="#C43333" stop-opacity="0.1"/>
<stop offset="0.47" stop-color="#C43333" stop-opacity="0.04"/>
<stop offset="0.61" stop-color="#C43333" stop-opacity="0.01"/>
<stop offset="1" stop-color="#C43333" stop-opacity="0"/>
</linearGradient>
<linearGradient id="paint8_linear_64_16690" x1="131.6" y1="201.265" x2="142.07" y2="260.605" gradientUnits="userSpaceOnUse">
<stop stop-color="#C43333"/>
<stop offset="0.05" stop-color="#C43333" stop-opacity="0.79"/>
<stop offset="0.1" stop-color="#C43333" stop-opacity="0.61"/>
<stop offset="0.15" stop-color="#C43333" stop-opacity="0.44"/>
<stop offset="0.21" stop-color="#C43333" stop-opacity="0.3"/>
<stop offset="0.28" stop-color="#C43333" stop-opacity="0.19"/>
<stop offset="0.36" stop-color="#C43333" stop-opacity="0.1"/>
<stop offset="0.47" stop-color="#C43333" stop-opacity="0.04"/>
<stop offset="0.61" stop-color="#C43333" stop-opacity="0.01"/>
<stop offset="1" stop-color="#C43333" stop-opacity="0"/>
</linearGradient>
<linearGradient id="paint9_linear_64_16690" x1="66.8499" y1="203.405" x2="103.3" y2="203.405" gradientUnits="userSpaceOnUse">
<stop stop-color="#C43333"/>
<stop offset="0.14" stop-color="#C43333" stop-opacity="0.73"/>
<stop offset="0.28" stop-color="#C43333" stop-opacity="0.51"/>
<stop offset="0.43" stop-color="#C43333" stop-opacity="0.33"/>
<stop offset="0.57" stop-color="#C43333" stop-opacity="0.18"/>
<stop offset="0.71" stop-color="#C43333" stop-opacity="0.08"/>
<stop offset="0.86" stop-color="#C43333" stop-opacity="0.02"/>
<stop offset="1" stop-color="#C43333" stop-opacity="0"/>
</linearGradient>
<linearGradient id="paint10_linear_64_16690" x1="178.7" y1="49.665" x2="86.1597" y2="181.825" gradientUnits="userSpaceOnUse">
<stop offset="0.18" stop-color="#C43333" stop-opacity="0.6"/>
<stop offset="0.22" stop-color="#C43333" stop-opacity="0.51"/>
<stop offset="0.3" stop-color="#C43333" stop-opacity="0.35"/>
<stop offset="0.39" stop-color="#C43333" stop-opacity="0.22"/>
<stop offset="0.49" stop-color="#C43333" stop-opacity="0.12"/>
<stop offset="0.6" stop-color="#C43333" stop-opacity="0.05"/>
<stop offset="0.75" stop-color="#C43333" stop-opacity="0.01"/>
<stop offset="1" stop-color="#C43333" stop-opacity="0"/>
</linearGradient>
<clipPath id="clip0_64_16690">
<rect width="259" height="259" fill="white"/>
</clipPath>
</defs>
</svg>
