<svg width="400" height="377" viewBox="0 0 400 377" fill="none" xmlns="http://www.w3.org/2000/svg">
<path d="M398.773 349.754C398.746 350.343 398.551 350.912 398.212 351.394C397.873 351.876 397.404 352.252 396.859 352.476C388.683 355.876 363.687 364.87 316.406 370.812C291.938 373.893 261.477 376.147 224.286 376.376C220.617 376.376 216.878 376.376 213.069 376.376C95.8041 375.838 33.1582 358.728 18.3617 354.062C17.7026 353.859 17.1237 353.455 16.7069 352.906C16.29 352.356 16.0562 351.69 16.0385 351.001C16.0184 350.526 16.1035 350.053 16.2878 349.615L17.3647 347.062L18.3617 344.749L19.5084 341.997L194.544 322.385L389.969 336.932L392.96 337.151L395.573 342.366L398.474 348.169C398.713 348.661 398.817 349.209 398.773 349.754Z" fill="#CF763C"/>
<path opacity="0.6" d="M395.553 342.367C344.403 357.154 292.257 371.412 239.123 369.607C202.57 368.361 166.676 359.517 130.213 356.725C92.4839 353.833 53.6282 357.323 17.3748 347.063L18.3718 344.75C71.6951 356.715 103.751 338.568 183.437 359.596C215.442 368.051 249.622 366.825 282.535 363.335C314.302 359.945 354.833 351.071 384.406 339.256C386.32 338.498 388.175 337.711 389.989 336.933C391.352 336.335 392.681 335.736 393.978 335.138L392.98 337.132L395.553 342.367Z" fill="#EA994F"/>
<path d="M399.92 323.502L393.937 335.138L392.94 337.132C390.142 338.034 387.283 338.737 384.385 339.236C370.556 341.711 356.604 343.441 342.588 344.42C316.086 346.414 269.573 362.218 238.634 363.225C207.695 364.232 183.416 356.146 152.477 350.074C121.538 344.002 78.4548 346.085 50.9457 346.085C23.4366 346.085 19.4982 342.027 19.4982 342.027C14.9416 337.949 10.2354 328.796 10.2354 328.796L68.544 318.267L399.92 323.502Z" fill="#7D491A"/>
<path d="M399.919 323.492C397.776 332.596 374.883 333.204 374.883 333.204C338.56 334.719 303.752 343.514 269.562 350.802C235.373 358.091 210.028 352.926 168.809 344.122C127.59 335.318 56.7781 336.793 33.8854 336.235C10.9927 335.677 9.45718 327.132 9.45718 327.132C7.26363 317.859 25.7194 307.011 60.3077 298.297C98.1963 288.755 155.588 281.765 226.459 282.244C250.311 282.292 274.143 283.587 297.859 286.122C308.209 287.289 317.631 288.665 326.186 290.2C328.845 290.672 331.394 291.154 333.834 291.646C384.425 301.896 401.325 317.49 399.919 323.492Z" fill="#86AF11"/>
<path d="M352.698 311.866C334.9 311.866 303.752 318.347 285.147 326.035C266.541 333.722 232.561 336.145 200.396 328.657C168.23 321.169 113.222 321.169 94.2081 321.528C75.194 321.887 28.3317 324.828 33.1476 314.309C37.9634 303.79 60.1781 298.356 60.1781 298.356L60.3476 298.296C70.8168 295.664 82.7617 293.231 96.0626 291.088H96.2919C96.325 291.083 96.3586 291.083 96.3917 291.088C131.289 285.504 175.35 281.964 226.499 282.313C250.351 282.356 274.183 283.651 297.899 286.192L322.826 289.791L326.186 290.27C328.858 290.649 331.421 291.137 333.834 291.716C358.082 297.429 368.881 311.866 352.698 311.866Z" fill="#A1BC31"/>
<path d="M178.322 307.629C120.821 301.706 68.5046 309.553 68.5046 302.564C68.5046 296.033 92.6138 291.596 95.6249 291.088H95.8542C95.8906 291.082 95.9276 291.082 95.964 291.088C130.812 285.504 174.912 281.964 226.061 282.313C249.913 282.356 273.746 283.651 297.462 286.192L322.388 289.791C395.254 310.869 231.356 313.083 178.322 307.629Z" fill="#B4CC29"/>
<g style="mix-blend-mode:multiply" opacity="0.2">
<path d="M198.672 324.24C279.988 324.24 345.909 319.445 345.909 313.531C345.909 307.617 279.988 302.823 198.672 302.823C117.355 302.823 51.4343 307.617 51.4343 313.531C51.4343 319.445 117.355 324.24 198.672 324.24Z" fill="black"/>
</g>
<path opacity="0.6" d="M199.489 372.688C207.695 374.164 215.971 375.41 224.286 376.337C220.617 376.337 216.878 376.337 213.069 376.337C95.8041 375.839 33.1583 358.729 18.3618 354.063C17.7026 353.86 17.1238 353.456 16.7069 352.907C16.29 352.357 16.0562 351.691 16.0386 351.002C100.171 372.688 132.795 360.723 199.489 372.688Z" fill="#EA994F"/>
<path opacity="0.6" d="M398.774 349.755C398.747 350.343 398.552 350.912 398.213 351.394C397.874 351.876 397.404 352.252 396.86 352.477C388.684 355.877 363.687 364.87 316.406 370.813C343.925 363.215 370.138 350.532 398.774 349.755Z" fill="#EA994F"/>
<path d="M338.261 308.954C338.261 308.954 334.273 307.668 335.27 305.704C336.636 302.932 353.337 304.557 355.411 308.436C357.206 311.816 349.718 310.669 347.006 310.141C344.294 309.612 340.664 309.572 338.261 308.954Z" fill="#7F7F7F"/>
<path d="M338.421 307.549C338.421 307.549 334.432 306.263 335.43 304.298C336.786 301.527 353.496 303.152 355.56 307.03C357.355 310.41 349.867 309.264 347.155 308.735C344.443 308.207 340.854 308.167 338.421 307.549Z" fill="#CECECE"/>
<path d="M71.6759 306.472C71.6819 306.599 71.6536 306.726 71.5939 306.838C71.5343 306.95 71.4455 307.044 71.3369 307.11C68.9539 309.035 54.6958 309.783 48.3145 310.221C42.9104 310.6 41.3351 309.703 40.8764 309.224C40.7968 309.153 40.7353 309.064 40.697 308.965C40.6484 308.892 40.6051 308.815 40.5674 308.736C40.5305 308.66 40.5069 308.579 40.4976 308.496C40.2682 307.031 43.7281 305.595 49.3615 304.648C55.653 303.601 62.0442 303.391 64.3175 303.77C66.5909 304.149 70.4594 303.77 71.616 306.323C71.6425 306.37 71.6626 306.42 71.6759 306.472Z" fill="#CECECE"/>
<path d="M71.6751 306.472C71.6811 306.599 71.6529 306.726 71.5932 306.838C71.5336 306.95 71.4448 307.044 71.3362 307.11C68.9532 309.035 54.6951 309.783 48.3138 310.221C42.9097 310.6 41.3344 309.703 40.8757 309.224C40.7961 309.153 40.7345 309.065 40.6963 308.965C40.6477 308.892 40.6043 308.815 40.5666 308.736C40.5298 308.661 40.5062 308.58 40.4968 308.496L40.6763 309.962C40.6891 310.174 40.7694 310.377 40.9056 310.54C40.9056 310.54 41.3144 312.285 48.5132 311.787C55.7121 311.288 72.6623 310.461 71.8347 307.858L71.6751 306.472Z" fill="#7F7F7F"/>
<path d="M91.5863 321.129C91.5873 321.207 91.5664 321.284 91.5258 321.351C91.4853 321.418 91.4268 321.472 91.357 321.508C89.8016 322.605 80.9476 322.505 76.9792 322.505C73.6291 322.505 72.6819 321.897 72.4226 321.588C72.3747 321.541 72.3402 321.483 72.3229 321.418C72.2925 321.37 72.2658 321.32 72.2432 321.269C72.2383 321.219 72.2383 321.169 72.2432 321.119C72.1634 320.202 74.3669 319.464 77.8866 319.125C80.9821 318.766 84.1102 318.793 87.1992 319.205C88.615 319.534 90.9981 319.464 91.6063 321.089C91.6009 321.103 91.5942 321.116 91.5863 321.129Z" fill="#CECECE"/>
<path d="M91.5863 321.13C91.5873 321.208 91.5664 321.285 91.5258 321.352C91.4853 321.419 91.4268 321.473 91.357 321.509C89.8016 322.605 80.9476 322.506 76.9792 322.506C73.6291 322.506 72.6819 321.898 72.4226 321.588C72.3747 321.542 72.3402 321.483 72.3229 321.419C72.2925 321.371 72.2658 321.321 72.2432 321.269C72.2383 321.22 72.2383 321.17 72.2432 321.12V322.037C72.241 322.17 72.2831 322.3 72.3628 322.406C72.3628 322.406 72.5323 323.503 77.0192 323.493C81.506 323.483 91.9752 323.682 91.5963 322.047L91.5863 321.13Z" fill="#7F7F7F"/>
<path d="M291.738 315.126L229.711 317.1L212.92 314.887L209.899 298.236L221.734 292.273L229.671 288.873L287.461 298.595L291.738 315.126Z" fill="#7F7F7F"/>
<path d="M287.461 298.595L231.216 301.765L209.899 298.236L221.734 292.273L229.671 288.873L287.461 298.595Z" fill="#B7B7B7"/>
<path d="M231.216 301.766L229.711 317.101L212.92 314.887L209.899 298.236L231.216 301.766Z" fill="#959599"/>
<path d="M287.461 298.595L229.671 288.873L221.734 292.273L209.899 298.236L212.92 314.887L229.711 317.1L291.738 315.126L287.461 298.595Z" fill="url(#paint0_linear_164_4987)"/>
<path d="M313.065 283.231C313.065 283.231 313.394 266.719 297.231 266.859C297.231 266.859 297.909 283.58 313.065 283.231Z" fill="#76AD17"/>
<mask id="mask0_164_4987" style="mask-type:luminance" maskUnits="userSpaceOnUse" x="297" y="266" width="17" height="18">
<path d="M313.065 283.23C313.065 283.23 313.394 266.718 297.232 266.858C297.232 266.858 297.91 283.579 313.065 283.23Z" fill="white"/>
</mask>
<g mask="url(#mask0_164_4987)">
<path d="M313.065 283.23C313.065 283.23 313.394 266.718 297.232 266.858C297.232 266.858 297.91 283.579 313.065 283.23Z" fill="url(#paint1_linear_164_4987)"/>
<path d="M312.946 283.429C309.226 278.862 305.228 274.276 301.19 270.028C303.553 271.314 305.986 273.817 307.95 275.951C309.93 278.219 311.637 280.712 313.035 283.379C313.035 283.439 312.975 283.489 312.946 283.429Z" fill="#42630A"/>
</g>
<path d="M312.877 283.14C312.877 283.14 323.904 270.847 335.62 281.974C335.62 281.954 323.715 293.739 312.877 283.14Z" fill="#76AD17"/>
<mask id="mask1_164_4987" style="mask-type:luminance" maskUnits="userSpaceOnUse" x="312" y="277" width="24" height="11">
<path d="M312.876 283.141C312.876 283.141 323.903 270.847 335.619 281.974C335.619 281.954 323.714 293.74 312.876 283.141Z" fill="white"/>
</mask>
<g mask="url(#mask1_164_4987)">
<path d="M312.875 283.141C312.875 283.141 323.903 270.847 335.618 281.974C335.618 281.954 323.713 293.74 312.875 283.141Z" fill="url(#paint2_linear_164_4987)"/>
<path d="M312.796 283.27C315.469 281.743 318.433 280.796 321.496 280.491C324.559 280.185 327.652 280.527 330.574 281.495C330.574 281.495 330.574 281.605 330.574 281.595C324.691 280.717 318.22 281.724 312.816 283.27H312.796Z" fill="#42630A"/>
</g>
<path d="M301.529 311.916C300.959 307.35 301.366 302.715 302.723 298.319C304.079 293.922 306.353 289.863 309.396 286.411C317.891 276.62 321.54 265.293 319.157 256.14L320.603 255.761C321.809 260.388 323.245 272.711 310.522 287.398C307.657 290.701 305.509 294.562 304.213 298.738C302.918 302.913 302.503 307.313 302.994 311.657L301.529 311.916Z" fill="url(#paint3_linear_164_4987)"/>
<path d="M330.175 261.085C330.365 265.453 321.561 268.015 317.802 266.2C317.134 265.899 316.604 265.358 316.316 264.685C315.509 262.91 316.316 259.051 316.895 257.785C318.6 257.629 320.248 257.094 321.72 256.22C322.428 255.801 323.296 256.28 323.854 255.811C324.053 255.641 324.532 255.701 324.702 255.522C325.388 255.808 326.055 256.141 326.696 256.519C328.45 257.476 330.086 259.022 330.175 261.085Z" fill="#FFBF41"/>
<path d="M333.545 255.94C331.156 257.078 328.503 257.55 325.868 257.306C325.381 256.815 324.858 256.361 324.303 255.95C325.958 254.714 326.815 253.178 326.297 252.012C326.105 251.636 325.822 251.315 325.474 251.078C325.125 250.841 324.722 250.695 324.303 250.656C323.772 250.541 323.228 250.504 322.687 250.546V250.396C323.167 249.661 323.74 248.99 324.392 248.402C325.196 247.565 326.207 246.955 327.322 246.632C328.437 246.31 329.617 246.288 330.744 246.568C335.629 247.954 337.574 253.846 333.545 255.94Z" fill="#FFBF41"/>
<path d="M316.426 263.438C313.694 264.744 305.299 263.438 306.934 258.243C307.211 257.333 307.727 256.515 308.429 255.873C309.13 255.231 309.992 254.789 310.922 254.594C312.386 254.264 313.898 254.217 315.379 254.455C315.235 254.679 315.118 254.92 315.03 255.172C314.846 255.633 314.846 256.147 315.03 256.608C315.226 256.997 315.519 257.329 315.881 257.572C316.242 257.815 316.66 257.96 317.094 257.994C316.312 259.696 316.079 261.598 316.426 263.438Z" fill="#FFBF41"/>
<path d="M322.757 250.397V250.546C321.612 250.615 320.486 250.875 319.426 251.314C317.77 251.914 316.338 253.011 315.329 254.455C313.848 254.217 312.335 254.265 310.872 254.595C310.315 254.047 309.963 253.326 309.875 252.551C309.187 248.742 316.375 244.714 320.683 244.714C323.485 244.714 324.312 246.618 324.482 248.423C323.824 249.003 323.244 249.667 322.757 250.397Z" fill="#FFBF41"/>
<path d="M313.465 260.098H327.414V249.19H313.465V260.098Z" fill="#FFBF41"/>
<path opacity="0.5" d="M327.243 256.808C323.323 257.407 319.58 258.853 316.276 261.046C316.276 261.046 314.8 254.485 312.646 254.375C312.646 254.375 320.623 251.673 323.953 248.911C324.676 250.258 325.549 251.519 326.555 252.67C327.059 253.219 327.392 253.902 327.515 254.637C327.637 255.372 327.542 256.126 327.243 256.808Z" fill="#F49C2B"/>
<path d="M323.775 255.711C323.621 255.832 323.461 255.946 323.296 256.05C322.794 256.372 322.264 256.646 321.711 256.868C320.764 257.275 319.749 257.501 318.719 257.536C318.329 257.555 317.938 257.531 317.553 257.466C317.181 257.432 316.824 257.306 316.514 257.099C316.204 256.892 315.951 256.61 315.778 256.28C315.623 255.882 315.623 255.441 315.778 255.043C315.849 254.828 315.95 254.623 316.077 254.435C316.938 253.199 318.161 252.258 319.577 251.743C320.496 251.353 321.473 251.118 322.468 251.045C322.929 251.015 323.392 251.049 323.844 251.145C324.194 251.186 324.529 251.313 324.817 251.515C325.106 251.717 325.341 251.987 325.5 252.302C325.918 253.348 325.19 254.655 323.775 255.711Z" fill="#963450"/>
<path d="M327.981 257.337C326.609 256.963 325.34 256.281 324.272 255.343C325.011 255.318 325.744 255.49 326.395 255.84C327.047 256.19 327.594 256.707 327.981 257.337Z" fill="#F49C2B"/>
<path d="M315.987 263.608C315.746 262.537 315.743 261.426 315.979 260.355C316.215 259.283 316.684 258.276 317.353 257.406C317.039 259.502 316.583 261.574 315.987 263.608Z" fill="#F49C2B"/>
<path d="M310.891 254.594C311.71 254.221 312.594 254.015 313.493 253.988C314.391 253.96 315.287 254.112 316.126 254.434C314.415 254.876 312.626 254.93 310.891 254.594Z" fill="#F49C2B"/>
<path d="M324.461 248.423C324.041 249.518 323.278 250.448 322.288 251.076C322.334 250.464 322.568 249.882 322.957 249.407C323.345 248.933 323.871 248.589 324.461 248.423Z" fill="#F49C2B"/>
<path d="M323.894 314.967C323.365 317.25 314.072 317.958 306.584 318.078C301.449 318.187 297.182 318.078 297.182 318.078C294.809 318.078 292.586 318.078 290.542 318.078C275.266 317.828 269.085 316.323 270.6 312.674C272.026 309.343 279.803 309.852 282.755 310.171C282.83 310.179 282.907 310.163 282.973 310.126C283.04 310.089 283.093 310.032 283.126 309.963C283.159 309.894 283.17 309.816 283.157 309.741C283.144 309.666 283.108 309.597 283.054 309.543C280.69 307.23 274.479 300.39 280.192 297.468C285.237 294.906 289.564 299.572 291.559 302.314C291.608 302.381 291.68 302.429 291.76 302.45C291.841 302.471 291.926 302.465 292.002 302.431C292.079 302.397 292.142 302.339 292.18 302.265C292.219 302.192 292.232 302.107 292.217 302.025C291.13 296.601 292.057 291.735 297.202 291.855C301.818 291.964 303.404 299.433 303.842 302.364C303.853 302.442 303.889 302.515 303.945 302.572C304 302.629 304.072 302.666 304.151 302.678C304.229 302.69 304.309 302.677 304.379 302.64C304.45 302.604 304.506 302.545 304.54 302.474L305.607 300.43C311.071 290.24 317.413 290.24 319.776 294.677C321.77 298.475 314.222 307.758 312.068 310.271C312.022 310.325 311.993 310.391 311.983 310.462C311.974 310.532 311.985 310.604 312.016 310.668C312.046 310.733 312.095 310.787 312.155 310.824C312.216 310.862 312.286 310.881 312.357 310.879C315.279 310.749 324.821 310.869 323.894 314.967Z" fill="#267549"/>
<path d="M306.665 318.058H306.505C301.41 318.157 297.183 318.058 297.183 318.058C294.81 318.058 292.586 318.058 290.542 318.058C289.714 317.928 283.862 316.881 283.832 313.072C283.827 313.023 283.827 312.973 283.832 312.923C283.941 312.514 284.609 310.6 287.282 311.547C287.378 311.581 287.483 311.585 287.582 311.559C287.681 311.532 287.769 311.477 287.836 311.399C287.903 311.322 287.944 311.226 287.956 311.124C287.967 311.022 287.948 310.919 287.9 310.829C287.451 310.145 287.252 309.328 287.336 308.514C287.419 307.701 287.781 306.941 288.359 306.362C290.632 304.039 293.683 307.708 294.8 309.932C294.844 310.015 294.91 310.085 294.99 310.134C295.071 310.183 295.164 310.208 295.258 310.208C295.353 310.208 295.445 310.183 295.526 310.134C295.607 310.085 295.673 310.015 295.717 309.932C296.534 308.386 298.379 305.664 301.131 305.594C304.521 305.515 305.119 308.835 303.982 311.407C303.943 311.495 303.93 311.592 303.944 311.688C303.957 311.783 303.998 311.873 304.061 311.946C304.123 312.019 304.206 312.073 304.298 312.101C304.39 312.129 304.488 312.131 304.581 312.105C305.957 311.756 308.13 311.407 309.217 312.315C310.842 313.611 311.072 316.692 306.665 318.058Z" fill="#13563E"/>
<path d="M275.706 256.479C270.402 266.639 260.172 270.368 260.172 270.368L236.481 285.195L227.408 262.212L240.051 216.088C240.051 216.088 245.585 211.601 262.285 216.088C271.588 218.6 275.636 226.188 277.391 232.37C278.221 235.247 278.677 238.22 278.747 241.214C279.166 246.486 278.113 251.77 275.706 256.479Z" fill="#57BC57"/>
<path d="M280.79 294.488C280.717 295.274 280.355 296.006 279.776 296.544C279.197 297.081 278.439 297.385 277.649 297.399L220.916 297.628C220.573 297.63 220.234 297.552 219.925 297.403C219.616 297.253 219.345 297.034 219.134 296.764C218.922 296.494 218.775 296.179 218.704 295.843C218.633 295.507 218.639 295.16 218.723 294.827L226.749 262.213C228.225 262.213 258.336 270.189 261.327 270.797C273.023 273.21 280.511 282.583 280.79 294.488Z" fill="#57BC57"/>
<path d="M280.79 294.488C280.717 295.274 280.355 296.006 279.776 296.544C279.197 297.081 278.439 297.385 277.649 297.399L220.916 297.628C220.573 297.63 220.234 297.552 219.925 297.403C219.616 297.253 219.345 297.034 219.134 296.764C218.922 296.494 218.775 296.179 218.704 295.843C218.633 295.507 218.639 295.16 218.723 294.827L226.749 262.213C228.225 262.213 258.336 270.189 261.327 270.797C273.023 273.21 280.511 282.583 280.79 294.488Z" fill="url(#paint4_linear_164_4987)"/>
<path d="M275.706 256.479C274.368 257.486 272.793 258.13 271.134 258.349C269.474 258.567 267.786 258.352 266.233 257.725C264.469 256.868 263.432 253.996 264.798 251.125C266.164 248.253 266.164 246.139 266.104 242.42C266.044 238.701 267.031 233.447 273.542 231.891C274.183 231.71 274.854 231.659 275.515 231.741C276.176 231.823 276.814 232.037 277.391 232.37C278.221 235.247 278.677 238.22 278.747 241.214C279.166 246.486 278.113 251.77 275.706 256.479Z" fill="#08605F"/>
<mask id="mask2_164_4987" style="mask-type:luminance" maskUnits="userSpaceOnUse" x="218" y="262" width="63" height="36">
<path d="M280.789 294.487C280.716 295.274 280.355 296.006 279.775 296.543C279.196 297.08 278.439 297.385 277.649 297.398L220.915 297.628C220.572 297.629 220.233 297.552 219.924 297.402C219.615 297.252 219.345 297.034 219.133 296.763C218.922 296.493 218.774 296.178 218.703 295.842C218.632 295.507 218.638 295.159 218.722 294.826L226.748 262.212C228.224 262.212 258.335 270.188 261.327 270.797C273.022 273.21 280.51 282.582 280.789 294.487Z" fill="white"/>
</mask>
<g mask="url(#mask2_164_4987)">
<path d="M270.907 304.299C270.788 297.499 271.007 289.094 264.925 284.657C264.06 284.089 263.138 283.614 262.173 283.241C263.247 283.322 264.298 283.585 265.284 284.019C272.453 287.658 272.782 297.479 270.858 304.299H270.907Z" fill="#3D7C3F"/>
<path d="M260.03 301.946C259.551 297.459 260.1 291.327 255.304 288.984C261.336 289.273 261.895 297.539 260.03 301.946Z" fill="#3D7C3F"/>
</g>
<path d="M290.562 199.447C276.742 201.511 268.836 191.241 264.528 181.579C262.361 176.654 260.798 171.485 259.872 166.184L287.132 161.668L289.674 164.35L304.85 180.373C307.243 197.203 290.562 199.447 290.562 199.447Z" fill="#57BC57"/>
<path opacity="0.7" d="M289.655 164.349C289.711 165.639 289.536 166.929 289.137 168.158L280.093 173.143L273.852 175.217C273.852 175.217 266.513 177.55 264.509 181.618C262.342 176.693 260.779 171.524 259.853 166.223L287.113 161.707L289.655 164.349Z" fill="#3D7C3F"/>
<path d="M269.105 186.754V186.675C269.105 186.625 269.105 186.555 269.105 186.475C269.105 186.395 269.105 186.316 269.105 186.226C269.105 186.136 269.105 186.046 269.055 185.937C269.005 185.827 269.055 185.727 268.995 185.608C268.367 181.829 267.54 178.17 266.642 174.7C266.523 174.261 266.413 173.822 266.293 173.384C265.934 171.469 264.658 167.222 263.212 162.695C261.647 157.799 259.872 152.575 258.805 149.603C258.466 148.666 258.197 147.948 258.028 147.54L209.171 134.877L187.874 135.046L165.928 133.112C165.928 133.95 165.928 139.892 159.408 164.839C152.328 188.001 147.533 209.099 133.693 223.407C130.351 226.864 126.542 229.837 122.376 232.241C115.636 236.169 107.42 239.061 97.0809 240.706L94.5483 241.075C68.6245 244.594 56.889 237.515 51.1459 238.532C39.6896 240.526 55.862 260.468 73.1811 268.773C76.3318 270.438 81.367 272.542 81.377 272.542C82.743 273.1 84.0791 273.609 85.3653 274.088C94.5682 277.408 102.704 278.874 110.9 280.349C193.657 295.215 266.224 268.663 270.132 208.75C270.132 208.75 270.312 200.594 270.302 200.604C270.255 195.963 269.855 191.334 269.105 186.754Z" fill="#57BC57"/>
<path d="M136.226 243.069C132.776 245.98 122.835 240.965 122.347 232.291C126.512 229.887 130.321 226.914 133.663 223.457C134.129 225.669 135.016 227.771 136.276 229.648C140.344 235.99 139.785 240.008 136.226 243.069Z" fill="#08605F"/>
<path d="M270.292 200.613C270.292 200.613 270.122 208.779 270.122 208.759C266.214 268.673 193.647 295.225 110.89 280.359C102.694 278.883 94.5584 277.417 85.3555 274.097C84.0493 273.618 82.7132 273.1 81.3672 272.552C82.6634 272.771 83.9396 272.97 85.2059 273.16C197.725 290.11 207.018 214.173 214.825 186.744C222.712 159.005 246.641 162.545 256.831 166.872C265.616 170.611 268.397 182.686 268.996 185.936C268.996 186.046 268.996 186.136 269.045 186.225C269.095 186.315 269.045 186.405 269.045 186.475C269.045 186.544 269.045 186.624 269.045 186.674C269.048 186.697 269.048 186.721 269.045 186.744C269.813 191.329 270.229 195.965 270.292 200.613Z" fill="#FBD08D"/>
<path opacity="0.6" d="M270.292 200.613C270.292 200.613 270.122 208.779 270.122 208.759C266.214 268.673 193.647 295.225 110.89 280.359C102.694 278.883 94.5584 277.417 85.3555 274.097C84.0493 273.618 82.7132 273.1 81.3672 272.552C82.6634 272.771 83.9396 272.97 85.2059 273.16C197.725 290.11 207.018 214.173 214.825 186.744C222.712 159.005 246.641 162.545 256.831 166.872C265.616 170.611 268.397 182.686 268.996 185.936C268.996 186.046 268.996 186.136 269.045 186.225C269.095 186.315 269.045 186.405 269.045 186.475C269.045 186.544 269.045 186.624 269.045 186.674C269.048 186.697 269.048 186.721 269.045 186.744C269.813 191.329 270.229 195.965 270.292 200.613Z" fill="url(#paint5_linear_164_4987)"/>
<path opacity="0.7" d="M263.133 162.685C243.191 162.994 230.11 155.087 225.404 151.717C225.275 151.618 225.182 151.481 225.138 151.325C225.094 151.169 225.101 151.003 225.157 150.852C225.214 150.7 225.318 150.571 225.454 150.482C225.59 150.394 225.75 150.352 225.912 150.361C236.852 150.979 247.824 150.735 258.726 149.633C259.792 152.565 261.567 157.789 263.133 162.685Z" fill="#3D7C3F"/>
<path d="M85.1657 273.16C83.8994 272.971 82.6232 272.771 81.327 272.552C81.327 272.552 76.2818 270.448 73.131 268.783C55.8119 260.438 39.6395 240.576 51.0958 238.542C56.839 237.545 68.5644 244.604 94.4982 241.085L97.0308 240.716C96.5921 240.945 81.1774 248.852 85.1657 273.16Z" fill="url(#paint6_linear_164_4987)"/>
<path d="M282.157 145.087C278.554 146.22 274.893 147.159 271.189 147.898C271.189 147.898 269.983 148.138 267.789 148.467C253.122 150.614 238.267 151.179 223.479 150.152C211.092 149.353 198.856 146.985 187.066 143.103C179.649 140.624 172.55 137.278 165.918 133.132C166.608 125.238 167.719 117.386 169.249 109.611C176.497 73.7764 189.838 64.9423 189.838 64.9423C190.668 58.5004 192.128 52.1553 194.195 45.998C197.346 35.8578 208.075 28.5693 219.292 27.991C223.254 27.7796 227.212 28.4784 230.862 30.0339C234.512 31.5894 237.758 33.9603 240.35 36.9646C242.607 33.716 245.577 31.027 249.033 29.1035C252.49 27.18 256.341 26.073 260.291 25.8672C261.481 25.8071 262.673 25.827 263.861 25.927C267.543 26.2368 271.118 27.327 274.346 29.1253C277.575 30.9235 280.383 33.3885 282.585 36.3564C285.662 40.4714 287.436 45.4128 287.68 50.5447C287.708 50.8764 287.708 51.21 287.68 51.5417C293.593 50.6145 319.347 47.4936 329.089 62.32C339.548 78.1734 334.593 128.545 282.157 145.087Z" fill="url(#paint7_linear_164_4987)"/>
<path d="M298.219 85.7312C298.533 85.7918 298.857 85.772 299.161 85.6737C299.466 85.5753 299.74 85.4016 299.959 85.1688C300.178 84.9359 300.334 84.6514 300.414 84.3418C300.493 84.0322 300.493 83.7076 300.413 83.3981C299.585 80.2573 297.541 75.1324 293.254 77.286C288.498 79.669 293.693 84.8837 298.219 85.7312Z" fill="#281911"/>
<path d="M311.499 84.6445C311.186 84.7051 310.861 84.6853 310.557 84.587C310.253 84.4886 309.979 84.3149 309.76 84.0821C309.541 83.8492 309.385 83.5647 309.305 83.2551C309.226 82.9455 309.226 82.6209 309.306 82.3114C310.123 79.1706 312.147 74.0357 316.445 76.1794C321.251 78.5524 316.066 83.787 311.499 84.6445Z" fill="#281911"/>
<path d="M206.808 14.4408C209.919 12.9153 217.855 9.77452 225.862 12.6062C226.015 12.6695 226.183 12.6871 226.346 12.657C226.509 12.6268 226.659 12.5502 226.779 12.4363C226.9 12.3224 226.984 12.1762 227.023 12.0153C227.062 11.8543 227.053 11.6856 226.999 11.5294C225.792 8.22906 222.462 1.55867 215.542 3.17393C213.007 3.64896 210.684 4.90349 208.897 6.76244C207.109 8.62139 205.947 10.992 205.572 13.5434C205.543 13.7005 205.559 13.8624 205.619 14.0106C205.678 14.1587 205.778 14.2871 205.908 14.3809C206.037 14.4746 206.19 14.53 206.349 14.5406C206.508 14.5512 206.667 14.5166 206.808 14.4408Z" fill="#281911"/>
<path d="M269.923 9.55499C266.582 8.55792 258.227 6.91276 250.849 11.1104C250.709 11.1973 250.547 11.2424 250.382 11.2405C250.217 11.2387 250.056 11.1899 249.918 11.0999C249.78 11.01 249.67 10.8825 249.602 10.7325C249.534 10.5825 249.51 10.4162 249.533 10.2529C250.141 6.79311 252.245 -0.3459 259.334 0.0130452C261.909 0.0318169 264.414 0.854961 266.499 2.36738C268.583 3.87979 270.143 6.00585 270.96 8.44825C271.014 8.59592 271.027 8.75593 270.996 8.91032C270.965 9.06471 270.891 9.20738 270.783 9.32232C270.676 9.43725 270.538 9.5199 270.386 9.561C270.234 9.6021 270.074 9.60002 269.923 9.55499Z" fill="#281911"/>
<path d="M211.893 95.1829C214.744 99.4703 220.537 96.8779 222.801 95.6316C219.967 92.1054 217.482 88.312 215.382 84.3049C214.156 85.4316 208.921 90.6762 211.893 95.1829Z" fill="#FFF3E9"/>
<path d="M224.845 106.47C230 109.262 234.347 101.894 235.005 100.707C230.711 99.26 226.507 97.562 222.412 95.622C221.814 97.646 220.378 104.047 224.845 106.47Z" fill="#FFF3E9"/>
<path d="M240.608 109.891C246.132 110.399 247.737 102.971 248.056 101.136C243.071 101.316 238.614 101.256 234.536 101.027C234.785 103.529 235.842 109.462 240.608 109.891Z" fill="#FFF3E9"/>
<path d="M240.828 102.323C234.088 102.323 228.425 100.708 223.878 97.4874C218.605 93.6259 215.068 87.8391 214.037 81.3847C214.007 81.1203 214.083 80.8546 214.248 80.6461C214.414 80.4376 214.655 80.3034 214.92 80.273C215.184 80.2426 215.45 80.3185 215.658 80.4839C215.867 80.6494 216.001 80.891 216.031 81.1554C217.038 87.0453 220.277 92.3202 225.075 95.8821C231.566 100.489 240.709 101.516 252.245 98.9531C252.373 98.9237 252.506 98.92 252.636 98.9422C252.766 98.9644 252.89 99.0122 253.001 99.0826C253.112 99.1531 253.208 99.2449 253.284 99.3527C253.36 99.4605 253.413 99.5823 253.441 99.7109C253.498 99.9686 253.45 100.238 253.308 100.461C253.166 100.683 252.941 100.84 252.683 100.897C248.795 101.801 244.82 102.279 240.828 102.323Z" fill="#281911"/>
<path d="M212.621 82.4612C210.435 82.4555 208.274 81.9901 206.279 81.0953C206.064 80.9655 205.905 80.7589 205.835 80.517C205.766 80.275 205.79 80.0157 205.904 79.791C206.017 79.5664 206.212 79.393 206.448 79.3057C206.684 79.2184 206.944 79.2237 207.177 79.3205C207.526 79.49 215.722 83.4683 221.465 75.8706C221.629 75.6733 221.863 75.5471 222.119 75.5182C222.374 75.4892 222.63 75.5599 222.835 75.7154C223.039 75.871 223.175 76.0994 223.216 76.353C223.256 76.6067 223.196 76.866 223.05 77.0771C221.879 78.7533 220.317 80.1193 218.5 81.0574C216.683 81.9954 214.666 82.4772 212.621 82.4612Z" fill="#281911"/>
<path d="M205.393 51.5515C205.393 51.5515 215.702 60.0266 229.522 53.0969C230.389 52.6582 231.266 52.1697 232.154 51.6113C231.824 52.7848 231.299 53.8939 230.598 54.8917C228.973 57.3046 225.763 60.2559 219.631 60.8741C212.452 61.582 208.583 58.3116 206.739 55.3005C206.126 54.1159 205.673 52.8552 205.393 51.5515Z" fill="#281911"/>
<path d="M276.603 47.5631C276.603 47.5631 265.784 58.0423 249.941 49.7965C249.941 49.7965 252.473 57.8229 263.122 57.9924C273.771 58.162 276.543 50.2253 276.603 47.5631Z" fill="#281911"/>
<path d="M299.077 148.047C299.626 152.295 304.831 180.372 304.831 180.372L276.195 185.238C275.706 181.818 273.303 172.725 273.303 172.725C253.561 171.309 257.001 161.647 257.001 161.647C253.521 157.29 256.393 152.375 256.393 152.375C255.101 152.006 253.841 151.536 252.624 150.969C243.85 146.781 242.603 138.755 246.642 136.471C251.258 133.909 259.284 137.139 268.936 140.769C276.962 143.76 285.886 143.76 288.379 142.853C288.659 142.772 288.93 142.662 289.186 142.524C295.298 140.022 301.091 136.806 306.446 132.942C310.504 145.445 299.077 148.047 299.077 148.047Z" fill="#57BC57"/>
<path d="M196.737 314.04C196.745 314.925 196.402 315.777 195.784 316.411C195.165 317.044 194.322 317.407 193.437 317.42L131.03 318.118C130.157 318.124 129.316 317.788 128.686 317.183C128.057 316.577 127.688 315.75 127.66 314.877C127.382 306.001 130.202 297.304 135.636 290.28C135.726 289.352 135.826 288.445 135.926 287.548C139.316 257.905 149.436 246.279 149.436 246.279C153.683 240.426 159.307 237.964 166.386 237.964C169.343 237.879 172.254 238.716 174.715 240.357C177.176 241.999 179.067 244.364 180.126 247.127C185.899 260.747 187.973 281.027 188.511 287.538C188.621 288.884 188.671 289.642 188.671 289.642C195.451 296.511 196.687 308.945 196.737 314.04Z" fill="#57BC57"/>
<path d="M196.737 314.039C196.745 314.924 196.402 315.777 195.784 316.41C195.165 317.043 194.322 317.406 193.437 317.419L131.03 318.117C130.157 318.123 129.316 317.787 128.686 317.182C128.057 316.577 127.688 315.75 127.66 314.877C127.382 306 130.202 297.303 135.636 290.279C135.726 289.352 135.826 288.444 135.926 287.547C141.568 284.621 147.668 282.676 153.963 281.794C160.27 280.828 166.694 280.933 172.967 282.103C178.416 283.129 183.681 284.96 188.591 287.537C188.7 288.883 188.75 289.641 188.75 289.641C195.451 296.511 196.687 308.944 196.737 314.039Z" fill="url(#paint8_linear_164_4987)"/>
<mask id="mask3_164_4987" style="mask-type:luminance" maskUnits="userSpaceOnUse" x="127" y="237" width="70" height="82">
<path d="M149.436 246.279C149.436 246.279 138.697 258.633 135.636 290.279C130.207 297.306 127.387 306.001 127.66 314.877C127.688 315.752 128.058 316.58 128.69 317.186C129.321 317.792 130.165 318.126 131.04 318.118L193.436 317.43C193.875 317.424 194.308 317.333 194.711 317.16C195.115 316.988 195.48 316.737 195.787 316.423C196.093 316.109 196.335 315.738 196.498 315.331C196.661 314.924 196.742 314.488 196.737 314.05C196.737 308.955 195.46 296.521 188.76 289.641C188.76 289.641 187.185 263.548 180.225 247.126C179.166 244.362 177.274 241.995 174.81 240.354C172.347 238.712 169.434 237.877 166.476 237.963C159.297 237.963 153.683 240.426 149.436 246.279Z" fill="white"/>
</mask>
<g mask="url(#mask3_164_4987)">
<path d="M148.539 323.451C146.196 316.312 146.206 306.422 151.93 300.878C148.679 308.057 149.038 315.694 148.539 323.451Z" fill="#3D7C3F"/>
<path d="M175.82 323.411C175.192 315.664 175.251 308.146 172.42 300.848C177.774 306.691 178.013 316.153 175.82 323.411Z" fill="#3D7C3F"/>
</g>
<path d="M175.172 274.377C174.533 270.169 172.37 267.886 171.094 263.299C170.096 259.52 168.631 257.147 163.366 257.147C159.049 257.147 156.676 259.52 155.629 263.299C154.353 267.886 152.189 270.169 151.551 274.377C150.913 278.584 153.316 284.946 163.366 285.185C174.025 285.444 175.8 278.574 175.172 274.377Z" fill="#08605F"/>
<path d="M152.622 265.516C153.175 263.561 152.656 261.703 151.464 261.366C150.271 261.029 148.857 262.341 148.304 264.296C147.752 266.251 148.27 268.11 149.463 268.447C150.655 268.784 152.069 267.472 152.622 265.516Z" fill="#08605F"/>
<path d="M299.077 148.047C299.626 152.295 304.831 180.372 304.831 180.372L276.195 185.238C275.706 181.818 273.303 172.725 273.303 172.725C253.561 171.309 257.001 161.647 257.001 161.647C253.521 157.29 256.393 152.375 256.393 152.375C255.101 152.006 253.841 151.536 252.624 150.969C243.85 146.781 242.603 138.755 246.642 136.471C251.258 133.909 259.284 137.139 268.936 140.769C276.962 143.76 285.886 143.76 288.379 142.853C288.659 142.772 288.93 142.662 289.186 142.524C295.298 140.022 301.091 136.806 306.446 132.942C310.504 145.445 299.077 148.047 299.077 148.047Z" fill="url(#paint9_linear_164_4987)"/>
<path d="M256.571 152.395C260.76 154.41 265.302 155.586 269.942 155.855C270.032 155.855 270.032 155.994 269.942 156.004C267.603 156.782 265.089 156.867 262.703 156.249C260.317 155.632 258.16 154.339 256.492 152.524C256.432 152.475 256.492 152.355 256.571 152.395Z" fill="#3D7C3F"/>
<path d="M257.169 161.688C260.459 164.331 264.816 165.198 268.954 165.188C269.044 165.188 269.044 165.318 268.954 165.338C264.966 167.332 259.093 165.956 257.059 161.788C257.059 161.718 257.059 161.628 257.159 161.688H257.169Z" fill="#3D7C3F"/>
<path d="M273.382 172.775C274.459 177.282 276.483 186.395 277.371 190.942C277.371 190.96 277.363 190.978 277.35 190.991C277.337 191.004 277.319 191.012 277.301 191.012C277.282 191.012 277.265 191.004 277.252 190.991C277.238 190.978 277.231 190.96 277.231 190.942C274.254 185.368 272.858 179.086 273.193 172.775C273.193 172.685 273.323 172.646 273.342 172.775H273.382Z" fill="#3D7C3F"/>
<path d="M41.7732 52.9978C41.7732 52.9978 24.125 72.3509 24.4641 110.708C24.8031 149.065 38.423 175.877 27.1761 215.929L177.883 230.885C177.883 230.885 187.724 226.807 190.097 202.03C192.47 177.252 182.29 145.346 184.673 113.779C187.056 82.2119 191.114 62.8687 194.175 55.4007C194.175 55.3808 116.444 47.5737 41.7732 52.9978Z" fill="#FFD67E"/>
<path d="M44.7541 62.1996C44.7541 62.1996 35.6708 66.2976 36.1893 72.4395C36.7078 78.5815 41.6333 82.161 39.3002 87.5252C36.967 92.8894 28.4022 98.2736 30.4861 104.156C32.5699 110.039 40.3371 106.15 40.0779 109.79C39.8187 113.429 31.3934 110.039 30.1571 123.091C28.9207 136.142 32.0415 151.228 35.1424 155.834C38.3838 161.043 39.7551 167.201 39.0309 173.293C38.2532 179.116 34.2351 197.352 33.567 201.759C32.57 208.5 32.5699 220.704 43.757 224.921C58.045 230.285 109.344 224.393 125.945 226.188C142.547 227.982 178.85 230.286 183.127 219.068C184.964 214.452 185.677 209.465 185.207 204.519C184.737 199.573 183.098 194.81 180.425 190.622C175.5 182.695 183.536 171.678 183.536 166.583C183.536 161.488 173.944 159.803 173.157 154.558C172.509 150.131 185.351 154.04 182.499 147.14C179.648 140.24 171.86 130.768 174.981 123.599C178.102 116.43 184.314 98.2736 182.499 89.3199C180.685 80.3662 179.907 76.5275 183.018 71.3727C186.129 66.2178 185.61 59.8565 180.684 61.1427C175.759 62.429 171.342 60.375 164.083 59.0888C156.825 57.8026 151.371 61.392 142.547 61.392C127.75 61.392 119.245 56.5363 107.55 56.2771C95.8539 56.0178 74.8357 52.9568 65.7524 57.5633C56.6691 62.1697 51.6239 59.4577 44.7541 62.1996Z" fill="#FFE6A6"/>
<path d="M17.1659 211.94C17.1659 211.94 14.3342 230.884 29.8885 230.884H177.893C177.893 230.884 167.374 227.993 168.132 211.94H17.1659Z" fill="#E1A241"/>
<path d="M65.7527 84.5345L67.8565 89.9884C67.8856 90.0686 67.9364 90.139 68.0034 90.1919C68.0703 90.2447 68.1506 90.2778 68.2354 90.2875L74.1579 91.165C74.2563 91.1853 74.3467 91.2339 74.418 91.3046C74.4893 91.3754 74.5385 91.4654 74.5597 91.5637C74.5808 91.6619 74.5729 91.7641 74.537 91.858C74.501 91.9518 74.4386 92.0332 74.3573 92.0922L69.5415 96.3397C69.4727 96.3985 69.4181 96.4721 69.3818 96.555C69.3456 96.6379 69.3285 96.7279 69.3321 96.8183L69.711 102.801C69.7152 102.903 69.6931 103.005 69.6468 103.096C69.6005 103.187 69.5315 103.265 69.4465 103.322C69.3614 103.379 69.2632 103.414 69.1611 103.422C69.059 103.43 68.9566 103.412 68.8635 103.369L63.7884 100.547C63.7108 100.504 63.6232 100.481 63.5341 100.481C63.4451 100.481 63.3575 100.504 63.2799 100.547L57.5867 103.369C57.5007 103.418 57.402 103.441 57.3031 103.434C57.2043 103.427 57.1097 103.391 57.0316 103.33C56.9535 103.269 56.8953 103.186 56.8645 103.092C56.8338 102.997 56.8317 102.896 56.8588 102.801L58.5438 96.8183C58.5705 96.7361 58.5743 96.6482 58.555 96.5639C58.5357 96.4796 58.494 96.4022 58.4342 96.3397L54.5456 92.0922C54.4829 92.0106 54.4432 91.9138 54.4305 91.8118C54.4177 91.7097 54.4324 91.6061 54.4731 91.5117C54.5137 91.4172 54.5788 91.3352 54.6617 91.2743C54.7445 91.2134 54.8421 91.1756 54.9444 91.165L61.0564 90.2875C61.1477 90.2748 61.2347 90.2412 61.3108 90.1893C61.3869 90.1374 61.45 90.0687 61.4952 89.9884L64.7855 84.5345C64.8298 84.444 64.8986 84.3677 64.984 84.3144C65.0695 84.2611 65.1683 84.2328 65.269 84.2328C65.3698 84.2328 65.4685 84.2611 65.554 84.3144C65.6395 84.3677 65.7084 84.444 65.7527 84.5345Z" fill="#8F3D00"/>
<path d="M88.505 84.5341L90.5989 89.9881C90.629 90.0676 90.6801 90.1375 90.7468 90.1902C90.8136 90.2429 90.8934 90.2764 90.9778 90.2872L96.9004 91.1646C96.9988 91.185 97.0891 91.2335 97.1604 91.3043C97.2317 91.3751 97.281 91.4651 97.3021 91.5633C97.3232 91.6615 97.3153 91.7638 97.2794 91.8576C97.2435 91.9515 97.1811 92.0329 97.0997 92.0919L92.2839 96.3394C92.2151 96.3981 92.1605 96.4717 92.1243 96.5546C92.088 96.6375 92.071 96.7276 92.0745 96.818L92.4534 102.8C92.4577 102.903 92.4355 103.004 92.3892 103.096C92.3429 103.187 92.2739 103.265 92.1889 103.322C92.1038 103.379 92.0056 103.413 91.9035 103.421C91.8015 103.43 91.699 103.411 91.6059 103.369L86.5308 100.547C86.4532 100.503 86.3656 100.48 86.2766 100.48C86.1875 100.48 86.0999 100.503 86.0223 100.547L80.339 103.369C80.2537 103.424 80.1534 103.451 80.0519 103.447C79.9504 103.442 79.8528 103.406 79.7727 103.344C79.6926 103.281 79.634 103.195 79.6051 103.098C79.5761 103.001 79.5783 102.897 79.6112 102.8L81.2862 96.818C81.3112 96.7363 81.3151 96.6496 81.2977 96.5659C81.2803 96.4823 81.2421 96.4044 81.1866 96.3394L77.288 92.0919C77.2254 92.0103 77.1857 91.9135 77.1729 91.8114C77.1602 91.7094 77.1749 91.6058 77.2155 91.5113C77.2561 91.4168 77.3213 91.3349 77.4041 91.2739C77.4869 91.213 77.5846 91.1753 77.6868 91.1646L83.7989 90.2872C83.891 90.2731 83.9788 90.239 84.0564 90.1874C84.1339 90.1357 84.1992 90.0677 84.2476 89.9881L87.5279 84.5341C87.5738 84.444 87.6438 84.3684 87.73 84.3156C87.8162 84.2627 87.9153 84.2348 88.0165 84.2348C88.1176 84.2348 88.2168 84.2627 88.303 84.3156C88.3892 84.3684 88.4591 84.444 88.505 84.5341Z" fill="#8F3D00"/>
<path d="M111.249 84.5348L113.353 89.9888C113.381 90.0676 113.43 90.1371 113.495 90.1898C113.56 90.2426 113.639 90.2765 113.722 90.2879L119.704 91.1653C119.802 91.1857 119.893 91.2343 119.964 91.305C120.035 91.3758 120.085 91.4658 120.106 91.564C120.127 91.6623 120.119 91.7645 120.083 91.8584C120.047 91.9522 119.985 92.0336 119.903 92.0926L115.078 96.3401C115.009 96.3989 114.954 96.4725 114.918 96.5554C114.882 96.6383 114.865 96.7283 114.868 96.8187L115.247 102.801C115.251 102.903 115.229 103.005 115.183 103.096C115.137 103.188 115.068 103.266 114.983 103.323C114.897 103.38 114.799 103.414 114.697 103.422C114.595 103.43 114.493 103.412 114.4 103.369L109.314 100.548C109.239 100.504 109.153 100.481 109.065 100.481C108.978 100.481 108.892 100.504 108.816 100.548L103.113 103.379C103.027 103.429 102.928 103.451 102.829 103.444C102.73 103.437 102.636 103.401 102.558 103.34C102.48 103.279 102.421 103.196 102.391 103.102C102.36 103.008 102.358 102.906 102.385 102.811L104.06 96.8287C104.085 96.747 104.089 96.6603 104.071 96.5766C104.054 96.493 104.016 96.4151 103.96 96.3501L100.062 92.1026C99.9988 92.0203 99.9592 91.9227 99.9469 91.8199C99.9347 91.7171 99.9502 91.6128 99.992 91.5181C100.034 91.4234 100.1 91.3416 100.184 91.2813C100.269 91.221 100.367 91.1844 100.47 91.1753L106.583 90.2979C106.673 90.2838 106.76 90.2496 106.836 90.1978C106.912 90.1461 106.975 90.0781 107.021 89.9988L110.302 84.5448C110.349 84.4615 110.417 84.3921 110.5 84.3436C110.583 84.295 110.677 84.2689 110.772 84.2679C110.868 84.2669 110.963 84.291 111.046 84.3378C111.13 84.3847 111.2 84.4526 111.249 84.5348Z" fill="#8F3D00"/>
<path d="M134.022 84.5348L136.126 89.9887C136.155 90.0689 136.206 90.1394 136.273 90.1922C136.339 90.245 136.42 90.2782 136.504 90.2879L142.427 91.1653C142.525 91.1857 142.616 91.2342 142.687 91.305C142.758 91.3758 142.808 91.4657 142.829 91.564C142.85 91.6622 142.842 91.7645 142.806 91.8583C142.77 91.9522 142.708 92.0335 142.627 92.0926L137.811 96.3401C137.742 96.3988 137.687 96.4724 137.651 96.5553C137.615 96.6382 137.598 96.7283 137.601 96.8187L137.98 102.801C137.984 102.903 137.962 103.005 137.916 103.096C137.87 103.188 137.801 103.266 137.716 103.323C137.631 103.38 137.532 103.414 137.43 103.422C137.328 103.43 137.226 103.412 137.133 103.369L132.028 100.558C131.95 100.514 131.862 100.491 131.773 100.491C131.684 100.491 131.597 100.514 131.519 100.558L125.826 103.379C125.741 103.431 125.642 103.455 125.542 103.449C125.443 103.443 125.348 103.406 125.27 103.345C125.191 103.283 125.134 103.198 125.105 103.103C125.076 103.008 125.077 102.906 125.108 102.811L126.783 96.8286C126.81 96.7464 126.814 96.6585 126.794 96.5742C126.775 96.4899 126.733 96.4125 126.673 96.3501L122.785 92.1025C122.722 92.0209 122.682 91.9241 122.67 91.8221C122.657 91.72 122.672 91.6164 122.712 91.5219C122.753 91.4275 122.818 91.3455 122.901 91.2846C122.984 91.2237 123.081 91.1859 123.184 91.1753L129.296 90.2978C129.387 90.2851 129.474 90.2515 129.55 90.1996C129.626 90.1477 129.689 90.079 129.734 89.9987L133.025 84.5348C133.065 84.4357 133.134 84.351 133.223 84.2913C133.312 84.2316 133.416 84.1997 133.523 84.1997C133.63 84.1997 133.735 84.2316 133.824 84.2913C133.912 84.351 133.981 84.4357 134.022 84.5348Z" fill="#8F3D00"/>
<path d="M156.745 84.5341L158.839 89.9881C158.871 90.0665 158.923 90.1353 158.989 90.1877C159.055 90.2401 159.134 90.2744 159.218 90.2872L165.141 91.1646C165.239 91.185 165.329 91.2335 165.401 91.3043C165.472 91.3751 165.521 91.4651 165.542 91.5633C165.563 91.6615 165.556 91.7638 165.52 91.8576C165.484 91.9515 165.421 92.0329 165.34 92.0919L160.524 96.3394C160.455 96.3971 160.4 96.4708 160.366 96.5541C160.331 96.6375 160.317 96.728 160.325 96.818L160.704 102.8C160.709 102.904 160.687 103.007 160.64 103.1C160.593 103.192 160.523 103.271 160.437 103.329C160.35 103.386 160.25 103.42 160.147 103.427C160.043 103.434 159.94 103.414 159.846 103.369L154.771 100.547C154.693 100.503 154.606 100.48 154.517 100.48C154.428 100.48 154.34 100.503 154.263 100.547L148.579 103.369C148.494 103.424 148.394 103.451 148.292 103.447C148.191 103.442 148.093 103.406 148.013 103.344C147.933 103.281 147.874 103.195 147.845 103.098C147.816 103.001 147.818 102.897 147.851 102.8L149.526 96.818C149.551 96.7363 149.555 96.6496 149.538 96.5659C149.52 96.4823 149.482 96.4044 149.427 96.3394L145.528 92.0919C145.466 92.0103 145.426 91.9135 145.413 91.8114C145.4 91.7094 145.415 91.6058 145.456 91.5113C145.496 91.4168 145.561 91.3349 145.644 91.2739C145.727 91.213 145.825 91.1753 145.927 91.1646L152.039 90.2872C152.132 90.2745 152.22 90.2409 152.298 90.1891C152.375 90.1373 152.44 90.0686 152.488 89.9881L155.768 84.5341C155.814 84.444 155.884 84.3684 155.97 84.3156C156.056 84.2627 156.156 84.2348 156.257 84.2348C156.358 84.2348 156.457 84.2627 156.543 84.3156C156.629 84.3684 156.699 84.444 156.745 84.5341Z" fill="#8F3D00"/>
<path d="M61.4049 167.062C61.1929 167.074 60.9809 167.038 60.7855 166.955C60.59 166.872 60.4164 166.745 60.2782 166.583C60.1484 166.423 60.0523 166.237 59.9958 166.039C59.9393 165.84 59.9234 165.632 59.9492 165.427L63.2296 130.4L52.3216 138.316C51.9616 138.568 51.5214 138.678 51.0853 138.625C50.8782 138.582 50.6825 138.496 50.5107 138.372C50.339 138.248 50.1951 138.09 50.0882 137.908L47.6155 134.258C47.3894 133.87 47.3249 133.408 47.436 132.972C47.4919 132.747 47.5921 132.534 47.7308 132.348C47.8694 132.161 48.0437 132.004 48.2436 131.885L64.3164 120.18C64.5606 119.977 64.8522 119.84 65.1639 119.781C65.4536 119.731 65.7473 119.708 66.0413 119.711H71.924C72.1308 119.705 72.3363 119.745 72.5259 119.828C72.7154 119.911 72.8845 120.034 73.0208 120.19C73.1582 120.345 73.2613 120.527 73.3231 120.725C73.385 120.922 73.4043 121.131 73.3797 121.336L69.212 165.437C69.174 165.879 68.9668 166.29 68.6337 166.583C68.3195 166.891 67.8969 167.063 67.4571 167.062H61.4049Z" fill="#8F3D00"/>
<path d="M95.7246 167.75C92.9955 167.835 90.2788 167.35 87.7481 166.325C85.7335 165.472 83.9696 164.12 82.6231 162.396C81.3326 160.677 80.425 158.702 79.961 156.603C79.4425 154.315 79.2346 151.967 79.3427 149.624C79.4125 148.407 79.5023 147.061 79.6219 145.635C79.7416 144.21 79.8712 142.694 80.0407 141.198C80.2102 139.703 80.3598 138.337 80.5193 137.071C80.8277 134.664 81.4791 132.313 82.4536 130.091C83.3707 127.961 84.6758 126.021 86.3023 124.368C87.9759 122.697 89.9747 121.387 92.1751 120.519C94.7557 119.523 97.5056 119.039 100.271 119.093C102.974 119.016 105.663 119.502 108.168 120.519C110.174 121.368 111.943 122.692 113.323 124.378C114.647 126.061 115.583 128.015 116.065 130.101C116.597 132.387 116.792 134.738 116.643 137.081C116.643 138.337 116.533 139.713 116.394 141.208C116.254 142.704 116.115 144.2 115.975 145.635C115.835 147.071 115.666 148.447 115.467 149.624C115.156 152.022 114.529 154.369 113.602 156.603C112.716 158.744 111.446 160.704 109.853 162.386C108.196 164.104 106.185 165.441 103.96 166.305C101.333 167.31 98.5372 167.801 95.7246 167.75ZM96.4525 159.963C97.7098 160.039 98.9674 159.818 100.124 159.319C101.281 158.821 102.304 158.058 103.113 157.092C104.786 154.81 105.772 152.098 105.954 149.275C106.164 147.969 106.333 146.642 106.453 145.286C106.573 143.93 106.702 142.614 106.832 141.298C106.962 139.982 107.031 138.656 107.061 137.44C107.42 134.776 106.935 132.066 105.675 129.692C104.499 127.698 102.461 126.701 99.5633 126.701C98.3058 126.637 97.0512 126.876 95.9046 127.396C94.758 127.916 93.7527 128.704 92.9727 129.692C91.3104 131.958 90.3063 134.639 90.0712 137.44C89.9615 138.666 89.822 139.952 89.6724 141.298C89.5228 142.644 89.4032 144 89.3035 145.286C89.2038 146.573 89.0841 147.939 88.9645 149.275C88.7451 152.598 89.237 155.204 90.4401 157.092C91.6432 158.98 93.6474 159.937 96.4525 159.963Z" fill="#8F3D00"/>
<path d="M120.641 167.013C120.587 167.016 120.534 167.005 120.485 166.983C120.436 166.96 120.394 166.926 120.361 166.883C120.326 166.845 120.299 166.799 120.284 166.749C120.268 166.699 120.264 166.646 120.272 166.594C120.258 166.528 120.258 166.46 120.272 166.395L128.517 150.102C128.571 149.984 128.649 149.879 128.747 149.793C128.875 149.686 129.039 149.633 129.205 149.644H130.731C130.785 149.641 130.838 149.651 130.887 149.674C130.935 149.697 130.978 149.731 131.01 149.773C131.044 149.813 131.069 149.859 131.084 149.909C131.1 149.959 131.105 150.011 131.1 150.063C131.095 150.133 131.074 150.201 131.04 150.262L122.784 166.554C122.722 166.664 122.645 166.765 122.555 166.853C122.49 166.91 122.414 166.954 122.332 166.982C122.25 167.009 122.163 167.02 122.076 167.013H120.641Z" fill="#8F3D00"/>
<path d="M141.06 167.51C140.984 167.513 140.908 167.5 140.837 167.47C140.767 167.441 140.703 167.397 140.652 167.341C140.595 167.282 140.552 167.211 140.526 167.133C140.5 167.056 140.492 166.973 140.502 166.892L141.669 154.498L137.86 157.26C137.796 157.315 137.721 157.354 137.64 157.377C137.559 157.399 137.474 157.404 137.391 157.39C137.234 157.348 137.099 157.248 137.012 157.111L135.925 155.486C135.846 155.343 135.825 155.175 135.866 155.017C135.906 154.851 136.01 154.708 136.155 154.618L142.187 150.231C142.28 150.172 142.381 150.125 142.486 150.091C142.589 150.08 142.693 150.08 142.795 150.091H145.408C145.484 150.09 145.559 150.104 145.63 150.133C145.7 150.162 145.764 150.206 145.816 150.261C145.868 150.323 145.906 150.394 145.929 150.472C145.951 150.549 145.957 150.63 145.946 150.71L144.421 166.922C144.41 167.092 144.335 167.253 144.211 167.371C144.153 167.427 144.084 167.47 144.009 167.499C143.934 167.529 143.853 167.542 143.772 167.54L141.06 167.51Z" fill="#8F3D00"/>
<path d="M154.252 167.77C153.231 167.795 152.215 167.618 151.261 167.252C150.487 166.958 149.8 166.47 149.267 165.836C148.776 165.214 148.435 164.487 148.27 163.712C148.067 162.868 147.986 161.998 148.031 161.13C148.031 160.681 148.091 160.183 148.13 159.624C148.17 159.066 148.23 158.508 148.29 157.939C148.35 157.371 148.41 156.863 148.479 156.394C148.581 155.504 148.824 154.636 149.197 153.821C149.548 153.036 150.045 152.326 150.663 151.728C151.303 151.11 152.063 150.632 152.896 150.322C153.873 149.966 154.908 149.793 155.947 149.813C156.949 149.787 157.945 149.96 158.879 150.322C159.646 150.63 160.329 151.115 160.873 151.738C161.379 152.348 161.744 153.063 161.94 153.831C162.163 154.666 162.254 155.531 162.209 156.394C162.209 156.863 162.139 157.391 162.099 157.949C162.059 158.508 162 159.076 161.94 159.624C161.88 160.173 161.82 160.691 161.76 161.14C161.634 162.026 161.389 162.892 161.032 163.712C160.686 164.504 160.196 165.224 159.587 165.836C158.954 166.465 158.192 166.948 157.353 167.252C156.363 167.622 155.31 167.798 154.252 167.77ZM154.552 164.53C154.969 164.55 155.384 164.469 155.764 164.296C156.144 164.123 156.477 163.861 156.735 163.533C157.303 162.786 157.648 161.895 157.732 160.96C157.792 160.482 157.852 159.983 157.912 159.465C157.971 158.946 158.011 158.468 158.051 157.919C158.091 157.371 158.131 156.922 158.151 156.474C158.254 155.604 158.087 154.723 157.672 153.951C157.461 153.62 157.164 153.353 156.813 153.177C156.462 153.002 156.07 152.925 155.678 152.954C155.258 152.935 154.84 153.016 154.457 153.189C154.074 153.362 153.738 153.623 153.475 153.951C152.941 154.693 152.618 155.564 152.537 156.474C152.478 156.922 152.418 157.401 152.358 157.919C152.298 158.438 152.258 158.917 152.218 159.465C152.178 160.013 152.139 160.462 152.119 160.96C152.013 161.846 152.176 162.742 152.587 163.533C152.796 163.859 153.088 164.123 153.434 164.299C153.779 164.474 154.165 164.554 154.552 164.53Z" fill="#8F3D00"/>
<path d="M58.1253 196.865C57.1486 196.898 56.1762 196.721 55.2736 196.347C54.6241 196.078 54.0737 195.615 53.6983 195.02C53.3898 194.49 53.2604 193.875 53.3294 193.266C53.3515 193.166 53.4036 193.075 53.4789 193.006C53.5562 192.931 53.6598 192.888 53.7681 192.887H55.7622C55.887 192.874 56.0119 192.91 56.1112 192.986C56.1934 193.056 56.2611 193.14 56.3106 193.236C56.3748 193.455 56.4834 193.659 56.6296 193.834C56.822 194.05 57.0654 194.215 57.3376 194.313C57.716 194.457 58.1193 194.525 58.5241 194.512C59.1593 194.547 59.7924 194.413 60.3587 194.123C60.553 194.026 60.7224 193.886 60.8538 193.713C60.9852 193.54 61.0751 193.339 61.1165 193.126C61.1458 192.991 61.1431 192.852 61.1085 192.718C61.0738 192.585 61.0082 192.462 60.917 192.358C60.6476 192.12 60.3319 191.94 59.9898 191.83C59.4212 191.629 58.842 191.459 58.2549 191.321C57.4874 191.165 56.7434 190.911 56.0413 190.564C55.5042 190.306 55.0639 189.883 54.7851 189.357C54.5269 188.782 54.4571 188.14 54.5857 187.523C54.6922 186.802 55.0036 186.127 55.483 185.578C56.0018 184.994 56.6508 184.54 57.3774 184.252C58.231 183.916 59.1422 183.75 60.0596 183.764C60.7781 183.747 61.4938 183.859 62.1733 184.093C62.7046 184.279 63.1929 184.571 63.6091 184.95C63.949 185.269 64.2174 185.657 64.3968 186.087C64.5489 186.456 64.6072 186.856 64.5663 187.253C64.5442 187.353 64.492 187.444 64.4168 187.513C64.3395 187.588 64.2358 187.631 64.1276 187.632H62.0836C61.9729 187.637 61.8629 187.613 61.7646 187.562C61.7156 187.535 61.6727 187.498 61.6385 187.453C61.6042 187.409 61.5793 187.358 61.5652 187.303C61.543 187.136 61.4852 186.976 61.3958 186.833C61.3063 186.69 61.1873 186.568 61.0467 186.476C60.648 186.215 60.1762 186.089 59.7006 186.117C59.1917 186.097 58.6864 186.21 58.2349 186.446C58.0535 186.548 57.8986 186.692 57.7826 186.865C57.6666 187.038 57.5928 187.236 57.5669 187.443C57.5184 187.699 57.5721 187.964 57.7164 188.181C57.9347 188.429 58.2178 188.612 58.534 188.709C58.9229 188.859 59.4613 189.028 60.1194 189.208C60.9783 189.372 61.8149 189.636 62.6121 189.995C63.1611 190.235 63.6163 190.649 63.9082 191.172C64.1622 191.741 64.2319 192.376 64.1077 192.986C64.0017 193.774 63.6533 194.51 63.1106 195.09C62.5323 195.695 61.8178 196.153 61.0267 196.426C60.0936 196.745 59.1109 196.894 58.1253 196.865Z" fill="#8F3D00"/>
<path d="M68.0155 196.864C67.4345 196.878 66.859 196.748 66.3405 196.485C65.895 196.264 65.5241 195.918 65.2736 195.488C65.0335 195.054 64.949 194.551 65.0343 194.062C65.0996 193.65 65.255 193.258 65.4895 192.914C65.7239 192.569 66.0314 192.28 66.3903 192.068C67.2843 191.536 68.2792 191.197 69.3117 191.071L71.7545 190.722L71.8044 190.393C71.8926 190.02 71.8356 189.628 71.6449 189.296C71.5055 189.15 71.3332 189.04 71.1425 188.974C70.9517 188.908 70.7479 188.888 70.5481 188.917C70.2015 188.906 69.8578 188.985 69.5511 189.147C69.2862 189.303 69.061 189.517 68.893 189.775C68.8404 189.847 68.7713 189.905 68.6915 189.945C68.6117 189.985 68.5235 190.005 68.4343 190.004H66.6994C66.6461 190.008 66.5927 190 66.5428 189.981C66.4929 189.962 66.4477 189.933 66.4103 189.894C66.3802 189.853 66.3599 189.806 66.3513 189.756C66.3426 189.706 66.3458 189.654 66.3604 189.605C66.419 189.339 66.5384 189.09 66.7094 188.877C66.9499 188.558 67.2393 188.279 67.5668 188.05C67.9807 187.746 68.4423 187.513 68.9328 187.362C70.1904 187.001 71.524 187.001 72.7816 187.362C73.2405 187.503 73.6513 187.769 73.9681 188.13C74.2509 188.453 74.4435 188.845 74.5264 189.266C74.6117 189.728 74.6117 190.201 74.5264 190.662L73.659 196.306C73.6394 196.431 73.5799 196.546 73.4894 196.635C73.3904 196.714 73.2671 196.756 73.1405 196.754H71.3458C71.2918 196.756 71.2381 196.746 71.1883 196.726C71.1384 196.705 71.0935 196.674 71.0566 196.635C71.0206 196.589 70.9948 196.536 70.9811 196.479C70.9673 196.422 70.9659 196.363 70.9769 196.306L71.0865 195.628C70.8709 195.876 70.6227 196.094 70.3487 196.276C70.0402 196.481 69.7046 196.642 69.3516 196.754C68.9151 196.862 68.4639 196.9 68.0155 196.864ZM69.0126 194.96C69.3992 194.965 69.7816 194.879 70.1293 194.71C70.481 194.526 70.7797 194.255 70.9968 193.923C71.2497 193.52 71.4129 193.068 71.4754 192.596V192.277L69.7405 192.557C69.2082 192.619 68.6932 192.785 68.2249 193.045C68.0755 193.129 67.9463 193.245 67.8464 193.385C67.7465 193.524 67.6783 193.684 67.6466 193.853C67.6068 194.06 67.6497 194.275 67.7663 194.451C67.8859 194.631 68.0608 194.768 68.2648 194.84C68.5104 194.93 68.7713 194.97 69.0326 194.96H69.0126Z" fill="#8F3D00"/>
<path d="M80.3199 196.675C79.6749 196.701 79.0328 196.574 78.4454 196.306C78.2114 196.189 78.0029 196.026 77.8318 195.827C77.6607 195.629 77.5304 195.399 77.4484 195.15C77.2433 194.505 77.2056 193.819 77.3387 193.156L77.917 189.327H76.4912C76.4345 189.331 76.3777 189.322 76.3256 189.299C76.2735 189.277 76.2276 189.242 76.1921 189.197C76.1527 189.153 76.1249 189.1 76.1109 189.043C76.097 188.985 76.0975 188.925 76.1123 188.868L76.3017 187.632C76.3085 187.568 76.3279 187.506 76.3587 187.449C76.3895 187.393 76.4311 187.343 76.4812 187.303C76.5277 187.259 76.5826 187.225 76.6426 187.203C76.7025 187.18 76.7663 187.17 76.8302 187.173H78.1862L78.6449 184.182C78.6632 184.052 78.7311 183.934 78.8343 183.853C78.9293 183.773 79.0488 183.727 79.1733 183.723H80.9581C81.016 183.721 81.0738 183.731 81.1273 183.753C81.1807 183.776 81.2286 183.81 81.2672 183.853C81.3032 183.899 81.3289 183.952 81.3427 184.009C81.3564 184.066 81.3579 184.125 81.3469 184.182L80.8883 187.173H83.1715C83.2265 187.171 83.2814 187.181 83.3317 187.203C83.3819 187.226 83.4261 187.26 83.4607 187.303C83.4973 187.349 83.5234 187.402 83.5372 187.459C83.551 187.515 83.5521 187.575 83.5405 187.632L83.351 188.868C83.3442 188.932 83.3249 188.994 83.2941 189.051C83.2633 189.107 83.2216 189.157 83.1715 189.197C83.0824 189.281 82.9647 189.327 82.8425 189.327H80.5792L80.0308 192.936C79.9485 193.298 79.9763 193.677 80.1105 194.023C80.1907 194.161 80.3105 194.272 80.4546 194.342C80.5986 194.411 80.7601 194.436 80.9182 194.412H82.2443C82.299 194.411 82.3531 194.423 82.403 194.445C82.453 194.467 82.4974 194.5 82.5334 194.542C82.5703 194.583 82.5968 194.633 82.6107 194.686C82.6246 194.74 82.6254 194.797 82.6132 194.851L82.4138 196.207C82.3953 196.334 82.3316 196.451 82.2343 196.536C82.1418 196.613 82.0255 196.655 81.9052 196.655L80.3199 196.675Z" fill="#8F3D00"/>
<path d="M84.3677 196.675C84.3136 196.678 84.2597 196.668 84.2097 196.647C84.1598 196.627 84.115 196.595 84.0785 196.555C84.0424 196.509 84.0167 196.456 84.003 196.4C83.9892 196.343 83.9878 196.284 83.9988 196.226L85.3049 187.652C85.3117 187.588 85.331 187.526 85.3618 187.469C85.3926 187.413 85.4343 187.363 85.4844 187.323C85.5735 187.239 85.6912 187.193 85.8134 187.193H87.638C87.6962 187.188 87.7548 187.197 87.8087 187.219C87.8625 187.242 87.91 187.277 87.9471 187.323C87.9837 187.368 88.0099 187.421 88.0237 187.478C88.0374 187.535 88.0385 187.594 88.0269 187.652L86.7207 196.226C86.7022 196.354 86.6386 196.471 86.5413 196.555C86.4422 196.634 86.319 196.677 86.1923 196.675H84.3677ZM85.9829 185.707C85.9282 185.708 85.874 185.697 85.8241 185.674C85.7742 185.652 85.7298 185.619 85.6938 185.578C85.6578 185.532 85.632 185.479 85.6182 185.422C85.6044 185.365 85.603 185.306 85.614 185.249L85.8333 183.783C85.8518 183.655 85.9155 183.539 86.0128 183.454C86.1034 183.365 86.225 183.315 86.3518 183.314H88.2662C88.325 183.313 88.3832 183.326 88.4368 183.35C88.4904 183.374 88.5379 183.41 88.5761 183.455C88.6142 183.499 88.6419 183.552 88.6573 183.609C88.6727 183.666 88.6753 183.725 88.665 183.783L88.4456 185.249C88.4229 185.377 88.3558 185.494 88.2562 185.578C88.1536 185.658 88.0277 185.704 87.8973 185.707H85.9829Z" fill="#8F3D00"/>
<path d="M92.6446 196.864C91.9992 196.881 91.3556 196.79 90.7402 196.595C90.2956 196.462 89.8819 196.242 89.5237 195.947C89.2575 195.739 89.0426 195.473 88.8956 195.169C88.7833 194.968 88.7249 194.742 88.7261 194.511C88.7291 194.446 88.7469 194.383 88.7779 194.326C88.809 194.269 88.8527 194.22 88.9056 194.182C88.9936 194.103 89.1064 194.057 89.2246 194.053H90.9895H91.0991C91.1385 194.071 91.1701 194.103 91.1888 194.142C91.3284 194.252 91.478 194.372 91.6275 194.511C91.7875 194.658 91.9692 194.779 92.166 194.87C92.4281 194.978 92.7102 195.029 92.9935 195.02C93.3608 195.024 93.7236 194.938 94.0504 194.77C94.1892 194.707 94.31 194.61 94.4022 194.488C94.4944 194.366 94.5551 194.223 94.5789 194.072C94.5988 193.978 94.5993 193.881 94.5805 193.787C94.5616 193.693 94.5238 193.603 94.4692 193.524C94.2899 193.332 94.0628 193.191 93.8111 193.115C93.3169 192.955 92.8143 192.822 92.3055 192.716C91.7483 192.603 91.2109 192.408 90.7102 192.138C90.3238 191.928 90.0107 191.604 89.8129 191.211C89.6358 190.789 89.5873 190.324 89.6733 189.875C89.7567 189.366 89.9852 188.891 90.3314 188.509C90.7351 188.036 91.2438 187.664 91.817 187.422C92.5282 187.118 93.2971 186.971 94.0704 186.993C94.6544 186.981 95.2366 187.062 95.7953 187.233C96.2199 187.374 96.6177 187.587 96.9719 187.861C97.2373 188.067 97.4578 188.324 97.6199 188.619C97.7442 188.826 97.8065 189.065 97.7994 189.307C97.7977 189.366 97.7835 189.424 97.7578 189.477C97.732 189.53 97.6952 189.578 97.6499 189.616C97.5638 189.698 97.4498 189.744 97.3308 189.745H95.7156C95.6631 189.758 95.6085 189.758 95.556 189.745C95.5091 189.731 95.4675 189.703 95.4363 189.665C95.3067 189.566 95.1771 189.456 95.0376 189.326C94.8956 189.19 94.7343 189.076 94.5589 188.987C94.309 188.886 94.0407 188.839 93.7713 188.848C93.4196 188.824 93.0696 188.915 92.7742 189.107C92.6626 189.184 92.568 189.283 92.496 189.398C92.424 189.513 92.3762 189.641 92.3554 189.775C92.3251 189.94 92.357 190.111 92.4451 190.254C92.6029 190.445 92.8149 190.584 93.0533 190.653C93.5415 190.817 94.0415 190.943 94.5489 191.031C95.21 191.129 95.8463 191.353 96.4234 191.69C96.7994 191.916 97.0966 192.253 97.2749 192.654C97.4533 193.056 97.5041 193.502 97.4205 193.933C97.3373 194.505 97.0797 195.038 96.6827 195.458C96.2205 195.916 95.6568 196.257 95.0376 196.456C94.2687 196.726 93.4596 196.864 92.6446 196.864Z" fill="#8F3D00"/>
<path d="M100.271 196.675C100.213 196.683 100.154 196.676 100.1 196.655C100.045 196.634 99.9971 196.599 99.9593 196.554C99.9216 196.51 99.8957 196.456 99.8841 196.399C99.8724 196.342 99.8753 196.282 99.8925 196.227L100.939 189.347H99.5136C99.4555 189.351 99.3971 189.342 99.3434 189.319C99.2897 189.297 99.2421 189.262 99.2045 189.217C99.1679 189.172 99.1417 189.118 99.1279 189.062C99.1141 189.005 99.113 188.946 99.1247 188.888L99.3141 187.652C99.3209 187.588 99.3402 187.526 99.371 187.469C99.4018 187.413 99.4435 187.363 99.4936 187.323C99.5894 187.237 99.714 187.191 99.8426 187.193H101.268L101.368 186.535C101.451 185.847 101.701 185.19 102.096 184.621C102.461 184.122 102.963 183.741 103.542 183.524C104.219 183.282 104.936 183.167 105.655 183.185H106.992C107.049 183.18 107.107 183.189 107.16 183.211C107.213 183.233 107.26 183.267 107.298 183.311C107.335 183.355 107.361 183.407 107.373 183.463C107.386 183.52 107.385 183.578 107.37 183.634L107.181 184.88C107.163 185.008 107.099 185.124 107.002 185.209C106.907 185.29 106.786 185.332 106.663 185.329H105.436C105.256 185.312 105.075 185.332 104.903 185.389C104.731 185.445 104.573 185.537 104.439 185.658C104.201 185.94 104.055 186.288 104.02 186.655L103.941 187.223H106.184C106.242 187.22 106.3 187.23 106.353 187.253C106.407 187.275 106.454 187.309 106.493 187.353C106.531 187.398 106.557 187.451 106.569 187.509C106.581 187.566 106.579 187.625 106.563 187.682L106.383 188.918C106.365 189.046 106.301 189.162 106.204 189.247C106.108 189.333 105.983 189.379 105.855 189.377H103.612L102.614 196.257C102.591 196.383 102.528 196.498 102.435 196.586C102.342 196.662 102.226 196.705 102.106 196.705L100.271 196.675Z" fill="#8F3D00"/>
<path d="M109.204 196.864C108.623 196.878 108.048 196.748 107.529 196.486C107.084 196.265 106.713 195.918 106.463 195.488C106.222 195.054 106.138 194.551 106.223 194.063C106.289 193.651 106.444 193.259 106.678 192.914C106.913 192.569 107.22 192.281 107.579 192.069C108.473 191.537 109.468 191.197 110.501 191.071L112.944 190.722V190.393C113.032 190.021 112.975 189.629 112.784 189.297C112.645 189.151 112.472 189.04 112.282 188.974C112.091 188.908 111.887 188.889 111.687 188.918C111.341 188.906 110.997 188.985 110.69 189.147C110.425 189.303 110.2 189.518 110.032 189.775C109.98 189.847 109.91 189.906 109.831 189.946C109.751 189.986 109.663 190.006 109.573 190.005H107.839C107.785 190.008 107.732 190 107.682 189.982C107.632 189.963 107.587 189.933 107.549 189.895C107.527 189.85 107.516 189.8 107.516 189.75C107.516 189.7 107.527 189.651 107.549 189.606C107.608 189.339 107.727 189.09 107.898 188.878C108.139 188.559 108.428 188.279 108.756 188.05C109.167 187.749 109.625 187.516 110.112 187.362C110.735 187.171 111.385 187.08 112.036 187.093C112.691 187.077 113.345 187.168 113.971 187.362C114.429 187.503 114.84 187.769 115.157 188.13C115.436 188.456 115.628 188.847 115.715 189.267C115.796 189.729 115.796 190.201 115.715 190.663L114.878 196.206C114.858 196.331 114.799 196.447 114.708 196.535C114.609 196.614 114.486 196.657 114.359 196.655H112.565C112.511 196.658 112.457 196.648 112.407 196.627C112.357 196.607 112.312 196.575 112.275 196.535C112.239 196.489 112.214 196.436 112.2 196.38C112.186 196.323 112.185 196.264 112.196 196.206L112.305 195.528C112.09 195.777 111.842 195.995 111.568 196.176C111.259 196.382 110.923 196.543 110.57 196.655C110.13 196.8 109.668 196.871 109.204 196.864ZM110.202 194.96C110.588 194.964 110.97 194.879 111.318 194.711C111.67 194.527 111.969 194.255 112.186 193.923C112.439 193.521 112.602 193.068 112.664 192.597V192.278L110.929 192.557C110.397 192.619 109.882 192.785 109.414 193.046C109.264 193.13 109.135 193.246 109.035 193.385C108.935 193.525 108.867 193.685 108.836 193.853C108.814 193.956 108.813 194.062 108.833 194.165C108.854 194.268 108.895 194.365 108.955 194.452C109.075 194.632 109.25 194.768 109.454 194.84C109.699 194.93 109.96 194.971 110.222 194.96H110.202Z" fill="#8F3D00"/>
<path d="M121.209 196.865C120.422 196.886 119.642 196.715 118.936 196.367C118.328 196.061 117.843 195.559 117.56 194.941C117.254 194.232 117.15 193.452 117.261 192.687C117.261 192.488 117.26 192.239 117.36 191.95C117.46 191.66 117.45 191.401 117.49 191.212C117.639 190.386 117.981 189.607 118.487 188.938C118.961 188.315 119.585 187.821 120.302 187.503C121.065 187.168 121.891 187.001 122.724 187.014C123.405 186.996 124.082 187.111 124.719 187.353C125.223 187.538 125.677 187.838 126.045 188.23C126.336 188.534 126.558 188.898 126.693 189.297C126.807 189.617 126.851 189.957 126.822 190.294C126.817 190.356 126.8 190.416 126.77 190.471C126.741 190.526 126.701 190.575 126.653 190.613C126.56 190.698 126.439 190.744 126.314 190.743H124.32C124.27 190.749 124.22 190.744 124.173 190.726C124.126 190.709 124.084 190.681 124.051 190.643C123.981 190.562 123.93 190.467 123.901 190.364C123.834 190.01 123.652 189.687 123.383 189.447C123.091 189.246 122.739 189.151 122.385 189.178C122.133 189.171 121.881 189.214 121.645 189.305C121.409 189.396 121.193 189.532 121.009 189.706C120.584 190.158 120.314 190.735 120.242 191.351C120.162 191.82 120.092 192.259 120.042 192.647C119.936 193.207 120.032 193.786 120.312 194.283C120.457 194.458 120.643 194.595 120.853 194.684C121.063 194.772 121.291 194.809 121.518 194.791C121.892 194.803 122.262 194.71 122.585 194.522C122.917 194.29 123.185 193.978 123.363 193.615C123.417 193.503 123.496 193.404 123.592 193.325C123.679 193.255 123.789 193.219 123.901 193.226H125.895C125.952 193.224 126.009 193.236 126.061 193.26C126.113 193.284 126.159 193.32 126.194 193.365C126.232 193.408 126.258 193.46 126.27 193.516C126.282 193.572 126.28 193.63 126.264 193.684C126.203 193.938 126.109 194.183 125.985 194.412C125.813 194.724 125.602 195.012 125.357 195.27C124.711 195.947 123.895 196.436 122.994 196.686C122.41 196.827 121.809 196.887 121.209 196.865Z" fill="#8F3D00"/>
<path d="M132.157 196.675C131.512 196.698 130.871 196.572 130.283 196.306C129.815 196.061 129.459 195.648 129.286 195.15C129.084 194.504 129.046 193.819 129.176 193.155L129.764 189.327H128.339C128.284 189.333 128.23 189.328 128.178 189.31C128.126 189.293 128.079 189.265 128.039 189.227C128.003 189.181 127.977 189.128 127.963 189.071C127.949 189.014 127.948 188.955 127.96 188.898L128.149 187.662C128.156 187.598 128.175 187.536 128.206 187.479C128.237 187.423 128.278 187.373 128.329 187.333C128.424 187.247 128.549 187.2 128.678 187.203H130.034L130.492 184.212C130.511 184.084 130.574 183.967 130.672 183.883C130.768 183.804 130.887 183.759 131.011 183.753H132.805C132.863 183.752 132.92 183.763 132.973 183.786C133.027 183.808 133.075 183.841 133.115 183.883C133.149 183.929 133.173 183.983 133.185 184.04C133.197 184.096 133.197 184.155 133.184 184.212L132.726 187.203H135.019C135.074 187.2 135.129 187.21 135.179 187.233C135.229 187.256 135.273 187.29 135.308 187.333C135.345 187.378 135.371 187.431 135.385 187.488C135.398 187.545 135.399 187.604 135.388 187.662L135.198 188.898C135.192 188.962 135.172 189.024 135.141 189.08C135.111 189.137 135.069 189.187 135.019 189.227C134.93 189.311 134.812 189.357 134.69 189.357H132.407L131.858 192.966C131.783 193.329 131.811 193.705 131.938 194.053C132.02 194.189 132.14 194.299 132.284 194.368C132.427 194.437 132.588 194.463 132.746 194.442H134.082C134.137 194.441 134.191 194.452 134.241 194.475C134.291 194.497 134.335 194.531 134.371 194.573C134.406 194.615 134.432 194.664 134.445 194.718C134.459 194.771 134.461 194.826 134.451 194.88L134.241 196.236C134.223 196.364 134.159 196.481 134.062 196.565C133.971 196.645 133.854 196.688 133.733 196.685L132.157 196.675Z" fill="#8F3D00"/>
<path d="M136.206 196.675C136.152 196.678 136.098 196.668 136.048 196.647C135.998 196.627 135.953 196.595 135.916 196.555C135.88 196.509 135.855 196.456 135.841 196.4C135.827 196.343 135.826 196.284 135.837 196.226L137.153 187.652C137.168 187.525 137.228 187.408 137.322 187.323C137.414 187.237 137.536 187.19 137.661 187.193H139.476C139.535 187.185 139.595 187.193 139.651 187.215C139.707 187.236 139.756 187.271 139.795 187.317C139.833 187.363 139.86 187.417 139.872 187.475C139.884 187.534 139.882 187.594 139.865 187.652L138.559 196.226C138.54 196.354 138.476 196.471 138.379 196.555C138.281 196.636 138.157 196.678 138.03 196.675H136.206ZM137.821 185.707C137.766 185.708 137.712 185.697 137.662 185.674C137.612 185.652 137.568 185.619 137.532 185.578C137.496 185.532 137.47 185.479 137.456 185.422C137.442 185.365 137.441 185.306 137.452 185.249L137.681 183.783C137.7 183.655 137.763 183.539 137.861 183.454C137.949 183.368 138.066 183.318 138.19 183.314H140.104C140.164 183.313 140.224 183.325 140.279 183.349C140.334 183.373 140.383 183.409 140.423 183.454C140.461 183.499 140.488 183.552 140.502 183.609C140.516 183.666 140.516 183.726 140.503 183.783L140.284 185.249C140.265 185.379 140.197 185.497 140.094 185.578C139.993 185.661 139.866 185.707 139.735 185.707H137.821Z" fill="#8F3D00"/>
<path d="M145.079 196.864C144.232 196.899 143.39 196.724 142.626 196.356C142.024 196.053 141.548 195.549 141.28 194.93C141.01 194.239 140.921 193.491 141.021 192.756C141.021 192.517 141.081 192.238 141.131 191.929C141.181 191.62 141.221 191.351 141.27 191.111C141.429 190.319 141.771 189.575 142.268 188.938C142.74 188.318 143.36 187.828 144.072 187.512C144.876 187.16 145.748 186.99 146.625 187.013C147.448 186.98 148.267 187.151 149.008 187.512C149.615 187.817 150.1 188.32 150.384 188.938C150.675 189.623 150.775 190.374 150.673 191.111C150.659 191.385 150.629 191.658 150.583 191.929C150.533 192.238 150.483 192.517 150.424 192.756C150.274 193.539 149.958 194.28 149.496 194.93C149.037 195.554 148.421 196.045 147.712 196.356C146.883 196.718 145.984 196.892 145.079 196.864ZM145.388 194.87C145.653 194.884 145.917 194.842 146.164 194.747C146.411 194.653 146.636 194.508 146.824 194.322C147.225 193.861 147.481 193.292 147.562 192.687C147.562 192.507 147.652 192.258 147.692 191.959C147.731 191.66 147.771 191.41 147.791 191.231C147.9 190.677 147.812 190.102 147.542 189.606C147.399 189.409 147.207 189.253 146.985 189.153C146.762 189.053 146.518 189.013 146.276 189.037C146.009 189.027 145.742 189.072 145.493 189.17C145.244 189.268 145.019 189.416 144.83 189.606C144.426 190.062 144.166 190.627 144.082 191.231C144.082 191.41 144.002 191.65 143.953 191.959C143.903 192.268 143.883 192.507 143.863 192.687C143.749 193.244 143.837 193.824 144.112 194.322C144.263 194.51 144.459 194.657 144.683 194.75C144.906 194.842 145.148 194.877 145.388 194.85V194.87Z" fill="#8F3D00"/>
<path d="M152.168 196.674C152.114 196.677 152.06 196.667 152.01 196.647C151.96 196.626 151.915 196.595 151.879 196.555C151.843 196.509 151.817 196.456 151.803 196.399C151.79 196.342 151.788 196.283 151.799 196.226L153.105 187.651C153.112 187.587 153.132 187.525 153.162 187.469C153.193 187.412 153.235 187.362 153.285 187.322C153.374 187.238 153.492 187.192 153.614 187.192H155.409C155.467 187.189 155.524 187.2 155.578 187.222C155.631 187.244 155.679 187.279 155.718 187.322C155.753 187.368 155.778 187.422 155.79 187.478C155.802 187.535 155.801 187.594 155.788 187.651L155.678 188.359C156.074 187.947 156.54 187.61 157.054 187.362C157.647 187.1 158.29 186.97 158.938 186.983C159.577 186.962 160.208 187.129 160.753 187.461C161.252 187.8 161.623 188.294 161.81 188.867C162.035 189.59 162.08 190.357 161.939 191.101L161.162 196.196C161.143 196.326 161.076 196.444 160.972 196.525C160.876 196.602 160.757 196.645 160.633 196.644H158.699C158.642 196.648 158.585 196.639 158.531 196.618C158.478 196.598 158.43 196.566 158.39 196.525C158.354 196.479 158.328 196.426 158.314 196.369C158.301 196.312 158.299 196.253 158.31 196.196L159.078 191.21C159.195 190.696 159.11 190.157 158.839 189.705C158.687 189.516 158.491 189.368 158.269 189.274C158.046 189.18 157.803 189.143 157.562 189.166C157.026 189.154 156.506 189.346 156.107 189.705C155.696 190.107 155.435 190.639 155.369 191.21L154.611 196.196C154.593 196.323 154.529 196.44 154.432 196.525C154.339 196.602 154.223 196.644 154.103 196.644L152.168 196.674Z" fill="#8F3D00"/>
<path d="M160.743 52.8174C160.743 52.8174 152.637 27.3722 121.578 24.5704C90.5197 21.7687 76.3514 37.303 75.5039 51.0825C75.5039 51.0825 73.4499 69.6379 86.4716 69.6379C86.4716 69.6379 91.8159 69.7177 93.6007 67.255C93.6007 67.255 96.2329 70.1465 102.425 70.1465C108.617 70.1465 110.661 68.0227 111.508 67.1553C111.508 67.1553 113.881 69.957 119.056 70.1465C124.231 70.3359 127.112 68.7605 128.548 64.4332C129.984 60.106 129.126 57.4538 133.075 51.4714L160.743 52.8174Z" fill="#57BC57"/>
<path d="M160.743 52.8174C160.743 52.8174 152.637 27.3722 121.578 24.5704C90.5197 21.7687 76.3514 37.303 75.5039 51.0825C75.5039 51.0825 73.4499 69.6379 86.4716 69.6379C86.4716 69.6379 91.8159 69.7177 93.6007 67.255C93.6007 67.255 96.2329 70.1465 102.425 70.1465C108.617 70.1465 110.661 68.0227 111.508 67.1553C111.508 67.1553 113.881 69.957 119.056 70.1465C124.231 70.3359 127.112 68.7605 128.548 64.4332C129.984 60.106 129.126 57.4538 133.075 51.4714L160.743 52.8174Z" fill="url(#paint10_linear_164_4987)"/>
<path d="M93.442 67.2948C87.9182 60.7042 87.6192 48.0214 95.157 42.8267C95.2766 42.717 95.496 42.8267 95.4063 42.9862C91.757 49.3675 91.9663 57.1147 93.1229 64.164C93.2825 65.1943 93.4819 66.2113 93.7212 67.215C93.7297 67.2455 93.7275 67.2779 93.7152 67.307C93.7028 67.3361 93.681 67.3601 93.6532 67.3752C93.6254 67.3903 93.5933 67.3954 93.5622 67.3899C93.5311 67.3843 93.5028 67.3684 93.4819 67.3446L93.442 67.2948Z" fill="#3D7C3F"/>
<path d="M111.338 67.2057C106.163 60.0667 107.719 47.6133 115.955 43.4256C115.983 43.4166 116.013 43.4161 116.041 43.4241C116.07 43.4321 116.095 43.4483 116.114 43.4707C116.133 43.4931 116.145 43.5206 116.149 43.5498C116.152 43.5791 116.147 43.6087 116.134 43.635C115.522 44.4574 114.965 45.3201 114.469 46.2174C111.917 50.6644 111.099 55.9289 111.109 61.0139C111.132 63.0678 111.305 65.1173 111.627 67.1459C111.633 67.177 111.629 67.2092 111.614 67.2373C111.599 67.2654 111.576 67.2876 111.547 67.3004C111.518 67.3132 111.485 67.3157 111.455 67.3075C111.424 67.2994 111.397 67.2811 111.378 67.2556L111.338 67.2057Z" fill="#3D7C3F"/>
<path d="M35.9898 26.1558C34.8032 33.8931 30.4859 36.4655 28.2724 37.2831C28.2028 37.3164 28.144 37.3687 28.1028 37.4339C28.0616 37.4992 28.0398 37.5748 28.0398 37.652C28.0398 37.7292 28.0616 37.8048 28.1028 37.8701C28.144 37.9354 28.2028 37.9877 28.2724 38.021C30.4859 38.8385 34.8032 41.4209 35.9898 49.1482C36.0496 49.577 36.5282 49.577 36.5979 49.1482C37.7845 41.4209 42.0918 38.8385 44.3153 38.021C44.382 37.9851 44.4377 37.9319 44.4765 37.867C44.5154 37.802 44.5359 37.7277 44.5359 37.652C44.5359 37.5763 44.5154 37.5021 44.4765 37.4371C44.4377 37.3722 44.382 37.3189 44.3153 37.2831C42.0918 36.4655 37.7845 33.8931 36.5979 26.1558C36.5282 25.7071 36.0496 25.7071 35.9898 26.1558Z" fill="#FFC016"/>
<path d="M200.397 110.169C199.101 118.604 194.415 121.416 191.972 122.313C191.899 122.351 191.837 122.408 191.794 122.479C191.751 122.549 191.729 122.63 191.729 122.712C191.729 122.795 191.751 122.875 191.794 122.946C191.837 123.016 191.899 123.073 191.972 123.111C194.395 124.008 199.101 126.81 200.397 135.255C200.467 135.714 200.985 135.714 201.055 135.255C202.351 126.81 207.038 124.008 209.48 123.111C209.554 123.073 209.615 123.016 209.658 122.946C209.701 122.875 209.724 122.795 209.724 122.712C209.724 122.63 209.701 122.549 209.658 122.479C209.615 122.408 209.554 122.351 209.48 122.313C207.058 121.416 202.351 118.604 201.055 110.169C200.985 109.701 200.467 109.701 200.397 110.169Z" fill="#FFC016"/>
<path d="M11.0835 50.2262C9.38849 61.0444 3.40606 64.6438 0.285233 65.7904C0.198386 65.8415 0.126402 65.9144 0.0763746 66.0018C0.0263467 66.0892 0 66.1882 0 66.289C0 66.3897 0.0263467 66.4887 0.0763746 66.5762C0.126402 66.6636 0.198386 66.7365 0.285233 66.7875C3.40606 67.974 9.38849 71.5735 11.0835 82.3917C11.1732 82.9799 11.8413 82.9799 11.931 82.3917C13.5861 71.5735 19.6284 67.974 22.7293 66.8174C22.8161 66.7664 22.8881 66.6935 22.9381 66.6061C22.9881 66.5186 23.0145 66.4196 23.0145 66.3189C23.0145 66.2181 22.9881 66.1192 22.9381 66.0317C22.8881 65.9443 22.8161 65.8714 22.7293 65.8204C19.6284 64.6737 13.5861 61.0743 11.931 50.2561C11.8413 49.6379 11.1732 49.6379 11.0835 50.2262Z" fill="#FFC016"/>
<defs>
<linearGradient id="paint0_linear_164_4987" x1="251.606" y1="317.928" x2="249.473" y2="287.487" gradientUnits="userSpaceOnUse">
<stop offset="0.21" stop-color="#666666" stop-opacity="0.8"/>
<stop offset="0.43" stop-color="#757575" stop-opacity="0.67"/>
<stop offset="0.83" stop-color="#9D9D9D" stop-opacity="0.33"/>
<stop offset="1" stop-color="#B2B2B2" stop-opacity="0.15"/>
</linearGradient>
<linearGradient id="paint1_linear_164_4987" x1="315.634" y1="288.213" x2="300.062" y2="270.243" gradientUnits="userSpaceOnUse">
<stop stop-color="#257010" stop-opacity="0.6"/>
<stop offset="0.09" stop-color="#2C750F" stop-opacity="0.65"/>
<stop offset="0.24" stop-color="#3F840C" stop-opacity="0.79"/>
<stop offset="0.44" stop-color="#5E9B07"/>
<stop offset="0.63" stop-color="#74A810"/>
<stop offset="0.85" stop-color="#86B317"/>
<stop offset="1" stop-color="#8DB71A"/>
</linearGradient>
<linearGradient id="paint2_linear_164_4987" x1="311.818" y1="283.882" x2="335.467" y2="281.306" gradientUnits="userSpaceOnUse">
<stop stop-color="#257010" stop-opacity="0.6"/>
<stop offset="0.09" stop-color="#2C750F" stop-opacity="0.65"/>
<stop offset="0.24" stop-color="#3F840C" stop-opacity="0.79"/>
<stop offset="0.44" stop-color="#5E9B07"/>
<stop offset="0.63" stop-color="#74A810"/>
<stop offset="0.85" stop-color="#86B317"/>
<stop offset="1" stop-color="#8DB71A"/>
</linearGradient>
<linearGradient id="paint3_linear_164_4987" x1="301.259" y1="283.839" x2="321.37" y2="283.839" gradientUnits="userSpaceOnUse">
<stop stop-color="#2D4409"/>
<stop offset="0.42" stop-color="#4A6815"/>
<stop offset="0.77" stop-color="#5E801D"/>
<stop offset="0.99" stop-color="#658920"/>
</linearGradient>
<linearGradient id="paint4_linear_164_4987" x1="252.573" y1="304.219" x2="240.349" y2="258.573" gradientUnits="userSpaceOnUse">
<stop stop-color="#127C12" stop-opacity="0.8"/>
<stop offset="0.14" stop-color="#208821" stop-opacity="0.66"/>
<stop offset="0.52" stop-color="#44A946" stop-opacity="0.3"/>
<stop offset="0.82" stop-color="#5BBD5D" stop-opacity="0.08"/>
<stop offset="1" stop-color="#63C466" stop-opacity="0"/>
</linearGradient>
<linearGradient id="paint5_linear_164_4987" x1="163.097" y1="184.032" x2="189.38" y2="282.104" gradientUnits="userSpaceOnUse">
<stop stop-color="#FBD08D" stop-opacity="0"/>
<stop offset="0.2" stop-color="#F4C887" stop-opacity="0.04"/>
<stop offset="0.43" stop-color="#E0B277" stop-opacity="0.14"/>
<stop offset="0.66" stop-color="#BF8D5C" stop-opacity="0.32"/>
<stop offset="0.9" stop-color="#925936" stop-opacity="0.57"/>
<stop offset="1" stop-color="#7A3E23" stop-opacity="0.7"/>
</linearGradient>
<linearGradient id="paint6_linear_164_4987" x1="60.4284" y1="229.638" x2="92.0853" y2="267.367" gradientUnits="userSpaceOnUse">
<stop stop-color="#127C12" stop-opacity="0.8"/>
<stop offset="0.43" stop-color="#3A9F3B" stop-opacity="0.41"/>
<stop offset="0.8" stop-color="#58BA5A" stop-opacity="0.11"/>
<stop offset="1" stop-color="#63C466" stop-opacity="0"/>
</linearGradient>
<linearGradient id="paint7_linear_164_4987" x1="256.044" y1="150.132" x2="238.485" y2="25.1992" gradientUnits="userSpaceOnUse">
<stop offset="0.23" stop-color="#57BC57"/>
<stop offset="0.44" stop-color="#69C65D"/>
<stop offset="0.88" stop-color="#97E16C"/>
<stop offset="1" stop-color="#A6EA71"/>
</linearGradient>
<linearGradient id="paint8_linear_164_4987" x1="162.089" y1="318.666" x2="162.747" y2="281.136" gradientUnits="userSpaceOnUse">
<stop stop-color="#127C12" stop-opacity="0.8"/>
<stop offset="1" stop-color="#63C466" stop-opacity="0"/>
</linearGradient>
<linearGradient id="paint9_linear_164_4987" x1="250.483" y1="131.36" x2="311.059" y2="172.453" gradientUnits="userSpaceOnUse">
<stop stop-color="#127C12" stop-opacity="0.8"/>
<stop offset="1" stop-color="#63C466" stop-opacity="0"/>
</linearGradient>
<linearGradient id="paint10_linear_164_4987" x1="114.041" y1="74.6931" x2="122.875" y2="24.5904" gradientUnits="userSpaceOnUse">
<stop stop-color="#127C12" stop-opacity="0.8"/>
<stop offset="0.25" stop-color="#2D942E" stop-opacity="0.53"/>
<stop offset="0.57" stop-color="#4AAE4D" stop-opacity="0.24"/>
<stop offset="0.83" stop-color="#5CBE5F" stop-opacity="0.06"/>
<stop offset="1" stop-color="#63C466" stop-opacity="0"/>
</linearGradient>
</defs>
</svg>
